<?xml version="1.0" encoding="utf-8"?>
<!-- Generator: Adobe Illustrator 27.5.0, SVG Export Plug-In . SVG Version: 6.00 Build 0)  -->
<svg version="1.1" xmlns="http://www.w3.org/2000/svg" xmlns:xlink="http://www.w3.org/1999/xlink" x="0px" y="0px"
	 viewBox="0 0 750 500" style="enable-background:new 0 0 750 500;" xml:space="preserve">
<g id="BACKGROUND">
</g>
<g id="OBJECTS">
	<g>
		<path style="fill:#FAF1BA;" d="M76.436,202.344C39.808,227.028,17.86,269.582,20.028,311.71
			c2.168,42.127,28.386,82.521,67.38,103.811c29.202,15.944,63.551,21.182,97.138,24.955
			c94.568,10.623,190.336,11.919,285.194,3.861c46.19-3.924,94.282-10.824,131.772-36.32c34.139-23.217,55.438-59.16,73.377-94.859
			c18.983-37.775,35.649-77.414,39.021-119.022c3.371-41.608-8.083-85.823-39.063-115.897
			c-33.476-32.497-85.395-44.123-133.402-39.236c-48.007,4.887-92.898,24.36-134.955,46.519
			c-41.058,21.633-83.556,53.695-129.691,64.265c-43.664,10.004-88.089,15.683-131.782,25.387
			C120.715,180.573,96.838,188.594,76.436,202.344z"/>
		<path style="fill:#FFFFFF;" d="M645.187,90.045c-8.849,2.507-14.473,13.062-11.618,21.805c-7.629-3.852-17.705-2.055-23.533,4.196
			c-1.277,1.37-2.4,3.033-2.501,4.903c-0.145,2.706,1.956,5.129,4.436,6.221c2.481,1.092,5.279,1.134,7.989,1.14
			c22.291,0.046,44.584-1.195,66.732-3.715c1.943-0.221,4.001-0.499,5.517-1.734c3.536-2.882,1.827-8.751-1.221-12.145
			c-7.199-8.017-16.305-4.34-23.914-9.021C659.147,96.817,657.722,86.494,645.187,90.045z"/>
		<path style="fill:#FFFFFF;" d="M370.815,128.845c8.141-0.587,16.384,0.248,24.242,2.457c4.226,1.188,9.287,4.759,7.507,8.771
			c-1.242,2.8-4.948,3.27-8.01,3.336c-29.721,0.646-59.442,1.292-89.163,1.938c-24.599,0.535-4.644-23.598,5.54-29.952
			c11.518-7.186,31.798-15.8,44.597-9.797C364.327,109.724,370.723,119.051,370.815,128.845z"/>
		<path style="fill:#FFFFFF;" d="M521.123,46.874c-5.689,3.558-7.398,12.164-3.5,17.626c-6.36-2.424-13.675-2.228-19.895,0.535
			c-3.495,1.552-7.054,5.005-5.86,8.638c1.182,3.595,5.883,4.287,9.667,4.346c25.974,0.402,51.947,0.805,77.921,1.208
			c3.037,0.047,6.173,0.076,8.977-1.091c2.804-1.167,5.207-3.862,5.047-6.894c-0.24-4.542-5.661-6.932-10.209-6.953
			c-4.549-0.021-9.295,1.228-13.528-0.437c5.101,1.118,9.483-5.194,8.089-10.226c-1.393-5.032-6.493-8.21-11.573-9.422
			c-3.897-0.93-7.979-0.909-11.89-0.077c-4.241,0.902-7.996,4.725-11.844,5.461C534.98,51.029,529.612,41.565,521.123,46.874z"/>
		<path style="fill:#FFFFFF;" d="M187.891,187.037c9.108-2.434,19.606,3.752,21.888,12.9c3.669-3.291,7.401-6.625,11.836-8.774
			c4.435-2.149,9.746-2.993,14.307-1.126c4.561,1.867,7.948,6.921,6.885,11.734c-1.442,6.526-9.214,9.108-15.784,10.331
			c-22.535,4.195-45.508,6.026-68.423,5.455c-2.771-0.069-6.136-0.567-7.168-3.141c-3.691-9.22,17.193-3.819,21.07-7.771
			C178.969,200.048,176.602,190.055,187.891,187.037z"/>
	</g>
	<g>
		<g>
			<path style="fill:#BF5600;" d="M643.698,221.194c-5.306,2.555-11.325,4.398-17.052,3.023c-7.066-1.696-11.19-7.49-14.827-13.284
				c-4.609-7.341-9.191-14.793-12.222-22.952c-0.864-2.326-1.615-4.735-3.014-6.784c-1.399-2.049-3.608-3.728-6.089-3.77
				c-3.148-0.053-5.841,2.588-6.841,5.573c-1,2.985-0.666,6.236-0.212,9.351c2.832,19.432,8.888,43.14,25.749,55.006
				c13.467,9.478,33.093,9.061,46.145-0.98c5.205-4.004,9.456-9.533,10.88-15.944c0.992-4.465,0.703-14.947-4.909-16.656
				C656.291,212.252,647.945,219.149,643.698,221.194z"/>
			<path style="fill:none;stroke:#390334;stroke-width:1.0758;stroke-linecap:round;stroke-miterlimit:10;" d="M609.933,240.661
				c2.192-0.369,4.53-0.526,6.561,0.377c2.838,1.262,4.422,4.255,5.796,7.04"/>
			<path style="fill:#FE9D7C;" d="M604.613,183.493c0.493,0.687,0.935,1.432,1.12,2.257c0.185,0.825,0.084,1.746-0.426,2.42
				c-0.545,0.719-1.467,1.056-2.363,1.165c-2.109,0.259-4.288-0.585-5.797-2.08c-1.51-1.495-2.364-3.589-2.509-5.709
				c-0.073-1.067,0.046-2.204,0.674-3.07c1.452-2.002,3.234-0.742,4.646,0.381C601.674,180.222,603.329,181.702,604.613,183.493z"/>
		</g>
		<g>
			<g>
				<path style="fill:#1D021A;" d="M635.388,465.802c-4.684,2.202-9.796,3.293-14.752,4.785c-1.322,0.398-2.767,0.934-3.393,2.165
					c-0.699,1.375-0.026,3.139,1.164,4.121c1.19,0.981,2.765,1.343,4.291,1.571c4.284,0.639,8.643,0.453,12.971,0.265
					c6.666-0.289,13.332-0.579,19.998-0.868c2.694-0.117,5.87-0.519,7.15-2.893c0.735-1.362,0.603-3.01,0.428-4.548
					c-0.269-2.379-0.744-4.854-1.182-7.231c-0.479-2.603-1.386-5.206-3.328-7.089c-3.136-3.039-8.289-3.314-12.217-1.407
					c-2.476,1.202-4.512,3.14-6.1,5.366C638.711,462.431,638.198,464.481,635.388,465.802z"/>
				<path style="fill:none;stroke:#FFFFFF;stroke-linecap:round;stroke-miterlimit:10;" d="M649.516,465.763
					c0.346,1.064-0.231,2.427-1.323,2.671c-1.105,0.246-2.117-0.63-2.9-1.448c-2.486-2.596-4.888-5.334-7.881-7.324
					c-1.013-0.673-2.12-1.267-3.327-1.42c-1.207-0.153-2.536,0.204-3.297,1.153c-1.272,1.585-0.37,4.15,1.361,5.214
					s3.928,0.981,5.924,0.599C640.886,464.668,648.095,461.4,649.516,465.763z"/>
				<path style="fill:none;stroke:#FFFFFF;stroke-linecap:round;stroke-miterlimit:10;" d="M629.935,466.62
					c2.873,1.425,5.42,3.503,7.393,6.032"/>
				<path style="fill:none;stroke:#FFFFFF;stroke-linecap:round;stroke-miterlimit:10;" d="M624.051,468.247
					c3.162,1.476,5.701,4.238,6.906,7.513"/>
			</g>
			<path style="fill:#FE9D7C;" d="M645.32,454.979c0.045,0.264,0.09,0.527,0.135,0.791c0.21,1.229,0.451,2.525,1.267,3.468
				c1.158,1.337,3.108,1.577,4.871,1.727c1.8,0.152,3.832,0.231,5.163-0.991c1.091-1.001,1.375-2.587,1.562-4.055
				c0.377-2.941,0.616-5.898,0.718-8.861c0.101-2.924,0.061-5.896-0.75-8.706c-1.399-4.851-7.282-10.954-12.328-6.442
				c-1.792,1.603-2.669,4.034-2.869,6.43c-0.2,2.396,0.207,4.797,0.612,7.168C644.24,448.665,644.78,451.822,645.32,454.979z"/>
			<g>
				<g>
					<path style="fill:#507B7D;" d="M642.347,450.593c6.417,0.009,12.833,0.017,19.25,0.026
						c-2.552-45.596,8.706-90.704,18.125-135.455c0.531-2.525,0.958-5.456-0.782-7.412c-1.443-1.623-3.868-1.965-6.072-2.199
						c-6.716-0.713-13.429-1.517-20.154-2.141c-3.446-0.32-8.007-1.1-11.154,0.807c-7.289,4.419-4.871,22.125-5.118,29.265
						c-0.872,25.146,0.328,50.313,2.25,75.39C638.961,412.392,641.649,450.593,642.347,450.593z"/>
					<path style="fill:none;stroke:#390334;stroke-width:1.0758;stroke-linecap:round;stroke-miterlimit:10;" d="M664.259,311.961
						c-13.622,45.469-17.334,91.595-11.159,138.657"/>
				</g>
				<path style="fill:#305859;" d="M639.937,453.227c8.015,2.12,16.481,1.182,24.717,0.228c-0.348-3.112-0.696-6.223-1.045-9.335
					c-5.801-0.292-11.626-0.127-17.401,0.492c-1.63,0.175-5.849-0.053-6.879,1.486C638.902,446.734,639.504,453.112,639.937,453.227
					z"/>
			</g>
		</g>
		<g>
			<g>
				<path style="fill:#1D021A;" d="M697.422,469.97c-2.077,0.139-4.208-0.116-6.221,0.338c-2.013,0.454-3.949,1.963-3.67,3.714
					c0.285,1.787,2.577,2.763,4.612,3.284c10.753,2.755,22.549,1.361,32.931-2.275c3.532-1.237,7.328-3.131,8.105-6.305
					c0.958-3.915-3.311-9.534-6.471-12.158c-2.921-2.424-7.445-3.803-11.194-2.422c-3.23,1.189-5.103,4.042-6.493,6.786
					c-1.11,2.19-2.085,4.85-4.089,6.598C703.212,469.031,699.831,469.808,697.422,469.97z"/>
				<path style="fill:none;stroke:#FFFFFF;stroke-linecap:round;stroke-miterlimit:10;" d="M702.456,457.957
					c-1.184-0.014-2.528,0.295-3.109,1.326c-0.436,0.774-0.302,1.78,0.17,2.532c0.472,0.752,1.234,1.281,2.035,1.665
					c4.659,2.237,10.248,0.01,15.33,0.949c1.378,0.255,2.932,0.999,3.114,2.388c0.161,1.226-0.951,2.353-2.171,2.556
					c-1.22,0.203-2.455-0.313-3.471-1.017c-1.147-0.795-2.37-1.975-2.934-3.279c-0.532-1.229-0.546-2.264-1.436-3.385
					C708.195,459.438,705.34,457.99,702.456,457.957z"/>
				<path style="fill:none;stroke:#FFFFFF;stroke-linecap:round;stroke-miterlimit:10;" d="M703.222,467.316
					c2.515,0.524,4.715,2.37,5.668,4.756"/>
				<path style="fill:none;stroke:#FFFFFF;stroke-linecap:round;stroke-miterlimit:10;" d="M696.781,468.498
					c2.346,1.298,4.255,3.37,5.356,5.815"/>
			</g>
			<path style="fill:#FE9D7C;" d="M713.851,459.078c0.567,1.034,1.19,2.124,2.233,2.675c1.042,0.55,2.326,0.445,3.428,0.031
				c1.439-0.54,2.681-1.589,3.455-2.917c1.621-2.781,1.063-6.301,0.082-9.367c-0.951-2.972-2.254-5.831-3.872-8.498
				c-0.966-1.592-2.091-3.161-3.682-4.127c-2.497-1.516-5.976-1.178-8.135,0.79c-1.401,1.277-2.166,3.167-2.187,5.049
				c-0.021,1.801,0.64,2.66,1.699,3.968C709.752,450.239,711.65,455.065,713.851,459.078z"/>
			<g>
				<path style="fill:#6AA4A6;" d="M701.405,445.264c1.251,2.238,2.527,4.462,3.829,6.671c0.66,1.121,1.413,2.313,2.627,2.781
					c1.403,0.541,2.966-0.054,4.332-0.684c4.393-2.028,8.578-4.504,12.472-7.376c-0.885,0.656-10.698-25.254-11.39-27.467
					c-3.178-10.156-5.671-20.526-7.465-31.016c-3.587-20.977-4.375-42.439-2.229-63.616c0.459-4.529,0.964-9.455-1.455-13.311
					c-3.284-5.234-10.366-6.216-16.529-6.671c-5.746-0.424-11.982-1.629-17.727-1.312c-6.278,0.346-5.361,3.049-5.007,8.932
					c0.691,11.46,1.978,22.883,3.85,34.21c3.053,18.47,7.214,36.907,13.892,54.374C686.455,416.083,693.412,430.963,701.405,445.264
					z"/>
				<path style="fill:none;stroke:#390334;stroke-width:1.0758;stroke-linecap:round;stroke-miterlimit:10;" d="M687.797,318.329
					c-0.867,46.138,9.752,91.366,29.692,132.981"/>
				<path style="fill:#305859;" d="M707.47,456.767c1.267,0.193,2.526-0.303,3.707-0.8c4.278-1.799,8.499-3.733,12.654-5.798
					c1.149-0.571,2.412-1.294,2.726-2.538c0.252-0.999-0.196-2.027-0.634-2.96c-0.883-1.882-1.766-3.765-2.649-5.647
					c-5.273,2.922-10.546,5.845-15.819,8.767c-1.62,0.898-5.347,1.984-4.793,4.272C703.07,453.75,705.572,456.767,707.47,456.767z"
					/>
			</g>
		</g>
		<path style="fill:#CD1B4D;" d="M668.415,212.409c-6.053,0.584-12.117,2.697-16.276,6.779c-6.166,6.052-7.085,15.159-6.331,23.419
			c1.039,11.384,2.413,21.898,0.712,33.331c-0.824,5.537-2.082,11.02-3.761,16.392c-0.419,1.342-5.301,15.524-6.082,15.312
			c8.871,2.402,17.275,4.208,26.524,4.916c10.432,1.304,21.057,0.188,31.479,0.542c-3.644-13.422-4.272-27.63-1.986-41.34
			c1.143-6.856,3.018-13.589,5.604-20.042c2.572-6.417,3.838-12.225,2.36-19.242c-1.274-6.049-4.976-15.046-11.067-18.428
			c-2.143-1.19-4.509-0.922-6.912-1.087C677.879,212.633,673.25,211.943,668.415,212.409z"/>
		<g>
			<path style="fill:#FF7300;" d="M647.076,206.07c6.543,6.479,10.628,15.384,11.272,24.57c2.335-1.211,3.058-4.163,3.384-6.773
				c0.325-2.61,0.644-5.523,2.649-7.225c0.914-0.776,2.077-1.193,3.059-1.881c2.67-1.868,3.598-5.737,2.317-8.734
				c-1.281-2.997-4.501-4.965-7.76-5.037c-3.162-0.07-5.042,1.57-7.591,3.055C652.29,205.277,649.429,205.508,647.076,206.07z"/>
			<path style="fill:#FF7300;" d="M667.194,211.852c-0.354-0.202-0.88-0.302-1.61-0.277c-1.562,0.054-3.058,0.197-4.561,0.656
				c-2.978,0.909-5.591,2.721-7.784,4.9c-4.936,4.902-8.05,11.563-10.127,18.118c-1.53,4.828-2.621,9.938-2.671,15.02
				c-0.107,11.058,3.58,21.993,2.618,33.009c-1.139,13.057-8.657,24.739-11.059,37.623c-0.292,1.567-0.5,3.229,0.067,4.718
				c2.271,5.967,20.495,7.673,25.932,8.066c-1.159-0.084-0.958-30.495-0.976-32.953c-0.09-11.955-0.678-23.907-1.764-35.813
				c-0.416-4.558-0.904-9.116-1.017-13.695c-0.112-4.532,0.567-8.033,2.05-12.295c2.851-8.195,6.43-16.136,10.683-23.699
				C667.86,213.656,668.136,212.39,667.194,211.852z"/>
			<path style="fill:none;stroke:#390334;stroke-width:1.0758;stroke-linecap:round;stroke-miterlimit:10;" d="M654.554,216.443
				c3.081,4.584,4.526,10.243,4.021,15.742"/>
		</g>
		<g>
			<path style="fill:#FE9D7C;" d="M687.527,220.461c-6.959,1.648-14.246,1.895-21.301,0.724c-0.137-5.283-0.013-10.606,1.035-15.785
				c1.048-5.179,3.061-10.236,6.39-14.34c3.162-3.898,10.085-6.822,13.276-1.11c1.056,1.89,0.725,4.489,0.715,6.557
				c-0.018,3.758-0.036,7.515-0.055,11.273C687.568,212.007,687.547,216.234,687.527,220.461z"/>
			<path style="fill:#CD1B4D;" d="M673.72,205.343c2.413-0.786,4.632-2.083,6.704-3.549c-0.748,3.347-2.575,6.443-5.142,8.717
				c-2.567,2.274-5.861,3.714-9.274,4.053c0.009-0.001-0.164-7.58,0.311-8.317c0.445-0.69,2.498-0.11,3.379-0.15
				C671.064,206.036,672.42,205.766,673.72,205.343z"/>
		</g>
		<g>
			<g>
				<g>
					<path style="fill:#390334;" d="M698.6,166.391c-0.082,4.36,2.469,8.809,6.518,10.428c3.265,1.306,7.157,0.66,10.023-1.378
						c2.866-2.038,4.715-5.344,5.286-8.814c0.571-3.47-0.074-7.079-1.499-10.294c-0.52-1.173-1.169-2.334-2.18-3.123
						c-1.572-1.228-3.751-1.352-5.722-1.046C704.25,153.217,698.732,159.42,698.6,166.391z"/>
					<path style="fill:none;stroke:#FFFFFF;stroke-linecap:round;stroke-miterlimit:10;" d="M713.224,152.769
						c-1.197,3.416-2.009,7.072-1.452,10.648c0.557,3.576,2.698,7.062,6.038,8.456"/>
					<path style="fill:none;stroke:#FFFFFF;stroke-linecap:round;stroke-miterlimit:10;" d="M706.749,154.117
						c-1.777,5.839-1.339,12.324,1.208,17.871c0.841,1.831,2.295,3.791,4.309,3.712"/>
				</g>
				<path style="fill:#FF7300;" d="M699.65,166.276c0.515-0.183,1.082-0.351,1.598-0.17c0.609,0.213,0.955,0.838,1.247,1.413
					c0.836,1.649,1.672,3.298,2.508,4.947c0.344,0.679,0.698,1.425,0.545,2.171c-0.213,1.038-1.292,1.622-2.254,2.067
					c-2.704,1.248-5.407,2.497-8.11,3.745c-1.016,0.469-2.772-8.841-2.555-9.841C693.127,168.316,697.737,166.955,699.65,166.276z"
					/>
			</g>
			<g>
				<path style="fill:#390334;" d="M693.42,196.52c-2.384,2.298-5.213,4.57-9.032,4.939c-4.301,0.416-9.061-1.902-11.451-5.194
					c-2.389-3.292-2.528-7.32-0.863-10.489s4.974-5.515,8.816-6.907c3.163-1.146,6.844-1.687,10.46-0.912
					c4.281,0.917,8.191,3.859,8.272,8.574C699.694,190.684,696.185,193.855,693.42,196.52z"/>
				<path style="fill:#390334;" d="M679.389,171.45c-3.032-5.764-10.124-9.435-16.599-9.064c-3.699,0.212-7.631,1.783-10.611,3.936
					c-4.083,2.95-6.99,7.592-7.501,12.602c-0.511,5.011,1.51,10.292,5.463,13.414c4.86,3.839,11.722,4.022,17.767,2.673
					c3.138-0.7,6.287-1.817,8.662-3.983c1.898-1.73,3.198-4.052,3.95-6.507C681.832,180.23,681.477,175.421,679.389,171.45z"/>
				<path style="fill:none;stroke:#FFFFFF;stroke-linecap:round;stroke-miterlimit:10;" d="M651.144,166.738
					c0.854,6.065-1.662,12.495-6.404,16.371"/>
			</g>
			<path style="fill:#FE9D7C;" d="M656.11,170.883c-3.441,4.686-4.363,10.525-5.109,16.512c-0.886,7.105,1.444,15.76,7.436,20.181
				c5.656,4.172,13.952,3.797,19.785-0.125c9.74-6.549,11.187-19.219,8.767-29.835c-0.895-3.925-2.676-7.758-5.674-10.445
				c-5.722-5.129-15.129-4.833-21.282-0.229C658.446,168.13,657.161,169.453,656.11,170.883z"/>
			<g>
				<path style="fill:#390334;" d="M660.588,175.153c6.023,10.684,18.099,17.668,30.364,17.561c1.918-0.017,3.954-0.238,5.472-1.41
					c1.982-1.53,2.563-4.265,2.625-6.768c0.17-6.88-2.636-13.731-7.378-18.718c-4.743-4.987-11.333-8.107-18.168-8.906
					c-3.214-0.376-6.56-0.241-9.548,1.002C656.151,161.161,657.015,168.817,660.588,175.153z"/>
				<path style="fill:none;stroke:#FFFFFF;stroke-linecap:round;stroke-miterlimit:10;" d="M666.279,157.434
					c-1.525,3.344-1.778,7.197-1.012,10.792c0.767,3.594,2.515,6.936,4.784,9.827c2.122,2.703,4.711,5.044,7.642,6.838
					c6.098,3.732,13.673,4.973,20.643,3.381"/>
				<path style="fill:none;stroke:#FFFFFF;stroke-linecap:round;stroke-miterlimit:10;" d="M677.388,157.272
					c-0.584,6.15,0.983,12.631,4.973,17.347c3.99,4.717,10.536,7.381,16.566,6.037"/>
			</g>
			<g>
				<path style="fill:#FE9D7C;" d="M690.209,198.611c-0.58,0.736-1.241,1.434-2.068,1.876c-0.827,0.442-1.845,0.6-2.71,0.238
					c-3.919-1.641-2.245-11.003-0.797-14.081c0.823-1.75,2.498-2.752,4.344-3.198c3.704-0.894,4.708,2.052,4.696,5.184
					C693.661,192.214,692.431,195.794,690.209,198.611z"/>
				<path style="fill:none;stroke:#390334;stroke-width:1.0758;stroke-linecap:round;stroke-miterlimit:10;" d="M687.665,188.39
					c0.153-0.729,1.034-1.146,1.752-0.95c0.718,0.196,1.236,0.863,1.437,1.579c0.201,0.717,0.134,1.48,0.017,2.215
					c-0.204,1.284-0.56,2.551-1.148,3.711c-0.377,0.742-0.891,1.475-1.658,1.796c-0.768,0.322-1.824,0.056-2.114-0.724"/>
			</g>
			<g>
				<path style="fill:#390334;" d="M664.307,188.977c0.023,0.328,0.11,0.708,0.411,0.842c0.198,0.088,0.437,0.034,0.618-0.085
					c0.181-0.119,0.317-0.295,0.446-0.469c0.359-0.484,0.709-0.997,0.836-1.586c0.126-0.589-0.021-1.274-0.504-1.634
					C664.443,184.803,664.249,188.134,664.307,188.977z"/>
				<path style="fill:#390334;" d="M653.029,187.589c-0.016,0.311-0.001,0.631,0.117,0.919c0.118,0.288,0.355,0.541,0.659,0.613
					c0.422,0.1,0.849-0.167,1.133-0.494c0.612-0.704,0.799-1.752,0.469-2.624c-0.165-0.436-0.483-0.849-0.933-0.972
					C653.272,184.702,653.068,186.826,653.029,187.589z"/>
				<path style="fill:none;stroke:#390334;stroke-width:1.0758;stroke-linecap:round;stroke-miterlimit:10;" d="M661.683,183.564
					c0.814-0.896,2.07-1.369,3.273-1.235c1.203,0.135,2.323,0.874,2.919,1.928"/>
				<path style="fill:none;stroke:#390334;stroke-width:1.0758;stroke-linecap:round;stroke-miterlimit:10;" d="M652.073,182.66
					c0.421-0.877,1.445-1.377,2.416-1.313c0.971,0.064,1.865,0.625,2.476,1.382c0.27,0.334,0.495,0.716,0.583,1.136"/>
				<path style="fill:#CD1B4D;" d="M656.183,191.781c-0.452,0.402-0.948,0.762-1.338,1.224c-0.39,0.462-0.673,1.059-0.596,1.66
					c0.091,0.707,0.68,1.283,1.357,1.504c0.677,0.222,1.422,0.137,2.101-0.078c1.648-0.521,3.009-1.791,3.807-3.324
					c0.799-1.533,1.064-3.309,0.937-5.033c-0.044-0.593-0.138-1.199-0.432-1.715c-0.295-0.517-0.826-0.931-1.42-0.944
					c-1.485-0.031-1.513,1.841-1.844,2.817C658.247,189.378,657.358,190.737,656.183,191.781z"/>
				<path style="fill:#CD1B4D;" d="M671.927,195.406c-0.045,1.416,0.769,2.904,2.111,3.357c0.94,0.317,2.012,0.093,2.837-0.457
					c1.237-0.825,1.942-2.384,1.743-3.857c-0.199-1.474-1.291-2.79-2.702-3.258C673.632,190.433,671.988,193.485,671.927,195.406z"
					/>
				<path style="fill:#CD1B4D;" d="M647.752,196.038c-0.3,1.149-0.102,2.449,0.644,3.373c0.746,0.924,2.059,1.396,3.188,1.029
					c1.344-0.436,2.126-1.873,2.36-3.266c0.136-0.811,0.12-1.693-0.307-2.396c-0.354-0.582-0.957-0.979-1.597-1.213
					c-0.73-0.267-1.802-0.6-2.525-0.185C648.651,193.878,647.994,195.112,647.752,196.038z"/>
				<path style="fill:#FFFFFF;" d="M658.297,205.003c5.456,0.363,10.964-3.025,13.101-8.059c-4.412,2.657-10.206,2.849-14.784,0.49
					C658.562,199.354,659.213,202.426,658.297,205.003z"/>
			</g>
		</g>
		<g>
			<path style="fill:#FF7300;" d="M677.824,220.989c-1.562,3.092-2.81,6.405-3.821,8.988c-5.771,14.741-7.13,30.843-7.06,46.673
				c0.043,9.699,0.601,19.384,0.922,29.076c0.163,4.931,0.271,9.866,0.215,14.8c-0.049,4.386-1.352,8.809-2.165,13.143
				c8.295,1.05,16.565,1.012,24.868,1.655c7.27,0.563,13.604,1.064,19.874-3.639c-6.87-15.107-13.9-31.094-12.344-47.617
				c1.069-11.353,6.133-21.912,8.746-33.012c2.815-11.957,1.913-29.543-9.972-36.561c-3.512-2.073-10.261-3.807-13.8-0.987
				C681.128,215.231,679.329,218.007,677.824,220.989z"/>
			<path style="fill:#FF7300;" d="M674.802,201.293c1.076,8.593,0.903,19.318-0.509,27.939c5.21-6.469,10.281-12.472,16.855-14.719
				c-0.704-2.353-1.08-4.835-1.116-7.334c-0.023-1.589,0.643-4.151-0.781-5.153C687.934,201.099,674.92,202.229,674.802,201.293z"/>
			<path style="fill:none;stroke:#390334;stroke-width:1.0758;stroke-linecap:round;stroke-miterlimit:10;" d="M690.833,212.706
				c-4.507,3.694-9.767,6.464-15.362,8.09"/>
		</g>
		<path style="fill:#FE9D7C;" d="M599.889,276.622c0.614,1.344,0.92,2.879,0.561,4.313c-0.358,1.434-1.473,2.725-2.921,3.023
			c-1.662,0.342-3.354-0.662-4.391-2.004c-1.549-2.005-1.966-4.83-1.06-7.197c0.413-1.08,1.134-2.104,2.192-2.57
			C596.96,271.001,598.992,274.658,599.889,276.622z"/>
	</g>
	<g>
		<path style="fill:#1D021A;" d="M502.684,184.092c2.561-0.287,5.122-0.573,7.683-0.86c1.259-10.63,1.256-21.352-0.008-31.981
			c-3.434-0.015-6.413-0.692-7.028,2.427c-0.637,3.231-0.379,6.735-0.493,10.002C502.779,165.408,502.893,184.072,502.684,184.092z"
			/>
		<g>
			<path style="fill:#CD1B4D;" d="M435.729,155.422c45.201-0.431,90.401-0.862,135.602-1.293
				c0.785-19.765,0.818-39.139,0.159-58.903c-0.031-0.92-0.079-1.897-0.598-2.657c-0.923-1.352-2.849-1.435-4.485-1.381
				c-42.917,1.404-85.878,1.462-128.799,0.176C434.314,112.636,435.804,134.017,435.729,155.422z"/>
			<g>
				<path style="fill:none;stroke:#FFFFFF;stroke-width:5;stroke-linecap:round;stroke-linejoin:round;stroke-miterlimit:10;" d="
					M461.822,107.566c1.109-3.193-1.293-6.922-4.555-7.813c-3.261-0.89-6.863,0.675-9.012,3.284
					c-2.149,2.609-3.017,6.077-3.122,9.456c-0.106,3.394,0.75,7.202,3.606,9.038c2.331,1.498,5.341,1.276,7.993,2.076
					c4.288,1.293,7.511,5.687,7.184,10.153c-0.327,4.467-4.381,8.427-8.86,8.39c-4.479-0.037-8.543-4.318-8.102-8.775"/>
				<path style="fill:none;stroke:#FFFFFF;stroke-width:5;stroke-linecap:round;stroke-linejoin:round;stroke-miterlimit:10;" d="
					M476.029,141.998c-2.394-11.484-1.103-23.877,3.589-34.444c1.016-2.289,2.232-4.553,4.058-6.096
					c1.826-1.543,4.384-2.232,6.457-1.144c2.824,1.482,3.698,5.416,4.184,8.853c1.461,10.346,2.389,20.785,2.778,31.25"/>
				<path style="fill:none;stroke:#FFFFFF;stroke-width:5;stroke-linecap:round;stroke-linejoin:round;stroke-miterlimit:10;" d="
					M511.76,100.23c-0.068,13.512,0.165,27.025,0.698,40.527c6.356-0.86,12.828-0.861,19.184-0.001"/>
				<path style="fill:none;stroke:#FFFFFF;stroke-width:5;stroke-linecap:round;stroke-linejoin:round;stroke-miterlimit:10;" d="
					M561.185,139.766c-6.668,0.744-13.335,1.488-20.003,2.232c-0.468-13.354-0.936-26.708-1.404-40.062
					c6.764,0.661,13.149,0.495,19.937,0.168"/>
				<path style="fill:none;stroke:#FFFFFF;stroke-width:5;stroke-linecap:round;stroke-linejoin:round;stroke-miterlimit:10;" d="
					M475.724,123.863c6.852-0.312,13.703-0.624,20.555-0.937"/>
				<path style="fill:none;stroke:#FFFFFF;stroke-width:5;stroke-linecap:round;stroke-linejoin:round;stroke-miterlimit:10;" d="
					M559.078,121.053c-5.645,0.086-11.29,0.172-16.934,0.258"/>
			</g>
		</g>
	</g>
	<g>
		<path style="fill:#1D021A;" d="M211.486,474.224h-13.324V27.288c0-3.679,2.983-6.662,6.662-6.662l0,0
			c3.679,0,6.662,2.983,6.662,6.662V474.224z"/>
		<g>
			<path style="fill:#305859;" d="M308.098,98.989c31.583-6.531,63.193-12.932,94.833-19.185
				c-13.852-20.069-36.934-33.946-60.368-40.69s-48.134-7.649-72.517-7.331c-15.06,0.197-30.217,0.877-45.263,2.361
				c13.71,2.199,27.351,8.558,39.029,15.957C282.575,61.991,297.112,79.648,308.098,98.989z"/>
			<path style="fill:#6AA4A6;" d="M190.718,39.087c-19.607,3.865-38.74,9.601-56.907,17.995
				c-42.244,19.521-79.368,55.004-90.758,100.124c15.783-3.672,31.576-7.304,47.375-10.906
				C106.976,98.706,144.409,58.862,190.718,39.087z"/>
			<path style="fill:#6AA4A6;" d="M263.811,50.102c-11.678-7.399-25.319-13.758-39.029-15.957
				c-9.356,0.923-18.668,2.158-27.888,3.787c1.931,27.612,7.936,54.933,17.771,80.807c31.116-6.717,62.26-13.303,93.433-19.75
				C297.112,79.648,282.575,61.991,263.811,50.102z"/>
			<path style="fill:#305859;" d="M190.718,39.087c-46.309,19.776-83.743,59.62-100.29,107.213
				c41.358-9.429,82.772-18.611,124.237-27.561c-9.835-25.873-15.84-53.195-17.771-80.807
				C194.831,38.297,192.772,38.682,190.718,39.087z"/>
		</g>
	</g>
	<g>
		<g>
			<path style="fill:#9A143A;" d="M309.113,169.873c-2.678-2.481-5.068-5.369-8.262-7.139c-3.194-1.769-7.584-2.103-10.212,0.431
				c-3.027,2.918-2.285,7.991-0.443,11.77c3.345,6.862,9.439,12.102,16.215,15.618c6.776,3.517,14.249,5.456,21.71,7.075
				c12.772,2.772,26.036,4.684,38.87,2.213c5.863-1.129,12.027-3.547,14.992-8.729c1.169-2.042,1.667-4.826,0.138-6.615
				c-1.501-1.755-4.177-1.743-6.473-1.5c-6.057,0.64-12.047,1.88-18.124,2.29c-13.761,0.93-27.692-2.491-39.335-9.861
				C315.105,173.474,311.859,172.415,309.113,169.873z"/>
			<g>
				<path style="fill:#390334;" d="M343.345,175.704c-4.331-2.914-9.322-4.753-14.448-5.662c-4.799-0.851-9.258-1.232-13.098,2.35
					c-2.369,2.209-3.877,5.197-4.932,8.259c-1.302,3.781-1.975,7.775-2.005,11.773c-0.028,3.739,0.784,7.361,1.041,11.073
					c0.32,4.636-0.161,9.54-2.722,13.419c-1.574,2.383-3.919,4.38-4.602,7.153c-0.562,2.282,0.148,4.749,1.501,6.671
					c1.353,1.922,3.292,3.359,5.329,4.531c6.752,3.885,14.767,5.125,22.551,4.835c7.784-0.29,15.434-2.026,23.029-3.755
					c4.341-0.988,9.208-2.365,11.267-6.313c1.969-3.776,0.508-8.456-1.741-12.072c-1.622-2.608-3.602-4.985-5.214-7.588
					c-1.523-2.459-1.806-5.502-1.742-8.33c0.076-3.384,0.584-6.815-0.135-10.122c-0.663-3.049-2.344-5.802-4.401-8.148
					C350.218,180.579,346.84,178.055,343.345,175.704z"/>
				<path style="fill:none;stroke:#FFFFFF;stroke-linecap:round;stroke-miterlimit:10;" d="M316.985,193.181
					c0.447,12.362-2.029,24.821-7.169,36.072"/>
				<path style="fill:none;stroke:#FFFFFF;stroke-linecap:round;stroke-miterlimit:10;" d="M347.738,192.656
					c0.054,11.593,4.262,23.124,11.687,32.028"/>
			</g>
		</g>
		<g>
			<g>
				<path style="fill:#6AA4A6;" d="M304.826,229.77c-4.492,3.845-8.145,8.558-12.252,12.813c-4.107,4.254-8.871,8.161-14.569,9.741
					c-6.569,1.822-13.602,0.347-20.051-1.86s-12.697-5.153-19.405-6.371c-1.266-0.23-2.636-0.383-3.787,0.193
					c-2.277,1.14-2.417,4.396-1.568,6.796c2.142,6.053,8.003,9.85,13.485,13.195c6.948,4.239,14.026,8.534,21.907,10.566
					c15.932,4.108,33.243-1.82,45.918-12.311c5.821-4.818,11.011-10.828,13.058-18.102c1.821-6.471,0.749-15.161-4.572-19.852
					C317.897,220.088,308.854,226.322,304.826,229.77z"/>
				<path style="fill:none;stroke:#390334;stroke-linecap:round;stroke-miterlimit:10;" d="M245.443,245.769
					c2.747,4.659,2.527,10.903-0.542,15.356"/>
				<path style="fill:none;stroke:#390334;stroke-linecap:round;stroke-miterlimit:10;" d="M276.609,271.414
					c3.698-2.406,8.96-2.073,12.326,0.779"/>
				<path style="fill:none;stroke:#390334;stroke-linecap:round;stroke-miterlimit:10;" d="M296.936,249.906
					c0.143,1,0.286,2,0.429,3"/>
				<path style="fill:none;stroke:#390334;stroke-linecap:round;stroke-miterlimit:10;" d="M251.936,261.335
					c0.714,0.905,1.429,1.81,2.143,2.714"/>
				<path style="fill:none;stroke:#390334;stroke-linecap:round;stroke-miterlimit:10;" d="M259.508,256.335
					c0.762-0.381,1.524-0.762,2.286-1.143"/>
				<path style="fill:none;stroke:#390334;stroke-linecap:round;stroke-miterlimit:10;" d="M267.079,265.763
					c0,0.619,0,1.238,0,1.857"/>
				<path style="fill:none;stroke:#390334;stroke-linecap:round;stroke-miterlimit:10;" d="M276.793,260.62
					c1.571-0.143,3.143-0.286,4.714-0.428"/>
				<path style="fill:none;stroke:#390334;stroke-linecap:round;stroke-miterlimit:10;" d="M305.079,234.62
					c0.949-0.041,1.908,0.212,2.714,0.714"/>
				<path style="fill:none;stroke:#390334;stroke-linecap:round;stroke-miterlimit:10;" d="M295.498,263.454
					c1.001-0.427,2.001-0.854,3.002-1.281"/>
				<path style="fill:none;stroke:#390334;stroke-linecap:round;stroke-miterlimit:10;" d="M287.079,253.049
					c0.956,0.734,1.706,1.734,2.143,2.857"/>
			</g>
			<g>
				<path style="fill:#FE9D7C;" d="M231.25,261.015c3.757-0.366,6.986-1.513,9.599-4.342c1.263-1.368,2.193-3.118,2.264-4.978
					c0.094-2.467-1.37-4.83-3.409-6.22c-2.04-1.39-4.576-1.903-7.044-1.883c-5.084,0.041-10.754,1.007-15.423,3.032
					c-1.949,0.846-3.873,1.916-5.2,3.575s-1.947,4.02-1.087,5.964c1.039,2.35,3.775,3.383,6.28,3.956
					C221.815,261.168,226.569,261.471,231.25,261.015z"/>
				<path style="fill:none;stroke:#390334;stroke-width:1.1699;stroke-linecap:round;stroke-miterlimit:10;" d="M223.076,244.97
					c-3.446,1.437-6.045,4.739-6.634,8.426"/>
				<path style="fill:none;stroke:#390334;stroke-width:1.1699;stroke-linecap:round;stroke-miterlimit:10;" d="M212.943,255.158
					c-0.657-1.489-0.743-3.222-0.237-4.769c0.506-1.547,1.601-2.893,3.011-3.706"/>
				<path style="fill:none;stroke:#390334;stroke-width:1.1699;stroke-linecap:round;stroke-miterlimit:10;" d="M232.308,248.753
					c-2.505,0.441-4.949,1.22-7.247,2.309c-0.992,0.47-2.064,1.139-2.254,2.221c-0.161,0.922,0.419,1.848,1.199,2.366
					c0.779,0.518,1.725,0.709,2.647,0.87c5.136,0.896,10.686,1.124,15.295-1.312"/>
			</g>
		</g>
		<g>
			<g>
				<path style="fill:#FE9D7C;" d="M303.055,456.514c0.367,4.069,1.936,9.289,6.021,9.362c3.933,0.07,5.778-4.756,6.517-8.62
					c4.362-22.822,8.723-45.643,13.085-68.465c3.522-18.428,7.053-36.928,7.967-55.667c0.294-6.019,0.298-12.175-1.558-17.908
					c-3.152-9.735-13.49-17.873-23.73-12.057c-7.747,4.401-6.486,18.519-7.293,26.128c-2.85,26.88-4.025,53.938-3.52,80.965
					C300.832,425.697,301.669,441.13,303.055,456.514z"/>
				<path style="fill:#1D021A;" d="M280.941,469.955c-1.2,0.399-2.468,0.786-3.357,1.685c-0.89,0.899-1.217,2.5-0.333,3.405
					c0.618,0.634,1.588,0.728,2.471,0.786c12.896,0.833,26.077,1.64,38.536-1.791c0.357-2.449,0.715-4.912,0.646-7.386
					c-0.069-2.474-0.587-4.983-1.87-7.099c-0.388-0.639-0.909-1.282-1.641-1.428c-1.68-0.337-2.684,1.991-4.334,2.453
					c-1.224,0.343-2.478-0.432-3.391-1.317c-0.913-0.884-1.73-1.949-2.913-2.413c-2.232-0.874-3.581,0.858-5.023,2.191
					c-1.78,1.646-3.739,3.128-5.746,4.484C289.957,466.248,285.557,468.422,280.941,469.955z"/>
			</g>
			<g>
				<path style="fill:#FE9D7C;" d="M356.056,454.091c1.103,3.564,2.932,7.763,6.638,8.185c3.152,0.359,5.918-2.54,6.602-5.639
					c0.684-3.098-0.153-6.304-0.927-9.382c-9.089-36.156-9.957-73.826-9.789-111.107c0.026-5.871,0.063-11.845-1.625-17.468
					c-1.688-5.622-5.4-10.946-10.865-13.091c-23.417-9.192-16.01,34.18-14.857,44.959c2.398,22.418,7.553,44.443,13.625,66.122
					C348.37,429.209,352.206,441.653,356.056,454.091z"/>
				<g>
					<path style="fill:#1D021A;" d="M335.733,471.335c-1.482,0.515-3.263,1.301-3.372,2.867c-0.056,0.802,0.401,1.577,1.029,2.078
						c0.629,0.502,1.41,0.769,2.19,0.968c2.713,0.692,5.555,0.655,8.351,0.493c4.414-0.257,8.804-0.814,13.19-1.37
						c3.78-0.48,7.726-1.676,11.056-3.541c1.655-0.927,3.207-2.04,4.614-3.313c0.432-0.391,3.766-3.406,3.503-3.922
						c-1.591-3.118-3.183-6.235-4.775-9.353c-0.551-1.079-1.332-2.31-2.544-2.327c-1.106-0.016-1.904,0.997-2.625,1.836
						c-1.1,1.279-3.134,1.817-4.77,1.354c-1.217-0.344-2.289-1.252-3.554-1.244c-1.156,0.007-2.187,0.813-2.784,1.802
						c-0.909,1.506-0.822,2.86-2.22,4.038c-1.665,1.404-3.479,2.661-5.314,3.831C343.959,467.922,339.932,469.876,335.733,471.335z"
						/>
					<path style="fill:none;stroke:#FFFFFF;stroke-linecap:round;stroke-miterlimit:10;" d="M362.578,459.783
						c0.563,0.647,0.572,1.773-0.112,2.291c-0.575,0.435-1.416,0.324-2.04-0.038c-0.624-0.362-1.096-0.93-1.614-1.431
						c-1.818-1.757-4.349-2.754-6.877-2.708c-0.374,0.007-0.779,0.048-1.052,0.302c-0.343,0.319-0.354,0.887-0.132,1.299
						c0.222,0.413,0.625,0.695,1.037,0.919c1.61,0.873,4.403,1.309,5.963,0.086c0.744-0.584,1.159-1.142,2.164-1.374
						C360.835,458.917,361.923,459.031,362.578,459.783z"/>
					<path style="fill:none;stroke:#FFFFFF;stroke-linecap:round;stroke-miterlimit:10;" d="M348.608,463.22
						c2.857,0.789,5.372,2.751,6.832,5.331"/>
					<path style="fill:none;stroke:#FFFFFF;stroke-linecap:round;stroke-miterlimit:10;" d="M342.234,466.165
						c2.372,1.242,4.245,3.408,5.132,5.934"/>
				</g>
			</g>
			<g>
				<path style="fill:#CD1B4D;" d="M283.748,427.956c-0.316,3.419-0.504,7.243,1.708,9.869c2.045,2.428,5.484,3.031,8.631,3.446
					c26.122,3.45,52.522,4.79,78.858,4.005c3.838-0.115,8.308-0.626,10.31-3.902c1.243-2.035,1.139-4.587,0.968-6.965
					c-2.57-35.839-11.054-70.956-19.507-105.878c-1.796-7.421-3.702-15.078-8.328-21.153c-5.628-7.39-14.906-11.574-24.188-11.936
					c-15.657-0.61-33.069,10.145-35.356,26.245c-3.188,22.443-6.453,44.86-9.053,67.383
					C286.297,402.015,284.949,414.979,283.748,427.956z"/>
				<path style="fill:none;stroke:#390334;stroke-linecap:round;stroke-miterlimit:10;" d="M350.651,313.227
					c10.297,41.822,18.967,88.396,20.593,132.095"/>
				<path style="fill:none;stroke:#390334;stroke-linecap:round;stroke-miterlimit:10;" d="M320.936,314.813
					c-6.509,38.814-9.409,86.092-8.857,128.284"/>
				<path style="fill:none;stroke:#390334;stroke-linecap:round;stroke-miterlimit:10;" d="M309.855,312.699
					c-7.33,42.475-13.085,85.221-17.251,128.122"/>
				<path style="fill:none;stroke:#390334;stroke-linecap:round;stroke-miterlimit:10;" d="M336.868,314.625
					c2.608,43.579,3.363,87.27,2.264,130.913"/>
			</g>
		</g>
		<g>
			<path style="fill:#6AA4A6;" d="M307.248,244.753c0.347-4.723,1.636-9.347,4.008-13.437c2.49-4.293,6.227-7.891,10.645-10.161
				c4.604-2.366,8.868-2.247,13.847-2.402c6.241-0.194,12.764,0.423,18.086,3.496c2.548,1.471,4.478,3.511,6.524,5.584
				c1.973,11.343-3.837,22.445-5.632,33.818c-1.523,9.657-0.064,19.763,4.13,28.594c1.448,3.049,3.223,5.979,4.108,9.236
				c0.885,3.257,0.733,7.029-1.398,9.646c-2.524,3.099-6.939,3.712-10.916,4.101c-14.874,1.455-30.065,2.891-44.622-0.491
				c-2.778-0.646-5.953-1.894-6.634-4.664c-0.281-1.141-0.063-2.339,0.176-3.489c1.374-6.626,3.419-13.112,6.093-19.327
				c2.218-5.154,4.919-10.33,5.025-15.94c0.09-4.765-1.711-9.333-2.7-13.995C307.255,251.866,306.989,248.282,307.248,244.753z"/>
			<path style="fill:none;stroke:#390334;stroke-linecap:round;stroke-miterlimit:10;" d="M310.078,265.068
				c-1.031-5.352-2.066-10.754-1.941-16.204s1.504-11.024,4.857-15.322"/>
			<path style="fill:none;stroke:#390334;stroke-linecap:round;stroke-miterlimit:10;" d="M322.673,220.184
				c-1.391,2.98-0.454,6.749,1.88,9.066c2.334,2.317,5.828,3.247,9.095,2.875c3.268-0.372,6.314-1.936,8.876-3.998
				c2.562-2.062,4.685-4.611,6.701-7.209"/>
			<path style="fill:none;stroke:#390334;stroke-linecap:round;stroke-miterlimit:10;" d="M331.079,262.478
				c1.286-0.762,2.571-1.524,3.857-2.286"/>
			<path style="fill:none;stroke:#390334;stroke-linecap:round;stroke-miterlimit:10;" d="M332.508,240.478
				c0.978,0.55,1.854,1.28,2.571,2.143"/>
			<path style="fill:none;stroke:#390334;stroke-linecap:round;stroke-miterlimit:10;" d="M324.365,275.049
				c0.476,1.19,0.952,2.381,1.429,3.571"/>
			<path style="fill:none;stroke:#390334;stroke-linecap:round;stroke-miterlimit:10;" d="M310.365,299.049
				c1.771-0.88,3.645-1.553,5.571-2"/>
			<path style="fill:none;stroke:#390334;stroke-linecap:round;stroke-miterlimit:10;" d="M334.65,298.478
				c0.619,1.619,1.238,3.238,1.857,4.857"/>
			<path style="fill:none;stroke:#390334;stroke-linecap:round;stroke-miterlimit:10;" d="M336.508,287.906
				c2.056-1.056,4.212-1.918,6.428-2.571"/>
			<path style="fill:none;stroke:#390334;stroke-linecap:round;stroke-miterlimit:10;" d="M318.499,258.922
				c1.258,0.685,2.725,0.979,4.151,0.833"/>
			<path style="fill:none;stroke:#390334;stroke-linecap:round;stroke-miterlimit:10;" d="M316.779,243.443
				c1.382-0.57,2.763-1.14,4.145-1.71"/>
			<path style="fill:none;stroke:#390334;stroke-linecap:round;stroke-miterlimit:10;" d="M346.365,249.906
				c0.381,1.524,0.762,3.048,1.143,4.572"/>
			<path style="fill:none;stroke:#390334;stroke-linecap:round;stroke-miterlimit:10;" d="M326.223,252.769
				c1.809-0.191,3.619-0.382,5.428-0.573"/>
			<path style="fill:none;stroke:#390334;stroke-linecap:round;stroke-miterlimit:10;" d="M348.801,230.337
				c-0.476,2-0.952,4-1.429,6"/>
			<path style="fill:none;stroke:#390334;stroke-linecap:round;stroke-miterlimit:10;" d="M346.936,296.192
				c1.048,0.952,2.095,1.905,3.143,2.857"/>
			<path style="fill:none;stroke:#390334;stroke-linecap:round;stroke-miterlimit:10;" d="M323.65,289.478
				c-1.048,0.667-2.095,1.333-3.143,2"/>
			<path style="fill:none;stroke:#390334;stroke-linecap:round;stroke-miterlimit:10;" d="M310.22,282.848
				c2.053-0.064,4.111,0.057,6.142,0.362"/>
			<path style="fill:none;stroke:#390334;stroke-linecap:round;stroke-miterlimit:10;" d="M340.809,265.354
				c-1.671,1.284-3.121,2.856-4.265,4.625"/>
			<path style="fill:none;stroke:#390334;stroke-linecap:round;stroke-miterlimit:10;" d="M345.222,273.335
				c0.572,1.095,1.143,2.191,1.714,3.286"/>
			<path style="fill:none;stroke:#390334;stroke-linecap:round;stroke-miterlimit:10;" d="M332.508,281.192
				c0.476-0.095,0.952-0.19,1.428-0.286"/>
		</g>
		<g>
			<path style="fill:#FE9D7C;" d="M325.182,222.129c-0.024,0.455-0.047,0.922,0.098,1.354c0.366,1.094,1.635,1.575,2.772,1.775
				c4.931,0.867,9.903-0.886,14.603-2.611c1.095-0.402,2.267-0.864,2.892-1.848c0.462-0.728,0.547-1.625,0.611-2.485
				c0.356-4.799,0.461-9.62,0.215-14.426c-0.117-2.292-0.323-4.619-1.164-6.755c-0.841-2.136-2.406-4.085-4.552-4.899
				c-2.454-0.931-5.317-0.221-7.432,1.333c-2.115,1.554-3.574,3.847-4.679,6.227C325.283,206.82,325.584,214.563,325.182,222.129z"
				/>
			<path style="fill:#CD1B4D;" d="M341.713,208.036c-1.191,3.273-3.787,5.897-6.775,7.686c-2.988,1.79-6.364,2.821-9.744,3.66
				c-0.013,0.003,0.087-4.908,0.138-5.375c0.117-1.071,0.036-3.163,1.212-3.693c1.147-0.517,3.168,0.032,4.414,0
				c1.734-0.044,3.464-0.238,5.164-0.578C338.035,209.353,339.911,208.785,341.713,208.036z"/>
		</g>
		<g>
			<path style="fill:#FE9D7C;" d="M319.207,170.334c-2.152,1.511-3.976,3.522-5.262,6.032c-1.559,3.044-2.199,6.501-2.468,9.93
				c-0.256,3.261-0.195,6.54-0.048,9.808c0.155,3.436,0.417,6.928,1.622,10.136c2.45,6.519,8.132,8.906,14.582,8.121
				c3.515-0.428,7.05-1.242,10.114-3.065c4.953-2.946,8.243-8.363,9.48-14.106c1.236-5.743,0.576-11.783-1.032-17.428
				c-0.756-2.653-1.746-5.294-3.442-7.439c-2.207-2.79-5.518-4.555-8.973-5.121C328.719,166.372,323.355,167.422,319.207,170.334z"
				/>
			<path style="fill:#390334;" d="M340.635,191.41c2.298,2.212,5.129,3.806,8.078,5.02c1.182,0.487,2.409,0.92,3.685,0.997
				c1.276,0.076,2.622-0.243,3.567-1.104c0.866-0.788,1.314-1.952,1.458-3.114c0.144-1.162,0.012-2.338-0.121-3.502
				c-0.326-2.866-0.694-5.854-2.294-8.254c-1.212-1.819-3.056-3.153-5.055-4.038c-1.999-0.885-4.157-1.348-6.316-1.692
				c-1.838-0.293-3.833-0.477-5.46,0.426c-1.258,0.699-2.127,1.994-2.472,3.39c-0.547,2.211,0.249,3.963,0.994,5.974
				C337.531,187.754,338.917,189.756,340.635,191.41z"/>
			<g>
				<path style="fill:#FE9D7C;" d="M347.903,185.623c1.228-0.641,2.793-0.58,3.967,0.154c1.207,0.755,1.934,2.125,2.181,3.526
					c0.247,1.402,0.066,2.844-0.213,4.24c-0.374,1.871-0.924,3.712-1.729,5.441c-0.719,1.546-1.997,3.191-3.696,3.05
					c-1.238-0.103-2.185-1.151-2.798-2.232c-1.346-2.373-1.671-5.285-0.975-7.914C345.184,189.83,345.869,186.686,347.903,185.623z"
					/>
				<path style="fill:none;stroke:#390334;stroke-linecap:round;stroke-miterlimit:10;" d="M347.704,189.692
					c0.216-0.711,1.143-1.031,1.833-0.755s1.125,0.994,1.26,1.724c0.135,0.731,0.018,1.482-0.111,2.214
					c-0.205,1.165-0.479,2.401-1.327,3.225c-1.095,1.063-0.861,1.12-2.085,0.479"/>
			</g>
			<g>
				<path style="fill:#390334;" d="M316.152,190.574c0.147,0.551,0.516,1.129,1.084,1.186c0.547,0.055,1.018-0.407,1.255-0.903
					c0.319-0.667,0.362-1.473,0.066-2.15c-0.301-0.689-1.242-1.6-1.92-1.074C315.928,188.182,315.951,189.822,316.152,190.574z"/>
				<path style="fill:#390334;" d="M330.739,192.238c0.035,0.461,0.173,0.985,0.592,1.18c0.314,0.146,0.7,0.049,0.976-0.161
					c0.276-0.21,0.461-0.515,0.625-0.821c0.235-0.439,0.44-0.904,0.505-1.398c0.12-0.916-0.525-2.249-1.642-1.912
					C330.694,189.46,330.672,191.34,330.739,192.238z"/>
				<path style="fill:none;stroke:#390334;stroke-linecap:round;stroke-miterlimit:10;" d="M313.704,184.878
					c0.568-1.617,2.069-2.867,3.762-3.133c1.693-0.266,3.505,0.465,4.541,1.83"/>
				<path style="fill:#CD1B4D;" d="M319.571,197.571c-0.675,0.64-1.468,1.284-1.631,2.2c-0.216,1.214,0.889,2.375,2.107,2.562
					c1.218,0.187,2.44-0.38,3.404-1.148c1.523-1.214,2.602-2.972,2.994-4.88c0.392-1.908,0.093-3.949-0.828-5.665
					c-0.349-0.65-1.279-1.637-2.042-0.871c-0.485,0.487-0.47,1.803-0.671,2.442C322.265,194.239,321.114,196.107,319.571,197.571z"
					/>
				<path style="fill:#CD1B4D;" d="M336.476,199.137c0.283,0.805,0.838,1.54,1.612,1.9c0.736,0.343,1.604,0.318,2.378,0.075
					c1.383-0.433,2.541-1.589,2.883-2.998c0.342-1.408-0.194-3.015-1.37-3.863C338.809,191.966,335.369,195.992,336.476,199.137z"/>
				<path style="fill:#CD1B4D;" d="M308.851,194.446c-0.493,1.33-0.252,2.907,0.615,4.03c0.676,0.875,1.782,1.478,2.876,1.319
					c1.057-0.154,1.936-1.008,2.274-2.021c0.624-1.87-0.426-4.161-1.922-5.336C311.161,191.234,309.387,193,308.851,194.446z"/>
				<path style="fill:#FFFFFF;" d="M333.975,200.817c-4.015,3.461-9.893,4.613-14.918,2.923c1.013,1.559,1.101,3.637,0.342,5.335
					c2.927,0.671,6.1,0.204,8.71-1.282C330.72,206.308,333.057,203.676,333.975,200.817z"/>
				<path style="fill:none;stroke:#390334;stroke-linecap:round;stroke-miterlimit:10;" d="M327.939,186.165
					c0.694-1.322,2.077-2.256,3.563-2.406c1.209-0.122,2.453,0.26,3.415,1.003c0.962,0.743,1.64,1.832,1.933,3.011"/>
			</g>
			<g>
				<path style="fill:#CD1B4D;" d="M321.51,161.211c2.796-2.359,6.018-4.461,9.653-4.87c2.994-0.337,5.992,0.507,8.823,1.538
					c3.454,1.258,6.794,2.805,10.129,4.35c1.516,0.702,3.098,1.458,4.083,2.807c0.84,1.15,1.142,2.596,1.405,3.995
					c0.862,4.581,1.531,9.199,2.004,13.837c0.02,0.199-10.12-0.487-11.041-0.611c-3.759-0.508-7.476-1.319-11.107-2.416
					c-6.899-2.086-14.807-5.2-20.376-9.915c-2.187-1.851-0.438-2.729,1.251-4.142C318.102,164.307,319.75,162.695,321.51,161.211z"
					/>
				<path style="fill:#CD1B4D;" d="M374.535,184.449c1.361-0.603,2.733-1.176,4.21-1.579c-2.934,0-6.268-1.136-9.161-1.66
					c-2.799-0.507-6.193-0.63-8.798-1.761c-5.553-2.412-11.348-4.398-17.162-6.168c-8.528-2.597-17.381-3.931-26.196-5.257
					c-5.126-0.771-10.62-1.344-15.059-4.259c0.851,3.285,2.165,6.45,3.883,9.376c1.772,3.017,4.109,5.29,6.595,7.723
					c1.854,1.815,3.903,3.452,6.104,4.828c7.018,4.438,15.389,6.536,23.692,6.566c7.164,0.026,14.277-1.447,21.014-3.909
					c2.519-0.921,5.148-1.488,7.653-2.494C372.407,185.412,373.468,184.921,374.535,184.449z"/>
				<path style="fill:none;stroke:#9A143A;stroke-miterlimit:10;" d="M307.412,166.104c0.241,5.264,3.235,10.137,7.255,13.544
					c4.02,3.407,8.991,5.501,14.03,7.04c7.193,2.197,14.771,3.366,22.26,2.673c7.489-0.693,14.894-3.325,20.694-8.112"/>
				<path style="fill:none;stroke:#9A143A;stroke-miterlimit:10;" d="M312.717,167.527c1.062,1.413,2.125,2.827,3.283,4.162
					c5.614,6.473,13.483,10.95,21.914,12.471c8.432,1.521,17.369,0.074,24.891-4.029"/>
				<path style="fill:none;stroke:#9A143A;stroke-miterlimit:10;" d="M316.102,166.812c2.162,2.729,5.198,4.673,8.432,5.964
					s6.678,1.966,10.12,2.497c7.61,1.175,15.305,1.682,22.988,2.187"/>
				<path style="fill:none;stroke:#9A143A;stroke-miterlimit:10;" d="M319.444,163.252c2.554,2.513,5.808,4.223,9.194,5.398
					c3.385,1.174,6.922,1.842,10.443,2.505c5.871,1.106,11.743,2.212,17.614,3.317"/>
				<path style="fill:none;stroke:#9A143A;stroke-miterlimit:10;" d="M325.724,158.742c10.361,1.754,20.462,5.03,29.88,9.689"/>
			</g>
		</g>
		<g>
			<path style="fill:#6AA4A6;" d="M366.783,223.588c6.214,1.28,12.659,2.561,18.844,1.147c8.348-1.908,14.944-8.519,19.184-15.958
				c4.24-7.439,6.542-15.791,9.431-23.852c0.605-1.689,1.26-3.407,2.428-4.77c1.168-1.362,2.965-2.32,4.734-2.02
				c1.993,0.339,3.415,2.127,4.298,3.946c2.665,5.493,2.11,11.967,1.008,17.973c-2.575,14.032-8.298,28.207-19.493,37.05
				c-6.536,5.163-14.495,8.169-22.45,10.638c-5.917,1.836-12.105,3.435-18.248,2.628c-3.552-0.467-6.981-1.775-9.976-3.735
				c-2.694-1.763-5.145-3.481-5.979-6.771c-0.503-1.984-0.472-4.059-0.438-6.106c0.047-2.799,0.119-5.707,1.374-8.21
				C354.612,219.335,361.591,222.518,366.783,223.588z"/>
			<path style="fill:none;stroke:#390334;stroke-linecap:round;stroke-miterlimit:10;" d="M357.83,247.611
				c-2.589-3.412-4.057-7.66-4.129-11.942"/>
			<path style="fill:none;stroke:#390334;stroke-linecap:round;stroke-miterlimit:10;" d="M414.631,184.529
				c-0.059,3.229,1.319,6.458,3.69,8.65c2.372,2.192,5.698,3.312,8.913,3"/>
			<path style="fill:none;stroke:#390334;stroke-linecap:round;stroke-miterlimit:10;" d="M393.822,237.988
				c0.959-1.782,2.605-3.182,4.518-3.844c1.912-0.662,4.072-0.578,5.927,0.23"/>
			<path style="fill:none;stroke:#390334;stroke-linecap:round;stroke-miterlimit:10;" d="M371.222,235.335
				c-0.143,1-0.286,2-0.428,3"/>
			<path style="fill:none;stroke:#390334;stroke-linecap:round;stroke-miterlimit:10;" d="M362.65,230.764
				c0.905,0.238,1.809,0.476,2.714,0.715"/>
			<path style="fill:none;stroke:#390334;stroke-linecap:round;stroke-miterlimit:10;" d="M385.222,232.62
				c-0.19,0.762-0.381,1.524-0.571,2.286"/>
			<path style="fill:none;stroke:#390334;stroke-linecap:round;stroke-miterlimit:10;" d="M403.508,223.478
				c0.095,0.667,0.19,1.333,0.286,2"/>
			<path style="fill:none;stroke:#390334;stroke-linecap:round;stroke-miterlimit:10;" d="M376.788,245.894
				c0.99-0.406,2.086-0.55,3.147-0.411"/>
			<path style="fill:none;stroke:#390334;stroke-linecap:round;stroke-miterlimit:10;" d="M410.895,203.798
				c1.652-0.635,3.415-0.98,5.185-1.016"/>
			<path style="fill:none;stroke:#390334;stroke-linecap:round;stroke-miterlimit:10;" d="M419.365,206.478
				c0.224,1.803,0.656,3.581,1.286,5.286"/>
			<path style="fill:none;stroke:#390334;stroke-linecap:round;stroke-miterlimit:10;" d="M409.629,216.89
				c0.94-1.281,2.06-2.429,3.317-3.401"/>
			<path style="fill:none;stroke:#390334;stroke-linecap:round;stroke-miterlimit:10;" d="M393.222,226.62
				c0.967-1.086,2.29-1.849,3.714-2.143"/>
		</g>
	</g>
	<g>
		<path style="fill:#CD1B4D;" d="M229.778,251.708c0.023,0.001,0.046,0.001,0.069,0.002c9.083,0.312,16.647,6.587,19.692,14.912
			c-0.206-0.562-8.642-0.451-9.61-0.502c-3.203-0.167-6.406-0.335-9.61-0.502c-6.396-0.334-13.218-0.047-19.527-1.066
			c-1.268-0.205,1.552-4.653,1.734-4.877c1.385-1.7,3.041-3.176,4.873-4.379C221.042,252.902,225.409,251.573,229.778,251.708z"/>
		<path style="fill:#440A3C;" d="M285.001,340.26c2.815-21.083,3.252-45.897,1.701-67.11c-0.192-2.625-0.658-5.652-2.927-6.986
			c-1.176-0.691-2.602-0.76-3.964-0.811c-27.025-1.011-54.049-2.021-81.073-3.032c-4.078-0.152-8.508-0.202-11.789,2.224
			c-4.259,3.149-4.938,9.149-5.185,14.439c-0.907,19.405-0.919,38.852-0.036,58.257c17.909,2.508,35.551,3.785,53.591,2.531
			C252.007,338.612,268.281,339.714,285.001,340.26z"/>
		<path style="fill:#CD1B4D;" d="M259.441,272.348c1.347,17.279,2.696,34.587,2.458,51.917c-0.03,2.185-0.17,4.587-1.673,6.173
			c-1,1.056-2.44,1.556-3.837,1.963c-12.645,3.68-26.123,2.545-39.24,1.378c-4.002-0.356-8.004-0.712-12.005-1.068
			c-5.9-0.525-11.8-1.049-17.699-1.574c-1.922-20.718-1.288-41.672,1.881-62.236C212.644,267.793,236.232,269.826,259.441,272.348z"
			/>
		<path style="fill:#CD1B4D;" d="M250.141,232.234c0.64,2.372-0.915,4.725-2.387,6.692c-4.199,5.61-8.399,11.221-12.598,16.831
			c-0.594,0.793-1.961,1.893-2.469,0.389c-0.329-0.973,0.961-2.424,1.424-3.225c1.452-2.509,3.017-4.953,4.687-7.323
			C242.168,240.815,245.968,236.335,250.141,232.234z"/>
		<path style="fill:#CD1B4D;" d="M223.855,259.322c1.537-1.989,0.578-4.872-0.608-7.088c-3.069-5.734-7.275-10.766-11.449-15.752
			c-1.293-1.544-3.229-3.793-5.478-3.485c0.164,4.168,4.347,8.056,6.597,11.244C216.497,249.314,220.144,254.342,223.855,259.322z"
			/>
		<path style="fill:#CD1B4D;" d="M251.425,237.644c0.512-0.011,1.038-0.114,1.455-0.411c0.607-0.432,0.884-1.195,1.008-1.93
			c0.469-2.773-2.344-7.993-5.663-5.551C244.766,232.297,247.63,237.723,251.425,237.644z"/>
		<path style="fill:#CD1B4D;" d="M203.013,230.61c-0.81,1.452-0.932,3.326-0.11,4.771c0.917,1.613,2.951,2.469,4.768,2.09
			c1.816-0.378,3.312-1.911,3.742-3.716c0.43-1.805-0.176-3.797-1.467-5.13C207.568,226.169,204.464,228.011,203.013,230.61z"/>
		<path style="fill:none;stroke:#FFFFFF;stroke-linecap:round;stroke-miterlimit:10;" d="M196.642,291.087
			c8.536-4.707,17.072-9.414,25.608-14.122"/>
		<path style="fill:none;stroke:#FFFFFF;stroke-linecap:round;stroke-miterlimit:10;" d="M193.066,314.394
			c18.206-12.366,36.412-24.731,54.618-37.097"/>
		<path style="fill:none;stroke:#FFFFFF;stroke-linecap:round;stroke-miterlimit:10;" d="M210.835,315.004
			c12.807-7.124,25.392-14.647,37.731-22.553"/>
		<path style="fill:none;stroke:#FFFFFF;stroke-linecap:round;stroke-miterlimit:10;" d="M233.374,317.65
			c4.86-2.964,9.558-6.193,14.068-9.667"/>
		<g>
			<path style="fill:#CD1B4D;" d="M269.539,310.448c-1.266,2.786-1.307,6.24,0.404,8.776c1.712,2.536,5.34,3.777,8.046,2.348
				c1.423-0.751,2.451-2.105,3.132-3.563c1.24-2.655,1.39-5.96-0.211-8.414c-1.478-2.266-3.844-2.776-6.361-2.733
				C272.103,306.904,270.572,308.174,269.539,310.448z"/>
			<path style="fill:#670E27;" d="M275.59,322.198c1.34-0.162,2.645-0.607,3.804-1.299c-1.219-4.937-2.608-9.832-4.165-14.673
				c-0.033-0.101-2.973,1.077-3.158,1.806c-0.295,1.16,0.572,2.936,0.863,4.043C273.819,315.449,274.705,318.823,275.59,322.198z"/>
		</g>
		<g>
			<path style="fill:#CD1B4D;" d="M269.318,288.918c-1.467,2.315-1.59,5.44-0.237,7.824c1.353,2.383,4.153,3.888,6.88,3.62
				c2.728-0.268,5.209-2.337,5.887-4.993c0.622-2.439-0.213-5.032-1.47-7.213c-1.132-1.965-2.666-3.526-5.025-3.033
				C272.941,285.626,270.669,286.787,269.318,288.918z"/>
			<path style="fill:#670E27;" d="M279.629,286.383c0.68,0.976,1.361,1.952,2.041,2.928c-4.018,2.642-8.037,5.283-12.055,7.925
				c-0.15,0.098-0.792-1.195-0.783-1.364c0.03-0.556,0.543-0.806,0.965-1.164c1.1-0.931,2.2-1.863,3.299-2.794
				C275.275,290.07,277.452,288.227,279.629,286.383z"/>
		</g>
	</g>
	<g>
		<path style="fill:#FF7300;" d="M160.523,298.164c0.706-0.516,1.63-0.597,2.502-0.656c6.646-0.452,13.334-0.691,19.96-0.002
			c0.553,0.058,1.155,0.145,1.537,0.549c0.846,0.894-0.024,2.497,0.617,3.547c-0.099-0.199-2.431-0.09-2.753-0.102
			c-0.977-0.036-1.954-0.073-2.931-0.109c-1.954-0.073-3.908-0.145-5.862-0.218c-3.908-0.145-7.816-0.291-11.724-0.435
			c-0.65-0.024-1.625,0.141-2.012-0.518C159.473,299.564,159.987,298.556,160.523,298.164z"/>
		<g>
			<g>
				<g>
					<path style="fill:#6C9E95;" d="M209.336,311.213c-0.461-3.432-1.358-7.29-4.367-9.004c-1.612-0.919-3.544-1.028-5.398-1.116
						c-2.667-0.126-5.334-0.252-8.002-0.371c-0.004,0-0.007,0-0.011,0c-4.972,5.102-8.058,12.017-8.496,19.131
						c-0.422,6.853,1.625,13.818,5.626,19.391c4.165,0.08,8.33,0.16,12.496,0.24c1.691,0.033,3.407,0.062,5.047-0.352
						c1.64-0.415,3.875-1.267,3.982-2.955C210.74,327.854,210.446,319.479,209.336,311.213z"/>
				</g>
				<g>
					<path style="fill:#6C9E95;" d="M160.216,316.698c0.083-3.986-0.269-8.046-1.739-11.751c-0.706-1.781-1.702-3.471-2.944-4.931
						c-2.872-0.278-5.749-0.578-8.627-0.416c-3.118,0.175-6.383,0.922-8.961,2.766c-2.313,1.654-3.629,4.407-4.243,7.118
						c-0.579,2.557-0.604,5.203-0.627,7.824c-0.043,4.972-0.085,9.944-0.128,14.915c-0.011,1.301-0.002,2.68,0.678,3.789
						c1.219,1.99,3.954,2.252,6.288,2.297c4.464,0.086,8.928,0.171,13.392,0.257c1.878-2.365,3.357-5.057,4.426-7.885
						C159.412,326.23,160.117,321.453,160.216,316.698z"/>
				</g>
				<path style="fill:#8BCDA9;" d="M183.062,319.853c0.438-7.114,3.525-14.029,8.496-19.131c-5.926-0.265-11.853-0.499-17.784-0.631
					c-2.837-0.063-5.732-0.282-8.535,0.093c-2.779,0.372-5.597,0.208-8.379-0.043c-0.442-0.04-0.885-0.082-1.327-0.125
					c1.242,1.461,2.238,3.15,2.944,4.931c1.47,3.706,1.821,7.766,1.739,11.751c-0.099,4.756-0.804,9.532-2.485,13.982
					c-1.069,2.829-2.549,5.521-4.426,7.885c2.444,0.047,4.888,0.094,7.332,0.141c9.35,0.18,18.7,0.359,28.05,0.539
					C184.687,333.671,182.641,326.705,183.062,319.853z"/>
			</g>
		</g>
		<path style="fill:#FF7300;" d="M180.135,308.104c0.463,2.861,0.66,5.765,0.589,8.662c-5.588,0.919-11.288,1.149-16.932,0.683
			c-0.293-0.024,0.26-6.221,0.33-6.799c0.277-2.265,0.229-2.85,2.7-2.67C171.235,308.302,175.842,308.302,180.135,308.104z"/>
		<path style="fill:none;stroke:#30514B;stroke-linecap:round;stroke-linejoin:round;stroke-miterlimit:10;" d="M185.014,325.144
			c6.454-6.94,13.37-13.449,20.687-19.471"/>
		<path style="fill:none;stroke:#30514B;stroke-linecap:round;stroke-linejoin:round;stroke-miterlimit:10;" d="M186.571,333.095
			c7.567-6.296,15.134-12.592,22.701-18.887"/>
		<path style="fill:none;stroke:#30514B;stroke-linecap:round;stroke-linejoin:round;stroke-miterlimit:10;" d="M191.636,338.559
			c6.5-5.087,12.686-10.573,18.513-16.418"/>
		<path style="fill:none;stroke:#30514B;stroke-linecap:round;stroke-linejoin:round;stroke-miterlimit:10;" d="M200.837,339.399
			c3.357-2.48,6.524-5.215,9.466-8.175"/>
		<path style="fill:none;stroke:#30514B;stroke-linecap:round;stroke-linejoin:round;stroke-miterlimit:10;" d="M184.908,311.439
			c5.042-3.186,9.988-6.525,14.827-10.01"/>
		<path style="fill:none;stroke:#30514B;stroke-linecap:round;stroke-linejoin:round;stroke-miterlimit:10;" d="M200.804,339.38
			c-4.364-6.276-8.745-12.583-12.115-19.444c-1.31-2.667-2.467-5.418-4.006-7.961"/>
		<path style="fill:none;stroke:#30514B;stroke-linecap:round;stroke-linejoin:round;stroke-miterlimit:10;" d="M198.848,301.42
			c3.476,4.655,6.952,9.309,10.428,13.964"/>
		<path style="fill:none;stroke:#30514B;stroke-linecap:round;stroke-linejoin:round;stroke-miterlimit:10;" d="M190.316,303.993
			c5.853,11.416,12.037,22.662,18.544,33.718"/>
		<path style="fill:none;stroke:#30514B;stroke-linecap:round;stroke-linejoin:round;stroke-miterlimit:10;" d="M145.347,337.993
			c4.542-3.6,9.083-7.199,13.625-10.799"/>
		<path style="fill:none;stroke:#30514B;stroke-linecap:round;stroke-linejoin:round;stroke-miterlimit:10;" d="M135.683,337.97
			c8.318-5.603,16.356-11.619,24.077-18.02"/>
		<path style="fill:none;stroke:#30514B;stroke-linecap:round;stroke-linejoin:round;stroke-miterlimit:10;" d="M132.818,330.55
			c8.881-6.987,17.761-13.973,26.642-20.96"/>
		<path style="fill:none;stroke:#30514B;stroke-linecap:round;stroke-linejoin:round;stroke-miterlimit:10;" d="M133.918,316.794
			c7.049-5.469,14.441-10.496,22.118-15.041"/>
		<path style="fill:none;stroke:#30514B;stroke-linecap:round;stroke-linejoin:round;stroke-miterlimit:10;" d="M134.145,308.131
			c4.182-3.114,8.561-5.962,13.104-8.522c3.522,4.006,7.8,7.915,12.103,11.068"/>
		<path style="fill:none;stroke:#30514B;stroke-linecap:round;stroke-linejoin:round;stroke-miterlimit:10;" d="M134.135,308.707
			c5.424,10.136,11.494,19.927,18.159,29.294"/>
		<path style="fill:none;stroke:#30514B;stroke-linecap:round;stroke-linejoin:round;stroke-miterlimit:10;" d="M138.969,302.596
			c6.058,9.188,12.116,18.375,18.173,27.563"/>
		<path style="fill:none;stroke:#30514B;stroke-linecap:round;stroke-linejoin:round;stroke-miterlimit:10;" d="M133.029,317.933
			c3.158,7.331,6.984,14.373,11.416,21.011"/>
		<path style="fill:#CD1B4D;" d="M162.447,333.451c0.008,0.233,0.031,0.497,0.216,0.639c0.14,0.107,0.331,0.108,0.507,0.105
			c1.275-0.022,2.551-0.045,3.826-0.067c-0.109-1.743-0.217-3.486-0.326-5.229c-0.008-0.123-0.019-0.256-0.102-0.347
			c-0.11-0.121-0.299-0.119-0.463-0.108c-1.047,0.073-3.083-0.242-3.622,0.914C161.982,330.435,162.412,332.322,162.447,333.451z"/>
		<path style="fill:#FF7300;" d="M167.734,334.114c1.301,0,2.603-0.001,3.904-0.001c0.025-1.921-0.05-3.843-0.224-5.756
			c-0.8-0.017-1.6-0.034-2.4-0.052c-1.084-0.024-1.291-0.2-1.289,0.951C167.727,329.657,167.733,334.114,167.734,334.114z"/>
		<path style="fill:#FF7300;" d="M172.683,333.815c1.596,0.16,3.212,0.112,4.796-0.141c-0.216-1.63-0.433-3.26-0.649-4.891
			c-0.043-0.324-3.628-0.162-4.008,0.316c-0.366,0.461-0.124,1.504-0.119,2.048C172.712,332.037,172.705,332.926,172.683,333.815z"
			/>
		<path style="fill:#FF7300;" d="M179.039,333.564c1.131,0.039,2.264,0.012,3.392-0.083c0.133-1.55,0.055-3.118-0.231-4.648
			c-0.018-0.072-1.893,0.018-2.076,0.02c-0.631,0.006-0.98-0.138-1.214,0.431c-0.199,0.484,0.043,1.517,0.06,2.05
			C178.992,332.077,179.015,332.82,179.039,333.564z"/>
		<path style="fill:#CD1B4D;" d="M166.958,320.331c1.634,0.046,3.255,0.022,4.945-0.075c2.912-0.167,5.824-0.334,8.735-0.501
			c-0.075-1.05-0.15-2.1-0.224-3.15c-0.001,0.089-3.368,0.214-3.587,0.226c-0.984,0.052-1.969,0.101-2.954,0.149
			c-1.062,0.051-1.965-0.224-3.023-0.234c-2.422-0.024-4.845,0.035-7.263,0.178c-0.079,1.08-0.013,2.171,0.196,3.234
			C164.863,320.243,165.913,320.301,166.958,320.331z"/>
	</g>
	<g>
		<g>
			<path style="fill:#FE9D7C;" d="M116.949,232.265c2.533,7.131,5.149,13.981,8.324,20.281c3.172,6.291,6.919,12.003,11.553,16.67
				c1.154,1.172,2.37,2.266,3.636,3.299l2.135,1.718l2.189,1.719c2.918,2.253,5.773,4.333,8.632,5.946
				c2.847,1.653,5.863,2.863,9.275,3.922c3.392,1.053,7.087,1.925,10.803,2.793l-2.132,12.152
				c-3.891-0.487-7.812-0.971-11.924-1.776c-4.086-0.793-8.461-1.998-12.533-3.809c-4.097-1.77-7.747-3.91-11.198-6.027
				l-2.561-1.604l-1.26-0.806c-0.417-0.265-0.833-0.528-1.307-0.865c-1.841-1.265-3.619-2.622-5.305-4.072
				c-6.785-5.797-12.152-12.816-16.527-19.988c-4.384-7.196-7.872-14.588-11.107-21.79L116.949,232.265z"/>
			<g>
				<path style="fill:#FE9D7C;" d="M193.43,286.311c2.245-0.4,4.802-0.815,6.604,0.583c1.999,1.55,2,4.747,0.647,6.885
					c-1.352,2.138-3.674,3.44-5.948,4.549c-7.251,3.537-15.463,6.036-23.351,4.342c-2.208-0.474-4.422-1.32-5.985-2.949
					c-1.847-1.925-2.55-4.874-1.77-7.425c0.606-1.982,2.331-4.156,4.388-4.78c2.119-0.643,5.083,0.167,7.288,0.212
					C181.373,287.85,187.454,287.377,193.43,286.311z"/>
				<path style="fill:#FE9D7C;" d="M169.598,301.33c1.125,1.468,2.963,2.178,4.732,2.721c3.073,0.943,6.236,1.59,9.433,1.92
					c0.8,0.083,1.629,0.142,2.391-0.118c0.761-0.26,1.441-0.922,1.475-1.726c0.036-0.843-0.608-1.548-1.234-2.114
					c-3.699-3.349-8.364-5.617-13.282-6.457C169.785,294.987,167.452,298.53,169.598,301.33z"/>
				<path style="fill:none;stroke:#390334;stroke-width:0.9858;stroke-linecap:round;stroke-miterlimit:10;" d="M184.178,295.156
					c5.665-0.946,11.394-1.506,17.134-1.674"/>
				<path style="fill:none;stroke:#390334;stroke-width:0.9858;stroke-linecap:round;stroke-miterlimit:10;" d="M185.859,291.306
					c5.191-0.984,10.44-1.665,15.71-2.038"/>
			</g>
			<g>
				<path style="fill:#D74971;" d="M130.597,255.119c0.242,0.655,0.473,1.364,0.233,2.019c-0.232,0.635-0.859,1.089-1.468,1.489
					c-6.358,4.183-14.138,6.686-22.076,7.102c-3.189-5.104-6.394-10.24-8.508-15.756c-1.79-4.671-2.786-9.673-2.191-14.602
					c0.432-3.586,1.862-9.77,6.796-10.541c4.494-0.702,8.409,3.512,11.057,6.045c3.43,3.282,6.481,6.867,9.097,10.68
					C126.464,245.825,128.846,250.381,130.597,255.119z"/>
				<path style="fill:none;stroke:#390334;stroke-width:1.0226;stroke-linecap:round;stroke-miterlimit:10;" d="M116.375,259.664
					c4.701-1.632,9.122-4.067,13.013-7.169"/>
			</g>
		</g>
		<g>
			<g>
				<path style="fill:#1D021A;" d="M99.18,459.729c3.984-0.761,7.89-0.324,11.943-0.8c1.217-0.143,12.194-2.006,12.086-3.315
					c-3.754-45.504-7.508-91.008-11.263-136.512c-0.15-1.819-0.336-3.739-1.407-5.216c-1.482-2.045-4.21-2.67-6.705-3.059
					c-8.262-1.286-26.056-4.874-24.621,8.22c1.237,11.287,2.558,22.566,3.967,33.834c2.848,22.779,6.049,45.518,9.601,68.207
					C94.8,433.986,96.933,446.866,99.18,459.729z"/>
				<path style="fill:none;stroke:#FFFFFF;stroke-linecap:round;stroke-miterlimit:10;" d="M88.72,321.656
					c7.512,45.161,13.116,90.639,16.792,136.273"/>
			</g>
			<g>
				<path style="fill:#CD1B4D;" d="M135.625,474.332c2.667,0.018,5.343-0.029,8.04-0.177c0.876-0.048,1.802-0.118,2.518-0.6
					c1.556-1.047,1.195-3.497-0.173-4.759c-1.368-1.262-3.332-1.69-5.161-2.202c-6.385-1.788-12.25-5.228-16.798-9.851
					c-1.659-1.687-3.395-3.658-5.808-3.913c-3.195-0.338-6.057,2.536-9.247,2.157c-1.685-0.2-3.084-1.272-4.497-2.169
					c-1.412-0.897-3.135-1.675-4.758-1.201c-2.458,0.718-1.612,3.928-1.865,5.767c-0.39,2.831-0.892,5.656-0.178,8.486
					c1.759,6.976,10.259,7.329,16.347,7.586C121.298,473.76,128.425,474.283,135.625,474.332z"/>
				<path style="fill:none;stroke:#390334;stroke-linecap:round;stroke-miterlimit:10;" d="M113.655,462.586
					c1.459,0.528,2.943-0.612,4.096-1.65c2.724-2.452,5.559-4.782,8.493-6.979c1.091-0.817,2.42-1.659,3.723-1.261
					c1.456,0.444,2.054,2.398,1.401,3.773c-2.563,5.395-9.594,0.558-12.98-0.824C114.293,453.973,109.231,460.984,113.655,462.586z"
					/>
				<path style="fill:none;stroke:#390334;stroke-linecap:round;stroke-miterlimit:10;" d="M124.63,463.886
					c2.198-2.143,5.229-3.406,8.298-3.459"/>
				<path style="fill:none;stroke:#390334;stroke-linecap:round;stroke-miterlimit:10;" d="M129.794,467.342
					c2.533-1.917,5.468-3.301,8.559-4.036"/>
			</g>
		</g>
		<g>
			<g>
				<path style="fill:#390334;" d="M91.176,308.196c-7.81-0.665-11.093-2.138-18.574-4.378c-6.547-1.961-10.228-3.637-16.987-1.452
					c-8.499,2.747-8.082,15.728-9.405,22.65c-8.262,43.224-14.725,86.97-19.999,130.659c5.705,0.767,11.411,1.534,17.116,2.301
					c1.153,0.155,3.072,0.921,3.438-0.175c1.239-3.715,4.786-12.003,5.834-15.619c6.767-23.359,13.535-46.719,20.302-70.078
					c3.384-11.68,6.767-23.359,10.151-35.039C83.758,334.624,90.533,308.141,91.176,308.196z"/>
				<path style="fill:none;stroke:#FFFFFF;stroke-linecap:round;stroke-miterlimit:10;" d="M49.648,333.419
					c-4.787,40.814-10.806,81.483-18.046,121.934"/>
			</g>
			<g>
				<path style="fill:#CD1B4D;" d="M35.706,452.745c1.381,1.049,3.041,2.004,4.739,1.697c1.938-0.35,3.381-2.259,5.342-2.432
					c2.512-0.221,4.25,2.361,5.691,4.463c4.354,6.349,11.077,10.976,18.495,12.728c2.239,0.529,5.136,1.485,5.102,3.822
					c-0.03,2.043-2.379,3.095-4.334,3.569c-15.081,3.659-31.209,2.736-45.79-2.621c-1.106-0.406-0.64-8.879-0.577-10.045
					c0.169-3.131,0.631-6.341,1.393-9.384C27.21,448.777,31.686,449.691,35.706,452.745z"/>
				<path style="fill:none;stroke:#390334;stroke-linecap:round;stroke-miterlimit:10;" d="M40.931,456.198
					c-1.006,0.719-1.868,1.715-2.17,2.915c-0.302,1.199,0.058,2.607,1.065,3.326c0.984,0.703,2.361,0.62,3.461,0.119
					c1.101-0.501,1.993-1.356,2.885-2.173c3.09-2.834,6.427-5.397,9.962-7.651c0.866-0.552,1.775-1.097,2.791-1.246
					c1.016-0.148,2.173,0.197,2.695,1.081c0.653,1.106,0.039,2.618-1.015,3.353c-1.054,0.735-2.403,0.874-3.687,0.915
					c-3.062,0.098-5.598-0.237-8.362-1.461C46.048,454.264,43.194,454.581,40.931,456.198z"/>
				<path style="fill:none;stroke:#390334;stroke-linecap:round;stroke-miterlimit:10;" d="M50.548,465.193
					c2.874-2.896,7.02-4.48,11.092-4.239"/>
				<path style="fill:none;stroke:#390334;stroke-linecap:round;stroke-miterlimit:10;" d="M55.504,468.005
					c2.596-2.32,5.611-4.169,8.856-5.431"/>
			</g>
		</g>
		<g>
			<path style="fill:#CD1B4D;" d="M94.43,219.678c6.384,1.522,12.322,4.689,16.271,9.361c6.878,8.137,6.667,19.854,6.101,30.449
				c-0.919,17.192-1.838,34.385-2.757,51.577c-0.084,1.568-0.206,3.243-1.175,4.487c-1.115,1.432-3.049,1.915-4.841,2.266
				c-20.344,3.985-41.756,2.492-61.335-4.277c0.199-21.6,3.063-43.126,7.562-64.263c2.723-12.794,7.002-23.844,20.419-28.805
				C80.566,218.295,87.742,218.084,94.43,219.678z"/>
			<path style="fill:none;stroke:#390334;stroke-width:1.0226;stroke-linecap:round;stroke-miterlimit:10;" d="M78.245,219.518
				c0.491,3.997,2.634,7.765,5.819,10.229c3.185,2.464,7.371,3.593,11.363,3.064c2.619-0.347,5.368-1.601,6.41-4.028
				c0.95-2.213,0.247-4.75-0.465-7.05"/>
		</g>
		<g>
			<g>
				<path style="fill:#440A3C;" d="M121.242,163.408c4.289,2.088,6.019,5.425,6.231,10.126c0.197,4.369-1.247,8.853-4.203,12.112
					c4.722,2.382,7.704,7.826,7.168,13.087c-1.092,10.72-14.706,15.935-23.227,10.115c-6.34-4.331-8.56-11.791-9.164-19.029
					c-0.466-5.583,0.656-11.262,3.062-16.311c2.184-4.584,5.329-9.55,10.377-10.971
					C114.805,161.603,118.295,161.973,121.242,163.408z"/>
				<path style="fill:#440A3C;" d="M113.936,166.111c-0.598-3.303-2.415-6.508-5.34-8.155c-2.271-1.279-4.982-1.522-7.586-1.417
					c-3.844,0.156-7.748,1.058-10.919,3.237c-3.17,2.179-5.507,5.771-5.549,9.618c-4.208-2.039-9.311-2.285-13.582-0.385
					c-4.272,1.901-7.565,6-8.215,10.63c-0.65,4.63,1.506,9.61,5.48,12.073c-3.042,0.044-5.675,2.641-6.326,5.612
					c-0.651,2.972,0.408,6.13,2.247,8.554c2.445,3.223,6.193,5.319,10.14,6.211c3.946,0.891,8.084,0.646,12.04-0.201
					c3.915-0.838,7.743-2.282,10.999-4.611c4.677-3.345,7.952-8.361,10.118-13.688c1.991-4.898,2.493-10.231,4.414-15.104
					C113.491,174.342,114.77,170.721,113.936,166.111z"/>
				<path style="fill:none;stroke:#FFFFFF;stroke-linecap:round;stroke-miterlimit:10;" d="M71.107,197.614
					c-1.342,1.041-1.881,2.941-1.461,4.586c0.42,1.645,1.705,3.002,3.256,3.694c1.551,0.692,3.336,0.76,4.993,0.386"/>
			</g>
			<g>
				<path style="fill:#FE9D7C;" d="M80.424,219.864c-0.176,0.664-0.353,1.364-0.184,2.03c0.173,0.684,0.684,1.227,1.207,1.702
					c3.228,2.933,7.673,4.481,12.025,4.188c1.673-0.113,3.414-0.531,4.631-1.683c1.255-1.188,1.753-2.947,2.198-4.617
					c1.45-5.433,2.913-10.988,2.516-16.596c-0.124-1.757-0.438-3.524-1.186-5.12c-0.747-1.596-1.961-3.015-3.55-3.774
					c-2.672-1.276-6.009-0.448-8.277,1.454c-1.579,1.324-2.548,3.012-3.47,4.818c-0.644,1.263-1.585,2.37-2.136,3.674
					C82.375,210.256,81.624,215.335,80.424,219.864z"/>
				<path style="fill:#CD1B4D;" d="M90.645,210.403c-0.385,2.514,0.459,5.108,1.898,7.204c1.44,2.097,3.437,3.75,5.529,5.196
					c0.381,0.263,0.828,0.532,1.276,0.419c0.536-0.135,0.79-0.737,0.946-1.267c0.504-1.715,0.808-3.502,0.872-5.29
					c0.051-1.402-0.327-1.828-1.634-2.199c-1.576-0.448-3.113-0.95-4.607-1.631C94.444,212.615,90.571,210.89,90.645,210.403z"/>
			</g>
			<path style="fill:#FE9D7C;" d="M102.719,174.952c-0.285,0.02-0.569,0.046-0.852,0.08c-4.953,0.59-11.803,3.724-14.323,8.328
				c-2.588,4.727-3.529,11.348-3.621,16.664c-0.076,4.427,0.537,9.104,3.217,12.629c3.877,5.1,11.148,6.458,17.464,5.378
				c3.36-0.575,6.73-1.792,9.155-4.189c2.229-2.203,2.624-4.687,3.668-7.483c1.305-3.495,2.515-7.037,3.007-10.752
				c0.634-4.788-0.002-9.92-2.75-13.892C114.424,177.004,108.441,174.559,102.719,174.952z"/>
			<g>
				<path style="fill:#FE9D7C;" d="M84.422,190.133c-1.041-1.018-2.53-1.694-3.955-1.394c-1.584,0.333-2.71,1.76-3.373,3.236
					c-1.707,3.802-1.084,8.542,1.548,11.774c1.053,1.293,2.564,2.405,4.229,2.301c1.802-0.113,3.232-1.622,4.007-3.254
					C88.758,198.84,87.557,193.197,84.422,190.133z"/>
				<path style="fill:none;stroke:#390334;stroke-width:1.0226;stroke-linecap:round;stroke-miterlimit:10;" d="M82.609,192.186
					c-0.66-0.08-1.308,0.316-1.699,0.853c-0.391,0.537-0.57,1.197-0.709,1.847c-0.245,1.138-0.395,2.313-0.237,3.466
					c0.114,0.832,0.425,1.695,1.105,2.189c0.68,0.494,1.789,0.439,2.224-0.28"/>
			</g>
			<g>
				<path style="fill:#440A3C;" d="M86.715,194.041c2.218,0.498,4.543-0.123,6.619-1.048c4.358-1.942,8.012-5.186,11.232-8.706
					c2.317-2.533,4.519-5.381,5.166-8.752c0.648-3.371-0.728-7.351-3.89-8.685c-2.404-1.014-5.169-0.318-7.602,0.622
					c-4.566,1.765-8.886,4.437-11.908,8.287C83.075,179.909,78.806,192.264,86.715,194.041z"/>
				<path style="fill:none;stroke:#FFFFFF;stroke-linecap:round;stroke-miterlimit:10;" d="M78.751,176.432
					c-0.446,1.85,0.524,3.879,2.116,4.923s3.678,1.171,5.492,0.595c1.814-0.575,3.374-1.791,4.624-3.227"/>
				<path style="fill:none;stroke:#FFFFFF;stroke-linecap:round;stroke-miterlimit:10;" d="M106.298,167.718
					c0.78-1.121,2.274-1.618,3.622-1.402c1.348,0.216,2.539,1.061,3.391,2.128c0.851,1.067,1.395,2.347,1.821,3.644"/>
			</g>
			<g>
				<path style="fill:#CD1B4D;" d="M107.973,203.062c0.634,1.723,1.865,3.404,3.656,3.808c0.713,0.161,1.55,0.065,2.031-0.485
					c0.307-0.351,0.422-0.831,0.458-1.296c0.216-2.803-2.026-5.284-2.113-8.094c-0.026-0.828,0.139-1.657,0.072-2.483
					c-0.068-0.826-0.441-1.706-1.198-2.042c-1.861-0.826-2.825,2.455-3.149,3.602C107.085,198.351,107.153,200.836,107.973,203.062z
					"/>
				<path style="fill:#CD1B4D;" d="M90.708,202.055c0.056,2.379,2.177,4.522,4.555,4.605c2.378,0.082,4.641-1.91,4.862-4.279
					c0.251-2.703-2.103-5.076-4.718-5.346C92.936,196.78,90.654,199.773,90.708,202.055z"/>
				<path style="fill:#CD1B4D;" d="M115.819,211.293c1.118,1.274,3.194,1.681,4.596,0.729c2.332-1.583,2.282-5.693,0.162-7.423
					c-2.138-1.745-4.685-0.266-5.505,2.064C114.533,208.195,114.724,210.045,115.819,211.293z"/>
				<path style="fill:#390334;" d="M102.921,196.043c-0.024,0.677,0.139,1.475,0.755,1.756c0.353,0.161,0.78,0.099,1.114-0.098
					s0.584-0.512,0.77-0.853c0.533-0.976,0.778-3.596-0.685-4.029C103.373,192.377,102.955,195.113,102.921,196.043z"/>
				<path style="fill:#390334;" d="M114.24,197.122c-0.152,0.606-0.072,1.249,0.084,1.854c0.122,0.476,0.36,1.008,0.839,1.12
					c0.389,0.091,0.782-0.141,1.063-0.425c0.722-0.729,0.993-1.872,0.673-2.847c-0.115-0.351-0.306-0.686-0.592-0.92
					C115.397,195.163,114.463,196.235,114.24,197.122z"/>
				<path style="fill:none;stroke:#390334;stroke-width:1.0226;stroke-linecap:round;stroke-miterlimit:10;" d="M114.178,192.316
					c0.23-0.364,0.637-0.594,1.061-0.67c0.424-0.076,0.863-0.011,1.273,0.118c1.393,0.438,2.51,1.66,2.823,3.086"/>
				<path style="fill:none;stroke:#390334;stroke-width:1.0226;stroke-linecap:round;stroke-miterlimit:10;" d="M100.512,188.723
					c1.132-0.975,2.839-1.222,4.201-0.609c1.362,0.613,2.308,2.055,2.329,3.549"/>
				<path style="fill:#FFFFFF;" d="M111.461,213.753c-2.555,1.236-5.817,0.271-7.732-1.824c-1.915-2.095-2.622-5.081-2.472-7.916
					c2.649,3.404,7.014,5.398,11.322,5.172C111.705,210.266,111.295,212.372,111.461,213.753z"/>
			</g>
		</g>
		<g>
			<path style="fill:#FE9D7C;" d="M77.314,242.619c-6.738,4.858-12.714,10.415-17.548,16.903c-2.42,3.241-4.584,6.695-6.484,10.35
				c-0.939,1.848-1.814,3.686-2.665,5.651c-0.843,1.962-1.617,3.884-2.261,5.766c-1.306,3.776-2.091,7.359-2.138,10.81
				c-0.05,3.508,0.601,7.218,1.84,10.91c0.615,1.846,1.358,3.691,2.231,5.51c0.88,1.826,1.851,3.618,2.829,5.059
				c0.986,1.477,2.034,2.688,3.436,4.009c1.385,1.308,3.086,2.681,4.837,4.086c0.116,0.469,0.986,4.249-1.583,7.583
				c-2.509,3.257-6.263,3.444-6.767,3.461c-0.727-0.509-1.72-1.231-2.892-2.108c-0.982-0.735-1.984-1.514-3.008-2.377
				c-2.039-1.7-4.148-3.85-5.826-6.102c-1.72-2.263-3.018-4.467-4.282-6.685c-1.26-2.235-2.398-4.576-3.397-7.017
				c-1.999-4.869-3.404-10.216-3.719-15.876c-0.32-5.724,0.608-11.268,1.967-16.242c0.676-2.506,1.465-4.894,2.281-7.201
				c0.82-2.302,1.756-4.672,2.747-6.978c2.025-4.622,4.442-9.136,7.228-13.433c5.566-8.62,12.708-16.165,20.432-22.531
				L77.314,242.619z"/>
			<path style="fill:none;stroke:#FFFFFF;stroke-linecap:round;stroke-miterlimit:10;" d="M49.073,332.707
				c3.094,0.328,6.292-0.418,8.923-2.08c2.63-1.663,4.258-5.757,3.396-8.955"/>
			<g>
				<path style="fill:#D74971;" d="M81.24,238.011c1.091-5.211-0.222-13.979-5.455-16.862c-3.235-1.782-7.067,1.303-9.784,2.973
					c-7.472,4.591-14.063,10.621-19.266,17.683c-1.017,1.38-2.026,2.955-1.877,4.663c0.129,1.476,1.1,2.727,2.062,3.854
					c2.137,2.501,4.44,5.189,7.04,7.224c1.36,1.065,3.642,4.037,5.213,4.412c0.808,0.193,1.635-0.175,2.374-0.556
					C70.229,256.917,79.176,247.872,81.24,238.011z"/>
				<path style="fill:none;stroke:#390334;stroke-width:1.0226;stroke-linecap:round;stroke-miterlimit:10;" d="M46.868,241.867
					c3.795,7.468,9.378,14.02,16.149,18.952"/>
			</g>
		</g>
	</g>
	<g>
		<rect x="338.354" y="340.26" style="fill:#B25A12;" width="10.649" height="139.218"/>
		<rect x="167.503" y="340.26" style="fill:#B25A12;" width="10.649" height="139.218"/>
		<rect x="127.628" y="337.711" style="fill:#FF7300;" width="240.429" height="17.909"/>
		<rect x="315.296" y="340.26" style="fill:#FF7300;" width="10.649" height="139.218"/>
		<rect x="144.445" y="340.26" style="fill:#FF7300;" width="10.649" height="139.218"/>
	</g>
	<g>
		<g>
			<g>
				<path style="fill:#440A3C;" d="M435.246,176.111c1.05-1.222,2.639-2.201,4.209-1.842c0.942,0.215,1.732,0.893,2.249,1.709
					c0.517,0.816,0.788,1.764,0.972,2.712c0.526,2.711,0.12,5.454-0.62,8.084c-0.738,2.625-2.271,4.923-3.013,7.578
					c-0.094,0.337-0.18,0.707-0.041,1.028c0.224,0.52,0.954,0.647,1.465,0.404c0.511-0.243,0.848-0.738,1.149-1.218
					c2.589-4.127,4.546-8.41,4.772-13.334c0.092-2.012-0.097-4.143-1.229-5.809c-1.655-2.435-4.923-3.258-7.86-3.053
					c-1.485,0.103-3.005,0.442-4.195,1.336c-1.282,0.964-2.047,2.474-2.502,4.012c-1.089,3.679-0.511,7.941,1.972,10.867
					c1.15,1.355,2.863,0.723,2.849-1.084c-0.009-1.075-0.907-1.58-1.494-2.356C432.009,182.612,433.378,178.285,435.246,176.111z"/>
				<path style="fill:#440A3C;" d="M422.707,204.349c-0.812,0.58-1.644,1.18-2.184,2.019c-0.541,0.839-0.729,1.983-0.198,2.828
					c0.577,0.917,1.833,1.207,2.89,0.968c1.057-0.239,1.964-0.896,2.837-1.537c4.243-3.113,8.485-6.226,12.728-9.339
					c1.003-0.736,2.201-1.511,3.399-1.178c0.757,0.211,1.322,0.825,1.844,1.411c3.375,3.79,6.751,7.58,10.126,11.37
					c1.054-0.896,1.303-2.475,0.972-3.818c-0.331-1.343-1.142-2.51-1.936-3.643c-2.082-2.97-4.164-5.94-6.246-8.911
					c-3.754-5.355-6.616-2.755-10.922,0.321C431.581,198.01,427.144,201.18,422.707,204.349z"/>
			</g>
			<g>
				<path style="fill:#CD1B4D;" d="M467.246,316.114c-18.857,0.74-37.713,1.48-56.57,2.22c0.114-22.884,1.597-45.506,3.056-68.344
					c-6.228-0.44-12.408-1.543-18.403-3.285c-1.258-0.365-2.609-0.834-3.317-1.936c-0.9-1.402-0.414-3.24,0.1-4.825
					c2.287-7.055,4.592-14.152,8.071-20.701c5.06-9.526,13.061-16.336,23.302-19.908c1.311-0.457,2.708-0.857,4.073-0.603
					c2.885,0.537,4.411,3.594,6.237,5.892c2.558,3.219,6.706,5.403,10.765,4.742c4.058-0.661,7.526-4.729,6.74-8.765
					c9.624,3.858,17.24,11.823,22.07,20.998c4.83,9.175,7.071,19.514,8.086,29.833c-5.609,3.268-12.11,4.988-18.602,4.92
					c2.163,19.795,3.965,39.24,6.128,59.035C468.243,315.678,468.042,316.083,467.246,316.114z"/>
				<path style="fill:none;stroke:#390334;stroke-width:1.1699;stroke-linecap:round;stroke-miterlimit:10;" d="M423.526,199.297
					c1.387,5.398,4.247,10.548,8.678,13.928c4.431,3.38,10.538,4.766,15.773,2.851s9.149-7.429,8.498-12.965"/>
				<path style="fill:none;stroke:#390334;stroke-width:1.1699;stroke-linecap:round;stroke-miterlimit:10;" d="M412.611,250.225
					c1.738-7.934,3.876-15.78,6.402-23.499"/>
				<path style="fill:none;stroke:#390334;stroke-width:1.1699;stroke-linecap:round;stroke-miterlimit:10;" d="M463.173,256.637
					c-1.832-9.624-3.664-19.247-5.495-28.871"/>
				<path style="fill:none;stroke:#390334;stroke-width:1.1699;stroke-linecap:round;stroke-miterlimit:10;" d="M480.234,244.747
					c-5.076,2.817-10.605,4.817-16.308,5.9"/>
				<path style="fill:none;stroke:#390334;stroke-width:1.1699;stroke-linecap:round;stroke-miterlimit:10;" d="M393.79,234.378
					c5.61,3.202,14.599,5.836,20.664,8.06"/>
				<path style="fill:none;stroke:#390334;stroke-width:1.1699;stroke-linecap:round;stroke-miterlimit:10;" d="M439.456,245.888
					c-2.919-1.076-6.35,1.902-5.987,4.992c0.363,3.09,3.959,5.221,6.951,4.368c2.992-0.852,4.917-4.192,4.517-7.278
					c-0.621-4.786-6.402-7.871-10.972-6.321c-4.571,1.549-7.303,6.791-6.682,11.577c0.863,6.661,8.181,11.82,14.669,10.083
					c5.702-1.526,9.497-7.746,8.923-13.62c-0.574-5.875-5.014-10.999-10.523-13.12c-3.046-1.173-6.532-1.503-9.559-0.28
					c-2.564,1.036-4.598,3.091-6.181,5.358c-4.317,6.183-5.615,14.548-2.728,21.515s10.132,12.085,17.669,11.829
					c7.537-0.256,14.652-6.305,15.52-13.796"/>
			</g>
		</g>
		<g>
			<g>
				<path style="fill:#440A3C;" d="M528.856,220.673c3.534,5.934,5.832,12.505,8.108,19.025
					c6.645,19.043,13.291,38.085,19.936,57.128c1.326,3.8,2.628,8.112,0.811,11.703c-1.929,3.814-6.557,5.238-10.7,6.289
					c-10.949-7.943-16.608-21.095-21.769-33.599c-6.769-16.399-13.587-32.965-16.582-50.451c-0.739-4.315-1.242-8.727-0.662-13.066
					c0.623-4.662,2.833-13.091,8.665-9.839C521.815,210.736,525.882,215.68,528.856,220.673z"/>
				<path style="fill:#803A00;" d="M504.314,204.56c1.801,2.416,1.982,5.775,2.065,8.887c0.946,35.556-0.389,71.178-3.992,106.515
					c-8.142-0.258-16.36-0.527-24.267-2.693c-1.703-0.467-3.559-1.166-4.397-2.854c-0.481-0.967-0.541-2.108-0.587-3.207
					c-0.797-19.095-0.245-38.251,1.633-57.246c0.951-9.612,2.241-19.182,3.869-28.683c0.814-4.75,1.711-9.483,2.694-14.194
					c0.558-2.673,0.908-6.745,2.99-8.662c2.367-2.18,6.763-1.242,9.611-1.281C497.539,201.095,501.822,201.217,504.314,204.56z"/>
				<path style="fill:#440A3C;" d="M486.263,176.091c1.029-1.239,2.602-2.245,4.177-1.912c0.945,0.2,1.746,0.864,2.277,1.671
					c0.53,0.807,0.817,1.75,1.017,2.695c0.571,2.702,0.211,5.451-0.485,8.093c-0.695,2.637-2.189,4.96-2.886,7.627
					c-0.089,0.339-0.168,0.71-0.024,1.029c0.232,0.516,0.965,0.631,1.471,0.38c0.507-0.252,0.835-0.752,1.128-1.237
					c2.521-4.169,4.405-8.484,4.549-13.412c0.059-2.014-0.166-4.141-1.326-5.788c-1.696-2.407-4.976-3.175-7.91-2.922
					c-1.483,0.128-2.997,0.492-4.172,1.406c-1.266,0.985-2.005,2.508-2.435,4.053c-1.028,3.697-0.378,7.949,2.153,10.833
					c1.173,1.336,2.875,0.675,2.83-1.131c-0.027-1.075-0.933-1.565-1.533-2.331C483.134,182.645,484.431,178.296,486.263,176.091z"
					/>
				<path style="fill:#440A3C;" d="M474.196,204.533c-0.802,0.594-1.624,1.208-2.15,2.055c-0.527,0.848-0.696,1.995-0.151,2.831
					c0.592,0.908,1.853,1.176,2.906,0.92c1.053-0.257,1.949-0.928,2.812-1.584c4.19-3.183,8.381-6.367,12.571-9.55
					c0.99-0.752,2.175-1.548,3.379-1.234c0.76,0.198,1.335,0.803,1.867,1.381c3.438,3.733,6.876,7.467,10.314,11.2
					c1.039-0.913,1.262-2.496,0.908-3.833c-0.354-1.338-1.183-2.491-1.996-3.61c-2.131-2.935-4.262-5.87-6.394-8.806
					c-3.842-5.292-6.661-2.644-10.915,0.503C482.962,198.048,478.579,201.291,474.196,204.533z"/>
				<path style="fill:#FF7300;" d="M448.728,317.093c5.36-31.341-2.239-64.65,6.358-95.106c1.533-5.43,3.651-10.83,7.314-14.855
					c5.668-6.229,14.052-8.216,21.941-9.924c2.772,8.976,5.738,16.809,5.87,26.39c0.132,9.574-1.226,19.082-2.34,28.575
					c-2.668,22.737-3.954,45.672-3.845,68.603c-10.899,0.563-21.867-0.371-32.564-2.774c-0.759-0.171-1.568-0.379-2.096-1
					c-0.528-0.621-0.569-1.797,0.113-2.197"/>
				<path style="fill:#440A3C;" d="M432.986,248.62c-7.538,18.513-13.689,37.591-18.387,57.02c3.322,2.542,6.644,5.084,9.966,7.627
					c11.339-8.965,18.906-21.82,25.148-34.858c6.544-13.667,11.92-27.86,17.096-42.102c1.97-5.42,3.934-10.967,4.073-16.733
					c0.098-4.04-1.113-13.953-6.805-13.442c-4.69,0.421-10.329,7.389-13.178,10.676C442.875,226.065,437.569,237.363,432.986,248.62
					z"/>
				<path style="fill:#FF7300;" d="M525.022,312.067c-0.134-5.503-0.268-11.007-0.403-16.51c-0.295-12.091-0.59-24.183-1.137-36.264
					c-0.077-1.697-0.168-3.393-0.255-5.089c0.056-8.708,0.112-17.415,0.167-26.123c0.044-6.849-0.178-13.883-4.962-19.255
					c-2.556-2.87-5.814-5.024-9.155-6.923c-2.41-1.37-4.917-2.637-7.617-3.267c-2.785,7.178-6.169,14.335-7.033,22.063
					c-0.866,7.747-0.394,15.592,0.003,23.388c1.306,25.695,1.771,51.437,1.395,77.163c5.579-0.305,11.158-0.61,16.738-0.914
					c2.959-0.162,9.497,1.056,11.316-2.145C525.093,316.407,525.074,314.168,525.022,312.067z"/>
			</g>
			<path style="fill:none;stroke:#390334;stroke-width:1.1699;stroke-linecap:round;stroke-miterlimit:10;" d="M478.076,201.12
				c6.526,17.591,5.378,36.995,3.586,55.671c-2.086,21.74-4.927,43.407-8.514,64.95"/>
			<path style="fill:none;stroke:#390334;stroke-width:1.1699;stroke-linecap:round;stroke-miterlimit:10;" d="M506.71,201.706
				c-8.497,17.286-7.303,37.55-5.918,56.762c1.558,21.607,3.116,43.214,4.673,64.822"/>
			<path style="fill:none;stroke:#FFFFFF;stroke-linecap:round;stroke-miterlimit:10;" d="M417.741,297.116
				c4.361,3.499,8.986,6.668,13.824,9.471"/>
			<path style="fill:none;stroke:#FFFFFF;stroke-linecap:round;stroke-miterlimit:10;" d="M541.616,308.592
				c6.265-1.701,11.763-6.054,14.856-11.762"/>
			<path style="fill:#FF7300;" d="M427.894,265.263c2.608,1.009,5.523-0.488,7.612-2.347c4.587-4.081,7.282-10.207,7.193-16.346
				c-0.037-2.523-0.91-6.542-4.084-6.827c-2.708-0.243-3.219,2.791-4.11,4.794C431.521,251.244,429.11,257.993,427.894,265.263z"/>
		</g>
		<g>
			<path style="fill:#305859;" d="M547.137,199.392c6.164,5.287,7.405,14.203,8.1,22.295c1.625,18.92,3.661,38.639,2.872,57.541
				c-0.848,20.329-1.696,40.658-2.544,60.986c-10.33,3.047-21.678,2.52-31.682-1.47c-4.617-33.61-6.109-67.649-4.453-101.534
				c0.513-10.503,1.394-21.312,5.433-31.137c1.874-4.557,3.568-9.247,8.769-10.203C538.348,195.004,543.481,196.256,547.137,199.392
				z"/>
			<path style="fill:#440A3C;" d="M530.924,176.111c1.05-1.222,2.639-2.201,4.209-1.842c0.942,0.215,1.732,0.893,2.249,1.709
				c0.517,0.816,0.788,1.764,0.972,2.712c0.526,2.711,0.12,5.454-0.62,8.084c-0.738,2.625-2.271,4.923-3.013,7.578
				c-0.094,0.337-0.18,0.707-0.041,1.028c0.224,0.52,0.954,0.647,1.465,0.404c0.511-0.243,0.848-0.738,1.149-1.218
				c2.589-4.127,4.546-8.41,4.772-13.334c0.092-2.012-0.097-4.143-1.229-5.809c-1.655-2.435-4.923-3.258-7.86-3.053
				c-1.485,0.103-3.005,0.442-4.195,1.336c-1.282,0.964-2.047,2.474-2.502,4.012c-1.089,3.679-0.51,7.941,1.972,10.867
				c1.15,1.355,2.863,0.723,2.848-1.084c-0.009-1.075-0.907-1.58-1.494-2.356C527.686,182.612,529.055,178.285,530.924,176.111z"/>
			<path style="fill:#440A3C;" d="M518.385,204.349c-0.812,0.58-1.644,1.18-2.184,2.019c-0.541,0.839-0.729,1.983-0.198,2.828
				c0.577,0.917,1.833,1.207,2.89,0.968c1.057-0.239,1.964-0.896,2.837-1.537c4.243-3.113,8.485-6.226,12.728-9.339
				c1.003-0.736,2.201-1.511,3.398-1.178c0.757,0.211,1.322,0.825,1.844,1.411c3.375,3.79,6.751,7.58,10.126,11.37
				c1.054-0.896,1.303-2.475,0.972-3.818c-0.331-1.343-1.141-2.51-1.935-3.643c-2.082-2.97-4.164-5.94-6.246-8.911
				c-3.754-5.355-6.616-2.755-10.922,0.321C527.258,198.01,522.822,201.18,518.385,204.349z"/>
			<g>
				<g>
					<path style="fill:#6AA4A6;" d="M530.043,342.675c1.264-48.829,1.095-97.718-0.507-146.531
						c-10.782,5.212-21.77,11.123-31.729,18.501c-1.835,1.359-3.731,2.85-4.795,5.178c-1.564,3.421-0.945,7.752,0.101,11.476
						c3.312,11.796,10.401,21.869,11.857,34.251c1.032,8.774-0.914,17.621-2.842,26.15c-3.801,16.821-7.601,33.641-11.402,50.462
						C503.737,341.774,517.033,343.062,530.043,342.675z"/>
					<path style="fill:#6AA4A6;" d="M475.442,250.832c5.32,7.672,11.178,14.748,17.483,21.116c0.852,0.86,1.83,1.754,2.915,1.622
						c0.858-0.104,1.577-0.833,2.239-1.531c2.947-3.108,5.894-6.216,8.842-9.324c1.981-2.089,4.021-4.271,5.14-7.21
						c1.207-3.17,1.198-6.854,0.911-10.354c-0.684-8.346-2.826-16.497-6.229-23.701c-1.531-3.241-4.615-8.569-8.088-8.324
						c-3.188,0.224-6.037,7.29-7.773,10.15c-2.734,4.507-5.4,9.08-7.996,13.716C482.188,238.238,475.028,250.235,475.442,250.832z"
						/>
				</g>
				<g>
					<path style="fill:#6AA4A6;" d="M542.117,342.675c-1.264-48.829-1.095-97.718,0.507-146.531
						c10.782,5.212,21.769,11.123,31.729,18.501c1.835,1.359,3.731,2.85,4.795,5.178c1.564,3.421,0.945,7.752-0.101,11.476
						c-3.312,11.796-10.401,21.869-11.857,34.251c-1.032,8.774,0.914,17.621,2.842,26.15c3.801,16.821,7.601,33.641,11.402,50.462
						C568.423,341.774,555.127,343.062,542.117,342.675z"/>
					<path style="fill:#6AA4A6;" d="M597.091,250.832c-5.32,7.672-11.178,14.748-17.483,21.116c-0.852,0.86-1.83,1.754-2.915,1.622
						c-0.858-0.104-1.577-0.833-2.239-1.531c-2.947-3.108-5.895-6.216-8.842-9.324c-1.981-2.089-4.021-4.271-5.14-7.21
						c-1.207-3.17-1.198-6.854-0.911-10.354c0.684-8.346,2.827-16.497,6.229-23.701c1.531-3.241,4.615-8.569,8.088-8.324
						c3.188,0.224,6.037,7.29,7.773,10.15c2.734,4.507,5.401,9.08,7.996,13.716C590.345,238.238,597.505,250.235,597.091,250.832z"
						/>
				</g>
			</g>
			<path style="fill:none;stroke:#390334;stroke-width:1.1699;stroke-linecap:round;stroke-miterlimit:10;" d="M499.747,213.049
				c3.443,5.771,6.365,11.852,8.718,18.147"/>
			<path style="fill:none;stroke:#390334;stroke-width:1.1699;stroke-linecap:round;stroke-miterlimit:10;" d="M572.606,213.361
				c-2.834,5.735-5.344,11.63-7.513,17.648"/>
			<path style="fill:none;stroke:#390334;stroke-width:1.1699;stroke-linecap:round;stroke-miterlimit:10;" d="M547.672,198.535
				c4.19,7.701,8.38,15.403,12.57,23.104c-6.231,9.219-12.463,18.438-18.694,27.657"/>
			<path style="fill:none;stroke:#390334;stroke-width:1.1699;stroke-linecap:round;stroke-miterlimit:10;" d="M521.217,200.633
				c-2.51,5.413-5.02,10.825-7.53,16.238c-0.629,1.356-1.272,2.775-1.228,4.27c0.053,1.807,1.093,3.416,2.097,4.919
				c5.348,8.002,10.696,16.004,16.044,24.006"/>
			<path style="fill:none;stroke:#390334;stroke-width:1.1699;stroke-linecap:round;stroke-miterlimit:10;" d="M499.46,330.343
				c-0.139,0.349-0.277,0.697-0.416,1.046c7.437,1.136,15.055,1.077,22.474-0.174c0.799-11.39,0.61-22.849-0.565-34.207
				c-3.743,7.296-12.026,12.002-20.209,11.482C500.313,315.99,502.236,323.362,499.46,330.343z"/>
			<path style="fill:none;stroke:#390334;stroke-width:1.1699;stroke-linecap:round;stroke-miterlimit:10;" d="M569.607,325.54
				c-6.95,0.531-13.874,1.398-20.74,2.596c0.736-9.802,0.878-19.648,0.423-29.466c5.225,4.27,12.479,6.454,19.224,6.634
				C568.992,312.516,569.13,318.328,569.607,325.54z"/>
			<path style="fill:none;stroke:#390334;stroke-width:1.1699;stroke-linecap:round;stroke-miterlimit:10;" d="M566.949,264.455
				c-2.536-10.978-3.116-22.406-1.703-33.585"/>
			<path style="fill:none;stroke:#390334;stroke-width:1.1699;stroke-linecap:round;stroke-miterlimit:10;" d="M505.088,265.144
				c4.13-11.073,5.297-23.235,3.346-34.891"/>
		</g>
		<g>
			<path style="fill:#440A3C;" d="M396.025,478.055c-8.432-98.408-6.485-197.056-0.659-295.65c3.427-0.08,6.963,1.513,10.39,1.432
				c-2.706,98.665-2.563,195.264,0.564,293.917C403.865,478.105,398.479,477.704,396.025,478.055z"/>
			<path style="fill:#440A3C;" d="M608.689,191.591c-0.518-3.059-1.036-6.117-1.554-9.175
				c-73.156-6.081-146.762-7.126-220.042-3.124c-0.389,4.133-1.712,7.834-2.101,11.967
				C459.164,187.228,534.576,186.234,608.689,191.591z"/>
			<path style="fill:#440A3C;" d="M414.893,468.927c2.349-0.117,4.849-0.2,6.881,0.984c2.032,1.183,3.201,4.144,1.707,5.96
				c-17.371,3.09-35.03,4.555-52.672,4.371c-0.785-0.008,0.558-8.33,2.413-9.218c3.075-1.473,9.563-0.494,12.989-0.665
				C395.772,469.881,405.333,469.404,414.893,468.927z"/>
			<path style="fill:#440A3C;" d="M556.831,477.215c1.177,2.483,5.197,2.387,8.236,1.941c7.534-1.105,15.146-1.679,22.76-1.728
				c7.393-0.048,14.687,0.924,22.07,0.375c1.353-0.101,2.98-0.438,3.425-1.721c0.269-0.776-0.02-1.625-0.339-2.381
				c-0.415-0.984-0.918-1.983-1.775-2.621c-1.13-0.84-2.642-0.891-4.049-0.909c-10.143-0.129-20.117-0.661-30.276-0.681
				c-4.836-0.009-11.111-0.972-15.797-0.034C558,470.074,555.395,474.184,556.831,477.215z"/>
			<path style="fill:#440A3C;" d="M588.232,476.73c-8.385-96.809-6.391-193.859-0.52-290.858c3.427-0.081,6.962,1.485,10.389,1.404
				c-2.753,97.067-2.655,192.1,0.425,289.154C596.072,476.776,590.686,476.383,588.232,476.73z"/>
		</g>
	</g>
	<g>
		<g>
			<path style="fill:#803A00;" d="M381.643,483.186c19.522-42.815,36.444-86.318,51.222-130.992
				c23.682-2.762,47.625-3.283,71.405-1.554c-9.838,44.438-18.702,88.966-28.539,133.404
				C444.313,483.129,413.071,482.784,381.643,483.186z"/>
			<g>
				<path style="fill:#FF7300;" d="M463.216,484.044c18.461-0.538,30.446-0.872,48.858-0.98
					c-23.558-23.698-40.701-47.397-64.259-71.095C452.869,436.001,457.901,460.036,463.216,484.044z"/>
				<path style="fill:#FF7300;" d="M521.001,394.887c-5.203-14.122-10.174-28.346-14.92-42.694
					c-9.897-1.154-19.841-1.893-29.798-2.264C490.127,365.925,505.071,380.968,521.001,394.887z"/>
				<path style="fill:#CD1B4D;" d="M557.303,483.186c-13.253-29.065-25.304-58.448-36.303-88.298
					c-15.93-13.919-30.873-28.962-44.717-44.958c-13.869-0.517-27.765-0.296-41.607,0.71c4.523,20.43,8.839,40.879,13.139,61.329
					c23.558,23.698,40.701,47.397,64.259,71.095C524.998,482.988,544.342,483.02,557.303,483.186z"/>
			</g>
		</g>
		<g>
			<path style="fill:none;stroke:#FFFFFF;stroke-width:5;stroke-linecap:round;stroke-linejoin:round;stroke-miterlimit:10;" d="
				M452.59,379.875c1.055,3.596,3.367,7.408,7.081,7.908c3.243,0.437,6.266-1.899,8.068-4.63c4.695-7.112,3.4-21.022-5.858-24.149
				C450.37,355.115,450.736,373.559,452.59,379.875z"/>
			<path style="fill:none;stroke:#FFFFFF;stroke-width:5;stroke-linecap:round;stroke-linejoin:round;stroke-miterlimit:10;" d="
				M480.287,424.31c-2.829-12.183-4.582-24.615-5.232-37.105c4.21-1.262,8.787-0.762,12.383,1.766
				c3.596,2.528,5.59,7.425,4.113,11.565c-0.998,2.798-3.374,4.932-6.025,6.272c-2.651,1.341-5.589,1.987-8.491,2.62"/>
			<path style="fill:none;stroke:#FFFFFF;stroke-width:5;stroke-linecap:round;stroke-linejoin:round;stroke-miterlimit:10;" d="
				M509.602,439.964c-5.052-0.088-10.119,0.942-14.736,2.994c0.225-8.659-0.656-17.345-2.615-25.782
				c5.268-0.105,10.766-0.448,15.943,0.531"/>
			<path style="fill:none;stroke:#FFFFFF;stroke-width:5;stroke-linecap:round;stroke-linejoin:round;stroke-miterlimit:10;" d="
				M506.993,428.458c-4.509,1.32-6.652,1.545-11.337,1.193"/>
			<path style="fill:none;stroke:#FFFFFF;stroke-width:5;stroke-linecap:round;stroke-linejoin:round;stroke-miterlimit:10;" d="
				M515.302,472.05c-0.639-7.907-1.279-15.814-1.918-23.721c5.769,7.74,13.011,14.627,20.989,20.062
				c-1.083-7.825-2.68-15.579-4.775-23.196"/>
		</g>
	</g>
	<g>
		<g>
			<path style="fill:#440A3C;" d="M225.843,382.879c7.683-1.909,15.479-3.367,23.333-4.363c1.255-0.159,2.618-0.285,3.702,0.367
				c1.028,0.618,1.561,1.791,2.033,2.894c8.011,18.681,16.031,37.384,22.624,56.611c0.601,1.769-27.019,9.109-29.817,9.603
				c-5.6-10.32-10.296-21.13-14.028-32.263C230.055,404.885,228.042,394.002,225.843,382.879z"/>
			<path style="fill:#FFFFFF;" d="M245.958,381.982c1.267,1.899,2.215,4.01,2.793,6.219c0.209,0.805-16.732,4.817-18.367,4.84
				c-0.752-3.127-1.478-6.721,2.257-7.672C237.084,384.238,241.549,383.257,245.958,381.982z"/>
			<path style="fill:#FFFFFF;" d="M249.404,389.715c0.536,1.859,0.883,3.808,1.029,5.789c-5.892,1.998-11.785,3.996-17.677,5.995
				c0.44-0.128-0.221-5.915,0.217-6.524c0.682-0.95,4.138-1.083,5.195-1.368C241.963,392.581,245.718,391.281,249.404,389.715z"/>
			<path style="fill:#FFFFFF;" d="M251.75,398.394c-0.049-0.255-0.116-0.51-0.284-0.704c-0.437-0.501-1.244-0.308-1.865-0.073
				c-5.41,2.051-10.754,4.277-16.021,6.673c0.095,0.465,1.52,6.079,1.357,6.141c5.956-2.263,11.913-4.526,17.869-6.79
				c-0.442-1.693-0.727-3.405-1.033-5.128C251.765,398.474,251.758,398.434,251.75,398.394z"/>
			<path style="fill:#FFFFFF;" d="M239.032,418.758c5.517-1.832,10.869-4.159,15.972-6.943c-0.749-1.957-1.498-3.915-2.247-5.872
				c-0.274-0.715-10.577,3.537-11.523,3.988c-1.156,0.551-3.95,1.384-4.128,2.833C236.905,414.407,238.504,417.194,239.032,418.758z
				"/>
			<path style="fill:#FFFFFF;" d="M243.538,428.298c5.241-2.494,10.405-5.148,15.484-7.957c-1.029-1.986-2.057-3.972-3.086-5.958
				c-0.349-0.673-10.513,4.208-11.475,4.713c-1.244,0.652-4.083,1.538-3.833,3.115C240.935,424.145,242.687,426.523,243.538,428.298
				z"/>
			<path style="fill:#440A3C;" d="M240.23,390.734c0.354,0.35,0.309,0.919,0.314,1.417c0.005,0.498,0.187,1.107,0.677,1.194
				c0.177,0.032,0.358-0.017,0.532-0.065c2.776-0.766,5.552-1.532,8.328-2.299c-0.09-0.863-0.332-1.709-0.711-2.489
				c-0.848-1.748-2.353-0.69-3.67-0.121C243.877,389.159,242.053,389.946,240.23,390.734z"/>
			<path style="fill:#440A3C;" d="M243.078,397.663c0.264,1.275,0.528,2.55,0.793,3.826c0.071,0.344,0.171,0.729,0.477,0.902
				c0.312,0.176,0.701,0.055,1.036-0.069c2.632-0.974,5.264-1.949,7.896-2.923c-0.382-1.21-0.764-2.419-1.145-3.629
				c-0.117-0.372-0.251-1.48-0.542-1.708c-0.312-0.244-1.119,0.308-1.484,0.471C247.766,395.576,245.422,396.619,243.078,397.663z"
				/>
			<path style="fill:#440A3C;" d="M248.596,413.475c-0.157,0.078-0.328,0.17-0.391,0.334c-0.068,0.177,0.013,0.373,0.092,0.546
				c0.703,1.518,1.406,3.036,2.11,4.554c1.673-0.832,3.345-1.663,5.018-2.495c0.482-0.24,1.023-0.557,1.101-1.089
				c0.042-0.285-0.064-0.569-0.168-0.837c-0.35-0.902-0.7-1.803-1.049-2.705c-0.375-0.966-0.493-1.387-1.52-0.883
				C252.072,411.742,250.371,412.764,248.596,413.475z"/>
		</g>
		<g>
			<path style="fill:#8BCDA9;" d="M203.399,394.682c0.643-0.914,1.358-1.884,2.421-2.229c1.073-0.348,2.232,0.027,3.297,0.4
				c6.24,2.185,12.481,4.369,18.721,6.554c-4.11,11.576-9.182,22.81-15.148,33.548c-4.962-0.534-9.925-1.068-14.888-1.602
				c-3.872-0.417-10.548,0.157-13.933-1.813c-3.939-2.292-0.485-6.39,1.244-8.849c2.844-4.046,5.689-8.092,8.533-12.138
				C196.898,403.93,200.148,399.306,203.399,394.682z"/>
			<path style="fill:none;stroke:#390334;stroke-linecap:round;stroke-miterlimit:10;" d="M190.021,420.301
				c4.918-6.332,9.836-12.664,14.754-18.995c0.722-0.929,1.496-1.899,2.589-2.332c1.582-0.627,3.353,0.031,4.924,0.685
				c2.355,0.979,4.711,1.958,7.066,2.937c0.705,0.293,1.469,0.64,1.801,1.328c0.466,0.964-0.129,2.081-0.706,2.983
				c-3.937,6.157-7.874,12.314-11.81,18.471"/>
			<path style="fill:#CD1B4D;" d="M199.788,421.047c1.054,1.117,2.838,1.47,4.236,0.833c1.397-0.637,2.301-2.222,2.13-3.748
				c-0.171-1.526-1.409-2.874-2.917-3.166C199.847,414.309,197.372,418.487,199.788,421.047z"/>
			<path style="fill:#CD1B4D;" d="M208.493,410.973c0.622,0.754,1.692,1.082,2.646,0.873c0.955-0.209,1.769-0.921,2.17-1.811
				c0.402-0.891,0.405-1.939,0.077-2.86c-0.374-1.051-1.218-1.969-2.298-2.249C207.687,404.046,206.831,408.957,208.493,410.973z"/>
		</g>
		<g>
			<path style="fill:#FF7300;" d="M273.052,420.193c-30.787,0.14-62.762,0.856-93.902,0c-0.713,19.528-1.425,39.057-2.138,58.585
				c0.765-0.098,1.012,0.084,1.777-0.014c0,0,56.137,0,94.647,0c0.534-19.483,1.067-38.966,1.601-58.449
				C274.374,420.27,273.72,420.19,273.052,420.193z"/>
			<path style="fill:#B25A12;" d="M308.392,421.621c-11.261-0.255-22.164-0.561-33.353-1.306
				c-0.534,19.483-1.067,38.966-1.601,58.449c20.105,0,35.408,0,35.408,0C309.793,459.742,309.372,440.607,308.392,421.621z"/>
			<path style="fill:#FFAB66;" d="M275.039,420.315c-5.386,9.576-10.665,19.548-17.273,28.324
				c-8.392,0.429-16.784,0.859-25.177,1.288c-11.116,0.569-22.234,1.137-33.361,1.366c-12.92,0.266-26.032,0.049-38.463-3.48
				c6.202-9.16,12.403-18.32,18.604-27.481c6.575-0.14,12.484,0.062,18.717,0.204c6.787,0.155,13.688,0.463,20.11,0.227
				c4.393-0.162,8.857-0.497,13.248-0.286C246.223,421.19,260.259,419.602,275.039,420.315z"/>
		</g>
	</g>
	<g>
		<path style="fill:#FE9D7C;" d="M582.447,195.158c2.121,3.588,6.537,6.08,10.525,4.867c3.295-1.003,5.481-4.173,6.655-7.411
			c1.495-4.123,1.716-8.896-0.334-12.773c-2.049-3.878-6.702-6.496-10.941-5.37C579.814,176.74,578.562,188.584,582.447,195.158z"/>
		<path style="fill:none;stroke:#390334;stroke-width:1.0685;stroke-linecap:round;stroke-miterlimit:10;" d="M583.715,196.376
			c0.002-3.751,0.363-7.501,1.076-11.183"/>
		<path style="fill:none;stroke:#390334;stroke-width:1.0685;stroke-linecap:round;stroke-miterlimit:10;" d="M587.667,199.479
			c0.577-4.037,1.364-8.044,2.358-11.999"/>
		<path style="fill:none;stroke:#390334;stroke-width:1.0685;stroke-linecap:round;stroke-miterlimit:10;" d="M593.834,199.286
			c0.977-3.331,1.674-6.745,2.082-10.192"/>
	</g>
	<g>
		<path style="fill:#FE9D7C;" d="M419.937,186.827c2.046,2.416,4.272,4.792,7.114,6.188c2.842,1.396,6.441,1.641,9.063-0.132
			c5.398-3.649,3.246-11.222-0.785-14.886c-4.973-4.519-10.511-5.866-15.883-0.987C416.032,180.111,417.301,183.713,419.937,186.827
			z"/>
		<path style="fill:none;stroke:#390334;stroke-width:1.1699;stroke-linecap:round;stroke-miterlimit:10;" d="M423.192,182.778
			c3.317,3.279,6.393,6.801,9.196,10.528"/>
		<path style="fill:none;stroke:#390334;stroke-width:1.1699;stroke-linecap:round;stroke-miterlimit:10;" d="M428.255,181.13
			c3.271,3.285,5.988,7.12,8.003,11.296"/>
		<path style="fill:none;stroke:#390334;stroke-width:1.1699;stroke-linecap:round;stroke-miterlimit:10;" d="M431.557,178.707
			c3.405,3.299,6.021,7.407,7.569,11.888"/>
	</g>
	<g>
		<g>
			<path style="fill:#FE9D7C;" d="M582.99,275.535c-2.082,0.219-4.287,0.732-5.707,2.271c-1.508,1.635-1.78,4.027-1.943,6.246
				c-0.244,3.314-0.3,6.989,1.835,9.536c1.626,1.939,4.212,2.794,6.715,3.166c3.431,0.51,6.998,0.27,10.258-0.912
				c1.827-0.662,3.62-1.681,4.658-3.323c0.912-1.442,1.145-3.206,1.198-4.911c0.101-3.226-0.433-8.488-3.513-10.401
				C593.005,275.043,586.898,275.125,582.99,275.535z"/>
			<path style="fill:#FE9D7C;" d="M608.401,278.285c0.723,4.015,0.719,8.16-0.013,12.173c-0.14,0.766-0.343,1.59-0.952,2.075
				c-0.494,0.393-1.156,0.482-1.784,0.547c-4.458,0.46-8.967,0.417-13.414-0.13c-0.308-0.038-0.627-0.082-0.888-0.25
				c-0.525-0.337-0.644-1.04-0.714-1.66c-0.24-2.12-0.477-4.292,0.017-6.367c0.465-1.953,2.063-4.474,4.108-5.107
				c1.164-0.36,2.59-0.088,3.79-0.106c1.584-0.023,3.167-0.125,4.742-0.306C603.718,279.106,608.426,278.423,608.401,278.285z"/>
			<path style="fill:none;stroke:#390334;stroke-width:1.1699;stroke-linecap:round;stroke-miterlimit:10;" d="M576.557,279.395
				c3.247,0.428,6.552,0.411,9.795-0.048"/>
			<path style="fill:none;stroke:#390334;stroke-width:1.1699;stroke-linecap:round;stroke-miterlimit:10;" d="M575.415,285.474
				c3.29,0.791,6.765,0.799,10.058,0.021"/>
			<path style="fill:none;stroke:#390334;stroke-width:1.1699;stroke-linecap:round;stroke-miterlimit:10;" d="M576.649,290.748
				c3.167,0.628,6.433,0.751,9.639,0.364"/>
		</g>
		<g>
			<path style="fill:#BF5600;" d="M706.999,221.35c4.33,10.467,1.757,22.883-4.489,32.332c-6.246,9.45-15.718,16.317-25.618,21.821
				c-23.006,12.791-49.492,19.249-75.803,18.484c-0.267-5.26-0.534-10.52-0.8-15.78c31.044-3.678,60.198-21.145,78.086-46.783
				c2.488-3.566,4.784-7.299,7.771-10.459C692.751,213.979,702.438,210.325,706.999,221.35z"/>
			<path style="fill:none;stroke:#390334;stroke-width:1.0758;stroke-linecap:round;stroke-miterlimit:10;" d="M606.236,277.613
				c2.115,5.148,3.165,10.73,3.066,16.295"/>
			<path style="fill:none;stroke:#390334;stroke-width:1.0758;stroke-linecap:round;stroke-miterlimit:10;" d="M663.318,277.321
				c1.151-3.628,3.472-6.875,6.532-9.138c3.061-2.263,6.845-3.531,10.651-3.569"/>
		</g>
	</g>
</g>
</svg>
