<?xml version="1.0" encoding="iso-8859-1"?>
<!-- Uploaded to: SVG Repo, www.svgrepo.com, Generator: SVG Repo Mixer Tools -->
<svg version="1.1" id="Layer_1" xmlns="http://www.w3.org/2000/svg" xmlns:xlink="http://www.w3.org/1999/xlink" 
	 viewBox="0 0 512.001 512.001" xml:space="preserve">
<g>
	<polygon style="fill:#FED322;" points="484.063,135.281 475.017,164.281 493.08,192.215 461.731,190.481 441.719,218.384 
		431.759,187.584 400.958,177.624 428.862,157.611 427.128,126.263 455.061,144.325 	"/>
	<polygon style="fill:#FED322;" points="27.939,135.281 56.939,144.325 84.873,126.263 83.139,157.611 111.042,177.624 
		80.242,187.584 70.282,218.384 50.269,190.481 18.921,192.215 36.983,164.281 	"/>
</g>
<path style="fill:#C60024;" d="M286.675,43.848c-13.317,0-21.921,6.938-30.675,15.353c-0.013,0.012-0.024,0.023-0.037,0.035
	c-9.561-8.987-17.376-15.388-30.712-15.388c-19.15,0-34.149,15.524-34.149,34.674c0,9.064,2.63,14.181,4.759,18.493
	c8.786,17.799,60.102,60.322,60.102,60.322s0.013-0.01,0.037-0.03c1.532-1.266,51.818-42.885,60.066-60.292
	c2.047-4.318,4.832-9.827,4.832-18.493C320.897,59.373,305.826,43.848,286.675,43.848z"/>
<path style="fill:#A50020;" d="M286.675,43.848c-13.317,0-21.921,6.938-30.675,15.353v98.106
	c1.532-1.266,51.818-42.885,60.066-60.292c2.047-4.318,4.832-9.827,4.832-18.493C320.897,59.373,305.826,43.848,286.675,43.848z"/>
<rect x="336.627" y="149.483" width="15.609" height="15.718"/>
<rect x="186.883" y="232.413" width="15.609" height="15.718"/>
<rect x="41.552" y="346.456" width="15.609" height="15.718"/>
<rect x="362.112" y="373.775" width="15.609" height="15.718"/>
<path d="M323.773,100.38l0.238-0.5c2.13-4.482,5.351-11.255,5.351-21.358c0-23.453-18.878-42.534-42.082-42.534
	c-13.374,0-22.75,5.71-30.751,12.614c-8.438-7.243-17.395-12.614-30.673-12.614c-23.163,0-42.008,19.081-42.008,42.534
	c0,10.698,3.137,17.048,5.428,21.684l0.141,0.286c9.26,18.759,56.751,58.434,62.136,62.896l5.001,4.145l5.012-4.132
	C267,158.923,314.902,119.101,323.773,100.38z M256.578,147.089c-20.04-16.995-47.637-42.555-53.066-53.552l-0.145-0.291
	c-1.954-3.957-3.802-7.696-3.802-14.723c0-15.037,11.548-26.816,26.29-26.816c10.47,0,16.554,5.008,25.329,13.256l5.445,5.118
	l5.386-5.179c9.099-8.752,15.505-13.195,25.263-13.195c14.783,0,26.363,11.778,26.363,26.816c0,6.557-1.946,10.651-3.828,14.61
	l-0.245,0.517C304.47,104.413,276.24,130.469,256.578,147.089z"/>
<path d="M496.026,123.317l-39.79,12.41l-37.809-24.45l2.349,42.462l-37.052,26.572l41.792,13.514l13.514,41.792l26.572-37.052
	l42.461,2.349l-24.447-37.808L496.026,123.317z M457.859,182.395l-13.453,18.756L438,181.343l-19.808-6.406l18.756-13.453
	l-1.119-20.236l18.056,11.677l18.214-5.681l-5.681,18.212l11.677,18.057L457.859,182.395z"/>
<path d="M46.397,198.565l26.572,37.052l13.514-41.792l41.792-13.514l-37.052-26.572l2.349-42.462l-37.809,24.45l-39.789-12.41
	l12.41,39.791L3.937,200.916L46.397,198.565z M39.902,147.244l18.214,5.681l18.056-11.677l-1.119,20.236l18.756,13.453
	l-19.808,6.406l-6.406,19.808l-13.453-18.756l-20.236,1.119l11.677-18.057L39.902,147.244z"/>
<path d="M108.432,204.186L97.304,215.29c0.316,0.316,31.994,32.308,63.448,84.846c28.973,48.397,63.511,124.438,63.511,211.865
	h15.718c0-91.017-35.751-169.841-65.743-219.939C141.801,237.879,109.778,205.537,108.432,204.186z"/>
<path d="M403.495,204.186c-1.347,1.351-33.369,33.693-65.807,87.875C307.696,342.159,271.945,420.982,271.945,512h15.718
	c0-87.258,34.413-163.167,63.283-211.482c31.454-52.638,63.36-84.911,63.68-85.232L403.495,204.186z"/>
<rect x="248.74" y="182.271" width="15.718" height="266.606"/>
<polygon points="111.599,59.019 102.911,67.707 94.137,58.933 83.022,70.047 91.753,78.778 83.023,87.508 94.136,98.623 
	102.826,89.936 111.599,98.71 122.714,87.595 113.983,78.865 122.714,70.135 "/>
<polygon points="407.339,0.087 398.653,8.774 389.88,0 378.764,11.115 387.495,19.845 378.764,28.575 389.88,39.69 398.566,31.003 
	407.339,39.777 418.455,28.662 409.724,19.932 418.455,11.2 "/>
<polygon points="477.857,302.536 469.171,311.223 460.396,302.449 449.283,313.564 458.013,322.294 449.282,331.025 460.397,342.14 
	469.084,333.452 477.857,342.226 488.973,331.111 480.243,322.381 488.973,313.651 "/>
</svg>