<?xml version="1.0" encoding="utf-8"?>
<!-- Generator: Adobe Illustrator 27.5.0, SVG Export Plug-In . SVG Version: 6.00 Build 0)  -->
<svg version="1.1" xmlns="http://www.w3.org/2000/svg" xmlns:xlink="http://www.w3.org/1999/xlink" x="0px" y="0px"
	 viewBox="0 0 500 500" style="enable-background:new 0 0 500 500;" xml:space="preserve">
<g id="Background_Complete">
	<g>
		<rect y="382.398" style="fill:#EBEBEB;" width="500" height="0.25"/>
		<rect x="416.779" y="398.494" style="fill:#EBEBEB;" width="33.122" height="0.25"/>
		<rect x="322.527" y="401.208" style="fill:#EBEBEB;" width="8.693" height="0.25"/>
		<rect x="396.586" y="389.208" style="fill:#EBEBEB;" width="19.192" height="0.25"/>
		<rect x="52.459" y="390.889" style="fill:#EBEBEB;" width="43.193" height="0.25"/>
		<rect x="104.556" y="390.889" style="fill:#EBEBEB;" width="6.333" height="0.25"/>
		<rect x="131.471" y="395.111" style="fill:#EBEBEB;" width="93.676" height="0.25"/>
		<path style="fill:#EBEBEB;" d="M237.014,337.8H43.915c-3.147,0-5.708-2.561-5.708-5.708V60.66c0-3.147,2.561-5.708,5.708-5.708
			h193.099c3.146,0,5.707,2.561,5.707,5.708v271.432C242.721,335.239,240.16,337.8,237.014,337.8z M43.915,55.203
			c-3.01,0-5.458,2.448-5.458,5.458v271.432c0,3.01,2.448,5.458,5.458,5.458h193.099c3.009,0,5.457-2.448,5.457-5.458V60.66
			c0-3.009-2.448-5.458-5.457-5.458H43.915z"/>
		<path style="fill:#EBEBEB;" d="M453.31,337.8H260.212c-3.147,0-5.707-2.561-5.707-5.708V60.66c0-3.147,2.561-5.708,5.707-5.708
			H453.31c3.148,0,5.708,2.561,5.708,5.708v271.432C459.019,335.239,456.458,337.8,453.31,337.8z M260.212,55.203
			c-3.009,0-5.457,2.448-5.457,5.458v271.432c0,3.01,2.448,5.458,5.457,5.458H453.31c3.01,0,5.458-2.448,5.458-5.458V60.66
			c0-3.009-2.448-5.458-5.458-5.458H260.212z"/>
	</g>
	<g>
		<g>
			<g>
				<rect x="68.548" y="80.059" style="fill:#E6E6E6;" width="134.712" height="224.062"/>
				<path style="fill:#E6E6E6;" d="M217.696,75.459H59.828c-0.738,0-1.337,0.599-1.337,1.337l0,0c0,0.739,0.599,1.337,1.337,1.337
					h157.868c0.739,0,1.337-0.599,1.337-1.337l0,0C219.034,76.057,218.435,75.459,217.696,75.459z"/>
				<rect x="71.219" y="80.059" style="fill:#F0F0F0;" width="137.757" height="224.062"/>
				<polygon style="fill:#E6E6E6;" points="203.26,304.121 68.548,304.121 68.548,307.909 207.198,307.909 				"/>
				<polygon style="fill:#F0F0F0;" points="218.499,304.121 80.742,304.121 84.68,307.909 222.437,307.909 				"/>
				
					<rect x="36.069" y="131.214" transform="matrix(-1.836970e-16 1 -1 -1.836970e-16 332.1878 51.9924)" style="fill:#FAFAFA;" width="208.057" height="121.752"/>
				<polygon style="fill:#FFFFFF;" points="106.86,296.118 153.83,88.062 176.002,88.062 129.033,296.118 				"/>
				<polygon style="fill:#FFFFFF;" points="133.796,296.118 180.765,88.062 189.409,88.062 142.44,296.118 				"/>
				
					<rect x="96.437" y="191.582" transform="matrix(-1.836970e-16 1 -1 -1.836970e-16 392.5556 -8.3754)" style="fill:#E6E6E6;" width="208.057" height="1.016"/>
			</g>
			<g style="opacity:0.4;">
				<rect x="65.542" y="73.066" style="fill:#F0F0F0;" width="13.773" height="203.393"/>
				<rect x="73.95" y="73.066" style="fill:#E6E6E6;" width="10.73" height="203.393"/>
				<rect x="79.315" y="73.066" style="fill:#F0F0F0;" width="13.773" height="203.393"/>
				<rect x="87.723" y="73.066" style="fill:#E6E6E6;" width="10.73" height="203.393"/>
				<rect x="93.088" y="73.066" style="fill:#F0F0F0;" width="13.773" height="203.393"/>
			</g>
			<g style="opacity:0.4;">
				<rect x="187.911" y="73.066" style="fill:#F0F0F0;" width="7.937" height="203.393"/>
				<rect x="192.756" y="73.066" style="fill:#E6E6E6;" width="6.183" height="203.393"/>
				<rect x="195.848" y="73.066" style="fill:#F0F0F0;" width="7.937" height="203.393"/>
				<rect x="200.693" y="73.066" style="fill:#E6E6E6;" width="6.183" height="203.393"/>
				<rect x="203.785" y="73.066" style="fill:#F0F0F0;" width="7.937" height="203.393"/>
			</g>
		</g>
		<g>
			<g>
				<rect x="284.846" y="80.059" style="fill:#E6E6E6;" width="134.712" height="224.062"/>
				<path style="fill:#E6E6E6;" d="M433.994,75.459H276.126c-0.738,0-1.337,0.599-1.337,1.337l0,0c0,0.739,0.599,1.337,1.337,1.337
					h157.868c0.739,0,1.337-0.599,1.337-1.337l0,0C435.332,76.057,434.733,75.459,433.994,75.459z"/>
				<rect x="287.517" y="80.059" style="fill:#F0F0F0;" width="137.757" height="224.062"/>
				<polygon style="fill:#E6E6E6;" points="419.558,304.121 284.846,304.121 284.846,307.909 423.496,307.909 				"/>
				<polygon style="fill:#F0F0F0;" points="434.797,304.121 297.04,304.121 300.978,307.909 438.735,307.909 				"/>
				
					<rect x="252.367" y="131.214" transform="matrix(-1.836970e-16 1 -1 -1.836970e-16 548.4857 -164.3055)" style="fill:#FAFAFA;" width="208.057" height="121.752"/>
				<polygon style="fill:#FFFFFF;" points="323.158,296.118 370.128,88.062 392.299,88.062 345.331,296.118 				"/>
				<polygon style="fill:#FFFFFF;" points="350.094,296.118 397.063,88.062 405.707,88.062 358.737,296.118 				"/>
				
					<rect x="312.735" y="191.582" transform="matrix(-1.836970e-16 1 -1 -1.836970e-16 608.8535 -224.6733)" style="fill:#E6E6E6;" width="208.057" height="1.016"/>
			</g>
			<g style="opacity:0.4;">
				<rect x="281.84" y="73.066" style="fill:#F0F0F0;" width="13.773" height="203.393"/>
				<rect x="290.248" y="73.066" style="fill:#E6E6E6;" width="10.73" height="203.393"/>
				<rect x="295.613" y="73.066" style="fill:#F0F0F0;" width="13.773" height="203.393"/>
				<rect x="304.021" y="73.066" style="fill:#E6E6E6;" width="10.73" height="203.393"/>
				<rect x="309.386" y="73.066" style="fill:#F0F0F0;" width="13.773" height="203.393"/>
			</g>
			<g style="opacity:0.4;">
				<rect x="404.209" y="73.066" style="fill:#F0F0F0;" width="7.937" height="203.393"/>
				<rect x="409.054" y="73.066" style="fill:#E6E6E6;" width="6.183" height="203.393"/>
				<rect x="412.146" y="73.066" style="fill:#F0F0F0;" width="7.937" height="203.393"/>
				<rect x="416.991" y="73.066" style="fill:#E6E6E6;" width="6.183" height="203.393"/>
				<rect x="420.083" y="73.066" style="fill:#F0F0F0;" width="7.937" height="203.393"/>
			</g>
		</g>
		<g>
			<g>
				<rect x="422.326" y="328.227" style="fill:#E6E6E6;" width="9.186" height="54.17"/>
				<rect x="428.559" y="328.227" style="fill:#F0F0F0;" width="5.411" height="54.17"/>
				<rect x="397.078" y="328.227" style="fill:#E6E6E6;" width="9.186" height="54.17"/>
				<rect x="402.576" y="328.227" style="fill:#F0F0F0;" width="5.411" height="54.17"/>
				
					<rect x="305.189" y="328.227" transform="matrix(-1 -1.224647e-16 1.224647e-16 -1 740.8348 666.027)" style="fill:#F0F0F0;" width="130.457" height="9.573"/>
				<rect x="269.973" y="328.227" style="fill:#E6E6E6;" width="9.186" height="54.17"/>
				<rect x="275.471" y="328.227" style="fill:#F0F0F0;" width="5.411" height="54.17"/>
				
					<rect x="268.332" y="328.227" transform="matrix(-1 -1.224647e-16 1.224647e-16 -1 569.5897 666.027)" style="fill:#E6E6E6;" width="32.927" height="9.573"/>
				<rect x="295.22" y="328.227" style="fill:#E6E6E6;" width="9.186" height="54.17"/>
				<rect x="301.454" y="328.227" style="fill:#F0F0F0;" width="5.411" height="54.17"/>
			</g>
			<g>
				<g>
					<g>
						
							<rect x="95.427" y="333.212" transform="matrix(-1 -1.224647e-16 1.224647e-16 -1 222.5224 715.6107)" style="fill:#F0F0F0;" width="31.667" height="49.186"/>
						<rect x="127.095" y="333.212" style="fill:#F5F5F5;" width="69.745" height="49.186"/>
						
							<rect x="95.427" y="338.071" transform="matrix(-1 -1.224647e-16 1.224647e-16 -1 292.5985 678.7444)" style="opacity:0.7;fill:#E6E6E6;" width="101.743" height="2.603"/>
					</g>
					<g>
						
							<rect x="93.68" y="331.637" transform="matrix(-1 -1.224647e-16 1.224647e-16 -1 220.7747 670.8033)" style="fill:#F0F0F0;" width="33.415" height="7.53"/>
						<rect x="127.095" y="331.637" style="fill:#F5F5F5;" width="71.493" height="7.53"/>
					</g>
				</g>
			</g>
			<g>
				
					<ellipse transform="matrix(0.1867 -0.9824 0.9824 0.1867 -173.567 516.8604)" style="fill:#E0E0E0;" cx="225.374" cy="363.256" rx="19.143" ry="19.143"/>
			</g>
			<g>
				<path style="fill:#EBEBEB;" d="M216.609,359.469c-4.576-6.668-13.692-8.365-20.36-3.789c-6.668,4.576-8.365,13.692-3.788,20.36
					c4.576,6.668,13.692,8.365,20.36,3.789C219.489,375.253,221.185,366.138,216.609,359.469z"/>
			</g>
		</g>
	</g>
</g>
<g id="Background_Simple" style="display:none;">
	<g style="display:inline;">
		<path style="fill:#407BFF;" d="M248.888,201.087c-35.713,8.431-72.855-12.554-108.078-0.236
			c-30.976,10.833-66.962,46.537-71.248,80.422c-4.778,37.782,24.996,67.199,61.209,73.229
			c39.844,6.635,69.152-21.546,103.003-35.95c59.298-25.233,211.96-51.479,176.773-152.695
			c-10.918-31.406-58.265-70.43-90.496-45.721C289.052,143.9,299.166,189.218,248.888,201.087z"/>
		<path style="opacity:0.9;fill:#FFFFFF;" d="M248.888,201.087c-35.713,8.431-72.855-12.554-108.078-0.236
			c-30.976,10.833-66.962,46.537-71.248,80.422c-4.778,37.782,24.996,67.199,61.209,73.229
			c39.844,6.635,69.152-21.546,103.003-35.95c59.298-25.233,211.96-51.479,176.773-152.695
			c-10.918-31.406-58.265-70.43-90.496-45.721C289.052,143.9,299.166,189.218,248.888,201.087z"/>
	</g>
</g>
<g id="Shadow_1_">
	<ellipse id="_x3C_Path_x3E__198_" style="fill:#F5F5F5;" cx="250" cy="416.238" rx="193.889" ry="11.323"/>
</g>
<g id="Character_1_">
	<g>
		<path style="fill:#263238;" d="M231.726,118.333c-3.496-1.073-7.833,5.223-10.502,12.291c-2.669,7.068-7.082,8.264-11.803,11.093
			c8.722,12.2,29.046,9.651,35.805,8.116s12.818,3.833,21.448-2.498c7.724-5.666,7.159-22.553-6.495-30.252
			C263.198,106.706,232.055,105.667,231.726,118.333z"/>
		<g>
			<path style="fill:#FFFFFF;" d="M268.739,224.167h-9.596c-3.415,0-5.799-2.794-5.299-6.208l1.074-7.333
				c0.5-3.415,3.703-6.208,7.118-6.208h9.596c3.415,0,5.799,2.794,5.299,6.208l-1.075,7.333
				C275.357,221.373,272.154,224.167,268.739,224.167z"/>
			<path style="fill:#407BFF;" d="M268.739,224.417h-9.596c-1.713,0-3.235-0.67-4.286-1.887c-1.067-1.234-1.514-2.871-1.259-4.607
				l1.074-7.333c0.519-3.542,3.823-6.422,7.365-6.422h9.596c1.713,0,3.235,0.67,4.286,1.887c1.067,1.234,1.514,2.871,1.26,4.608
				l-1.074,7.333C275.586,221.536,272.281,224.417,268.739,224.417z M262.037,204.667c-3.304,0-6.386,2.689-6.871,5.995
				l-1.074,7.333c-0.233,1.591,0.173,3.085,1.143,4.208c0.955,1.105,2.343,1.713,3.908,1.713h9.596c3.304,0,6.386-2.689,6.871-5.994
				l1.074-7.333c0.233-1.591-0.173-3.086-1.144-4.208c-0.955-1.105-2.343-1.714-3.908-1.714H262.037z"/>
		</g>
		<path style="fill:#407BFF;" d="M275.393,213.917c-0.017,0-0.035-0.002-0.053-0.005c-0.135-0.029-0.221-0.162-0.192-0.297
			c0.835-3.885,0.715-5.661-2.193-6.599c-0.132-0.042-0.204-0.183-0.161-0.314c0.042-0.131,0.185-0.203,0.315-0.161
			c3.535,1.14,3.278,3.695,2.529,7.18C275.612,213.837,275.508,213.917,275.393,213.917z"/>
		<g>
			<polygon style="fill:#263238;" points="293.459,112.352 310.274,94.949 348.255,124.315 331.44,141.717 			"/>
			<polygon style="fill:#407BFF;" points="311.237,93.953 310.274,94.949 348.255,124.315 350.554,116.142 			"/>
			<path style="fill:#263238;" d="M298.783,106.9c-2.46-1.667-4.065-3.72-4.404-5.634c-0.177-1.003,0.01-1.923,0.542-2.661
				c2.753-3.817,6.237-1.446,9.926,1.065l0.488,0.332l-0.263,0.389l-0.489-0.333c-3.646-2.481-6.795-4.625-9.282-1.178
				c-0.456,0.632-0.615,1.429-0.46,2.305c0.317,1.789,1.849,3.731,4.205,5.327L298.783,106.9z"/>
		</g>
		<path style="fill:#FFC3BD;" d="M264.69,159.566l14.313-10.744l7.172-5.385l1.754-1.313l0.867-0.65l0.422-0.318l0.211-0.187
			c0.741-0.688,1.467-1.611,2.12-2.662c1.322-2.108,2.332-4.687,3.177-7.353c0.844-2.679,1.478-5.493,2.042-8.343
			c0.553-2.855,0.966-5.762,1.304-8.688c0.371-2.913,0.614-5.901,0.81-8.789l0.005-0.079c0.085-1.251,1.168-2.195,2.419-2.11
			c1.133,0.077,2.015,0.974,2.107,2.072c0.527,6.198,0.488,12.298-0.08,18.516c-0.275,3.105-0.747,6.217-1.465,9.348
			c-0.735,3.129-1.728,6.278-3.389,9.405c-0.832,1.562-1.884,3.097-3.268,4.542l-0.607,0.589l-0.453,0.394l-0.888,0.766
			l-1.762,1.514c-2.309,1.96-4.633,3.901-6.987,5.803l-7.119,5.639c-2.422,1.829-4.806,3.661-7.32,5.432l-0.007,0.005
			c-2.067,1.455-4.921,0.959-6.376-1.107C262.269,163.833,262.724,161.045,264.69,159.566z"/>
		<path style="fill:#FFC3BD;" d="M298.92,107.472l-7.813-3.675l8.07-4.209c0,0,6.243,3.19,4.243,7.745L298.92,107.472z"/>
		<polygon style="fill:#FFC3BD;" points="289.473,98.426 296.42,95.268 299.178,99.588 291.107,103.797 		"/>
		<path style="fill:#263238;" d="M273.82,163.661c0.143,6.49-0.767,19.987-5.328,48.031h-36.351
			c0.61-14.795,1.331-24.063-5.74-54.425c0,0,6.913-1.512,14.733-1.889c6.117-0.295,11.129-0.49,16.507,0.001
			c3.555,0.324,7.349,0.9,10.248,1.393C271.263,157.346,273.745,160.238,273.82,163.661z"/>
		<path style="fill:#407BFF;" d="M273.032,207.028c-0.012,0-0.024-0.001-0.036-0.002c-0.137-0.02-0.231-0.147-0.211-0.284
			c3.305-22.718-29.8-47.43-36.816-50.742c-0.125-0.059-0.178-0.208-0.119-0.333c0.059-0.125,0.208-0.178,0.333-0.119
			c4.156,1.962,14.274,9.205,22.791,18.521c7.505,8.21,16.08,20.555,14.306,32.745C273.261,206.939,273.154,207.028,273.032,207.028
			z"/>
		<path style="fill:#FFC3BD;" d="M242.769,136.792c1.041,5.311,2.08,15.042-1.635,18.586c0,0,5.74,6.529,14.776,10.311
			c7.104-4.451,1.731-10.31,1.731-10.31c-5.923-1.414-5.77-5.809-4.738-9.935L242.769,136.792z"/>
		<path style="opacity:0.2;" d="M246.9,140.322l5.997,5.117c-0.248,0.977-0.44,1.967-0.509,2.93
			c-2.263-0.327-5.371-2.811-5.611-5.18C246.658,142.007,246.707,140.872,246.9,140.322z"/>
		<path style="fill:#FFC3BD;" d="M236.46,129.996c3.492,8.168,4.796,11.7,10.543,14.481c8.644,4.184,17.913-1.892,16.932-10.938
			c-0.883-8.143-6.446-20.132-15.805-20.539C238.907,112.599,232.967,121.828,236.46,129.996z"/>
		<path style="fill:#263238;" d="M246.712,117.463c2.05,4.885-5.829,14.458-11.449,18.216
			C228.101,120.779,232.356,114.589,246.712,117.463z"/>
		<path style="fill:#263238;" d="M253.143,112.542c9.667,2.458-13.75,10.593-20.5,10.984
			C239.643,112.083,244.059,109.583,253.143,112.542z"/>
		<path style="fill:#FFC3BD;" d="M268.492,211.692c0,0-3.136,65.472-2.833,92.772c0.315,28.395-18.318,99.664-18.318,99.664
			l-7.175-1.956c0,0,3.46-57.999,6.842-97.588c-5.118-30.399-7.942-92.892-7.942-92.892H268.492z"/>
		<path style="fill:#407BFF;" d="M246.759,402.492l-6.683-1.549c-0.36-0.083-0.71,0.099-0.842,0.438l-2.734,6.673
			c-0.305,0.784,0.215,1.714,1.048,1.892c3.461,0.74,3.704,0.583,8.052,1.591c2.675,0.62,7.301,2.867,11.093,2.867
			c3.709,0,3.078-3.58,1.489-3.868c-5.756-1.042-5.951-3.086-10.078-7.163C247.705,402.98,247.285,402.614,246.759,402.492z"/>
		<path style="fill:#FFC3BD;" d="M258.992,211.692c0,0-20.072,94.064-24.86,103.12c-6.46,12.218-66.794-5.115-68.85-5.072
			l-0.3-6.188c0,0,29.711-0.683,54.333,0.55c0.04-30.827,12.826-92.41,12.826-92.41H258.992z"/>
		<path style="fill:#407BFF;" d="M166.118,309.657l4.481-5.195c0.241-0.28,0.243-0.674,0.004-0.949l-4.635-5.525
			c-0.552-0.635-1.617-0.607-2.163,0.047c-2.265,2.719-2.24,3.008-5.155,6.387c-1.794,2.079-3.099,3.812-5.774,6.5
			c-2.617,2.628-0.131,5.519,1.194,4.596c4.8-3.344,5.111-3.325,10.641-5.082C165.246,310.267,165.765,310.066,166.118,309.657z"/>
		<path style="fill:#263238;" d="M249.959,127.812c0.243,0.68,0.8,1.103,1.244,0.944c0.444-0.159,0.608-0.838,0.366-1.518
			c-0.243-0.68-0.8-1.103-1.244-0.944C249.88,126.452,249.716,127.132,249.959,127.812z"/>
		<path style="fill:#263238;" d="M257.645,125.07c0.243,0.68,0.8,1.103,1.244,0.944c0.445-0.159,0.608-0.838,0.366-1.518
			c-0.243-0.68-0.8-1.103-1.244-0.944C257.566,123.71,257.402,124.39,257.645,125.07z"/>
		<path style="fill:#263238;" d="M257.827,123.659l1.465-1.053C259.292,122.606,258.909,124.18,257.827,123.659z"/>
		<path style="fill:#ED847E;" d="M256.03,126.963c0,0,2.198,2.516,3.972,3.475c-0.599,1.158-2.262,1.32-2.262,1.32L256.03,126.963z"
			/>
		<path style="fill:#263238;" d="M255.128,135.598c0.375-0.063,0.767-0.163,1.175-0.309c0.11-0.039,0.168-0.161,0.128-0.271
			c-0.039-0.11-0.158-0.168-0.271-0.128c-2.981,1.066-5.121-0.522-5.143-0.538c-0.093-0.072-0.226-0.053-0.297,0.04
			c-0.071,0.093-0.053,0.227,0.04,0.297C250.843,134.75,252.565,136.03,255.128,135.598z"/>
		<path style="fill:#FFC3BD;" d="M236.089,135.053c0.969,1.566,2.571,2.538,4.049,2.861c2.224,0.486,3.206-1.535,2.479-3.565
			c-0.654-1.828-2.6-4.283-4.779-3.859C235.69,130.908,234.981,133.262,236.089,135.053z"/>
		<path style="fill:#407BFF;" d="M242.29,138.528c0,1.1-0.892,1.992-1.992,1.992c-1.1,0-1.992-0.892-1.992-1.992
			s0.892-1.992,1.992-1.992C241.398,136.536,242.29,137.428,242.29,138.528z"/>
		<path style="fill:#263238;" d="M247.511,124.941c0.108-0.028,0.206-0.1,0.264-0.205c0.913-1.656,2.467-1.789,2.485-1.791
			c0.23-0.019,0.408-0.22,0.391-0.454c-0.017-0.233-0.221-0.408-0.454-0.391c-0.081,0.007-2.032,0.172-3.165,2.228
			c-0.113,0.205-0.038,0.463,0.167,0.576C247.298,124.956,247.41,124.967,247.511,124.941z"/>
		<path style="fill:#263238;" d="M259.966,120.172c0.092-0.052,0.164-0.138,0.196-0.247c0.067-0.225-0.061-0.461-0.285-0.527
			c-2.247-0.669-3.755,0.58-3.818,0.634c-0.178,0.152-0.201,0.419-0.049,0.598c0.151,0.178,0.418,0.2,0.597,0.05
			c0.058-0.05,1.241-1.001,3.028-0.469C259.75,120.245,259.869,120.228,259.966,120.172z"/>
		<path style="fill:#263238;" d="M250.141,126.401l1.465-1.053C251.607,125.348,251.224,126.922,250.141,126.401z"/>
		<path style="fill:#263238;" d="M268.492,211.692l-1.109,83.154l-48.554-9.832c-1.945-39.436,3.269-62.377,13.311-73.322H268.492z"
			/>
		<path style="fill:#407BFF;" d="M268.367,213.667l-36.893-1.187c-0.341-0.011-0.581-0.339-0.489-0.667l0.553-1.965
			c0.066-0.233,0.281-0.391,0.523-0.383l36.404,1.195c0.29,0.01,0.517,0.252,0.508,0.542l-0.063,1.957
			C268.899,213.449,268.657,213.677,268.367,213.667z"/>
		<polygon style="opacity:0.4;" points="257.714,270.794 247.119,251.339 248.431,233.91 		"/>
		<path style="fill:#FFC3BD;" d="M228.162,165.668c-3.154-5.087-6.009-10.179-8.679-15.484c-2.669-5.294-5.169-10.689-7.137-16.516
			c-0.49-1.457-0.927-2.959-1.308-4.514c-0.195-0.772-0.355-1.58-0.509-2.39l-0.331-2.25c-0.374-2.951-0.702-5.844-0.958-8.756
			c-0.518-5.816-0.922-11.623-1.093-17.469c-0.037-1.258,0.953-2.308,2.212-2.345c1.093-0.032,2.029,0.711,2.28,1.731l0.001,0.007
			c1.393,5.653,2.6,11.34,3.788,17.004l1.757,8.439l0.45,2.031c0.151,0.609,0.301,1.218,0.494,1.844
			c0.374,1.247,0.81,2.514,1.308,3.785c0.96,2.548,2.114,5.101,3.323,7.634c1.201,2.542,2.481,5.07,3.811,7.581
			c2.679,4.994,5.508,10.029,8.38,14.861l0.034,0.058c1.291,2.172,0.577,4.98-1.596,6.271
			C232.242,168.465,229.473,167.779,228.162,165.668z"/>
		<path style="fill:#FFC3BD;" d="M211.686,100.282l8.607-4.408l-8.394-3.52c0,0-4.503,3.571-3.842,7.233L211.686,100.282z"/>
		<polygon style="fill:#FFC3BD;" points="223.454,89.044 216.267,86.478 210.827,93.343 220.293,95.873 		"/>
		<g>
			
				<rect x="174.354" y="100.498" transform="matrix(0.8489 -0.5285 0.5285 0.8489 -26.7359 108.4624)" style="fill:#407BFF;" width="4.002" height="1"/>
			
				<rect x="180.56" y="95.249" transform="matrix(0.849 -0.5285 0.5285 0.849 -22.6883 112.1175)" style="fill:#407BFF;" width="8.465" height="1"/>
			<polygon style="fill:#407BFF;" points="202.495,88.269 220.54,104.434 180.012,136.267 163.917,112.268 			"/>
			<polygon style="fill:#263238;" points="221.573,105.36 220.54,104.434 180.012,136.267 189.277,140.322 			"/>
			<path style="fill:#263238;" d="M208.349,93.756c-0.067,0-0.133-0.028-0.181-0.082c-0.089-0.1-0.079-0.253,0.021-0.342
				c1.961-1.735,3.509-3.106,5.253-3.607c0.131-0.035,0.263,0.038,0.3,0.166c0.037,0.128-0.037,0.263-0.166,0.299
				c-1.639,0.471-3.151,1.81-5.066,3.505C208.464,93.736,208.407,93.756,208.349,93.756z"/>
			<path style="fill:#263238;" d="M215.099,99.802c-0.067,0-0.133-0.028-0.181-0.081c-0.089-0.1-0.079-0.253,0.021-0.342
				c2.546-2.253,4.135-4.231,4.594-5.72c0.039-0.128,0.174-0.199,0.303-0.16c0.128,0.04,0.199,0.175,0.16,0.303
				c-0.493,1.596-2.086,3.594-4.736,5.939C215.213,99.782,215.156,99.802,215.099,99.802z"/>
		</g>
	</g>
</g>
</svg>
