<?xml version="1.0" encoding="utf-8"?>
<!-- Generator: Adobe Illustrator 27.5.0, SVG Export Plug-In . SVG Version: 6.00 Build 0)  -->
<svg version="1.1" id="Layer_1" xmlns="http://www.w3.org/2000/svg" xmlns:xlink="http://www.w3.org/1999/xlink" x="0px" y="0px"
	 viewBox="0 0 3000 2000" style="enable-background:new 0 0 3000 2000;" xml:space="preserve">
<rect style="fill:#FFFFFF;" width="3000" height="2000"/>
<g>
	<g>
		<path style="fill:#FEE4CB;" d="M2410.202,1106.357c-155.268-194.787,58.141-193.709,141.248-342.582
			c19.997-22.121,53.062-65.81,62.551-113.833c8.307-42.031,14.812-107.023-1.357-177.949
			c-17.465-76.604-67.03-179.066-203.975-232.166c-65.25-25.301-143.672-40.125-233.089-44.06
			c-71.095-3.128-149.307,0.705-232.522,11.001c-132.364,16.377-246.008,49.1-339.814,91.236
			c-26.657-22.417-59.534-42.46-100.069-58.178c-65.25-25.301-143.673-40.125-233.089-44.06
			c-71.095-3.128-149.307,0.705-232.523,11.001c-194.117,24.018-347.988,83.183-458.043,155.654
			c-20.446-3.713-41.756-5.683-63.659-5.683c-153.797,0-278.473,96.814-278.473,216.241c0,85.355,63.694,159.149,156.18,194.314
			c6.134,55.624,12.987,125.407,17.969,197.481c6.601,95.496,4.154,179.373-7.273,249.302
			c-14.02,85.791-71.632,201.68-71.632,201.68c-128.371,191.364-63.804,388.174-41.26,441.33h905.496h602.117h905.496
			C2767.803,1699.162,2618.281,1367.396,2410.202,1106.357z M403.363,1331.332c-0.672,0.656-1.329,1.315-1.996,1.974
			c13.693-33.23,24.112-71.553,31.163-114.773c11.773-72.178,14.306-158.356,7.523-256.141
			c-3.383-48.776-7.626-96.505-11.939-139.621C490.375,981.503,570.78,1167.791,403.363,1331.332z M1827.494,257.577
			c35.119-8.682,75.734-16.888,119.571-22.37c127.729-15.974,309.707-23.492,451.293,31.408
			c125.216,48.552,170.475,141.968,186.393,211.784c11.85,51.977,7.814,104.146-2.834,148.919
			c-0.262-8.683-0.844-17.666-1.781-26.975c-32.974-327.626-456.811-344.551-456.811-344.551
			C2009.656,251.754,1911.806,252.564,1827.494,257.577z"/>
		<g>
			<defs>
				<path id="SVGID_1_" d="M2408.202,1105.857c-155.268-194.787,58.141-193.709,141.248-342.582
					c19.997-22.121,53.062-65.81,62.551-113.833c8.307-42.031,14.812-107.023-1.357-177.949
					c-17.465-76.604-67.03-179.066-203.975-232.166c-65.25-25.301-143.672-40.125-233.089-44.06
					c-71.095-3.128-149.307,0.705-232.522,11.001c-132.364,16.377-246.008,49.1-339.814,91.236
					c-26.657-22.417-59.534-42.46-100.069-58.178c-65.25-25.301-143.673-40.125-233.089-44.06
					c-71.095-3.128-149.307,0.705-232.523,11.001c-194.117,24.018-347.988,83.183-458.043,155.654
					c-20.446-3.713-41.756-5.683-63.659-5.683c-153.797,0-278.473,96.814-278.473,216.241c0,85.355,63.694,159.149,156.18,194.314
					c6.134,55.624,12.987,125.407,17.969,197.481c6.601,95.496,4.154,179.373-7.273,249.302
					c-14.02,85.791-71.632,201.68-71.632,201.68c-128.371,191.364-63.804,388.174-41.26,441.33h905.496h602.117h905.496
					C2765.803,1698.662,2616.281,1366.896,2408.202,1105.857z M401.363,1330.832c-0.672,0.656-1.329,1.315-1.996,1.974
					c13.693-33.23,24.112-71.553,31.163-114.773c11.773-72.178,14.306-158.356,7.523-256.141
					c-3.383-48.776-7.626-96.505-11.939-139.621C488.375,981.003,568.78,1167.291,401.363,1330.832z M1825.494,257.077
					c35.119-8.682,75.734-16.888,119.571-22.37c127.729-15.974,309.707-23.492,451.293,31.408
					c125.216,48.552,170.475,141.968,186.393,211.784c11.85,51.977,7.814,104.146-2.834,148.919
					c-0.262-8.683-0.844-17.666-1.781-26.975c-32.974-327.626-456.811-344.551-456.811-344.551
					C2007.656,251.254,1909.806,252.064,1825.494,257.077z"/>
			</defs>
			<clipPath id="SVGID_00000044878409578613353270000012118451834119918504_">
				<use xlink:href="#SVGID_1_"  style="overflow:visible;"/>
			</clipPath>
			<g style="clip-path:url(#SVGID_00000044878409578613353270000012118451834119918504_);">
				<path style="opacity:0.5;fill:#FFFFFF;" d="M1912.233,1180.719c-3.707-17.708-18.15-30.918-35.416-30.918
					c-3.169,0-6.243,0.448-9.174,1.284c-8.521-19.992-27.014-33.844-48.459-33.844c-5.544,0-10.891,0.926-15.92,2.644
					c-11.543-20.972-32.519-34.995-56.479-34.995c-28.508,0-52.787,19.85-61.987,47.638c-6.513-3.983-14.01-6.262-21.995-6.262
					c-24.987,0-45.244,22.223-45.244,49.636c0,1.626,0.077,3.231,0.217,4.817H1912.233z"/>
				<path style="opacity:0.5;fill:#FFFFFF;" d="M760.947,849.519c-3.708-17.707-18.15-30.917-35.416-30.917
					c-3.169,0-6.243,0.448-9.174,1.283c-8.521-19.991-27.014-33.843-48.458-33.843c-5.544,0-10.891,0.926-15.92,2.644
					c-11.544-20.972-32.518-34.995-56.479-34.995c-28.508,0-52.788,19.85-61.987,47.637c-6.513-3.983-14.01-6.261-21.995-6.261
					c-24.987,0-45.244,22.222-45.244,49.635c0,1.626,0.077,3.231,0.216,4.817H760.947z"/>
				<path style="opacity:0.5;fill:#FFFFFF;" d="M1274.251,1386.676c-3.708-17.707-18.151-30.918-35.416-30.918
					c-3.17,0-6.244,0.448-9.175,1.284c-8.521-19.991-27.014-33.844-48.458-33.844c-5.544,0-10.891,0.927-15.919,2.644
					c-11.545-20.972-32.519-34.994-56.479-34.994c-28.507,0-52.788,19.85-61.988,47.637c-6.513-3.983-14.01-6.261-21.995-6.261
					c-24.987,0-45.244,22.222-45.244,49.635c0,1.626,0.076,3.231,0.216,4.817H1274.251z"/>
				<path style="opacity:0.5;fill:#FFFFFF;" d="M2500.938,593.251c-1.853-8.846-9.067-15.445-17.694-15.445
					c-1.583,0-3.119,0.223-4.583,0.641c-4.257-9.988-13.496-16.908-24.21-16.908c-2.769,0-5.44,0.463-7.953,1.321
					c-5.769-10.477-16.244-17.483-28.215-17.483c-14.242,0-26.372,9.917-30.97,23.799c-3.252-1.99-6.997-3.128-10.987-3.128
					c-12.483,0-22.604,11.102-22.604,24.797c0,0.811,0.038,1.614,0.108,2.406H2500.938z"/>
				<path style="opacity:0.5;fill:#FFFFFF;" d="M2130.556,472.819c4.522-21.605,22.146-37.724,43.213-37.724
					c3.867,0,7.618,0.546,11.196,1.566c10.396-24.394,32.96-41.295,59.126-41.295c6.766,0,13.29,1.13,19.425,3.226
					c14.087-25.589,39.678-42.7,68.912-42.7c34.787,0,64.412,24.22,75.638,58.125c7.946-4.86,17.094-7.64,26.836-7.64
					c30.49,0,55.206,27.116,55.206,60.564c0,1.983-0.094,3.943-0.264,5.877H2130.556z"/>
				<path style="opacity:0.5;fill:#FFFFFF;" d="M862.542,574.153c6.653-31.772,32.569-55.475,63.548-55.475
					c5.687,0,11.203,0.802,16.462,2.303c15.29-35.872,48.473-60.726,86.951-60.726c9.948,0,19.542,1.661,28.564,4.744
					c20.716-37.631,58.35-62.793,101.343-62.793c51.151,0,94.718,35.617,111.226,85.477c11.687-7.147,25.138-11.235,39.466-11.235
					c44.836,0,81.182,39.875,81.182,89.063c0,2.917-0.136,5.798-0.386,8.642H862.542z"/>
				<path style="opacity:0.4;fill:#FFFFFF;" d="M2415.723,776.754c-4.482,8.267-6.89,17.778-11.755,25.782
					c-5.609,9.231-14.08,15.822-22.358,22.197c-36.942,28.457-75.159,57.546-119.231,68.254
					c-11.057,2.686-22.779,4.359-32.062,11.477c-19.189,14.713-17.347,52.043,3.18,64.397c23.488,14.136,58.883-2.42,76.169,20.034
					c7.03,9.13,8.385,22.27,15.277,31.524c9.209,12.364,25.412,14.504,39.938,15.544c9.94,0.711,19.888,1.326,29.839,1.866
					c-44.404-109.204,60.048-137.727,133.213-222.045c-2.093-0.321-4.184-0.663-6.269-1.045c-3.938-0.723-8.069-1.661-11.07-4.554
					c-3.001-2.893-4.288-8.388-1.67-11.698c14.486-6.787,29.229-13.629,44.568-17.12c3.604-5.781,7.034-11.799,10.247-18.09
					c6.914-8.361,15.535-19.808,24.058-33.4c-32.436,1.696-64.786,4.436-97.053,8.724
					C2462.349,742.372,2430.344,749.786,2415.723,776.754z"/>
			</g>
		</g>
	</g>
	<g>
		<g>
			<path style="fill:#FEB546;" d="M445.059,1833.259c0,0,204.354-83.762,163.035-143.437c0,0-0.66-21.368-77.515,10.8
				c0,0-30.97-6.432-14.646-35.608c16.323-29.176,85.973-48.546,74.264-88.281c-11.709-39.736-53.493-3.329-77.899-5.606
				c-24.405-2.277,55.625-110.255,36.709-137.192c-18.914-26.937-54.134,13.627-72.251,10.54
				c-18.117-3.087,20.703-159.296-65.643-174.438c-86.346-15.142-36.226,79.434-21.333,128.967
				c14.893,49.532-44.711-6.749-76.549,28.171c-31.838,34.921,113.343,73.534,78.153,105.136
				c-35.189,31.602-57.563-10.095-82.059,14.508c-39.602,39.777,112.347,65.122,89.735,95.106
				c-18.032,23.912-52.715-17.8-69.727-1.033C312.319,1657.658,346.59,1770.936,445.059,1833.259z"/>
			<path style="opacity:0.52;fill:#FFFFFF;" d="M610.673,1694.214c-0.304-0.622-0.635-1.242-0.987-1.86
				c-5.915,4.831-12.675,9.937-20.2,14.976c-27.642,18.511-71.515,39.841-123.917,36.849c2.897-26.684,3.987-55.706,3.253-86.928
				c46.626-51.323,88.017-71.429,114.53-79.257c2.298-0.679,4.518-1.271,6.674-1.802c-0.205-0.667-0.419-1.31-0.641-1.934
				c-2.099,0.521-4.257,1.098-6.492,1.755c-26.525,7.798-67.743,27.71-114.143,78.226c-0.004-0.131-0.006-0.261-0.009-0.392
				c-0.887-32.07-3.671-66.465-8.313-102.866c1.209-2.741,12.875-28.821,31.257-57.656c13.203-20.709,31.966-46,53.773-63.502
				c-0.526-0.489-1.063-0.936-1.608-1.35c-21.941,17.683-40.756,43.037-54,63.812c-15.389,24.14-26.097,46.37-29.939,54.699
				c-3.626-27.741-8.318-56.632-14.069-86.54c-16.038-83.407-36.642-155.294-47.907-191.941c-0.766-0.036-1.514-0.059-2.251-0.072
				c11.204,36.395,31.935,108.555,48.051,192.375c2.711,14.096,5.356,28.896,7.832,44.213c-6.207-5.006-24.925-19.631-51.048-35.745
				c-22.011-13.576-52.777-30.302-87.054-42.349c-0.078,0.084-0.156,0.164-0.234,0.249c-0.427,0.468-0.815,0.938-1.179,1.405
				c34.348,11.995,65.215,28.768,87.262,42.364c29.897,18.439,50.041,34.905,52.745,37.146c5.417,33.97,9.968,70.392,12.514,107.248
				c-40.441-29.509-118.882-54.141-158.101-65.243c-0.443,0.591-0.846,1.18-1.207,1.765
				c39.368,11.117,119.597,36.227,159.494,66.183c3.48,52.452,2.838,105.668-5.203,153.835
				c-40.059-14.798-73.825-54.304-95.182-85.026c-13.211-19.003-23.413-37.047-29.827-49.232c-0.664,0.229-1.312,0.514-1.942,0.851
				c6.441,12.239,16.689,30.369,29.96,49.461c21.611,31.093,55.865,71.124,96.653,85.994c-3.555,20.689-8.494,40.424-15.078,58.741
				c0.309,0.196,0.61,0.399,0.919,0.595c0,0,0.457-0.188,1.32-0.55c8.99-25.185,15.324-54.105,18.969-86.514
				c3.416,0.197,6.836,0.301,10.262,0.301c19.959,0,40.041-3.347,59.85-9.986c18.816-6.308,37.428-15.583,55.318-27.569
				C598.168,1703.988,604.821,1698.975,610.673,1694.214z"/>
		</g>
		<path style="fill:#E03268;" d="M2409.106,1752.895c0,0-29.509-144.592,94.865-287.902l16.459,51.74l-0.854-65.228
			c0,0,75.881-80.428,144.362-123.361c0,0-31.256,174.259-50.512,210.221l-46.911,33.008l51.295,0.428
			c0,0-15.094,97.368-80.031,162.575C2472.842,1799.581,2409.106,1752.895,2409.106,1752.895z"/>
		<path style="fill:#FEB546;" d="M2551.099,1144.389c-55.859,0.562-27.478,80.076-18.959,101.181
			c-15.614,12.988-28.855,26.204-40,39.045c0.451-27.645,18.75-47.429,13.647-64.827c-5.722-19.508-24.681-36.14-41.735-3.022
			c-13.513,26.242,12.436,60.007,23.8,72.906c-18.849,22.623-31.316,43.772-39.275,60.026c-4.171-31.947,14.341-57.188,6.369-76.351
			c-8.721-20.967-31.511-36.954-45.892,2.226c-11.887,32.385,24.093,68.137,36.937,79.571c-6.919,15.023-9.604,24.799-9.883,25.847
			c-5.518,19.706-9.759,38.97-12.921,57.721c-4.327-28.057,6.996-52.772-2.5-69.243c-11.397-19.769-35.865-32.517-44.553,8.847
			c-6.875,32.728,29.54,62.227,45.058,73.128c-5.683,39.312-6.637,76.188-4.642,109.91c-12.772-23.548-14.799-65.327-33.603-83.163
			c-12.334-11.7-23.537-9.653-30.806-5.827c-6.211,3.269-10.266,9.337-11.278,16.591c-5.722,40.998,56.885,70.65,76.089,78.733
			c2.938,41.486,10.291,77.97,18.688,107.993c-6.706-12.126-16.748-30.474-21.563-40.209c-7.588-15.351-25.362-32.647-40.927-34.695
			c-0.648-0.086-1.281-0.146-1.898-0.188c-11.826-0.768-21.28,7.988-22.949,19.799c-6.527,46.202,73.341,63.455,90.642,66.639
			c0.063,0.206,0.124,0.422,0.187,0.627c22.948,75.186,53.938,119.433,55.245,121.277l6.243-4.358
			c-0.303-0.429-29.773-42.572-52.083-112.642c56.904-43.682,50.331-91.846,33.22-101.093c-17.681-9.555-44.883-0.767-38.772,33.202
			c3.545,19.701,2.862,40.837,1.664,55.127c-8.756-30.137-16.597-67.387-19.721-110.059c92.723-27.342,65.781-86.324,41.489-89.442
			c-24.588-3.155-32.989,12.655-33.197,41.177c-0.14,18.947-5.25,34.41-8.674,42.688c-2.072-33.069-1.257-69.289,4.158-107.922
			c17.096,6.128,61.688,18.74,80.209-8.367c23.147-33.879-1.375-46.493-22.399-43.51c-19.329,2.744-29.387,33.445-56.997,46.271
			c3.229-21.391,7.854-43.489,14.212-66.193c0.097-0.371,5.482-19.985,21.644-47.578c16.577,8.288,59.447,26.165,81.279,2.115
			c27.418-30.205,4.371-45.765-17.094-45.577c-19.154,0.168-32.802,27.292-60.364,37.104c14.283-23.029,35.808-50.644,67.343-77.076
			c17.255,8.479,58.888,25.192,80.285,1.621c27.418-30.205,4.371-45.767-17.096-45.577c-19.422,0.17-33.174,28.075-61.524,37.521
			l-0.553-0.69c6.192-9.197,19.398-28.663,26.218-37.6c9.099-11.926,14.296-33.397,7.538-47.664
			C2564.645,1146.139,2551.099,1144.389,2551.099,1144.389z"/>
		<path style="fill:#FF5B7E;" d="M469.877,1820.984c0,0,16.269-129.797-103.326-246.949l-11.033,46.889l-3.667-57.622
			c0,0-72.49-65.292-135.901-98.053c0,0,39.425,151.429,58.875,181.722l43.682,25.616l-45.288,4.215c0,0,19.935,84.79,81.725,137.47
			C416.733,1866.951,469.877,1820.984,469.877,1820.984z"/>
		<g>
			<path style="fill:#07085B;" d="M2764.863,1493.91c-0.526,50.904-13.331,93.116-33.611,128.094
				c-22.702-2.232-49.79-4.388-49.79-4.388l34.506,27.603c-91.767,123.804-280.604,142.373-280.604,142.373
				c-0.825-111.908,32.058-182.353,77.33-226.395c14.791,6.409,36.675,16.184,36.675,16.184l-21.43-29.699
				c24.042-19.371,50.64-32.457,77.069-41.181c11.039,15.499,23.994,32.813,23.994,32.813l1.831-40.052
				C2701.79,1482.713,2764.863,1493.91,2764.863,1493.91z"/>
			<path style="fill:#55769F;" d="M2512.693,1561.197c14.791,6.409,36.675,16.184,36.675,16.184l-21.43-29.699
				c24.042-19.371,50.64-32.457,77.069-41.181c11.039,15.499,23.994,32.813,23.994,32.813l1.831-40.052
				c70.957-16.549,134.03-5.352,134.03-5.352c-93.926,153.927-329.5,293.682-329.5,293.682
				C2434.538,1675.684,2467.421,1605.239,2512.693,1561.197z"/>
		</g>
		<g>
			<path style="fill:#FF5B7E;" d="M2784.052,1679.366c-31.174-10.61-61.208-13.604-89.363-11.546
				c-6.318,11.132-14.168,24.307-14.168,24.307l-5.137-22.084c-106.418,16.665-181.587,101.343-181.587,101.343
				c67.862,24.259,121.877,23.85,164.005,11.993c1.1-8.309,2.546-20.666,2.546-20.666l10.839,16.395
				c19.926-7.154,36.889-16.847,51.139-27.392c-5.705-8.487-11.865-18.262-11.865-18.262l25.006,7.683
				C2769.538,1711.361,2784.052,1679.366,2784.052,1679.366z"/>
			<path style="fill:#E03268;" d="M2657.802,1783.379c1.1-8.309,2.546-20.666,2.546-20.666l10.839,16.395
				c19.926-7.154,36.889-16.847,51.139-27.392c-5.705-8.487-11.865-18.262-11.865-18.262l25.006,7.683
				c34.072-29.775,48.586-61.771,48.586-61.771c-125.491,11.255-290.255,92.02-290.255,92.02
				C2561.659,1795.645,2615.674,1795.235,2657.802,1783.379z"/>
		</g>
		<path style="fill:#02CCC0;" d="M251.867,1843.283c0,0,13.829-67.269,148.666-73.739c134.838-6.471,148.667,40.327,349.194,20.518
			c200.527-19.81,301.724-98.559,617.476-86.82c315.752,11.738,268.178,74.368,584.242,80.562
			c316.065,6.193,364.346-45.631,532.09-27.796c167.744,17.836,233.627,91.087,233.627,91.087h-52.055L251.867,1843.283z"/>
		<path style="fill:#07085B;" d="M2734.493,1856.588H231.749c-4.014,0-7.267-3.227-7.267-7.205l0,0c0-3.98,3.253-7.206,7.267-7.206
			h2502.745c4.014,0,7.267,3.226,7.267,7.206l0,0C2741.76,1853.361,2738.507,1856.588,2734.493,1856.588z"/>
	</g>
	<g>
		<g>
			<g>
				<g>
					<g>
						<path style="fill:#02CCC0;" d="M668.854,1146.344c12.525-47.895,41.144-81.914,63.921-75.984
							c22.777,5.93,31.089,49.563,18.563,97.458c-1.73,6.615,2.818,6.906,4.33,1.127c13.84-52.923,4.657-101.137-20.512-107.689
							c-25.169-6.552-56.792,31.039-70.632,83.962C662.941,1151.271,667.124,1152.959,668.854,1146.344z"/>
					</g>
					<g>
						<g>
							<polygon style="fill:#00B0A5;" points="802.702,1389.379 750.931,1426.976 605.135,1139.136 627.696,1102.032 
								825.357,1154.39 							"/>
							<polygon style="fill:#02CCC0;" points="750.931,1426.976 523.188,1367.688 604.857,1111.499 805.127,1163.635 							"/>
							<polygon style="fill:#008C83;" points="825.357,1154.39 627.696,1102.032 638.927,1111.593 604.857,1111.499 
								805.127,1163.635 810.544,1156.992 							"/>
							<path style="fill:#02CCC0;" d="M654.451,1148.711c13.541-51.776,44.478-88.553,69.102-82.143
								c24.623,6.41,33.607,53.579,20.067,105.355c-1.87,7.151,3.046,7.466,4.68,1.219c14.961-57.212,5.034-109.332-22.174-116.416
								c-27.208-7.083-61.393,33.555-76.355,90.766C648.06,1154.037,652.581,1155.862,654.451,1148.711z"/>
						</g>
					</g>
					<polygon style="fill:#E6E6E6;" points="810.544,1156.992 761.366,1376.272 802.702,1389.379 825.357,1154.39 					"/>
				</g>
				<g>
					<g>
						<path style="fill:#FF5B7E;" d="M659.908,1132.584c22.98-43.849,58.519-70.558,79.379-59.655
							c20.859,10.902,19.14,55.287-3.84,99.137c-3.174,6.056,1.192,7.362,3.965,2.072c25.392-48.452,27.292-97.497,4.244-109.544
							c-23.049-12.047-62.319,17.467-87.712,65.918C653.039,1136.055,656.734,1138.641,659.908,1132.584z"/>
					</g>
					<g>
						<g>
							<polygon style="fill:#E8486A;" points="735.644,1399.502 676.741,1424.487 599.445,1111.225 629.776,1080.148 
								810.589,1175.635 							"/>
							<polygon style="fill:#FF5B7E;" points="676.741,1424.487 468.177,1315.479 605.393,1084.234 788.797,1180.092 							"/>
							<polygon style="fill:#C23C59;" points="810.589,1175.635 629.776,1080.148 638.567,1091.99 605.393,1084.234 
								788.797,1180.092 795.569,1174.838 							"/>
							<path style="fill:#FF5B7E;" d="M645.343,1131.649c24.843-47.402,63.261-76.274,85.811-64.489
								c22.55,11.786,20.691,59.768-4.151,107.17c-3.431,6.547,1.289,7.959,4.286,2.24c27.45-52.379,29.504-105.396,4.588-118.42
								c-24.917-13.023-67.369,18.881-94.819,71.259C637.917,1135.401,641.912,1138.196,645.343,1131.649z"/>
						</g>
					</g>
					<polygon style="fill:#E6E6E6;" points="795.569,1174.838 698.316,1377.432 735.644,1399.502 810.589,1175.635 					"/>
				</g>
				<g>
					<g>
						<path style="fill:#FEB546;" d="M669.826,1094.995c23.208-23.858,51.227-34.264,62.582-23.242
							c11.355,11.021,1.746,39.296-21.462,63.153c-3.205,3.295-0.642,4.974,2.158,2.095c25.645-26.362,36.262-57.604,23.715-69.783
							c-12.547-12.178-43.507-0.68-69.151,25.683C664.735,1095.915,666.621,1098.29,669.826,1094.995z"/>
					</g>
					<g>
						<g>
							<polygon style="fill:#EBA741;" points="667.514,1281.518 624.768,1286.338 634.951,1069.649 660.45,1055.431 
								758.688,1151.599 							"/>
							<polygon style="fill:#FEB546;" points="624.768,1286.338 511.234,1176.142 643.954,1053.395 743.791,1150.297 							"/>
							<polygon style="fill:#B88233;" points="758.688,1151.599 660.45,1055.431 663.848,1064.746 643.954,1053.395 
								743.791,1150.297 749.162,1148.208 							"/>
							<path style="fill:#FEB546;" d="M660.618,1091.603c25.089-25.79,55.378-37.04,67.653-25.125
								c12.275,11.914,1.888,42.48-23.201,68.271c-3.465,3.563-0.694,5.377,2.333,2.265c27.723-28.498,39.201-62.272,25.637-75.438
								c-13.563-13.165-47.032-0.735-74.754,27.763C655.114,1092.598,657.153,1095.165,660.618,1091.603z"/>
						</g>
					</g>
					<polygon style="fill:#E6E6E6;" points="749.162,1148.208 647.685,1260.145 667.514,1281.518 758.688,1151.599 					"/>
				</g>
			</g>
			<g>
				<path style="fill:#FFC0BB;" d="M740.472,1087.663c-1.169,0.094-2.548-0.974-3.487-0.279c-7.287,5.406-12.176,6.735-13.432,5.421
					c-1.496-1.567-0.717-3.468-1.423-4.578c-1.402-2.205-3.083-0.243-5.393-2.238c-1.315-1.136-0.582-2.926-1.07-4.194
					c-0.488-1.27-1.373-2.005-3.354-2.681c-1.979-0.675-1.294-3.138-1.448-4.846c-0.154-1.707-2.199-1.285-3.036-2.508
					c-1.554-2.271-0.459-7.772,16.006-19.131l14.629-9.718l14.611-1.217l6.43,17.315c0,0-3.728,4.858-6.358,14.424
					C751.155,1080.677,747.886,1087.064,740.472,1087.663z"/>
				<path style="fill:#FFC0BB;" d="M945.499,1314.627l-154.976,458.23c0,0-53.205,46.045-50.897,19.172
					c0.538-6.254,8.396-50.684,9.065-58.887c5.61-68.967,20.941-204.262,33.26-250.688c13.324-50.227,44.942-133.668,44.942-133.668
					L945.499,1314.627z"/>
				<path style="fill:#FFC0BB;" d="M838.03,1808.665l-48.381-40.195l-49.698,21.177l14.384,13.645l54.412,15.678
					c0,0,22.06,0.294,23.107-0.214C832.898,1818.25,838.03,1808.665,838.03,1808.665z"/>
				<path style="fill:#07085B;" d="M838.03,1808.665l12.212,10.54c5.668,4.809,1.552,14.039-5.815,13.03l-101.775-13.904
					c-3.589-0.493-6.103-3.802-5.611-7.391l2.909-21.294C804.784,1820.483,829.091,1817.119,838.03,1808.665z"/>
				<g>
					<path style="fill:#FFC0BB;" d="M1097.943,1113.576c0,0,74.627,236.977,64.671,269.815
						c-6.372,21.017-125.308,351.608-127.194,350.999c-1.889-0.611-49.425-14.526-49.425-14.526s88.275-323.039,83.96-343.728
						c-4.314-20.689-93.813-211.666-93.813-211.666L1097.943,1113.576z"/>
					<path style="fill:#FFC0BB;" d="M1078.586,1754.434l-32.902-56.57l-56.132,2.931l9.175,18.47l47.561,34.771
						c0,0,21.453,8.172,22.654,8.049C1070.144,1761.963,1078.586,1754.434,1078.586,1754.434z"/>
					<path style="fill:#07085B;" d="M1078.586,1754.434l8.163,14.66c3.821,6.724-3.504,14.272-10.341,10.658l-94.475-49.968
						c-3.332-1.766-4.607-5.891-2.843-9.226l10.461-19.765C1041.875,1754.096,1066.83,1759.496,1078.586,1754.434z"/>
					<path style="fill:#FFC0BB;" d="M1069.955,1376.137c0,0-40.594,123.558-67.196,281.586l85.857-185.109L1069.955,1376.137z"/>
				</g>
				<g>
					<path style="fill:#F46C0F;" d="M1029.207,741.081c0,0,49.039-24.514,38.091-93.86c-3.452-21.875-24.134-29.435-20.524-58.535
						c3.609-29.1,12.973-64.824-17.066-97.778c-30.041-32.951-57.724-36.845-95.301-37.411
						c-39.188-0.588-107.45,26.224-123.904,73.76c-16.455,47.536-77.177,6.684-141.267,51.571
						c-64.091,44.888-44.829,116.332-28.184,153.168c51.264,113.461,145.054,131.842,258.489,103.787
						c113.431-28.056,20.305-48.127,21.345-49.898C921.927,784.114,1029.207,741.081,1029.207,741.081z"/>
					<g>
						<path style="fill:#FFC0BB;" d="M957.45,661.949l3.372-40.177l-45.365,3.456l-12.73,49.743
							c-1.543,5.896,17.242,8.807,22.776,11.372c6.434,2.982,12.432-13.333,22.419-14.625
							C952.979,671.059,956.9,667.018,957.45,661.949z"/>
						<g style="opacity:0.6;">
							<path style="fill:#FC8D84;" d="M958.481,649.669l2.341-27.897l-45.365,3.456l-3.976,15.537
								C920.912,645.813,939.88,652.537,958.481,649.669z"/>
						</g>
						<path style="fill:#FFC0BB;" d="M1008.256,603.881c1.249-3.692,2.163-7.523,2.722-11.463c1.7-10.604,1.455-21.456,0.511-30.779
							c-0.202-1.999-0.289-4.004-0.339-6.015c-0.197-8.111-1.893-16.416-5.451-24.594c-11.45-26.314-39.388-42.277-67.911-38.738
							c-38.422,4.766-63.736,40.852-56.337,77.735c-4.463-1.425-9.08-1.039-12.695,1.529c-6.939,4.921-7.568,15.929-1.406,24.591
							c6.163,8.654,16.784,11.686,23.725,6.765c0.963-0.684,1.791-1.494,2.511-2.392c9.502,30.745,40.125,49.821,70.922,43.14
							c15.063-3.276,27.515-12.144,35.831-24.069c0.573-0.709,1.162-1.534,1.765-2.469
							C1004.745,613.02,1006.744,608.54,1008.256,603.881z"/>
						<path style="fill:#333333;" d="M947.371,569.312c0.672,3.084-1.285,6.122-4.372,6.79c-3.086,0.675-6.13-1.28-6.801-4.361
							c-0.672-3.081,1.286-6.121,4.371-6.791C943.655,564.281,946.7,566.237,947.371,569.312z"/>
						<path style="fill:#333333;" d="M996.03,562.037c0.669,3.081-1.286,6.122-4.373,6.79c-3.083,0.669-6.128-1.286-6.802-4.361
							c-0.669-3.084,1.288-6.122,4.373-6.791C992.313,557.003,995.36,558.959,996.03,562.037z"/>
						<path style="fill:#F46C0F;" d="M951.702,556.792c-2.978-0.531-5.788-0.865-8.544-0.912c-2.749-0.049-5.411,0.251-7.944,0.943
							c-2.516,0.716-5.014,1.659-7.304,3.165l-0.9,0.513c-0.3,0.173-0.556,0.407-0.85,0.595l-1.739,1.223
							c-1.163,0.84-2.208,1.832-3.511,2.689c0.552-1.393,1.212-2.78,2.023-4.073c0.943-1.183,1.768-2.544,2.991-3.525
							c2.212-2.221,5.162-3.738,8.232-4.584c3.091-0.839,6.377-0.862,9.411-0.162C946.591,553.4,949.468,554.704,951.702,556.792z"
							/>
						<path style="fill:#F46C0F;" d="M974.431,553.054c1.448-2.691,3.753-4.849,6.381-6.51c2.65-1.642,5.766-2.668,8.965-2.865
							c3.183-0.179,6.463,0.312,9.271,1.708c1.476,0.536,2.693,1.563,3.965,2.38c1.188,0.969,2.257,2.071,3.225,3.21
							c-1.507-0.392-2.816-1.001-4.188-1.425l-2.039-0.594c-0.339-0.087-0.656-0.225-0.997-0.297l-1.015-0.193
							c-2.654-0.695-5.322-0.788-7.938-0.664c-2.623,0.159-5.24,0.727-7.827,1.653C979.637,550.38,977.084,551.6,974.431,553.054z"
							/>
						<path style="fill:#F99893;" d="M965.524,553.974c-0.386,4.102-0.099,8.215,0.673,12.292c0.392,2.042,0.94,4.056,1.732,6.069
							c0.828,1.987,1.836,3.998,3.658,5.732l0.766,0.603l0.677,0.507c0.29,0.248,0.682,0.421,0.908,0.707
							c0.56,0.494,0.973,1.079,1.234,1.722c0.613,1.281,0.341,2.899-0.315,4.445c-1.464,3.159-4.817,5.524-8.498,7.267
							c4.047-0.196,8.51-1.806,11.154-5.758c1.294-1.916,1.996-4.618,1.16-7.171c-0.205-0.632-0.463-1.243-0.841-1.776
							c-0.323-0.583-0.769-1.042-1.208-1.506c-0.427-0.497-0.966-0.788-1.456-1.177c-0.303-0.211-0.364-0.289-0.519-0.416
							l-0.426-0.337c-1.134-1.039-2.076-2.663-2.908-4.327c-0.877-1.67-1.472-3.54-2.177-5.374
							C967.862,561.748,966.748,557.892,965.524,553.974z"/>
					</g>
					<path style="fill:#F46C0F;" d="M973.085,497.865c0,0-30.207,62.836-91.635,72.162l-10.307-44.037
						c0,0,20.341-23.492,22.994-26.507c2.649-3.014,43.86-17.224,43.86-17.224l34.338,4.935L973.085,497.865z"/>
				</g>
				<path style="fill:#FFC0BB;" d="M874.477,712.43c0,0-70.627,246.422-142.493,335.176l23.794,16.262
					c0,0,138.146-178.238,159.282-256.856C936.199,728.399,874.477,712.43,874.477,712.43z"/>
				<path style="fill:#07085B;" d="M894.768,658.003c0,0,187.706-3.992,153.461,154.507c0,0-15.221,54.522-12.683,72.277
					c2.536,17.747,26.633,65.675,24.097,110.816c-2.537,45.142,139.511,116.146,150.927,160.527c0,0-49.464,29.164-69.756,54.522
					c-20.294,25.358-67.22,133.138-214.341,136.942c-147.121,3.802-206.731,11.408-206.731,11.408s6.341-53.253,73.56-131.865
					c67.22-78.614,52-296.71,111.61-349.964C904.914,877.175,830.086,669.605,894.768,658.003z"/>
				<path style="opacity:0.3;fill:#02CCC0;" d="M793.304,1227.139c67.22-78.614,52-296.71,111.61-349.964
					c0,0-65.744-182.37-20.714-214.782c0.011,0.035,61.303,174.209,89.203,199.568c0,0-51.481,103.971-54.278,154.691
					c-2.796,50.718,37.79,119.863,16.227,160.735c-21.56,40.875-40.475,185.869,125.615,126.688
					c-31.614,23.322-74.808,41.978-134.492,43.521c-147.119,3.802-206.731,11.408-206.731,11.408S726.085,1305.751,793.304,1227.139
					z"/>
				<g>
					<path style="fill:#FF5B7E;" d="M897.772,883.731c-2.719-0.525-4.479-3.185-3.924-5.896l0,0
						c0.548-2.691,3.168-4.417,5.864-3.897c68.671,13.235,118.94,6.793,133.958,4.241c2.615-0.447,5.124,1.22,5.716,3.799
						l0.009,0.029c0.64,2.792-1.177,5.541-3.994,6.037c-8.456,1.483-26.858,4.053-52.949,4.053
						C959.61,892.097,930.872,890.127,897.772,883.731z M1038.313,877.305c0,0,0,0,0.003-0.006l1.113,4.869L1038.313,877.305z"/>
				</g>
				<path style="fill:#FFFFFF;" d="M941.093,604.086c1.809,8.588,10.02,15.061,19.857,15.032c9.837-0.035,17.995-6.56,19.732-15.159
					L941.093,604.086z"/>
				<path style="fill:#FFC0BB;" d="M1144.347,536.696c0.938,0.697,2.289,0.084,2.357-1.084c0.536-9.056,2.405-37.546,4.74-37.931
					c2.778-0.463,1.729,25.034,4.154,26.009c2.427,0.974,2.821-23.923,5.869-23.937c3.05-0.014,1.926,22.671,3.214,23.115
					c1.289,0.444,4.687-21.177,6.474-22.266c1.791-1.08,0.973,22.442,2.381,23.422c1.409,0.979,7.375-15.066,8.81-14.714
					c1.437,0.347,2.453,0.345-0.623,40.315l-1.882,15.688l-8.452,11.977l-17.147-4.081c0,0-27.789-43.47-26.931-45.417
					C1128.128,525.937,1129.88,525.923,1144.347,536.696z"/>
				<path style="fill:#FFC0BB;" d="M1152.032,569.739c0,0-43.45,152.622-53.165,157.095c-9.715,4.473-97.23-17.738-133.142-34.838
					c-35.914-17.102-77.281-29.673-87.979-10.996c-10.699,18.674,35.261,103.736,200.807,108.445c0,0,64.231,11.634,82.412-70.311
					c18.182-81.951,19.087-155.585,19.087-155.585L1152.032,569.739z"/>
			</g>
		</g>
		<g>
			<g>
				<path style="fill:#FFC0BB;" d="M1597.232,1050.425c0.875-0.653,0.662-2.015-0.36-2.392c-15.779-5.74-16.671-7.107-15.64-8.693
					c1.076-1.664,46.091-8.263,46.091-8.263l101.198-116.081c12.376-21.655,80.546-140.004,96.416-147.642
					c4.382-2.109,16.412-9.788,26.183-10.14l-4.474,103.405c-20.255,29.049-53.778,73.757-81.056,98.302
					c-29.638,30.256-85.427,70.127-109.35,84.751l-30.184,26.817c-29.521,22.854-22.625,7.327-24.105,6.737
					c-1.482-0.595-4.428-5.521-5.432-6.296c-1.001-0.779-2.008-6.1-4.01-7.486
					C1590.509,1062.058,1590.464,1055.476,1597.232,1050.425z"/>
				<path style="fill:#07085B;" d="M1888.546,616.402c0,0-1.673,38.7-17.065,62.594c-13.252,20.564-31.425,57.038,2.671,79.708
					c34.091,22.67,83.225-8.115,83.926-10.382c0.698-2.264,17.151-27.782,15.825-48.191c-1.327-20.412,7.8-44.821-9.034-62.092
					C1948.036,620.767,1888.546,616.402,1888.546,616.402z"/>
				<path style="fill:#07085B;" d="M2067.688,693.881c-13.491-28.307-14.924-51.217-13.938-72.268
					c0.41-8.827,3.802-34.044-13.454-57.878c-24.976-34.489-56.124-45.917-90.675-39.672c-39.988,7.232-63.783,55.509-61.38,85.296
					l73.281,1.431c-11.786,2.348-20.181,4.024-20.181,4.024c-48.295,125.115-17.795,129.759-9.647,145.844
					c8.147,16.088,58.478,32.611,97.958,25.694C2093.202,775.216,2084.679,729.521,2067.688,693.881z"/>
				<path style="fill:#FFC0BB;" d="M1991.923,678.578l2.257,59.816c0,0-22.562,18.444-61.799-6.364c0,0,7.794-8.691,7.235-31.373
					C1939.038,677.485,1991.923,678.578,1991.923,678.578z"/>
				<path style="opacity:0.6;fill:#FC8D84;" d="M1991.923,678.578l0.974,24.946c-9.284,15.349-27.129,22.483-55.63,18.084
					c1.432-4.944,2.574-11.79,2.35-20.951C1939.038,677.485,1991.923,678.578,1991.923,678.578z"/>
				<path style="fill:#F99893;" d="M1908.375,617.334c1.119,8.328-3.381,15.805-10.049,16.699
					c-6.665,0.889-12.971-5.14-14.09-13.468c-1.116-8.328,3.387-15.808,10.05-16.7
					C1900.95,602.975,1907.26,609.006,1908.375,617.334z"/>
				<path style="fill:#FFC0BB;" d="M1897.044,650.43c-1.09-10.624-0.242-21.387,1.215-30.589c0.314-1.97,0.51-3.958,0.672-5.948
					c0.647-8.048,2.793-16.197,6.778-24.116c12.82-25.489,41.407-39.776,69.484-34.673c37.818,6.877,60.89,44.118,51.491,80.326
					c4.509-1.165,9.067-0.525,12.506,2.227c6.603,5.273,6.608,16.235,0.018,24.49c-6.599,8.25-17.291,10.665-23.899,5.392
					c-0.918-0.732-1.69-1.583-2.354-2.513c-11.135,29.995-42.558,47.228-72.709,38.865
					C1917.415,697.564,1899.325,677.257,1897.044,650.43z"/>
				<path style="fill:#333333;" d="M1929.22,618.366c0.672,3.083-1.285,6.122-4.372,6.79c-3.479,0.761-6.908-1.824-6.938-5.596
					c-0.018-2.205,1.322-4.278,3.336-5.173C1924.695,612.857,1928.465,614.901,1929.22,618.366z"/>
				<path style="fill:#333333;" d="M1978.319,628.489c0.672,3.084-1.285,6.121-4.371,6.791c-3.48,0.761-6.909-1.824-6.938-5.596
					c-0.017-2.205,1.322-4.278,3.337-5.172C1973.794,622.981,1977.563,625.025,1978.319,628.489z"/>
				<path style="fill:#F99893;" d="M1949.797,614.822c-1.009,3.542-2.034,7.036-3.247,10.419c-0.657,1.667-1.253,3.358-2.094,4.889
					c-0.808,1.529-1.72,3.032-2.896,4.013l-0.441,0.329c-0.158,0.121-0.257,0.213-0.505,0.374c-0.427,0.317-0.898,0.548-1.273,0.958
					c-0.388,0.375-0.786,0.738-1.075,1.217c-0.34,0.433-0.573,0.935-0.772,1.454c-0.808,2.104-0.323,4.417,0.692,6.139
					c1.009,1.766,2.544,3.087,4.197,4.03c1.67,0.926,3.473,1.509,5.298,1.769c-1.678-0.776-3.267-1.633-4.633-2.752
					c-1.372-1.087-2.509-2.435-3.184-3.917c-0.628-1.48-0.876-3.115-0.235-4.431c0.16-0.323,0.293-0.655,0.541-0.935
					c0.186-0.312,0.479-0.554,0.75-0.814c0.246-0.277,0.628-0.433,0.93-0.664c0.327-0.225,0.859-0.594,1.271-0.906
					c1.596-1.419,2.567-3.145,3.396-4.866c0.793-1.742,1.364-3.525,1.835-5.331C1949.259,622.184,1949.775,618.514,1949.797,614.822
					z"/>
				<path style="fill:#07085B;" d="M1965.981,611.828c3.023,0.052,5.82,0.254,8.51,0.698c2.68,0.444,5.202,1.194,7.546,2.293
					c2.313,1.122,4.581,2.44,6.576,4.275c1.114,0.794,1.957,1.89,3.04,2.827c1.022,1.004,1.894,2.141,3.056,3.182
					c-0.269-1.474-0.657-2.956-1.212-4.382c-0.685-1.347-1.282-2.815-2.299-4.004c-1.777-2.582-4.418-4.595-7.302-5.957
					c-2.903-1.356-6.14-1.933-9.247-1.731C1971.552,609.255,1968.505,610.097,1965.981,611.828z"/>
				<path style="fill:#07085B;" d="M1941.347,606.705c-1.547-2.64-3.94-4.697-6.653-6.219c-2.726-1.5-5.896-2.354-9.103-2.363
					c-3.188,0.009-6.434,0.707-9.146,2.288c-1.425,0.646-2.589,1.72-3.778,2.651c-1.107,1.053-2.094,2.23-2.959,3.45
					c1.496-0.447,2.768-1.107,4.113-1.583c1.379-0.387,2.606-1.018,3.958-1.264c2.587-0.813,5.197-1.044,7.771-1.079
					c2.582,0.006,5.189,0.398,7.806,1.131C1935.975,604.46,1938.59,605.47,1941.347,606.705z"/>
				<path style="fill:#07085B;" d="M2018.649,635.297c3.431-0.663,3.818-0.357,8.035,0.133l3.445-0.531l-0.814-4.324l-1.321-0.614
					l2.834-11.735l-1.645-12.254c0,0-10.693-35.008-11.163-35.945c-0.479-0.938-12.745-15.116-13.532-15.897
					c-0.788-0.776-23.328-4.273-23.328-4.273s-34.968-20.446-35.505,2.663c-0.539,23.109,23.35,43.067,25.068,42.595
					c-2.927-6.167,1.01-19.717,1.01-19.717C1983.763,604.163,2013.739,631.019,2018.649,635.297z"/>
				<path style="fill:#FFFFFF;" d="M1964.706,663.088c-2.44,7.575-10.457,12.637-19.32,11.689
					c-8.871-0.955-15.618-7.61-16.374-15.525L1964.706,663.088z"/>
				<path style="fill:#FEB546;" d="M1852.101,726.1c0,0-54.957,53.314-66.797,78.67c0,0,26.973,83.986,39.232,94.974l35.334-29
					L1852.101,726.1z"/>
				<path style="fill:#FFC0BB;" d="M2283.456,1072.354c-0.824-0.715-0.512-2.058,0.535-2.357c16.16-4.563,17.149-5.86,16.237-7.518
					c-0.951-1.739-45.356-11.635-45.356-11.635l-92.373-123.221c-10.748-22.507-70.016-145.556-85.279-154.342
					c-4.215-2.426-15.646-10.97-25.365-12.041l-3.156,103.453c18.062,30.462,48.201,77.518,73.596,104.006
					c27.33,32.357,80.03,76.229,102.811,92.575l28.126,28.968c17.392,17.988,22.025,8.974,23.545,8.494
					c1.521-0.484,4.82-5.18,5.88-5.878c1.057-0.704,2.452-5.936,4.551-7.172C2289.306,1084.451,2289.834,1077.891,2283.456,1072.354
					z"/>
				<path style="fill:#FEB546;" d="M2072.785,758.067l49.881,66.99c0,0-45.658,72.696-55.805,87.07l-11.837-18.387
					c0,0-34.663-52.622-31.281-58.538C2027.124,829.283,2072.785,758.067,2072.785,758.067z"/>
				<path style="fill:#FFC0BB;" d="M1906.067,1228.471c0,0,65.068,239.777,91.172,262.058
					c16.706,14.256,295.26,228.44,296.518,226.908c1.264-1.531,33.772-38.888,33.772-38.888s-248.661-224.367-256.195-244.115
					c-7.528-19.742-35.251-228.815-35.251-228.815L1906.067,1228.471z"/>
				<path style="fill:#FFC0BB;" d="M1876.196,722.563c0,0,142.684,9.508,172.487,18.387c0,0,0.634,28.241-6.021,33.932
					c-6.659,5.692-73.542,30.592-94.479,32.25c-20.937,1.653-36.156,16.87-52.007-6.274c-15.856-23.141-19.979-28.844-19.979-34.867
					C1876.196,759.968,1876.196,722.563,1876.196,722.563z"/>
				<path style="fill:#FFC0BB;" d="M2268.233,1757.594l-2.83-65.374l48.84-27.813l2.244,20.501l-21.276,54.932
					c0,0-13.647,18.453-14.73,19.001C2279.403,1759.383,2268.233,1757.594,2268.233,1757.594z"/>
				<path style="fill:#FFC0BB;" d="M1838.169,1302.444l78.822,477.255c0,0,45.055,54.037,47.121,27.147
					c0.483-6.257-0.087-51.373,0.581-59.579c5.618-68.961,12.37-204.957,7.726-252.764c-5.03-51.713-22.733-139.176-22.733-139.176
					L1838.169,1302.444z"/>
				<path style="fill:#07085B;" d="M2268.233,1757.594l1.039,16.754c0.409,7.72,10.649,10.123,14.455,3.393l52.578-93.035
					c1.854-3.283,0.694-7.442-2.586-9.3l-19.477-10.999C2298.96,1737.508,2280.861,1755.518,2268.233,1757.594z"/>
				<path style="fill:#FEB546;" d="M1852.101,726.1c0,0-32.977,139.53,0,247.732c0,0-39.316,57.485-39.316,124.689
					c0,67.204,39.316,327.136,39.316,327.136s112.876-6.338,171.215-27.895v-166.106l26.637,150.893l26.635-11.415
					c0,0,36.781-246.817-58.342-382.71c0,0,34.246-85.807,36.779-94.683c0,0-5.072-87.494,17.761-135.673
					c0,0-25.999-17.118-24.102-17.118c1.901,0-22.829,39.306-80.533,37.402c-57.71-1.901-91.954-55.789-91.954-55.789
					L1852.101,726.1z"/>
				<path style="fill:#FFC0BB;" d="M1864.315,1807.354l54.248-31.84l45.611,28.93l-16.397,11.138l-56.228,6.681
					c0,0-21.823-3.283-22.77-3.951C1867.829,1817.641,1864.315,1807.354,1864.315,1807.354z"/>
				<path style="fill:#07085B;" d="M1864.315,1807.354l-13.755,8.43c-6.374,3.825-3.808,13.601,3.629,13.797l102.688,2.729
					c3.616,0.099,6.634-2.76,6.731-6.381l0.565-21.484C1895.21,1824.394,1871.769,1817.145,1864.315,1807.354z"/>
				<path style="opacity:0.3;fill:#FEB546;" d="M1942.148,967.916c-106.535-36.771-65.952-245.353-65.952-245.353l-24.096,3.537
					c0,0-32.977,139.53,0,247.732c0,0-39.316,57.485-39.316,124.689c0,67.204,39.316,327.136,39.316,327.136
					s112.876-6.338,171.215-27.895C1872.396,1404.1,1942.148,967.916,1942.148,967.916z"/>
				<path style="fill:#FFC0BB;" d="M2071.334,1434.434c0,0,100.864,82.135,208.542,200.835l-172.184-109.536L2071.334,1434.434z"/>
			</g>
			<g>
				<g>
					<g>
						<g>
							<g>
								<g>
									<path style="fill:#F46C0F;" d="M1548.783,1135.985c12.466-47.911,41.042-81.966,63.827-76.065
										c22.784,5.901,31.15,49.525,18.685,97.436c-1.722,6.617,2.826,6.902,4.33,1.122c13.774-52.94,4.531-101.144-20.646-107.664
										s-56.753,31.11-70.527,84.05C1542.877,1140.919,1547.062,1142.603,1548.783,1135.985z"/>
								</g>
							</g>
						</g>
					</g>
					<g>
						<g>
							<polygon style="fill:#D65F0D;" points="1682.935,1378.853 1631.21,1416.515 1485.055,1128.856 1507.571,1091.725 
								1705.297,1143.835 							"/>
							<polygon style="fill:#F46C0F;" points="1631.21,1416.515 1403.393,1357.51 1484.743,1101.22 1685.077,1153.106 							"/>
							<polygon style="fill:#C7580D;" points="1705.297,1143.835 1507.571,1091.725 1518.813,1101.271 1484.743,1101.22 
								1685.077,1153.106 1690.486,1146.457 							"/>
							<path style="fill:#F46C0F;" d="M1534.384,1138.37c13.476-51.794,44.368-88.608,68.999-82.229
								c24.631,6.38,33.675,53.538,20.198,105.331c-1.861,7.153,3.057,7.462,4.682,1.213c14.891-57.23,4.898-109.339-22.318-116.388
								c-27.217-7.05-61.352,33.63-76.242,90.86C1527.999,1143.703,1532.522,1145.523,1534.384,1138.37z"/>
						</g>
					</g>
					<polygon style="fill:#E6E6E6;" points="1690.486,1146.457 1641.581,1365.798 1682.935,1378.853 1705.297,1143.835 					"/>
				</g>
				<g>
					<g>
						<path style="fill:#FF5B7E;" d="M1539.82,1122.236c22.926-43.878,58.432-70.631,79.305-59.754
							c20.873,10.876,19.209,55.263-3.717,99.141c-3.166,6.061,1.201,7.361,3.968,2.067c25.332-48.483,27.171-97.53,4.106-109.549
							c-23.063-12.018-62.297,17.544-87.629,66.027C1532.956,1125.715,1536.654,1128.296,1539.82,1122.236z"/>
					</g>
					<g>
						<g>
							<polygon style="fill:#E8486A;" points="1615.89,1389.06 1557.017,1414.118 1479.331,1100.951 1509.623,1069.838 
								1690.556,1165.1 							"/>
							<polygon style="fill:#FF5B7E;" points="1557.017,1414.118 1348.316,1305.37 1485.244,1073.954 1668.769,1169.584 							"/>
							<polygon style="fill:#C23C59;" points="1690.556,1165.1 1509.623,1069.838 1518.43,1081.669 1485.244,1073.954 
								1668.769,1169.584 1675.534,1164.321 							"/>
							<path style="fill:#FF5B7E;" d="M1525.254,1121.32c24.783-47.434,63.166-76.354,85.73-64.597s20.766,59.741-4.018,107.175
								c-3.423,6.551,1.298,7.958,4.289,2.234c27.385-52.412,29.372-105.433,4.439-118.425
								c-24.934-12.992-67.345,18.965-94.729,71.377C1517.833,1125.08,1521.831,1127.871,1525.254,1121.32z"/>
						</g>
					</g>
					<polygon style="fill:#E6E6E6;" points="1675.534,1164.321 1578.534,1367.035 1615.89,1389.06 1690.556,1165.1 					"/>
				</g>
				<g>
					<g>
						<path style="fill:#FEB546;" d="M1549.692,1084.635c23.178-23.887,51.184-34.327,62.553-23.32
							c11.368,11.007,1.795,39.294-21.384,63.18c-3.201,3.3-0.636,4.975,2.161,2.093c25.611-26.394,36.189-57.65,23.628-69.813
							c-12.562-12.163-43.508-0.626-69.119,25.768C1544.601,1085.562,1546.491,1087.934,1549.692,1084.635z"/>
					</g>
					<g>
						<g>
							<polygon style="fill:#EBA741;" points="1547.611,1271.16 1504.872,1276.033 1514.785,1059.332 1540.267,1045.082 
								1638.624,1141.128 							"/>
							<polygon style="fill:#FEB546;" points="1504.872,1276.033 1391.201,1165.979 1523.768,1043.066 1623.726,1139.845 							"/>
							<polygon style="fill:#B88233;" points="1638.624,1141.128 1540.267,1045.082 1543.676,1054.394 1523.768,1043.066 
								1623.726,1139.845 1629.094,1137.749 							"/>
							<path style="fill:#FEB546;" d="M1540.479,1081.254c25.057-25.822,55.332-37.108,67.622-25.21
								c12.29,11.899,1.941,42.479-23.116,68.3c-3.461,3.566-0.688,5.378,2.336,2.262c27.687-28.532,39.123-62.321,25.543-75.47
								c-13.58-13.147-47.033-0.676-74.721,27.856C1534.976,1082.256,1537.02,1084.82,1540.479,1081.254z"/>
						</g>
					</g>
					<polygon style="fill:#E6E6E6;" points="1629.094,1137.749 1527.756,1249.812 1547.611,1271.16 1638.624,1141.128 					"/>
				</g>
			</g>
			<g>
				<g>
					<g>
						<path style="fill:#02CCC0;" d="M2338.069,1158.163c-13.841-52.923-45.462-90.515-70.631-83.962
							c-25.168,6.552-34.352,54.766-20.512,107.688c1.512,5.779,6.059,5.488,4.329-1.127c-12.525-47.895-4.214-91.528,18.563-97.458
							c22.776-5.93,51.396,28.09,63.922,75.985C2335.471,1165.904,2339.653,1164.217,2338.069,1158.163z"/>
					</g>
					<g>
						<g>
							<polygon style="fill:#00B0A5;" points="2199.893,1402.324 2251.662,1439.922 2397.46,1152.082 2374.898,1114.979 
								2177.237,1167.335 							"/>
							<polygon style="fill:#02CCC0;" points="2251.662,1439.922 2479.407,1380.634 2397.737,1124.445 2197.468,1176.581 							"/>
							<polygon style="fill:#008C83;" points="2177.237,1167.335 2374.898,1114.979 2363.667,1124.538 2397.737,1124.445 
								2197.468,1176.581 2192.051,1169.938 							"/>
							<path style="fill:#02CCC0;" d="M2352.823,1160.438c-14.962-57.212-49.147-97.849-76.355-90.767
								c-27.208,7.084-37.135,59.205-22.174,116.416c1.634,6.247,6.55,5.933,4.681-1.219c-13.54-51.775-4.556-98.945,20.067-105.355
								s55.561,30.366,69.102,82.143C2350.012,1168.808,2354.534,1166.982,2352.823,1160.438z"/>
						</g>
					</g>
					<polygon style="fill:#E6E6E6;" points="2192.051,1169.938 2241.229,1389.218 2199.893,1402.324 2177.237,1167.335 					"/>
				</g>
				<g>
					<g>
						<g>
							<g>
								<g>
									<path style="fill:#07085B;" d="M2346.651,1143.457c-25.393-48.451-64.662-77.964-87.712-65.917
										c-23.049,12.047-21.149,61.091,4.243,109.543c2.773,5.291,7.139,3.983,3.964-2.072
										c-22.979-43.849-24.698-88.233-3.839-99.136s56.398,15.806,79.379,59.654
										C2345.86,1151.586,2349.556,1149,2346.651,1143.457z"/>
								</g>
							</g>
						</g>
					</g>
					<g>
						<g>
							<polygon style="fill:#06074A;" points="2266.95,1412.447 2325.854,1437.434 2403.149,1124.17 2372.819,1093.094 
								2192.006,1188.581 							"/>
							<polygon style="fill:#07085B;" points="2325.854,1437.434 2534.418,1328.425 2397.202,1097.18 2213.797,1193.038 							"/>
							<polygon style="fill:#040536;" points="2192.006,1188.581 2372.819,1093.094 2364.026,1104.936 2397.202,1097.18 
								2213.797,1193.038 2207.024,1187.784 							"/>
							<path style="fill:#07085B;" d="M2361.538,1142.355c-27.448-52.379-69.902-84.282-94.819-71.26
								c-24.917,13.023-22.862,66.042,4.587,118.42c2.998,5.72,7.718,4.307,4.287-2.24c-24.843-47.402-26.701-95.384-4.152-107.17
								c22.551-11.785,60.969,17.088,85.812,64.49C2360.683,1151.143,2364.679,1148.347,2361.538,1142.355z"/>
						</g>
					</g>
					<polygon style="fill:#E6E6E6;" points="2207.024,1187.784 2304.277,1390.377 2266.95,1412.447 2192.006,1188.581 					"/>
				</g>
				<g>
					<g>
						<path style="fill:#FF5B7E;" d="M2334.926,1105.846c-25.644-26.362-56.604-37.86-69.151-25.683
							c-12.546,12.179-1.929,43.422,23.716,69.783c2.8,2.879,5.363,1.2,2.158-2.095c-23.208-23.857-32.818-52.132-21.462-63.153
							c11.354-11.021,39.373-0.615,62.582,23.242C2335.974,1111.235,2337.859,1108.861,2334.926,1105.846z"/>
					</g>
					<g>
						<g>
							<polygon style="fill:#E8486A;" points="2335.08,1294.463 2377.826,1299.283 2367.644,1082.595 2342.145,1068.377 
								2243.905,1164.544 							"/>
							<polygon style="fill:#FF5B7E;" points="2377.826,1299.283 2491.36,1189.087 2358.641,1066.34 2258.804,1163.242 							"/>
							<polygon style="fill:#C23C59;" points="2243.905,1164.544 2342.145,1068.377 2338.746,1077.692 2358.641,1066.34 
								2258.804,1163.242 2253.433,1161.154 							"/>
							<path style="fill:#FF5B7E;" d="M2344.31,1102.284c-27.723-28.498-61.191-40.929-74.756-27.764
								c-13.563,13.165-2.085,46.94,25.637,75.438c3.027,3.111,5.799,1.297,2.334-2.265c-25.089-25.791-35.478-56.357-23.201-68.271
								c12.275-11.914,42.564-0.665,67.652,25.126C2345.441,1108.11,2347.48,1105.544,2344.31,1102.284z"/>
						</g>
					</g>
					<polygon style="fill:#E6E6E6;" points="2253.433,1161.154 2354.91,1273.09 2335.08,1294.463 2243.905,1164.544 					"/>
				</g>
			</g>
			<path style="fill:#FFC0BB;" d="M1586.081,1057.039c5.249-3.484,24.906-4.922,27.612-0.898c3.282,4.879,1.103,25.263-5.405,27.87
				C1602.427,1085.854,1579.003,1061.738,1586.081,1057.039z"/>
			<path style="fill:#FFC0BB;" d="M2290.679,1077.613c-5.173-3.596-24.796-5.453-27.587-1.489
				c-3.386,4.808-1.645,25.233,4.808,27.979C2273.72,1106.072,2297.655,1082.463,2290.679,1077.613z"/>
		</g>
	</g>
</g>
</svg>
