<?xml version="1.0" encoding="utf-8"?>
<!-- Generator: Adobe Illustrator 27.5.0, SVG Export Plug-In . SVG Version: 6.00 Build 0)  -->
<svg version="1.1" xmlns="http://www.w3.org/2000/svg" xmlns:xlink="http://www.w3.org/1999/xlink" x="0px" y="0px"
	 viewBox="0 0 750 500" style="enable-background:new 0 0 750 500;" xml:space="preserve">
<g id="BACKGROUND">
	<rect style="fill:#CCDBFF;" width="750" height="500"/>
</g>
<g id="OBJECTS">
	<g>
		<path style="fill:none;stroke:#FFFFFF;stroke-width:1.5;stroke-linejoin:round;stroke-miterlimit:10;" d="M562.255,196.232
			l-24.076,3.77l-8.774,22.735l15.303,18.966l24.076-3.77l8.774-22.735L562.255,196.232z M555.308,230.636
			c-6.444,1.009-12.486-3.397-13.495-9.841c-1.009-6.444,3.397-12.486,9.841-13.495c6.444-1.009,12.486,3.397,13.495,9.841
			C566.159,223.585,561.753,229.627,555.308,230.636z"/>
		<path style="fill:none;stroke:#FFFFFF;stroke-width:1.5;stroke-linejoin:round;stroke-miterlimit:10;" d="M205.087,165.664
			l-11.547,3.89l-2.404,11.945l9.143,8.055l11.547-3.891l2.404-11.945L205.087,165.664z M204.568,183.205
			c-3.091,1.041-6.44-0.62-7.482-3.711c-1.041-3.091,0.62-6.44,3.71-7.481c3.091-1.041,6.44,0.62,7.482,3.71
			C209.32,178.814,207.659,182.163,204.568,183.205z"/>
		<path style="fill:none;stroke:#B7C6F9;stroke-width:1.5;stroke-linejoin:round;stroke-miterlimit:10;" d="M450.837,97.15
			l-11.654,3.557l-2.747,11.871l8.907,8.314l11.654-3.557l2.747-11.871L450.837,97.15z M449.814,114.669
			c-3.119,0.952-6.42-0.805-7.372-3.924c-0.952-3.119,0.805-6.42,3.924-7.372c3.119-0.952,6.42,0.805,7.372,3.924
			C454.691,110.417,452.934,113.717,449.814,114.669z"/>
		<path style="fill:none;stroke:#FFFFFF;stroke-width:1.5;stroke-linejoin:round;stroke-miterlimit:10;" d="M584.548,47.182
			l-16.76-6.844l-14.307,11.093l2.453,17.937l16.76,6.844l14.307-11.093L584.548,47.182z M566.925,66.397
			c-4.486-1.832-6.638-6.953-4.806-11.439c1.832-4.486,6.953-6.638,11.439-4.806c4.486,1.832,6.638,6.953,4.806,11.439
			C576.532,66.077,571.411,68.229,566.925,66.397z"/>
		<path style="fill:none;stroke:#B7C6F9;stroke-width:1.5;stroke-linejoin:round;stroke-miterlimit:10;" d="M55.434,194.878
			l-18.208-6.569l-13.666,9.361l4.541,15.93l18.208,6.569l13.666-9.362L55.434,194.878z M39.215,211.316
			c-4.873-1.758-7.681-6.352-6.271-10.26c1.41-3.908,6.504-5.651,11.377-3.893c4.873,1.758,7.681,6.352,6.271,10.26
			C49.182,211.331,44.089,213.074,39.215,211.316z"/>
		<g>
			<path style="fill:#B7C6F9;" d="M650.486,145.008l-3.396-28.181l-15.196,3.367l-3.071-4.094l11.4-11.909l-22.328-17.526
				l-5.998,9.412l-7.479,0.901l-0.314-14.394l-28.181,3.396l3.114,14.056l-7.319,0.882l-8.432-8.072l-17.526,22.329l13.779,8.781
				l-1.992,4.663l-15.868,0.346l3.396,28.181l15.196-3.367l3.071,4.095l-11.4,11.909l22.328,17.526l5.998-9.412l7.479-0.901
				l0.314,14.394l28.181-3.396l-3.114-14.056l7.319-0.882l8.432,8.072l17.526-22.328l-13.779-8.781l1.992-4.664L650.486,145.008z
				 M598.892,160.298c-12.874,1.551-24.569-7.628-26.121-20.503c-1.551-12.875,7.628-24.569,20.502-26.121
				c12.875-1.551,24.569,7.628,26.121,20.502C620.946,147.052,611.766,158.747,598.892,160.298z"/>
			
				<ellipse transform="matrix(0.987 -0.1608 0.1608 0.987 -14.2695 97.6152)" style="fill:#B7C6F9;" cx="596.083" cy="136.986" rx="11.783" ry="11.783"/>
		</g>
		<g>
			<path style="fill:#B7C6F9;" d="M196.334,133.253v-20.821l-11.362,1.118l-1.877-3.251l9.347-7.673L177.72,87.903l-5.194,6.328
				h-5.526l1.034-10.51h-20.821l1.034,10.51h-5.408l-5.432-6.618l-14.723,14.723l9.264,7.604l-1.86,3.221l-11.586-1.14v20.821
				l11.362-1.118l1.877,3.251l-9.347,7.673l14.723,14.722l5.194-6.328h5.526l-1.034,10.51h20.821l-1.034-10.51h5.408l5.432,6.618
				l14.723-14.723l-9.264-7.604l1.86-3.221L196.334,133.253z M157.419,139.86c-9.512,0-17.223-7.711-17.223-17.223
				c0-9.512,7.711-17.223,17.223-17.223c9.512,0,17.223,7.711,17.223,17.223C174.642,132.149,166.931,139.86,157.419,139.86z"/>
			<circle style="fill:#B7C6F9;" cx="157.419" cy="122.637" r="8.643"/>
		</g>
		<g>
			<path style="fill:none;stroke:#B7C6F9;stroke-width:1.5;stroke-linejoin:round;stroke-miterlimit:10;" d="M526.64,113.877
				l6.734-16.676l-9.461-2.779l-0.452-3.211l9.968-3.122l-7.03-16.553l-6.206,3.388l-4.426-1.787l4.227-8.083l-16.676-6.734
				l-2.571,8.752l-4.331-1.749l-2.21-7.058l-16.553,7.03l4.961,9.086l-2.531,1.979l-8.911-4.66l-6.734,16.676l9.461,2.779
				l0.452,3.211l-9.968,3.122l7.03,16.553l6.206-3.388l4.426,1.787l-4.227,8.083l16.676,6.734l2.571-8.752l4.331,1.749l2.21,7.058
				l16.553-7.03l-4.961-9.086l2.531-1.978L526.64,113.877z M493.335,106.583c-7.618-3.076-11.3-11.746-8.224-19.364
				c3.076-7.618,11.746-11.3,19.364-8.224c7.618,3.076,11.3,11.746,8.224,19.364C509.624,105.978,500.954,109.66,493.335,106.583z"
				/>
			<path style="fill:none;stroke:#B7C6F9;stroke-width:1.5;stroke-linejoin:round;stroke-miterlimit:10;" d="M501.701,85.867
				c-3.823-1.544-8.174,0.304-9.718,4.127c-1.544,3.823,0.304,8.174,4.127,9.718c3.823,1.544,8.174-0.304,9.717-4.127
				C507.372,91.761,505.524,87.411,501.701,85.867z"/>
		</g>
		<g>
			<path style="fill:none;stroke:#FFFFFF;stroke-width:1.5;stroke-linejoin:round;stroke-miterlimit:10;" d="M74.34,420.647
				l6.232-15.936l-9.031-2.545l-0.464-3.05l9.451-3.075l-6.862-15.675l-5.869,3.289l-4.229-1.654l3.937-7.734l-15.936-6.232
				l-2.354,8.354l-4.139-1.618l-2.177-6.692l-15.675,6.862l4.815,8.593l-2.388,1.909l-8.527-4.34l-6.232,15.936l9.031,2.545
				l0.464,3.05l-9.451,3.075l6.862,15.675l5.869-3.289l4.229,1.654l-3.937,7.735l15.936,6.232l2.354-8.354l4.139,1.619l2.177,6.692
				l15.675-6.862l-4.815-8.593l2.388-1.909L74.34,420.647z M42.577,414.057c-7.28-2.847-10.874-11.057-8.027-18.337
				c2.847-7.28,11.057-10.874,18.337-8.027c7.28,2.847,10.874,11.057,8.027,18.337C58.068,413.31,49.857,416.904,42.577,414.057z"/>
			<path style="fill:none;stroke:#FFFFFF;stroke-width:1.5;stroke-linejoin:round;stroke-miterlimit:10;" d="M50.319,394.259
				c-3.653-1.429-7.773,0.375-9.202,4.028c-1.429,3.653,0.375,7.773,4.028,9.202c3.653,1.429,7.774-0.375,9.202-4.028
				C55.776,399.808,53.972,395.688,50.319,394.259z"/>
		</g>
		<g>
			<path style="fill:none;stroke:#B7C6F9;stroke-width:1.5;stroke-linejoin:round;stroke-miterlimit:10;" d="M728.75,291.15
				l6.711-17.161l-9.725-2.741l-0.499-3.285l10.177-3.311l-7.389-16.88l-6.321,3.541l-4.555-1.781l4.24-8.329l-17.161-6.711
				l-2.535,8.996l-4.457-1.743l-2.344-7.206l-16.88,7.39l5.185,9.254l-2.571,2.056l-9.182-4.674l-6.711,17.161l9.725,2.741
				l0.499,3.285l-10.177,3.311l7.389,16.88l6.321-3.541l4.555,1.781l-4.24,8.329l17.161,6.711l2.535-8.996l4.457,1.743l2.344,7.206
				l16.88-7.39l-5.185-9.253l2.571-2.056L728.75,291.15z M692.471,289.355c-10.769-4.211-16.085-16.355-11.873-27.123
				c4.211-10.768,16.355-16.085,27.123-11.873c10.769,4.211,16.085,16.355,11.874,27.123
				C715.383,288.25,703.24,293.566,692.471,289.355z"/>
			<path style="fill:none;stroke:#B7C6F9;stroke-width:1.5;stroke-linejoin:round;stroke-miterlimit:10;" d="M705.159,256.91
				c-7.15-2.796-15.213,0.734-18.009,7.884c-2.796,7.15,0.734,15.213,7.884,18.009c7.15,2.796,15.213-0.734,18.009-7.884
				C715.838,267.769,712.309,259.706,705.159,256.91z"/>
		</g>
		<polygon style="fill:#BB133E;" points="656.555,74.301 662.205,79.497 669.688,77.789 666.492,84.768 670.43,91.357 
			662.805,90.474 657.755,96.255 656.238,88.73 649.18,85.714 655.868,81.946 		"/>
		<polygon style="fill:#FFFFFF;" points="614.237,64.092 619.11,60.523 618.932,54.486 623.832,58.017 629.519,55.983 
			627.675,61.734 631.368,66.514 625.328,66.537 621.923,71.526 620.034,65.789 		"/>
		<polygon style="fill:#FFFFFF;" points="405.053,38.954 409.674,40.544 413.603,37.638 413.519,42.524 417.496,45.363 
			412.824,46.793 411.353,51.453 408.549,47.451 403.663,47.493 406.602,43.589 		"/>
		<polygon style="fill:#FFFFFF;" points="239.466,27.073 244.349,27.266 247.276,23.353 248.601,28.057 253.227,29.631 
			249.163,32.345 249.095,37.231 245.258,34.205 240.59,35.65 242.283,31.066 		"/>
		<polygon style="fill:#FFFFFF;" points="713.043,208.661 717.548,206.769 718.544,201.985 721.736,205.685 726.593,205.154 
			724.06,209.332 726.067,213.788 721.31,212.67 717.692,215.955 717.285,211.086 		"/>
		<polygon style="fill:#FFFFFF;" points="167.329,188.935 171.919,190.61 175.901,187.779 175.726,192.662 179.65,195.574 
			174.952,196.917 173.394,201.549 170.665,197.495 165.779,197.445 168.791,193.597 		"/>
		<polygon style="fill:#FFFFFF;" points="10.877,309.204 14.046,306.84 13.895,302.89 17.122,305.173 20.833,303.809 
			19.659,307.584 22.102,310.691 18.149,310.741 15.949,314.025 14.681,310.281 		"/>
		<polygon style="fill:#002664;" points="44.61,154.278 48.276,153.128 49.407,149.455 51.634,152.586 55.477,152.527 
			53.187,155.613 54.431,159.249 50.788,158.024 47.715,160.331 47.753,156.488 		"/>
		<polygon style="fill:#BB133E;" points="726.593,460.51 730.26,459.359 731.39,455.686 733.618,458.818 737.46,458.758 
			735.17,461.844 736.414,465.48 732.771,464.256 729.698,466.563 729.737,462.72 		"/>
		<polygon style="fill:#BB133E;" points="64.538,89.097 72.802,90.043 78.265,83.771 79.92,91.923 87.572,95.181 80.331,99.273 
			79.597,107.558 73.467,101.936 65.361,103.798 68.814,96.231 		"/>
		<polygon style="fill:#BB133E;" points="535.715,23.452 540.54,25.666 545.098,22.946 544.484,28.219 548.479,31.714 
			543.275,32.759 541.185,37.638 538.583,33.012 533.297,32.532 536.893,28.628 		"/>
		<polygon style="fill:#BB133E;" points="417.622,119.874 422.446,122.088 427.005,119.368 426.391,124.641 430.386,128.136 
			425.181,129.181 423.092,134.06 420.49,129.434 415.203,128.954 418.799,125.05 		"/>
		<polygon style="fill:#002664;" points="120.762,56.341 125.553,58.627 130.152,55.977 129.458,61.239 133.4,64.794 
			128.181,65.761 126.018,70.608 123.486,65.943 118.207,65.384 121.862,61.534 		"/>
		<polygon style="fill:#002664;" points="21.919,438.722 26.296,441.724 31.251,439.82 29.748,444.911 33.09,449.036 27.784,449.18 
			24.895,453.632 23.118,448.63 17.99,447.258 22.198,444.023 		"/>
		<polygon style="fill:#002664;" points="697.151,130.845 697.543,136.109 702.101,138.772 697.215,140.771 696.092,145.929 
			692.681,141.9 687.428,142.425 690.206,137.936 688.083,133.103 693.211,134.358 		"/>
	</g>
	<g>
		<defs>
			<rect id="SVGID_1_" width="750" height="500"/>
		</defs>
		<clipPath id="SVGID_00000132806016847495093670000000562168797723767994_">
			<use xlink:href="#SVGID_1_"  style="overflow:visible;"/>
		</clipPath>
		<g style="clip-path:url(#SVGID_00000132806016847495093670000000562168797723767994_);">
			<g>
				<g>
					<path style="fill:#A85021;" d="M324.495,86.815c-2.417,4.649-6.11,8.625-10.567,11.379c-2.615,1.615-5.596,2.916-7.342,5.445
						c-2.385,3.455-1.442,8.76,1.989,11.181c1.566,1.105,3.512,1.645,4.921,2.946c2.7,2.493,2.87,7.239,6.106,8.979
						c2.311,1.243,5.175,0.342,7.51-0.857c2.335-1.199,4.68-2.721,7.304-2.691c1.87,0.022,3.636,0.843,5.49,1.094
						c3.239,0.439,6.666-1.032,8.579-3.683c1.913-2.651,2.229-6.367,0.792-9.303c-0.883-1.804-2.359-3.306-2.995-5.212
						c-1.005-3.011,0.287-6.238,0.826-9.367c1.257-7.297-1.872-15.128-8.034-19.314C331.241,72.093,327.532,80.974,324.495,86.815z"
						/>
					<path style="fill:#FFC197;" d="M367.895,110.89l0.561,29.763c0,0-8.559,10.034-30.626,19.122
						c-3.184-5.857-5.587-24.33-5.587-24.33l3.203-15.536L367.895,110.89z"/>
					<path style="fill:#FFC197;" d="M324.021,114.773c-0.149,4.139,1.02,7.382,2.97,9.692c3.728,4.418,10.487,4.794,15.806,3.742
						c6.04-1.195,10.793-3.833,15.318-8.052c7.059-6.58,10.777-17.253,10.653-26.751c-0.112-8.63-7.337-16.236-15.103-19.189
						c-7.389-2.81-16.236-0.714-22.05,4.496c-1.871,1.676-2.589,3.541-3.003,5.973c-1.13,6.651-3.242,15.02-3.885,21.742
						C324.492,108.876,324.127,111.806,324.021,114.773z"/>
					<path style="fill:none;stroke:#000000;stroke-width:1.5;stroke-linejoin:round;stroke-miterlimit:10;" d="M336.34,97.842
						c0,0-1.334,3.439-2.529,5.622c-0.768,1.402-3.409,4.246-2.662,5.997c0.112,0.261,0.347,0.438,0.581,0.585
						c1.145,0.719,2.524,1.027,3.86,0.863"/>
					<path d="M348.178,102.763c-0.344,1.12-0.004,2.218,0.76,2.453c0.764,0.235,1.662-0.483,2.006-1.603s0.004-2.218-0.76-2.453
						C349.42,100.925,348.522,101.643,348.178,102.763z"/>
					<path d="M328.849,97.363c-0.344,1.12-0.004,2.218,0.76,2.453c0.764,0.235,1.662-0.483,2.006-1.603
						c0.344-1.12,0.004-2.218-0.76-2.453C330.091,95.525,329.193,96.243,328.849,97.363z"/>
					<path style="fill:none;stroke:#000000;stroke-width:1.5;stroke-linejoin:round;stroke-miterlimit:10;" d="M356.74,99.346
						c-1.745-4.454-7.091-7.897-11.526-4.811"/>
					<path style="fill:none;stroke:#000000;stroke-width:1.5;stroke-linejoin:round;stroke-miterlimit:10;" d="M341.177,112.44
						c-0.973,1.201-2.238,2.212-3.72,2.652c-1.482,0.44-3.195,0.244-4.402-0.722"/>
					<path style="fill:none;stroke:#000000;stroke-width:1.5;stroke-linejoin:round;stroke-miterlimit:10;" d="M353.295,124.156
						c-5.948,4.228-13.166,5.576-20.352,4.305"/>
					<path style="fill:none;stroke:#000000;stroke-width:1.5;stroke-linejoin:round;stroke-miterlimit:10;" d="M335.048,92.128
						c-1.868-3.073-5.4-3.312-7.908-0.839"/>
					<g>
						<path style="fill:#FFC197;" d="M359.799,105.115c2.365-2.419,5.628-2.896,8.046-1.707c8.593,4.226,0.57,17.14-6.873,15.527
							c-2.186-0.474-4.425-2.827-4.323-5.483"/>
						<path style="fill:none;stroke:#000000;stroke-width:1.5;stroke-linejoin:round;stroke-miterlimit:10;" d="M368.37,115.852
							c-1.089,1.28-2.499,2.35-4.168,2.888c-3.833,1.235-7.707-1.3-7.553-5.287"/>
						<path style="fill:none;stroke:#000000;stroke-width:1.5;stroke-linejoin:round;stroke-miterlimit:10;" d="M359.799,105.115
							c2.365-2.419,5.628-2.896,8.046-1.707"/>
						<path style="fill:none;stroke:#000000;stroke-width:1.5;stroke-linejoin:round;stroke-miterlimit:10;" d="M359.59,112.906
							c1.784-2.865,4.904-5.815,8.866-5.395"/>
						<path style="fill:none;stroke:#000000;stroke-width:1.5;stroke-linejoin:round;stroke-miterlimit:10;" d="M365.329,107.883
							c0,0,2.767,2.205,0.178,6.456"/>
					</g>
					<path style="fill:#A85021;" d="M371.766,70.258c-3.094-2.602-7.087-3.921-11.081-4.548c-3.844-0.603-7.566-0.229-11.28,0.841
						c-1.14,0.328-2.14,0.842-3.268,0.815c-1.006-0.024-2.064-0.437-3.097-0.491c-4.304-0.223-8.727,1.366-11.799,4.411
						c-4.582,4.542-5.99,11.874-3.767,17.931c1.137-4.533,8.795-8.845,12.556-10.234c3.485-1.287,7.44-0.704,10.844,0.785
						c3.403,1.489,6.684,3.257,9.6,5.557c0.105,0.083-0.823,4.768-0.819,5.378c0.013,1.834,0.108,3.838,0.334,5.669
						c0.519,4.211,2.104,8.234,2.497,12.464c0.35,3.765-2.896,7.232-4.398,10.667c-0.42,0.959-0.809,2.086-0.325,3.014
						c0.51,0.979,1.733,1.275,2.714,1.781c1.847,0.954,2.994,2.826,4.243,4.488c1.249,1.661,2.916,3.297,4.994,3.37
						c2.906,0.101,5.047-2.837,7.889-3.447c2.115-0.454,4.346,0.443,6.461-0.012c2.644-0.569,4.395-3.064,5.564-5.502
						c0.878-1.831,1.593-3.784,1.679-5.813c0.272-6.414-5.468-11.281-8.212-17.085C378.603,90.794,380.485,77.589,371.766,70.258z"
						/>
				</g>
				<g>
					<path style="fill:#FFFFFF;" d="M327.717,70.661l-2.441,13.651l57.81,12.737l1.802-9.389c2.41,0.445,5.024,0.291,7.918-0.736
						c5.699-2.023,8.916-8.102,8.516-13.791c-0.415-5.889-3.991-12.383-9.02-16.042c-4.871-3.544-11.776-6.145-17.893-4.522
						c-0.811-3.493-3.172-6.713-6.298-8.862c-5.813-3.995-15.845-4.38-22.356-1.458c-4.876,2.188-9.751,5.516-11.24,11.516
						c-5-0.046-8.427,1.698-10.752,3.341C319.869,59.858,319.523,68.693,327.717,70.661z"/>
					<path style="fill:none;stroke:#000000;stroke-width:1.5;stroke-linejoin:round;stroke-miterlimit:10;" d="M365.571,55.716
						c4.266-2.598,8.837-3.148,8.837-3.148"/>
					<path style="fill:none;stroke:#000000;stroke-width:1.5;stroke-linejoin:round;stroke-miterlimit:10;" d="M327.717,70.661
						c0,0,7.331,4.255,15.662-2.629"/>
					<path style="fill:none;stroke:#000000;stroke-width:1.5;stroke-linejoin:round;stroke-miterlimit:10;" d="M384.887,87.659
						c-10.22-2.014-19.464-9.147-22.924-19.117"/>
					
						<line style="fill:none;stroke:#000000;stroke-width:1.5;stroke-linejoin:round;stroke-miterlimit:10;" x1="365.971" y1="76.363" x2="339.024" y2="70.751"/>
				</g>
			</g>
			<g>
				<path style="fill:#FFFFFF;" d="M310.652,258.385c0,0-6.64,35.597-3.243,73.633c3.397,38.036,12.152,140.175,12.152,140.175
					l91.531,4.524c0,0-8.339-157.354-8.155-171.376c0.184-14.022-16.737-49.336-16.737-49.336"/>
				<polyline style="fill:none;stroke:#000000;stroke-width:1.5;stroke-linejoin:round;stroke-miterlimit:10;" points="
					361.279,476.47 344.117,315.774 341.177,307.517 				"/>
				<path style="fill:#FFFFFF;" d="M329.258,141.658c-9.143,1.357-21.327,1.767-28.023,7.696c-4.806,4.256-7.4,10.231-9.036,16.204
					c-1.636,5.973-4.436,18.017-4.436,18.017l-18.684-4.772c0,0,9.783,33.139,13.473,44.538c3.69,11.4,15.008,37.912,31.647,21.694
					c14.988-14.609,21.995-58.226,21.995-58.226L329.258,141.658z"/>
				<path style="fill:#A4B3F4;" d="M305.1,193.598c-1.299-9.587-3.526-19.184-8.107-27.676c-4.581-8.493-11.725-15.844-20.7-19.166
					c-4.195-1.553-8.656-2.195-13.078-2.828c-8.341-1.194-17.173-2.328-24.92,1.023c-0.961,0.416-1.958,0.96-2.417,1.91
					c-0.359,0.742-0.328,1.618-0.176,2.43c0.609,3.268,3.393,4.247,6.315,5.782c5.983,3.142,14.9,9.517,19.826,16.913
					c7.167,10.759,8.697,24.994,8.697,24.994S290.617,196.991,305.1,193.598z"/>
				<path style="fill:#FFFFFF;" d="M369.966,134.298c-6.754,3.187-12.476,5.505-20.317,6.83c-1.326,0.224-2.69,0.428-3.847,0.95
					c-1.824,0.823-2.908,2.356-3.34,3.938c-0.432,1.581-0.373,5.188-0.596,8.801c18.458-3.854,30.161-10.087,30.161-10.087
					L369.966,134.298z"/>
				<path style="fill:#FFFFFF;" d="M329.646,133.502c1.113,0.954,2.225,1.908,3.338,2.862c1.251,1.072,2.538,2.193,3.153,3.621
					c0.49,1.139,0.511,2.384,0.471,3.599c-0.132,4.029-1.546,9.031-1.546,9.031l-7.331-9.72L329.646,133.502z"/>
				<path style="fill:#FFFFFF;" d="M403.121,289.73c-1.346-41.313-1.38-65.502-0.149-106.819l-31.079-40.122
					c0,0-6.55,6.634-22.413,6.774c-9.585,0.085-15.661-1.442-18.448-1.168c-2.788,0.274-8.026,1.439-7.656,17.451
					c0.37,16.013-2.382,128.657-2.382,128.657s11.707,2.446,31.094,3.72C375.811,299.783,403.121,289.73,403.121,289.73z"/>
				<path style="fill:none;stroke:#000000;stroke-width:1.5;stroke-linejoin:round;stroke-miterlimit:10;" d="M320.993,294.504
					c0,0,11.707,2.446,31.094,3.72c23.723,1.559,51.033-8.494,51.033-8.494"/>
				<path style="fill:#FFFFFF;" d="M330.41,142.588c-0.157,0.133-27.599,23.309-27.599,23.309s2.65,13.78,4.186,16.332
					c1.537,2.551-6.241,107.731-6.241,107.731c20.237,9.165,57.871,11.106,58.123,10.111c0,0,4.932-94.943,4.933-127.917
					c0-13.087-1.786-17.767-6.097-19.129c-5.144-1.625-10.568-1.625-15.849-2.724C334.306,148.728,330.511,142.512,330.41,142.588z"
					/>
				<path style="fill:none;stroke:#000000;stroke-width:1.5;stroke-linejoin:round;stroke-miterlimit:10;" d="M302.811,165.897
					c0,0,2.65,13.78,4.186,16.332c1.537,2.551-3.422,67.916-3.422,67.916"/>
				<path style="fill:#A4B3F4;" d="M356.244,164.272c0,1.289-1.319,2.334-2.947,2.334c-1.628,0-2.947-1.045-2.947-2.334
					s1.32-2.334,2.947-2.334C354.924,161.938,356.244,162.983,356.244,164.272z"/>
				<path style="fill:#A4B3F4;" d="M355.445,193.034c0,1.289-1.32,2.334-2.947,2.334c-1.628,0-2.947-1.045-2.947-2.334
					s1.32-2.334,2.947-2.334C354.125,190.7,355.445,191.745,355.445,193.034z"/>
				<path style="fill:#A4B3F4;" d="M353.015,244.159c0,1.184-1.319,2.143-2.947,2.143c-1.628,0-2.947-0.959-2.947-2.143
					c0-1.184,1.32-2.143,2.947-2.143C351.696,242.016,353.015,242.975,353.015,244.159z"/>
				<ellipse style="fill:#A4B3F4;" cx="351.547" cy="216.759" rx="2.947" ry="2.143"/>
				<path style="fill:#A4B3F4;" d="M335.896,162.49c-0.008,1.289-1.335,2.325-2.962,2.315c-1.628-0.011-2.941-1.064-2.932-2.353
					c0.008-1.289,1.335-2.325,2.962-2.315C334.591,160.148,335.904,161.201,335.896,162.49z"/>
				<path style="fill:#A4B3F4;" d="M333.913,191.247c-0.008,1.289-1.335,2.325-2.962,2.315c-1.628-0.01-2.941-1.064-2.932-2.353
					c0.008-1.289,1.335-2.326,2.962-2.315C332.608,188.904,333.921,189.958,333.913,191.247z"/>
				<path style="fill:#A4B3F4;" d="M331.097,251.395c-0.008,1.289-1.335,2.325-2.962,2.315c-1.628-0.01-2.941-1.064-2.932-2.353
					c0.008-1.289,1.335-2.325,2.962-2.315C329.793,249.052,331.105,250.106,331.097,251.395z"/>
				<path style="fill:#A4B3F4;" d="M332.768,221.566c-0.008,1.289-1.335,2.326-2.962,2.315c-1.628-0.01-2.941-1.064-2.932-2.353
					c0.008-1.289,1.335-2.325,2.962-2.315C331.464,219.224,332.776,220.277,332.768,221.566z"/>
				<path style="fill:none;stroke:#000000;stroke-width:1.5;stroke-linejoin:round;stroke-miterlimit:10;" d="M327.907,142.03
					c1.726,1.362,5.617,7.179,19.042,8.232c2.979,0.234,6.376,0.67,9.115,1.938c6.088,2.818,5.165,13.652,5.165,19.025
					c-0.001,32.974-2.35,128.846-2.35,128.846s-33.461,0.031-58.123-10.111"/>
				<path style="fill:#FFFFFF;" d="M399.164,154.4c-7.833-10.42-28.206-11.799-28.206-11.799l-3.099,31.001l-11.793,30.621
					l-18.936-26.086l-29.909,19.677c0,0,7.032,13.727,26.834,43.326s41.559,12.849,46.675,6.759
					c8.892-10.585,22.526-44.538,24.658-56.844C407.518,178.75,407.865,165.976,399.164,154.4z"/>
				<rect x="209.585" y="140.746" style="fill:#4545B5;" width="110.468" height="3.811"/>
				<path style="fill:none;stroke:#FFFFFF;stroke-width:1.5;stroke-linejoin:round;stroke-miterlimit:10;" d="M248.769,106.881
					c-0.536-1.822-2.05-3.351-3.881-4.351c-1.831-1-3.962-1.514-6.098-1.798c-2.81-0.374-6.453-0.267-8.68-1.983
					c-2.053-1.582-2.505-4.277-1.247-6.367c1.562-2.593,6.09-2.93,7.198-5.691c1.769-4.408-4.206-8.122-8.217-9.428
					c-3.361-1.094-6.974-1.417-10.52-1.891c-14.03-1.874-25.206-11.535-26.187-24.139"/>
				<path style="fill:none;stroke:#FFFFFF;stroke-width:1.5;stroke-linejoin:round;stroke-miterlimit:10;" d="M240.967,54.425
					c-0.682,2.905,1.168,5.95,3.715,7.506c2.547,1.555,5.635,1.913,8.617,2.027c2.982,0.114,6.015,0.028,8.89,0.829
					c3.409,0.949,7.06,3.623,8.424,6.969c3.522,8.64-9.77,11.297-13.693,16.049c-1.443,1.748-2.403,4.152-1.637,6.285
					c0.745,2.074,2.902,3.356,3.786,5.375c0.858,1.961,0.251,4.46-1.412,5.808"/>
				<path style="fill:none;stroke:#FFFFFF;stroke-width:1.5;stroke-linejoin:round;stroke-miterlimit:10;" d="M275.784,49.945
					c8.206,2.717,18.225,11.078,16.67,20.805c-1.526,9.547-12.875,9.091-19.174,13.386c-2.401,1.637-4.196,4.659-3.301,7.423"/>
				<g>
					<path style="fill:#ED9A4B;" d="M304.301,122c-1.627-2.101-3.824-3.991-6.465-4.29c-2.637-0.298-5.641,0.975-7.702,2.647
						c-2.055-2.552-4.339-5.255-7.52-6.042c-1.238-0.307-2.538-0.295-3.802-0.123c-3.298,0.449-5.71,1.951-8.023,4.344
						c-2.09-1.648-4.253-3.243-6.677-4.34c-2.425-1.098-5.15-1.677-7.77-1.212c-2.31,0.41-4.417,1.605-6.267,3.049
						c-1.446,1.129-2.4,2.018-3.769,3.24c-3.131-2.214-7.181-3.082-10.944-2.344c-3.763,0.738-7.186,3.071-9.249,6.303
						c-1.972,3.091-2.674,6.808-3.152,10.443c-0.325,2.467-0.2,4.587-0.356,7.07h86.298C309.61,135.049,307.816,126.539,304.301,122
						z"/>
					<path style="fill:#C47330;" d="M253.109,132.203c0.834-2.411,0.571-5.178-0.701-7.389c-0.784-1.362-3.444-4.479-5.252-3.86
						C249.823,124.481,251.583,128.037,253.109,132.203z"/>
					<path style="fill:#C47330;" d="M276.333,130.465c0.999-1.009,1.224-2.571,1.04-3.979c-0.2-1.528-0.853-2.981-1.811-4.183
						c-0.414-0.52-3.08-3.288-3.706-2.311c-0.296,0.462,2.224,4.162,2.527,4.822C275.215,126.628,275.87,128.523,276.333,130.465z"
						/>
					<path style="fill:#C47330;" d="M294.669,130.048c0.137,0.406,0.27,0.813,0.404,1.22c-0.039-0.12,0.539-1.025,0.604-1.215
						c0.171-0.495,0.27-1.015,0.297-1.538c0.084-1.618-0.474-3.248-1.533-4.468c-0.49-0.564-1.037-1.073-1.67-1.475
						c-0.329-0.209-0.676-0.387-1.035-0.538c-0.175-0.073-1.066-0.25-1.133-0.378c0.796,1.524,1.802,2.923,2.54,4.477
						C293.745,127.4,294.223,128.719,294.669,130.048z"/>
					<path style="fill:#F2DCA0;" d="M237.573,118.111c-0.886,0.047-1.79,0.389-2.242,1.023c-0.452,0.634-0.304,1.567,0.443,1.964
						c0.454,0.241,1.022,0.257,1.56,0.287c0.761,0.043,1.526,0.129,2.284,0.057c0.758-0.072,1.53-0.325,1.986-0.833
						c0.143-0.16,0.255-0.35,0.252-0.549c-0.002-0.16-0.078-0.314-0.16-0.459C241.017,118.408,239.035,118.033,237.573,118.111z"/>
					<path style="fill:#F2DCA0;" d="M295.79,116.426c-0.886,0.047-1.79,0.389-2.242,1.023c-0.452,0.634-0.304,1.567,0.443,1.964
						c0.454,0.241,1.022,0.257,1.56,0.287c0.761,0.042,1.526,0.129,2.284,0.057c0.758-0.071,1.53-0.325,1.986-0.833
						c0.143-0.16,0.255-0.35,0.252-0.549c-0.002-0.16-0.078-0.314-0.16-0.459C299.234,116.724,297.252,116.349,295.79,116.426z"/>
					<path style="fill:#F2DCA0;" d="M263.282,119.196c-0.66,0.035-1.333,0.29-1.669,0.762c-0.336,0.472-0.227,1.167,0.33,1.462
						c0.338,0.179,0.761,0.191,1.161,0.213c0.567,0.032,1.136,0.096,1.701,0.043c0.564-0.053,1.139-0.242,1.478-0.62
						c0.107-0.119,0.189-0.26,0.187-0.409c-0.002-0.119-0.058-0.233-0.119-0.342C265.846,119.418,264.37,119.138,263.282,119.196z"
						/>
					<path style="fill:#EDBF83;" d="M241.98,121.735c-0.673,0.362-1.226,1.031-1.289,1.835c-0.063,0.804,0.481,1.698,1.251,1.835
						c0.467,0.083,0.92-0.103,1.355-0.264c0.617-0.227,1.257-0.412,1.819-0.754c0.562-0.342,1.051-0.874,1.175-1.551
						c0.039-0.213,0.039-0.445-0.055-0.646c-0.076-0.162-0.205-0.291-0.337-0.409C244.82,120.812,243.092,121.136,241.98,121.735z"
						/>
					<path style="fill:#EDBF83;" d="M250.435,117.241c-0.037,0.081-0.071,0.167-0.06,0.255c0.017,0.146,0.146,0.249,0.269,0.329
						c1.262,0.822,2.962,0.92,4.311,0.249c0.227-0.113,0.448-0.249,0.618-0.438c1.146-1.273-0.567-2.747-1.841-2.776
						C252.501,114.832,250.915,116.184,250.435,117.241z"/>
					<path style="fill:#EDBF83;" d="M277.476,117.699c-0.02,0.064-0.035,0.129-0.046,0.192c-0.17,1.001,1.081,0.916,1.729,0.867
						c0.912-0.069,4.213-0.812,3.622-2.288c-0.269-0.671-1.323-1.131-1.992-1.147C279.652,115.298,277.839,116.511,277.476,117.699z
						"/>
					<path style="fill:#F2DCA0;" d="M260.526,112.456c-0.839-0.189-1.961-0.412-2.479,0.252c-0.379,0.486-0.215,1.237,0.212,1.681
						c0.796,0.827,2.083,0.775,3.141,0.87c0.386,0.035,0.783,0.051,1.155-0.061c0.369-0.111,0.725-0.39,0.775-0.773
						c0.138-1.053-1.564-1.709-2.359-1.872C260.837,112.527,260.687,112.492,260.526,112.456z"/>
					<path style="fill:#F2DCA0;" d="M272.991,116.009c-0.128,0.129-0.252,0.269-0.314,0.439c-0.062,0.17-0.051,0.378,0.07,0.513
						c0.122,0.136,0.32,0.168,0.503,0.18c1.073,0.074,2.133-0.24,3.145-0.607c1.032-0.374,1.615-1.813,0.177-2.021
						C275.341,114.335,273.82,115.175,272.991,116.009z"/>
					<path style="fill:#F2DCA0;" d="M284.163,116.118c-0.113,0.556,0.109,1.141,0.476,1.574c0.367,0.433,0.863,0.735,1.37,0.99
						c0.445,0.225,0.904,0.42,1.372,0.59c0.266,0.097,0.587,0.178,0.813,0.008c0.194-0.147,0.234-0.423,0.211-0.665
						c-0.091-0.961-0.887-1.817-1.688-2.287C286.045,115.933,284.426,114.82,284.163,116.118z"/>
				</g>
				<path style="fill:none;stroke:#000000;stroke-width:1.5;stroke-linejoin:round;stroke-miterlimit:10;" d="M307.221,197.813
					c0,0,7.032,13.727,26.834,43.326s41.559,12.849,46.675,6.759c8.892-10.585,21.742-46.025,21.742-46.025"/>
				<polyline style="fill:none;stroke:#000000;stroke-width:1.5;stroke-linejoin:round;stroke-miterlimit:10;" points="
					367.859,173.601 356.065,204.222 335.113,179.011 				"/>
				<g>
					<path style="fill:#8797F4;" d="M326.892,161.218c-7.566-8.356-16.763-16.26-27.966-17.83c-1.25-0.175-2.649-0.23-3.638,0.551
						c-1.043,0.824-1.274,2.362-0.907,3.633c0.367,1.272,1.216,2.342,2.045,3.376c-7.963-1.668-15.704-8.147-23.84-7.868
						c-1.47,0.05-3.013,0.341-4.13,1.294c-3.609,3.079-1.582,7.777,0.231,10.939c2.577,4.493,3.596,9.73,6.556,14.028
						c2.25,3.267,5.46,5.732,8.479,8.315c4.667,3.993,11.157,8.759,15.242,13.336c3.725,4.173,8.652,9.572,11.128,16.221
						c13.707-3.675,23.569-12.657,34.025-22.618C339.61,177.699,332.426,167.33,326.892,161.218z"/>
					<path style="fill:none;stroke:#000000;stroke-width:1.5;stroke-linejoin:round;stroke-miterlimit:10;" d="M296.86,150.818
						c5.594,1.602,11.24,3.021,16.927,4.254"/>
					<path style="fill:#BB9FF7;" d="M331.98,195.468c-4.319-1.216-13.927,1.45-13.927,1.45s8.481-4.639,11.196-8.519
						c1.325-1.893,2.227-4.192,1.971-6.489c-0.168-1.507-0.926-3.041-2.286-3.712c-1.393-0.687-3.065-0.337-4.526,0.189
						c-4.78,1.72-8.892,5.231-11.341,9.682c2.124-4.986,4.281-10.121,4.425-15.539c0.075-2.807-0.973-6.253-3.737-6.744
						c-1.639-0.291-3.248,0.628-4.53,1.69c-4.238,3.511-6.693,9.072-6.431,14.569c-1.256-5.26-3.633-10.25-6.928-14.539
						c-0.87-1.133-2.067-2.327-3.482-2.128c-0.9,0.126-1.633,0.815-2.096,1.597c-0.883,1.49-0.974,3.306-0.963,5.038
						c0.025,3.81,0.673,7.476,1.174,11.21c3.081,2.533,6.157,5.18,8.466,7.766c3.725,4.173,8.652,9.572,11.128,16.221
						C318.492,204.961,325.446,200.711,331.98,195.468z"/>
					<path style="fill:#DAB0F7;" d="M298.965,190.992c3.159,3.539,7.177,7.962,9.836,13.279c0.44-0.215,0.879-0.491,1.313-0.872
						c0.659-0.578,1.242-1.288,1.468-2.134c0.292-1.092-0.043-2.246-0.418-3.313c-1.268-3.615-3.165-7.229-6.395-9.288
						c-2.277-1.452-5.468-1.763-7.022,0.843c-0.024,0.04-0.042,0.084-0.065,0.124C298.129,190.085,298.561,190.539,298.965,190.992z
						"/>
				</g>
				<path style="fill:none;stroke:#000000;stroke-width:1.5;stroke-linejoin:round;stroke-miterlimit:10;" d="M356.065,204.222
					c0,0,8.221,10.394,11.793,17.383"/>
				<path style="fill:none;stroke:#000000;stroke-width:1.5;stroke-linejoin:round;stroke-miterlimit:10;" d="M352.797,151.099
					c6.973-0.182,14.314-3.756,19.559-8.112"/>
			</g>
		</g>
		<g style="clip-path:url(#SVGID_00000132806016847495093670000000562168797723767994_);">
			<g>
				<path style="fill:#FFFFFF;" d="M651.928,249.894c0,0,28.367,8.468,40.355,16.832c13.466,9.395,16.258,23.516,22.171,37.986
					c11.051,27.044,16.015,53.101,15.53,75.875c-0.661,31.051-28.342,94.151-28.342,94.151l-33.724-24.716l17.692-63.836
					l-28.398-81.806"/>
				<path style="fill:#8797F4;" d="M694.936,568.426l-2.488-145.502c0,0-122.995-10.483-122.436-8.125
					c0.559,2.358-6.551,150.828-6.551,150.828L694.936,568.426z"/>
				<path style="fill:#FFFFFF;" d="M587.148,313.592l21.107-63.181c-12.648,2.184-32.886,6.93-42.804,15.079
					c-23.91,19.644-40.345,79.812-42.335,117.996c-1.989,38.183,40.546,87.133,40.546,87.133l33.949-23.727l-15.788-72.535
					L587.148,313.592z"/>
				<path style="fill:#8797F4;" d="M692.946,289.517c0,0,1.125,21.174,0.046,29.776c-1.369,10.915,4.838,79.484,7.441,111.722
					c0,0-37.895,4.628-138.314-9.026c1.37-15.772,5.627-103.21,5.869-114.572c0.121-5.663,10.281-31.31,21.454-43.798
					c11.246-12.568,23.54-13.597,23.54-13.597l45.299,1.453L692.946,289.517z"/>
				<g>
					<path style="fill:#4545B5;" d="M653.264,294.196l2.514-15.444l-17.603,1.334l5.143,14.863l-2.062,76.971l12.819,13.165
						c0.975,1.339,2.842,1.198,3.604-0.273l9.227-14.836L653.264,294.196z"/>
					
						<line style="fill:#8797F4;stroke:#000000;stroke-width:1.5;stroke-linejoin:round;stroke-miterlimit:10;" x1="643.318" y1="294.95" x2="653.264" y2="294.196"/>
				</g>
				<polyline style="fill:#8797F4;stroke:#000000;stroke-width:1.5;stroke-linejoin:round;stroke-miterlimit:10;" points="
					605.816,265.716 635.628,290.841 645.565,272.189 660.298,288.245 670.35,264.589 				"/>
				
					<line style="fill:none;stroke:#000000;stroke-width:1.5;stroke-linejoin:round;stroke-miterlimit:10;" x1="698.402" y1="420.398" x2="564.777" y2="414.323"/>
				<path style="fill:#FFFFFF;" d="M658.283,251.476c0,0,13.056,37.847,16.817,105.129c2.736,48.953,3.528,196.746,3.528,196.746
					l34.154-25.128c0,0-12.119-107.989-11.855-120.407c0.264-12.418-0.236-109.798-0.236-109.798l-12.541-31.158L658.283,251.476z"
					/>
				<path style="fill:none;stroke:#8D9ED3;stroke-width:1.5;stroke-linejoin:round;stroke-miterlimit:10;" d="M706.249,467.835
					c-3.414-31.913-5.477-52.762-5.322-60.02c0.264-12.418,1.979-92.993,1.979-92.993"/>
				<path style="fill:#FFFFFF;" d="M608.255,250.411c0,0,5.978,45.28,10.7,87.039c8.552,75.639,4.015,213.051,4.015,213.051
					s-74.641-12.169-74.59-14.607c0.052-2.438,3.41-98.08,2.734-136.215c-0.676-38.134,18.74-134.349,18.74-134.349L608.255,250.411
					z"/>
				<path style="fill:none;stroke:#8D9ED3;stroke-width:1.5;stroke-linejoin:round;stroke-miterlimit:10;" d="M619.36,377.325
					c-3.63-14.627-9.346-37.16-14.921-53.486c2.466-4.012,5.572-5.374,8.287-9.222c-3.697-4.276-15.603-9.926-16.161-10.603
					c-0.635-0.771-0.923-1.762-1.195-2.722c-4.366-15.429-7.717-28.389-11.214-44.038"/>
				<path style="fill:none;stroke:#8D9ED3;stroke-width:1.5;stroke-linejoin:round;stroke-miterlimit:10;" d="M676.508,376.371
					c2.441-20.452,5.217-37.306,5.681-59.112c-2.369-1.905-5.938-4.035-8.721-5.819c1.503-1.47,7.429-7.622,7.897-9.059
					c0.122-8.195-0.409-28.703-1.096-42.106"/>
				<polyline style="fill:none;stroke:#8D9ED3;stroke-width:1.5;stroke-linejoin:round;stroke-miterlimit:10;" points="
					597.611,446.892 581.823,374.356 587.148,313.592 				"/>
				<g>
					<path style="fill:none;stroke:#426BB2;stroke-width:2;stroke-linejoin:round;stroke-miterlimit:10;" d="M594.448,341.091
						c0,0-0.456,16.323,1.848,19.067c2.305,2.744,6.262,2.727,6.262,2.727"/>
					
						<line style="fill:none;stroke:#426BB2;stroke-width:2;stroke-linejoin:round;stroke-miterlimit:10;" x1="602.349" y1="360.635" x2="602.748" y2="365.305"/>
					<path style="fill:none;stroke:#426BB2;stroke-width:2;stroke-linejoin:round;stroke-miterlimit:10;" d="M631.499,337.997
						c0,0,3.31,16.047,1.507,19.05c-1.803,3.002-5.727,3.492-5.727,3.492"/>
					
						<line style="fill:none;stroke:#426BB2;stroke-width:2;stroke-linejoin:round;stroke-miterlimit:10;" x1="627.092" y1="358.29" x2="627.514" y2="362.949"/>
					<path style="fill:none;stroke:#2E2E63;stroke-width:4;stroke-linejoin:round;stroke-miterlimit:10;" d="M609.562,306.151
						c-2.171-15.178-4.947-38.29-0.839-51.685c4.641-15.133,26.444-10.85,38.11-8.599c31.263,6.031,43.017,41.762,47.202,69.839"/>
					<path style="fill:none;stroke:#2E2E63;stroke-width:4;stroke-linejoin:round;stroke-miterlimit:10;" d="M594.559,343.906
						c-0.921-8.328-0.753-20.146,2.778-27.983c3.758-8.341,13.683-12.25,22.222-6.125c9.892,7.096,11.07,21.654,12.484,30.754"/>
					<path style="fill:#4F6799;" d="M699.786,315.827c-0.068,3.176-2.697,5.696-5.873,5.629s-5.696-2.697-5.629-5.873
						c0.068-3.176,2.697-5.696,5.873-5.629C697.334,310.022,699.854,312.651,699.786,315.827z"/>
					<path style="fill:#2E2E63;" d="M696.474,315.757c-0.029,1.347-1.144,2.416-2.491,2.388c-1.347-0.029-2.416-1.144-2.387-2.491
						c0.029-1.347,1.144-2.416,2.491-2.387C695.434,313.294,696.503,314.41,696.474,315.757z"/>
				</g>
				<path style="fill:none;stroke:#8D9ED3;stroke-width:1.5;stroke-linejoin:round;stroke-miterlimit:10;" d="M560.524,378.994
					c7.189,0.497,14.247,2.785,20.36,6.6"/>
				<path style="fill:none;stroke:#8D9ED3;stroke-width:1.5;stroke-linejoin:round;stroke-miterlimit:10;" d="M556.699,367.021
					c6.347,1.381,12.462,3.819,18.017,7.184"/>
				<path style="fill:none;stroke:#8D9ED3;stroke-width:1.5;stroke-linejoin:round;stroke-miterlimit:10;" d="M701.351,374.875
					c7.515-0.06,15.038,1.09,22.191,3.391"/>
				<path style="fill:none;stroke:#8D9ED3;stroke-width:1.5;stroke-linejoin:round;stroke-miterlimit:10;" d="M709.696,367.658
					c4.822-0.542,9.678-0.785,14.531-0.727"/>
				<path style="fill:none;stroke:#8D9ED3;stroke-width:1.5;stroke-linejoin:round;stroke-miterlimit:10;" d="M557.911,474.559
					c14.734-10.095,29.469-20.189,44.204-30.284"/>
				
					<line style="fill:none;stroke:#8D9ED3;stroke-width:1.5;stroke-linejoin:round;stroke-miterlimit:10;" x1="705.069" y1="456.383" x2="692.026" y2="442.729"/>
				
					<line style="fill:none;stroke:#8D9ED3;stroke-width:1.5;stroke-linejoin:round;stroke-miterlimit:10;" x1="563.662" y1="470.618" x2="550.68" y2="453.207"/>
				<polyline style="fill:none;stroke:#000000;stroke-width:1.5;stroke-linejoin:round;stroke-miterlimit:10;" points="
					647.448,567.415 654.975,452.029 660.023,442.937 				"/>
			</g>
			<g>
				<polygon style="fill:#FFA480;" points="613.427,229.429 611.804,256.061 645.373,271.308 659.15,255.869 655.289,237.331 				
					"/>
				<path style="fill:#FFA480;" d="M670.031,231.07c0.069,5.404-1.553,9.599-4.167,12.555c-4.997,5.651-13.825,5.938-20.732,4.406
					c-7.844-1.74-13.964-5.325-19.74-10.965c-9.01-8.797-13.54-22.831-13.093-35.218c0.406-11.255,10.06-20.959,20.28-24.579
					c9.723-3.443,21.202-0.442,28.63,6.53c2.39,2.243,3.271,4.698,3.737,7.882c1.274,8.71,3.777,19.692,4.414,28.48
					C669.594,223.363,669.982,227.197,670.031,231.07z"/>
				<path style="fill:none;stroke:#000000;stroke-width:1.5;stroke-linejoin:round;stroke-miterlimit:10;" d="M656.426,205.691
					c0,0,0.906,4.727,1.928,7.81c0.656,1.98,3.379,6.249,2.01,8.322c-0.205,0.309-0.548,0.481-0.883,0.615
					c-1.638,0.654-3.481,0.726-5.158,0.202"/>
				<path d="M642.51,209.802c0.415,1.471-0.062,2.894-1.066,3.177c-1.004,0.283-2.154-0.68-2.569-2.152s0.062-2.894,1.066-3.177
					C640.945,207.367,642.095,208.331,642.51,209.802z"/>
				<path d="M666.4,208.714c0.415,1.471-0.062,2.894-1.066,3.177c-1.004,0.283-2.154-0.68-2.569-2.152
					c-0.415-1.471,0.062-2.894,1.066-3.177C664.835,206.279,665.985,207.242,666.4,208.714z"/>
				<path style="fill:none;stroke:#000000;stroke-width:1.5;stroke-linejoin:round;stroke-miterlimit:10;" d="M631.407,200.264
					c2.662-4.142,7.936-6.426,12.778-5.534"/>
				<g>
					
						<line style="fill:none;stroke:#FFFFFF;stroke-width:1.5;stroke-linejoin:round;stroke-miterlimit:10;" x1="631.85" y1="209.046" x2="617.627" y2="215.717"/>
					<path style="fill:none;stroke:#FFFFFF;stroke-width:1.5;stroke-linejoin:round;stroke-miterlimit:10;" d="M652.745,201.831
						l-22.41,2.62c0,0,0.448,6.785,5.361,11.43c4.246,4.015,15.296,3.174,17.059-0.431
						C655.365,210.115,652.745,201.831,652.745,201.831z"/>
					<path style="fill:none;stroke:#FFFFFF;stroke-width:1.5;stroke-linejoin:round;stroke-miterlimit:10;" d="M672.76,199.4
						l-13.504,2.11c0,0,0.806,8.751,4.751,12.197c1.993,1.741,6.999,2.916,8.763-0.688C675.379,207.685,672.76,199.4,672.76,199.4z"
						/>
					
						<line style="fill:none;stroke:#FFFFFF;stroke-width:1.5;stroke-linejoin:round;stroke-miterlimit:10;" x1="653.427" y1="204.683" x2="659.668" y2="204.199"/>
				</g>
				<path style="fill:none;stroke:#000000;stroke-width:1.5;stroke-linejoin:round;stroke-miterlimit:10;" d="M649.923,224.053
					c1.234,1.596,2.852,2.953,4.773,3.572c1.921,0.618,4.16,0.414,5.765-0.809"/>
				<path style="fill:none;stroke:#000000;stroke-width:1.5;stroke-linejoin:round;stroke-miterlimit:10;" d="M631.56,242.429
					c7.632,5.694,17.008,7.671,26.42,6.229"/>
				<path style="fill:none;stroke:#000000;stroke-width:1.5;stroke-linejoin:round;stroke-miterlimit:10;" d="M657.464,195.034
					c3.163-1.539,6.787-0.2,9.038,2.124"/>
				<path style="fill:#270504;" d="M670.315,172.983c2.021-3.691,1.562-8.321-0.079-12.196c-1.346-3.178-3.691-6.214-7.021-7.12
					c-5.37-1.461-10.385,2.982-14.187,7.046c-0.144-4.254-1.548-7.473-7.2-8.119c-4.911-0.561-10.42,2.358-13.475,5.423
					c-2.868,2.878-4.553,7.011-8.089,9.013c-1.728,0.978-3.73,1.337-5.566,2.093c-5.294,2.18-8.786,7.637-9.637,13.298
					c-0.333,2.213-0.3,4.447-0.003,6.658c-3.58,2.712-6.009,6.992-6.182,11.497c-0.2,5.192,2.676,9.137,3.62,13.993
					c0.508,2.613-3.431,7.848-1.273,9.68c1.105,0.936,2.775,0.178,3.998-0.597c0.095,3.672,2.102,7.797,5.73,8.367
					c2.609,0.41,5.21-1.239,6.642-3.458c1.432-2.219,1.908-4.911,2.201-7.535c0.626-5.601,0.556-11.28-0.207-16.864
					c-0.381-2.791-0.697-4.68-1.057-7.474c4.191-0.002,8.373-1.275,11.854-3.608c1.048-0.703,2.058-1.527,2.682-2.624
					c1.348-2.368,0.6-5.336-0.284-7.913c1.831,1.821,4.487,2.122,7.042,2.501c1.715,0.255,3.514,0.264,5.129-0.365
					c1.616-0.629,3.02-1.985,3.354-3.687c1.757,2.019,3.611,4.028,5.958,5.315c2.877,1.578,5.874,1.805,8.449-0.176
					c1.231,2.108,2.426,7.301,2.799,9.126c3.791-1.415,7.761-4.405,9.897-7.841C678.715,182.098,676.56,174.844,670.315,172.983z"/>
				<path style="fill:none;stroke:#493131;stroke-width:1.5;stroke-miterlimit:10;" d="M606.18,222.312
					c1.592-5.691,0.017-11.733-1.555-17.43"/>
				<path style="fill:none;stroke:#493131;stroke-width:1.5;stroke-miterlimit:10;" d="M613.58,227.281
					c1.533-9.372,1.16-19.051-1.087-28.277"/>
				<path style="fill:none;stroke:#493131;stroke-width:1.5;stroke-miterlimit:10;" d="M608.556,190.361
					c3.085,0.778,5.955,2.392,8.222,4.624"/>
				<path style="fill:none;stroke:#493131;stroke-width:1.5;stroke-miterlimit:10;" d="M632.466,182.181
					c-2.276-1.337-4.992-1.782-7.63-1.672c-2.637,0.11-5.223,0.743-7.77,1.44"/>
				<path style="fill:none;stroke:#493131;stroke-width:1.5;stroke-miterlimit:10;" d="M648.791,160.773
					c-0.841,2.805-2.577,5.295-4.741,7.268c-2.164,1.973-4.744,3.449-7.444,4.582"/>
				<path style="fill:none;stroke:#493131;stroke-width:1.5;stroke-miterlimit:10;" d="M662.234,186.559
					c2.271-1.868,3.606-4.822,3.508-7.762"/>
				<path style="fill:none;stroke:#493131;stroke-width:1.5;stroke-miterlimit:10;" d="M613.202,184.878
					c3.039-0.086,6.11-0.17,9.088,0.443c2.978,0.613,5.898,1.996,7.795,4.372"/>
				<g>
					<path style="fill:#FFA480;" d="M628.012,217.441c-2.466-3.662-6.541-5.042-9.925-4.085
						c-12.023,3.401-4.768,21.864,5.166,21.547c2.917-0.093,6.345-2.587,6.839-6.019"/>
					<path style="fill:none;stroke:#000000;stroke-width:1.5;stroke-linejoin:round;stroke-miterlimit:10;" d="M614.483,229.204
						c1.096,1.899,2.654,3.605,4.67,4.688c4.628,2.487,10.197,0.146,10.939-5.007"/>
					<path style="fill:none;stroke:#000000;stroke-width:1.5;stroke-linejoin:round;stroke-miterlimit:10;" d="M628.012,217.441
						c-2.466-3.662-6.541-5.042-9.925-4.085"/>
					<path style="fill:none;stroke:#000000;stroke-width:1.5;stroke-linejoin:round;stroke-miterlimit:10;" d="M626.445,227.49
						c-1.614-4.098-4.924-8.618-10.109-9.011"/>
					<path style="fill:none;stroke:#000000;stroke-width:1.5;stroke-linejoin:round;stroke-miterlimit:10;" d="M620.263,219.692
						c0,0-4.071,2.179-1.748,8.244"/>
				</g>
			</g>
		</g>
		<g style="clip-path:url(#SVGID_00000132806016847495093670000000562168797723767994_);">
			<g>
				<path style="fill:#F49967;" d="M141.541,172.923l2.226,30.997c0,0-14.254,34.861-42.63,43.67
					c-3.295-7.618-6.105-46.041-6.105-46.041l4.147-21.048L141.541,172.923z"/>
				<path style="fill:#F49967;" d="M86.197,175.965c0.001,5.156,1.601,9.138,4.131,11.926c4.837,5.329,13.263,5.493,19.833,3.946
					c7.461-1.757,13.255-5.254,18.696-10.705c8.487-8.504,12.634-21.949,12.053-33.761c-0.527-10.732-9.857-19.87-19.652-23.196
					c-9.319-3.164-20.233-0.159-27.232,6.584c-2.252,2.17-3.063,4.523-3.467,7.566c-1.107,8.325-3.359,18.833-3.858,27.224
					C86.518,168.607,86.196,172.27,86.197,175.965z"/>
				<path style="fill:none;stroke:#000000;stroke-width:1.5;stroke-linejoin:round;stroke-miterlimit:10;" d="M100.764,154.347
					c0,0-1.506,4.338-2.895,7.109c-0.892,1.779-4.05,5.435-3.042,7.581c0.151,0.32,0.451,0.529,0.749,0.701
					c1.457,0.843,3.187,1.165,4.842,0.901"/>
				<path d="M115.713,159.938c-0.378,1.409,0.095,2.76,1.056,3.018c0.961,0.258,2.046-0.675,2.424-2.084
					c0.378-1.409-0.095-2.76-1.056-3.018C117.176,157.596,116.09,158.529,115.713,159.938z"/>
				<path d="M91.422,154.088c-0.378,1.409,0.095,2.76,1.056,3.018c0.961,0.258,2.046-0.676,2.424-2.084
					c0.378-1.409-0.095-2.76-1.056-3.018C92.885,151.745,91.8,152.679,91.422,154.088z"/>
				<path style="fill:none;stroke:#000000;stroke-width:1.5;stroke-linejoin:round;stroke-miterlimit:10;" d="M126.212,155.303
					c-2.371-5.464-9.177-9.506-14.556-5.468"/>
				<path style="fill:none;stroke:#000000;stroke-width:1.5;stroke-linejoin:round;stroke-miterlimit:10;" d="M107.437,172.292
					c-1.157,1.538-2.685,2.853-4.509,3.466c-1.825,0.614-3.964,0.447-5.509-0.701"/>
				<path style="fill:none;stroke:#000000;stroke-width:1.5;stroke-linejoin:round;stroke-miterlimit:10;" d="M123.04,186.324
					c-7.21,5.527-16.382,8.339-26.229,6.2"/>
				<path style="fill:none;stroke:#000000;stroke-width:1.5;stroke-linejoin:round;stroke-miterlimit:10;" d="M98.9,147.296
					c-2.462-3.739-6.868-3.878-9.876-0.689"/>
				<path style="fill:#6D4A3C;" d="M154.122,137.306c-1.975-7.057-4.746-14.357-10.521-18.868c-3.967-3.098-8.993-4.56-13.991-5.161
					c-4.809-0.578-9.423,0.055-13.996,1.553c-1.404,0.46-2.625,1.144-4.03,1.161c-1.253,0.015-2.587-0.451-3.875-0.472
					c-5.364-0.085-10.797,2.092-14.482,6.018c-5.497,5.857-11.013,14.616-4.82,30.33c2.11-15.791,11.483-19.252,16.101-21.149
					c4.278-1.758,9.225-1.21,13.526,0.49c4.301,1.699,8.462,3.753,12.194,6.483c-3.073,13.341,2.465,32.848,11.856,42.81
					c7.132-4.278,10.54-15.141,12.415-23.244C156.001,150.774,155.915,143.714,154.122,137.306z"/>
				<g>
					<path style="fill:#F49967;" d="M128.988,163.262c2.834-3.116,6.871-3.856,9.934-2.485c10.88,4.872,1.479,21.299-7.854,19.627
						c-2.741-0.491-5.632-3.319-5.624-6.627"/>
					<path style="fill:none;stroke:#000000;stroke-width:1.5;stroke-linejoin:round;stroke-miterlimit:10;" d="M140.134,176.236
						c-1.297,1.641-3.003,3.036-5.056,3.78c-4.713,1.708-9.647-1.271-9.634-6.239"/>
					<path style="fill:none;stroke:#000000;stroke-width:1.5;stroke-linejoin:round;stroke-miterlimit:10;" d="M128.988,163.262
						c2.834-3.116,6.871-3.856,9.934-2.485"/>
					<path style="fill:none;stroke:#000000;stroke-width:1.5;stroke-linejoin:round;stroke-miterlimit:10;" d="M129.078,172.964
						c2.09-3.645,5.84-7.455,10.788-7.11"/>
					<path style="fill:none;stroke:#000000;stroke-width:1.5;stroke-linejoin:round;stroke-miterlimit:10;" d="M135.992,166.457
						c0,0,3.542,2.62,0.511,8.024"/>
				</g>
				<path style="fill:#EA6624;" d="M117.033,106.51c-13.044,2.065-25.853,8.418-32.415,22.258c-2.348,1.32-4.696,2.639-7.044,3.959
					c-1.16,0.652-2.439,1.463-2.687,2.77c-0.233,1.228,0.595,2.458,1.668,3.099s2.348,0.824,3.583,1.013
					c5.608,0.859,11.156,2.103,16.594,3.721c3.243,0.965,6.458,2.066,9.787,2.668c7.71,1.395,15.886-0.055,22.684-3.94
					c8.583,4.748,16.562,10.585,23.676,17.337c1.062,1.008,3.306,1.631,4.688,1.146c2.25-0.79,2.165-2.915,1.69-4.736
					c-0.7-2.688-0.678-5.269-0.671-8.032c0.055-19.639-11.995-41.045-33.414-41.798C122.451,105.88,119.722,106.085,117.033,106.51z
					"/>
				<path style="fill:none;stroke:#000000;stroke-width:1.5;stroke-linejoin:round;stroke-miterlimit:10;" d="M87.356,128.325
					c14.357-0.181,29.029,4.635,41.848,13.734"/>
				<path style="fill:none;stroke:#000000;stroke-width:1.5;stroke-linejoin:round;stroke-miterlimit:10;" d="M91.003,122.318
					c21.781-0.274,47.338,14.064,65.808,33.947"/>
				<path style="fill:none;stroke:#000000;stroke-width:1.5;stroke-linejoin:round;stroke-miterlimit:10;" d="M105.367,119.062
					c2.996-5.741,8.116-10.341,14.143-12.708"/>
				<path style="fill:none;stroke:#000000;stroke-width:1.5;stroke-linejoin:round;stroke-miterlimit:10;" d="M116.061,121.858
					c6.433-6.421,15.167-10.487,24.221-11.278"/>
				<path style="fill:none;stroke:#000000;stroke-width:1.5;stroke-linejoin:round;stroke-miterlimit:10;" d="M155.647,130.793
					c-3.123-3.075-7.843-3.763-12.223-3.924c-1.955-0.072-4.315,0.159-5.205,1.901c-0.712,1.394-0.048,3.164,1.094,4.235
					c1.141,1.071,2.658,1.623,4.099,2.233c5.504,2.329,10.488,5.88,14.487,10.322"/>
			</g>
			<g>
				<path style="fill:#BA8B5B;" d="M78.505,285.263l-42.268-7.217c0,0,8.308-39.777,11.744-50.078
					c5.959-17.864,28.531-25.513,44.783-28.831"/>
				
					<line style="fill:none;stroke:#000000;stroke-width:1.5;stroke-linejoin:round;stroke-miterlimit:10;" x1="40.528" y1="261.846" x2="88.643" y2="271.606"/>
				<polygon style="fill:#BA8B5B;" points="143.595,191.284 119.242,210.374 128.482,229.054 149.384,202.53 				"/>
				<polygon style="fill:#BA8B5B;" points="95.366,194.683 102.121,205.807 88.516,218.166 86.533,201.179 				"/>
				<path style="fill:#BA8B5B;" d="M119.242,210.374l-15.252,22.16l-1.869-26.727l-15.588-4.628l-11.986,5.993l-2.705,135.797
					l110.6-10.329l-3.891-107.493l-17.849-17.174c0,0-7.284-3.343-11.318-5.443C143.152,200.239,119.242,210.374,119.242,210.374z"
					/>
				<polyline style="fill:none;stroke:#000000;stroke-width:1.5;stroke-linejoin:round;stroke-miterlimit:10;" points="
					119.242,210.374 128.482,229.054 149.384,202.53 				"/>
				<path style="fill:#B23939;" d="M152.432,243.938c-19.732-11.29-82.339-13.424-82.339-13.424s-3.943,16.806-4.829,40.892
					c-0.3,8.145-0.234,52.408-1.748,65.953c-1.514,13.545-5.199,42.561-6.446,83.586c-1.215,39.973,0,126.099,0,126.099l76.95,2.282
					l-0.497-60.045l7.901,58.347l84.81-2.865c0,0-22.469-143.481-27.338-164.324c-4.869-20.843-13.264-83.687-13.264-83.687
					s-21.391-0.128-26.82-14.786C153.382,267.306,152.432,243.938,152.432,243.938z"/>
				<path style="fill:none;stroke:#000000;stroke-width:1.5;stroke-linejoin:round;stroke-miterlimit:10;" d="M62.336,348.138
					c0,0,79.769,4.674,130.895,0.64"/>
				<path style="fill:none;stroke:#000000;stroke-width:1.5;stroke-linejoin:round;stroke-miterlimit:10;" d="M61.54,358.505
					c0,0,81.101,5.964,133.507,1.73"/>
				
					<line style="fill:none;stroke:#932C2C;stroke-width:5;stroke-miterlimit:10;" x1="79.242" y1="347.113" x2="78.994" y2="364.47"/>
				
					<line style="fill:none;stroke:#932C2C;stroke-width:5;stroke-miterlimit:10;" x1="144.355" y1="348.091" x2="144.107" y2="365.448"/>
				
					<line style="fill:none;stroke:#932C2C;stroke-width:5;stroke-miterlimit:10;" x1="182.953" y1="346.929" x2="183.961" y2="364.258"/>
				<g>
					<path style="fill:#CACAE5;" d="M108.123,271.89l-3.397-34.7l3.247-3.82c1.076-2.371,0.805-5.135-0.71-7.252l-4.194-5.86
						l-2.299,0.225l0.738,7.541c0.176,1.8-1.028,3.505-2.814,3.798c-1.956,0.32-3.745-1.079-3.935-3.02l-0.749-7.657l-2.299,0.225
						l-2.978,6.562c-1.076,2.371-0.805,5.135,0.71,7.252l3.925,3.118l3.397,34.7l0,0l-3.246,3.82
						c-1.076,2.371-0.805,5.135,0.71,7.252l4.194,5.86l2.299-0.225l-0.738-7.541c-0.176-1.8,1.028-3.505,2.814-3.797
						c1.956-0.32,3.745,1.079,3.935,3.02l0.75,7.657l2.299-0.225l2.978-6.562c1.076-2.371,0.805-5.135-0.71-7.252L108.123,271.89
						L108.123,271.89z"/>
					<path style="fill:none;stroke:#000000;stroke-linejoin:round;stroke-miterlimit:10;" d="M92.516,221.291l0.915,9.348
						c0.232,2.37,2.416,4.078,4.805,3.687c2.18-0.357,3.651-2.438,3.435-4.636l-0.901-9.207"/>
				</g>
				<g>
					<polyline style="fill:#B4B4D1;" points="120.207,243.574 126.275,222.159 128.413,219.912 128.636,213.826 125.502,212.938 
						122.499,218.236 123.141,221.27 117.072,242.686 					"/>
					<polyline style="fill:none;stroke:#000000;stroke-width:0.75;stroke-linejoin:round;stroke-miterlimit:10;" points="
						119.33,243.618 125.399,222.202 126.951,219.627 127.76,213.87 					"/>
					
						<rect x="113.147" y="243.031" transform="matrix(0.9621 0.2726 -0.2726 0.9621 71.437 -22.845)" style="fill:#6B7CDB;" width="9.56" height="5.228"/>
					<path style="fill:#6B7CDB;" d="M102.801,300.759l-0.912-0.259c-3.51-0.996-5.549-4.649-4.554-8.16l13.066-46.111l13.627,3.861
						l-13.067,46.114C109.965,299.716,106.312,301.755,102.801,300.759z"/>
					
						<line style="fill:none;stroke:#000000;stroke-linejoin:round;stroke-miterlimit:10;" x1="121.813" y1="249.463" x2="112.616" y2="246.857"/>
				</g>
				<path style="fill:#932C2C;" d="M135.866,256.824l-59.489-7.741c0,0-1.582,36.721-0.409,38.557
					c1.173,1.836,18.746,12.616,20.936,13.553c2.189,0.937,29.965-4.519,32.601-8.087
					C130.761,291.408,135.866,256.824,135.866,256.824z"/>
				<g>
					<g>
						
							<line style="fill:none;stroke:#000000;stroke-width:1.5;stroke-linejoin:round;" x1="76.01" y1="258.697" x2="78.487" y2="259.032"/>
						
							<line style="fill:none;stroke:#000000;stroke-width:1.5;stroke-linejoin:round;stroke-dasharray:4.9003,4.9003;" x1="83.343" y1="259.69" x2="129.475" y2="265.936"/>
						
							<line style="fill:none;stroke:#000000;stroke-width:1.5;stroke-linejoin:round;" x1="131.903" y1="266.265" x2="134.38" y2="266.601"/>
					</g>
				</g>
				<path style="fill:#F49967;" d="M146.392,267.39l-9.721,32.127c0,0-28.004-10.885-35.208-13.117
					c-8.656-2.682-18.38-2.099-26.339,2.092c-5.39,2.838-9.939,7.083-9.939,7.083s2.734,2.608,12.945,10.94
					c11.537,9.412,41.746,41.496,58.731,47.863c18.108,6.788,37.509-4.42,43.576-22.988c6.068-18.569,12.794-45.249,12.794-45.249"
					/>
				<path style="fill:#BA8B5B;" d="M151.544,237.538l-12.939,53.24l53.792,12.29c0,0,7.823-33.785,8.589-47.842
					c1.027-18.866-4.185-33.451-17.095-41.357c-11.146-6.825-33.017-10.581-33.017-10.581"/>
				
					<line style="fill:none;stroke:#000000;stroke-width:1.5;stroke-linejoin:round;stroke-miterlimit:10;" x1="142.359" y1="274.755" x2="195.883" y2="286.984"/>
				
					<line style="fill:none;stroke:#000000;stroke-width:1.5;stroke-linejoin:round;stroke-miterlimit:10;" x1="151.544" y1="237.538" x2="138.605" y2="290.778"/>
				<path style="fill:#F49967;" d="M39.125,278.538c0,0-2.504,11.315-3.258,20.364c-0.754,9.049-4.4,46.222,26.742,46.461
					c31.142,0.239,86.759-27.746,86.759-27.746l-25.037-21.29l-59.147-0.751l-0.028-12.943L39.125,278.538z"/>
				<polyline style="fill:none;stroke:#000000;stroke-width:1.5;stroke-linejoin:round;stroke-miterlimit:10;" points="
					133.522,489.279 121.596,403.133 111.74,392.039 				"/>
				
					<line style="fill:none;stroke:#000000;stroke-width:1.5;stroke-linejoin:round;stroke-miterlimit:10;" x1="109.365" y1="334.904" x2="65.184" y2="295.575"/>
				<path style="fill:none;stroke:#000000;stroke-width:1.5;stroke-linejoin:round;stroke-miterlimit:10;" d="M65.668,296.284
					c-7.055,1.818-13.697,5.222-19.293,9.887"/>
				<g>
					<path style="fill:#B23939;" d="M146.773,242.271l-6.396-1.859l1.062-3.832c3.16-11.428,5.903-21.345,10.861-33.384l6.579,1.552
						c-5.086,12.147-7.845,22.126-11.041,33.68L146.773,242.271z"/>
				</g>
				<g>
					<path style="fill:#B23939;" d="M77.91,236.361l-6.542-0.73c1.15-10.312,2.811-21.837,4.633-32.213
						c2.848-1.571,7.167-2.655,7.167-2.655C81.104,211.927,79.188,224.902,77.91,236.361z"/>
				</g>
				<g>
					<path style="fill:#F49967;" d="M160.288,290.284c-1.323-1.265-2.909-2.291-4.645-3.005c1.293-0.607,2.645-1.262,3.449-2.385
						c0.805-1.123,0.809-2.862-0.378-3.62c-0.649-0.415-1.488-0.452-2.277-0.466c-2.91-0.052-5.823,0.011-8.729,0.189
						c-1.234,0.076-2.501,0.181-3.669,0.594c-0.516,0.183-1.08,0.423-1.495,0.773c-0.302,0.255-0.521,0.816-0.931,0.918
						c-0.141,0.035-0.289,0-0.432-0.027c-1.098-0.211-2.29,0.026-3.206,0.636c-0.917,0.61-1.545,1.585-1.69,2.624
						c-1.066-0.113-2.188,0.028-3.114,0.539c-0.926,0.511-1.627,1.424-1.694,2.423c-1.527-0.255-3.617,0.019-4.668,1.195
						c-1.013,1.135-1.39,2.783-1.79,4.17c6.94,3.384,14.272,6.075,21.831,8.013c1.42,0.364,2.93,0.702,4.352,0.327
						c1.422-0.375,2.663-1.728,2.297-3.058c1.391,0.573,3.081,0.784,4.402,0.066c1.321-0.718,1.916-2.599,0.863-3.619
						c1.469,0.71,3.341-0.667,3.511-2.207C162.442,292.823,161.442,291.387,160.288,290.284z"/>
					<path style="fill:none;stroke:#000000;stroke-width:1.5;stroke-linejoin:round;stroke-miterlimit:10;" d="M131.763,289.636
						c7.807,1.108,15.771,5.055,21.932,9.975"/>
					<path style="fill:none;stroke:#000000;stroke-width:1.5;stroke-linejoin:round;stroke-miterlimit:10;" d="M137.742,286.21
						c7.732,0.977,15.544,5.032,21.294,10.293"/>
					<path style="fill:none;stroke:#000000;stroke-width:1.5;stroke-linejoin:round;stroke-miterlimit:10;" d="M141.841,283.205
						c8.117,0.846,15.402,3.503,20.39,10.23"/>
					<path style="fill:none;stroke:#000000;stroke-width:1.5;stroke-linejoin:round;stroke-miterlimit:10;" d="M139.764,301.408
						c1.933,0.436,3.867,0.865,5.801,1.294c1.686,0.374,3.536,0.965,5.28,0.407c1.503-0.481,2.788-1.877,2.851-3.498
						c0.802,0.261,1.618,0.524,2.461,0.55c0.843,0.025,1.733-0.219,2.307-0.838c0.679-0.732,0.789-1.846,0.573-2.82
						c0.679,0.246,2.152,0.3,2.729-0.135c0.577-0.435,1.867-1.174,0.062-3.46"/>
				</g>
				<path style="fill:none;stroke:#000000;stroke-width:1.5;stroke-linejoin:round;stroke-miterlimit:10;" d="M121.095,293.541
					c10.795,3.811,37.505,15.469,44.372,24.878"/>
				<polyline style="fill:none;stroke:#000000;stroke-width:1.5;stroke-linejoin:round;stroke-miterlimit:10;" points="
					102.121,205.807 88.516,218.166 86.533,201.179 				"/>
			</g>
		</g>
		<g style="clip-path:url(#SVGID_00000132806016847495093670000000562168797723767994_);">
			<g>
				<path style="fill:#FDED8D;" d="M505.121,158.755c1.796,12.939,7.619,25.29,16.459,34.907c-1.869,0.025-3.742-0.143-5.577-0.502
					c2.335,3.811,5.067,7.377,8.139,10.623c-5.023,3.663-11.672,5.002-17.721,3.567c0.951,0.895,1.967,1.771,2.797,2.755
					c-2.041,0.663-4.036,0.784-6.087,1.239c-14.776,3.278-23.92-14.585-29.509-25.141c-5.657-10.686-8.809-22.823-8.086-34.952"/>
				<path style="fill:#F49967;" d="M448.505,192.222l-11.237,40.573c0,0,15.568,35.961,41.449,37.417
					c25.882,1.457,21.567-23.005,21.567-23.005l-3.597-42.982L448.505,192.222z"/>
				<path style="fill:#F49967;" d="M510.761,197.713c0.378,5.737-1.193,10.279-3.936,13.558c-5.244,6.269-15.049,7.043-22.818,5.783
					c-8.823-1.431-15.831-4.914-22.571-10.597c-10.514-8.865-16.335-23.532-16.527-36.714
					c-0.175-11.977,10.023-22.799,21.191-27.187c10.625-4.175,23.562-1.598,32.214,5.413c2.784,2.256,3.901,4.816,4.597,8.174
					c1.903,9.184,5.299,20.717,6.498,30.017C509.844,189.55,510.49,193.602,510.761,197.713z"/>
				<path style="fill:none;stroke:#000000;stroke-width:1.5;stroke-linejoin:round;stroke-miterlimit:10;" d="M488.523,166.884
					c0,0,2.073,4.944,3.896,8.07c1.17,2.007,5.119,6.035,4.102,8.609c-0.152,0.384-0.487,0.65-0.822,0.872
					c-1.635,1.089-3.627,1.591-5.575,1.405"/>
				<path d="M474.437,177.033c0.544,1.614,0.092,3.223-1.009,3.594c-1.101,0.371-2.434-0.637-2.978-2.25
					c-0.544-1.614-0.092-3.223,1.009-3.594C472.56,174.411,473.893,175.419,474.437,177.033z"/>
				<path d="M500.327,172.625c0.544,1.614,0.092,3.223-1.009,3.594c-1.101,0.371-2.434-0.637-2.978-2.25
					c-0.544-1.614-0.092-3.223,1.009-3.594C498.45,170.004,499.783,171.011,500.327,172.625z"/>
				<path style="fill:none;stroke:#000000;stroke-width:1.5;stroke-linejoin:round;stroke-miterlimit:10;" d="M462.617,173.14
					c2.36-6.54,9.993-11.751,16.558-7.441"/>
				<path style="fill:none;stroke:#000000;stroke-width:1.5;stroke-linejoin:round;stroke-miterlimit:10;" d="M485.742,192.907
					c1.462,1.707,3.338,3.126,5.509,3.707c2.171,0.581,4.651,0.229,6.368-1.222"/>
				<path style="fill:none;stroke:#000000;stroke-width:1.5;stroke-linejoin:round;stroke-miterlimit:10;" d="M468.595,211.826
					c8.807,5.643,19.348,7.243,29.738,5.211"/>
				<path style="fill:none;stroke:#000000;stroke-width:1.5;stroke-linejoin:round;stroke-miterlimit:10;" d="M492.605,164.123
					c2.594-4.538,7.717-5.024,11.457-1.529"/>
				<path style="fill:#FDED8D;" d="M423.504,159.986c-0.503-12.29,6.738-24.201,17.685-29.893
					c13.638-7.091,31.536-5.66,45.606-0.841c13.482,4.618,22.73,19.956,17.945,34.169c-1.561-5.58-8.074-9.378-12.854-11.853
					c-2.439-1.263-5.031-2.313-7.534-3.383c-3.717-1.59-8.356-1.345-12.296-1.141c-2.239,0.116-4.528,0.298-6.578,1.207
					c-5.271,2.337-7.54,7.363-7.977,12.859c-0.328,4.129-0.023,8.278,0.403,12.388c0.39,3.762,1.279,7.707,0.978,11.483
					c-0.001,0.017-0.003,0.034-0.004,0.051c-0.4,5.024-1.886,9.968-4.385,14.349c-3.825,6.706-10.13,12.13-17.585,14.135
					c0.1-2.351,0.107-4.706,0.02-7.058c-2.562,2.204-5.555,3.905-8.759,4.978c1.5-3.289,2.598-6.762,3.263-10.315
					c-2.566,1.794-5.497,3.061-8.562,3.702c3.988-5.15,4.519-12.174,3.98-18.665C426.142,177.648,423.86,168.708,423.504,159.986z"
					/>
				<path style="fill:none;stroke:#F9D264;stroke-miterlimit:10;" d="M438.291,213.1c12.567-12.97,9.666-32.346,8.517-48.644
					c-0.424-6.018-0.846-12.201,0.947-17.961c1.772-5.69,6.287-11.118,12.471-11.959"/>
				<path style="fill:none;stroke:#F9D264;stroke-miterlimit:10;" d="M430.305,209.752c4.768-5.671,7.345-12.063,7.917-19.46
					c0.866-11.194-1.766-22.338-1.697-33.528c0.046-7.548,2.045-15.106,7.784-20.467c2.818-2.632,7.437-4.739,10.534-4.646"/>
				<path style="fill:none;stroke:#F9D264;stroke-miterlimit:10;" d="M425.358,202.719c3.557-4.75,5.708-9.918,6.127-15.868
					c0.871-12.369-3.967-24.918-0.697-37.147c2.5-9.348,10.016-19.438,20.531-19.558"/>
				<path style="fill:none;stroke:#F9D264;stroke-miterlimit:10;" d="M439.762,211.741c13.809-7.88,13.25-33.94,11.493-50.612
					c-0.625-5.933-1.183-12.766,2.072-18.028c2.101-3.396,5.328-5.909,9.006-7.407"/>
				<path style="fill:none;stroke:#F9D264;stroke-miterlimit:10;" d="M454.689,128.806c8.589,3.154,15.855,9.76,19.811,18.011"/>
				<path style="fill:none;stroke:#F9D264;stroke-miterlimit:10;" d="M462.991,129.789c9.234-2.937,19.8-0.749,27.469,5.173
					c7.669,5.922,12.404,15.307,13.198,24.964"/>
				<path style="fill:none;stroke:#F9D264;stroke-miterlimit:10;" d="M468.772,134.476c5.034-1.705,10.745-0.281,15.143,2.703
					c4.398,2.984,7.661,7.36,10.426,11.899"/>
				<g>
					<path style="fill:#F49967;" d="M465.768,184.992c-2.909-3.965-7.505-5.319-11.229-4.102
						c-13.229,4.323-4.328,24.547,6.714,23.75c3.242-0.234,6.946-3.163,7.342-7.005"/>
					<path style="fill:none;stroke:#000000;stroke-width:1.5;stroke-linejoin:round;stroke-miterlimit:10;" d="M453.571,201.549
						c0.902,0.855,1.928,1.591,3.074,2.148c5.263,2.561,11.356-0.294,11.95-6.063"/>
					<path style="fill:none;stroke:#000000;stroke-width:1.5;stroke-linejoin:round;stroke-miterlimit:10;" d="M465.768,184.992
						c-1.807-2.464-4.267-3.919-6.763-4.377"/>
					<path style="fill:none;stroke:#000000;stroke-width:1.5;stroke-linejoin:round;stroke-miterlimit:10;" d="M464.475,196.246
						c-1.98-4.488-5.866-9.371-11.654-9.577"/>
					<path style="fill:none;stroke:#000000;stroke-width:1.5;stroke-linejoin:round;stroke-miterlimit:10;" d="M457.245,187.843
						c0,0-4.433,2.607-1.577,9.254"/>
				</g>
				<g>
					<path style="fill:#5DC6B4;" d="M423.9,165.329c-0.032,5.146,0.661,11.52,0.661,11.52
						c49.522-36.938,82.182-22.177,82.182-22.177s-0.297-6.744-1.968-11.568C494.705,140.386,465.018,136.319,423.9,165.329z"/>
					<path style="fill:none;stroke:#000000;stroke-width:1.5;stroke-linejoin:round;stroke-miterlimit:10;" d="M424.342,172.471
						c49.523-36.938,82.182-22.177,82.182-22.177"/>
					<path style="fill:#46AA99;" d="M490.336,126.549c6.198,0.077,16.433,0.223,22.17,2.571c3.469,1.42,6.76,4.311,6.975,8.054
						c0.176,3.066-1.716,5.822-3.529,8.301c-2.338,3.198-9.21,9.196-9.21,9.196s-21.868-10.192-57.724,7.156l-0.005-0.018
						C452.235,151.515,464.444,126.226,490.336,126.549z"/>
				</g>
			</g>
			<g>
				<path style="fill:#F49967;" d="M565.933,321.016l9.305,48.643l52.032,61.308l-19.922,43.5c0,0-59.657-43.43-73.976-56.426
					c-14.319-12.996-20.082-23.732-24.383-46.815s-8.628-49.03-8.628-49.03"/>
				<path style="fill:#46AA99;" d="M503.102,238.676c22.933,7.807,43.284,14.348,53.945,37.911
					c4.413,9.755,14.529,58.251,16.956,68.679l-71.837,12.071l-13.854-63.559"/>
				<g>
					<defs>
						<path id="SVGID_00000173141168044532922860000005490881851705084314_" d="M503.102,238.676
							c22.933,7.807,43.284,14.348,53.945,37.911c4.413,9.755,14.529,58.251,16.956,68.679l-71.837,12.071l-13.854-63.559"/>
					</defs>
					<clipPath id="SVGID_00000165951601956638808850000004635557889626145418_">
						<use xlink:href="#SVGID_00000173141168044532922860000005490881851705084314_"  style="overflow:visible;"/>
					</clipPath>
					<g style="clip-path:url(#SVGID_00000165951601956638808850000004635557889626145418_);">
						
							<line style="fill:none;stroke:#5BC4B0;stroke-width:2;stroke-miterlimit:10;" x1="375.456" y1="211.111" x2="375.456" y2="511.026"/>
						
							<line style="fill:none;stroke:#5BC4B0;stroke-width:2;stroke-miterlimit:10;" x1="405.307" y1="211.111" x2="405.307" y2="511.026"/>
						
							<line style="fill:none;stroke:#5BC4B0;stroke-width:2;stroke-miterlimit:10;" x1="435.158" y1="211.111" x2="435.158" y2="511.026"/>
						
							<line style="fill:none;stroke:#5BC4B0;stroke-width:2;stroke-miterlimit:10;" x1="465.008" y1="211.111" x2="465.008" y2="511.026"/>
						
							<line style="fill:none;stroke:#5BC4B0;stroke-width:2;stroke-miterlimit:10;" x1="494.859" y1="211.111" x2="494.859" y2="511.026"/>
						
							<line style="fill:none;stroke:#5BC4B0;stroke-width:2;stroke-miterlimit:10;" x1="524.709" y1="211.111" x2="524.709" y2="511.026"/>
						
							<line style="fill:none;stroke:#5BC4B0;stroke-width:2;stroke-miterlimit:10;" x1="554.56" y1="211.111" x2="554.56" y2="511.026"/>
						
							<line style="fill:none;stroke:#5BC4B0;stroke-width:2;stroke-miterlimit:10;" x1="584.41" y1="211.111" x2="584.41" y2="511.026"/>
						
							<line style="fill:none;stroke:#5BC4B0;stroke-width:2;stroke-miterlimit:10;" x1="628.852" y1="243.39" x2="328.951" y2="246.352"/>
						
							<line style="fill:none;stroke:#5BC4B0;stroke-width:2;stroke-miterlimit:10;" x1="629.146" y1="273.123" x2="329.246" y2="276.085"/>
						
							<line style="fill:none;stroke:#5BC4B0;stroke-width:2;stroke-miterlimit:10;" x1="629.441" y1="302.855" x2="329.541" y2="305.818"/>
						
							<line style="fill:none;stroke:#5BC4B0;stroke-width:2;stroke-miterlimit:10;" x1="629.736" y1="332.588" x2="329.836" y2="335.551"/>
						
							<line style="fill:none;stroke:#5BC4B0;stroke-width:2;stroke-miterlimit:10;" x1="630.031" y1="362.321" x2="330.131" y2="365.284"/>
						
							<line style="fill:none;stroke:#5BC4B0;stroke-width:2;stroke-miterlimit:10;" x1="630.326" y1="392.054" x2="330.426" y2="395.016"/>
						
							<line style="fill:none;stroke:#5BC4B0;stroke-width:2;stroke-miterlimit:10;" x1="630.621" y1="421.787" x2="330.72" y2="424.749"/>
						
							<line style="fill:none;stroke:#5BC4B0;stroke-width:2;stroke-miterlimit:10;" x1="630.621" y1="451.519" x2="330.72" y2="454.482"/>
						
							<line style="fill:none;stroke:#5BC4B0;stroke-width:2;stroke-miterlimit:10;" x1="630.621" y1="481.252" x2="330.72" y2="484.215"/>
					</g>
				</g>
				
					<line style="fill:none;stroke:#000000;stroke-width:1.5;stroke-linejoin:round;stroke-miterlimit:10;" x1="570.363" y1="329.111" x2="498.526" y2="341.182"/>
				<path style="fill:none;stroke:#000000;stroke-width:1.5;stroke-linejoin:round;stroke-miterlimit:10;" d="M536.584,381.27
					c7.363-8.537,19.331-12.84,30.445-10.945"/>
				<polygon style="fill:#6B7CDB;" points="540.839,420.267 375.206,429.963 378.412,590.999 563.168,593.821 				"/>
				<path style="fill:#362B33;" d="M432.181,233.297c5.825,7.815,12.559,15.103,20.78,20.34c8.22,5.236,22.578,9.315,32.269,8.275
					c9.691-1.039,14.577-7.572,19.069-16.222l33.602,24.447l-2.251,187.108c0,0-14.202,10.26-46.726,8.266
					c-63.132-3.872-110.013-21.396-110.013-21.396l6.679-162.545L432.181,233.297z"/>
				<path style="fill:#46AA99;" d="M473.505,253.651l-2.776,240.255c0,0-29.3-1.204-70.866-30.821
					c-11.073,5.572-27.265,7.728-27.265,7.728s4.947-161.887,7.089-163.773c2.142-1.887,50.868-79.477,50.868-79.477
					L473.505,253.651z M493.222,254.461l20.973,241.231c22.809-9.187,38.347-41.072,38.347-41.072s-14.412-130.56-14.151-136.909
					c0.261-6.349,5.183-47.341,5.183-47.341l-34.426-29.844L493.222,254.461z"/>
				<g>
					<defs>
						<path id="SVGID_00000172427233295509966780000012175411956282777744_" d="M473.505,253.651l-2.776,240.255
							c0,0-29.3-1.204-70.866-30.821c-11.073,5.572-27.265,7.728-27.265,7.728s4.947-161.887,7.089-163.773
							c2.142-1.887,50.868-79.477,50.868-79.477L473.505,253.651z M493.222,254.461l20.973,241.231
							c22.809-9.187,38.347-41.072,38.347-41.072s-14.412-130.56-14.151-136.909c0.261-6.349,5.183-47.341,5.183-47.341
							l-34.426-29.844L493.222,254.461z"/>
					</defs>
					<clipPath id="SVGID_00000050632877763186045770000003415891709054863530_">
						<use xlink:href="#SVGID_00000172427233295509966780000012175411956282777744_"  style="overflow:visible;"/>
					</clipPath>
					<g style="clip-path:url(#SVGID_00000050632877763186045770000003415891709054863530_);">
						
							<line style="fill:none;stroke:#5BC4B0;stroke-width:2;stroke-miterlimit:10;" x1="375.456" y1="211.111" x2="375.456" y2="511.026"/>
						
							<line style="fill:none;stroke:#5BC4B0;stroke-width:2;stroke-miterlimit:10;" x1="405.307" y1="211.111" x2="405.307" y2="511.026"/>
						
							<line style="fill:none;stroke:#5BC4B0;stroke-width:2;stroke-miterlimit:10;" x1="435.158" y1="211.111" x2="435.158" y2="511.026"/>
						
							<line style="fill:none;stroke:#5BC4B0;stroke-width:2;stroke-miterlimit:10;" x1="465.008" y1="211.111" x2="465.008" y2="511.026"/>
						
							<line style="fill:none;stroke:#5BC4B0;stroke-width:2;stroke-miterlimit:10;" x1="494.859" y1="211.111" x2="494.859" y2="511.026"/>
						
							<line style="fill:none;stroke:#5BC4B0;stroke-width:2;stroke-miterlimit:10;" x1="524.709" y1="211.111" x2="524.709" y2="511.026"/>
						
							<line style="fill:none;stroke:#5BC4B0;stroke-width:2;stroke-miterlimit:10;" x1="554.56" y1="211.111" x2="554.56" y2="511.026"/>
						
							<line style="fill:none;stroke:#5BC4B0;stroke-width:2;stroke-miterlimit:10;" x1="584.41" y1="211.111" x2="584.41" y2="511.026"/>
						
							<line style="fill:none;stroke:#5BC4B0;stroke-width:2;stroke-miterlimit:10;" x1="628.852" y1="243.39" x2="328.951" y2="246.352"/>
						
							<line style="fill:none;stroke:#5BC4B0;stroke-width:2;stroke-miterlimit:10;" x1="629.146" y1="273.123" x2="329.246" y2="276.085"/>
						
							<line style="fill:none;stroke:#5BC4B0;stroke-width:2;stroke-miterlimit:10;" x1="629.441" y1="302.855" x2="329.541" y2="305.818"/>
						
							<line style="fill:none;stroke:#5BC4B0;stroke-width:2;stroke-miterlimit:10;" x1="629.736" y1="332.588" x2="329.836" y2="335.551"/>
						
							<line style="fill:none;stroke:#5BC4B0;stroke-width:2;stroke-miterlimit:10;" x1="630.031" y1="362.321" x2="330.131" y2="365.284"/>
						
							<line style="fill:none;stroke:#5BC4B0;stroke-width:2;stroke-miterlimit:10;" x1="630.326" y1="392.054" x2="330.426" y2="395.016"/>
						
							<line style="fill:none;stroke:#5BC4B0;stroke-width:2;stroke-miterlimit:10;" x1="630.621" y1="421.787" x2="330.72" y2="424.749"/>
						
							<line style="fill:none;stroke:#5BC4B0;stroke-width:2;stroke-miterlimit:10;" x1="630.621" y1="451.519" x2="330.72" y2="454.482"/>
						
							<line style="fill:none;stroke:#5BC4B0;stroke-width:2;stroke-miterlimit:10;" x1="630.621" y1="481.252" x2="330.72" y2="484.215"/>
					</g>
				</g>
				
					<line style="fill:none;stroke:#000000;stroke-width:1.5;stroke-linejoin:round;stroke-miterlimit:10;" x1="463.583" y1="248.007" x2="458.406" y2="491.752"/>
				
					<line style="fill:none;stroke:#000000;stroke-width:1.5;stroke-linejoin:round;stroke-miterlimit:10;" x1="502.36" y1="249.956" x2="523.333" y2="491.188"/>
				<g>
					<rect x="537.16" y="424.963" style="fill:#F9B869;" width="109.02" height="63.416"/>
					<rect x="572.307" y="424.963" style="fill:#F4A045;" width="28.023" height="37.08"/>
					<polygon style="fill:#FFD399;" points="611.373,402.198 502.353,402.198 537.16,424.963 646.18,424.963 					"/>
					<polygon style="fill:#F7A753;" points="537.16,488.379 502.353,465.614 502.353,402.198 537.16,424.963 					"/>
					<polygon style="fill:#FCB35B;" points="565.522,402.198 537.499,402.198 572.307,424.963 600.33,424.963 					"/>
					<polyline style="fill:none;stroke:#000000;stroke-width:1.5;stroke-linejoin:round;stroke-miterlimit:10;" points="
						552.487,402.198 587.294,424.963 587.294,462.043 					"/>
				</g>
				<polyline style="fill:none;stroke:#000000;stroke-width:1.5;stroke-linejoin:round;stroke-miterlimit:10;" points="
					486.242,592.646 481.634,497.403 483.938,483.683 				"/>
				<polygon style="fill:#46AA99;" points="499.891,228.539 493.222,254.461 510.359,269.006 509.147,240.527 				"/>
				<polyline style="fill:none;stroke:#000000;stroke-width:1.5;stroke-linejoin:round;stroke-miterlimit:10;" points="
					493.222,254.461 510.359,269.006 509.147,240.527 				"/>
				<polyline style="fill:none;stroke:#000000;stroke-width:1.5;stroke-linejoin:round;stroke-miterlimit:10;" points="
					541.508,351.81 538.39,317.712 539.513,290.392 				"/>
				<path style="fill:#F49967;" d="M437.635,321.016l-6.623,48.928l65.013,57.799l-14.56,44.723c0,0-84.315-41.257-101.878-51.419
					c-17.563-10.163-21.556-29.129-18.835-56.272c2.721-27.143,10.481-73.255,10.481-73.255"/>
				<path style="fill:#46AA99;" d="M430.556,227.564c0,0-25.745,10.514-36.499,16.531c-10.754,6.017-17.268,14.105-22.63,27.165
					c-6.347,15.459-13.498,65.743-13.498,65.743l78.881,13.215l7.08-56.603"/>
				<g>
					<defs>
						<path id="SVGID_00000093864451579303610780000010939783046520618633_" d="M430.556,227.564c0,0-25.745,10.514-36.499,16.531
							c-10.754,6.017-17.268,14.105-22.63,27.165c-6.347,15.459-13.498,65.743-13.498,65.743l78.881,13.215l7.08-56.603"/>
					</defs>
					<clipPath id="SVGID_00000064346653891073718230000002248995549678648752_">
						<use xlink:href="#SVGID_00000093864451579303610780000010939783046520618633_"  style="overflow:visible;"/>
					</clipPath>
					<g style="clip-path:url(#SVGID_00000064346653891073718230000002248995549678648752_);">
						
							<line style="fill:none;stroke:#5BC4B0;stroke-width:2;stroke-miterlimit:10;" x1="375.456" y1="211.111" x2="375.456" y2="511.026"/>
						
							<line style="fill:none;stroke:#5BC4B0;stroke-width:2;stroke-miterlimit:10;" x1="405.307" y1="211.111" x2="405.307" y2="511.026"/>
						
							<line style="fill:none;stroke:#5BC4B0;stroke-width:2;stroke-miterlimit:10;" x1="435.158" y1="211.111" x2="435.158" y2="511.026"/>
						
							<line style="fill:none;stroke:#5BC4B0;stroke-width:2;stroke-miterlimit:10;" x1="465.008" y1="211.111" x2="465.008" y2="511.026"/>
						
							<line style="fill:none;stroke:#5BC4B0;stroke-width:2;stroke-miterlimit:10;" x1="494.859" y1="211.111" x2="494.859" y2="511.026"/>
						
							<line style="fill:none;stroke:#5BC4B0;stroke-width:2;stroke-miterlimit:10;" x1="524.709" y1="211.111" x2="524.709" y2="511.026"/>
						
							<line style="fill:none;stroke:#5BC4B0;stroke-width:2;stroke-miterlimit:10;" x1="554.56" y1="211.111" x2="554.56" y2="511.026"/>
						
							<line style="fill:none;stroke:#5BC4B0;stroke-width:2;stroke-miterlimit:10;" x1="584.41" y1="211.111" x2="584.41" y2="511.026"/>
						
							<line style="fill:none;stroke:#5BC4B0;stroke-width:2;stroke-miterlimit:10;" x1="628.852" y1="243.39" x2="328.951" y2="246.352"/>
						
							<line style="fill:none;stroke:#5BC4B0;stroke-width:2;stroke-miterlimit:10;" x1="629.146" y1="273.123" x2="329.246" y2="276.085"/>
						
							<line style="fill:none;stroke:#5BC4B0;stroke-width:2;stroke-miterlimit:10;" x1="629.441" y1="302.855" x2="329.541" y2="305.818"/>
						
							<line style="fill:none;stroke:#5BC4B0;stroke-width:2;stroke-miterlimit:10;" x1="629.736" y1="332.588" x2="329.836" y2="335.551"/>
						
							<line style="fill:none;stroke:#5BC4B0;stroke-width:2;stroke-miterlimit:10;" x1="630.031" y1="362.321" x2="330.131" y2="365.284"/>
						
							<line style="fill:none;stroke:#5BC4B0;stroke-width:2;stroke-miterlimit:10;" x1="630.326" y1="392.054" x2="330.426" y2="395.016"/>
						
							<line style="fill:none;stroke:#5BC4B0;stroke-width:2;stroke-miterlimit:10;" x1="630.621" y1="421.787" x2="330.72" y2="424.749"/>
						
							<line style="fill:none;stroke:#5BC4B0;stroke-width:2;stroke-miterlimit:10;" x1="630.621" y1="451.519" x2="330.72" y2="454.482"/>
						
							<line style="fill:none;stroke:#5BC4B0;stroke-width:2;stroke-miterlimit:10;" x1="630.621" y1="481.252" x2="330.72" y2="484.215"/>
					</g>
				</g>
				
					<line style="fill:none;stroke:#000000;stroke-width:1.5;stroke-linejoin:round;stroke-miterlimit:10;" x1="436.811" y1="350.218" x2="443.89" y2="293.615"/>
				<g>
					<path style="fill:#DB652A;" d="M440.421,456.694c13.914,6.281,27.878,12.581,42.549,17.089
						c19.625,6.03,49.562,9.865,65.931,0.35c1.687-0.981,4.458-4.669,3.086-6.031c3.355-1.705,4.706-2.428,6.481-4.432
						c1.775-2.005,1.711-4.157-0.265-6.009c2.536-0.506,4.432-2.12,4.253-4.543c-0.179-2.422-2.444-4.569-5.032-4.769
						c1.925-1.689,0.964-4.955-1.192-6.402c-4.403-2.955-11.58-1.89-16.619-2.289c-5.256-0.416-11.482-0.949-16.146-3.573
						c1.584-0.851,3.38-1.269,4.924-2.191c1.544-0.922,2.866-2.609,2.551-4.379c-0.242-1.359-1.407-2.405-2.694-2.904
						c-1.287-0.499-2.698-0.549-4.077-0.609c-9.525-0.414-19.296-1.655-28.027-5.705c-2.273-1.054-23.159-13.586-22.482-14.462
						C461.691,421.314,450.084,439.856,440.421,456.694z"/>
					<path style="fill:none;stroke:#000000;stroke-width:1.5;stroke-linejoin:round;stroke-miterlimit:10;" d="M525.781,436.61
						c0,0-8.577-3.163-10.989-5.36"/>
					<path style="fill:none;stroke:#000000;stroke-width:1.5;stroke-linejoin:round;stroke-miterlimit:10;" d="M557.423,448.349
						c0,0-15.593,4.218-37.641-1.547"/>
					<path style="fill:none;stroke:#000000;stroke-width:1.5;stroke-linejoin:round;stroke-miterlimit:10;" d="M558.203,457.661
						c0,0-15.916,5.644-35.557,1.014"/>
					<path style="fill:none;stroke:#000000;stroke-width:1.5;stroke-linejoin:round;stroke-miterlimit:10;" d="M551.987,468.103
						c0,0-15.402,5.408-33.165,2.077"/>
					<path style="fill:none;stroke:#000000;stroke-width:1.5;stroke-linejoin:round;stroke-miterlimit:10;" d="M486.069,421.047
						c-3.71,3.774-6.809,8.149-9.137,12.902"/>
					<path style="fill:none;stroke:#000000;stroke-width:1.5;stroke-linejoin:round;stroke-miterlimit:10;" d="M489.365,423.297
						c-2.541,3.128-4.537,6.697-5.872,10.499"/>
				</g>
				<path style="fill:none;stroke:#000000;stroke-width:1.5;stroke-linejoin:round;stroke-miterlimit:10;" d="M431.074,369.985
					c-8.129-4.015-17.495-7.163-26.337-7.315"/>
				
					<line style="fill:none;stroke:#000000;stroke-width:1.5;stroke-linejoin:round;stroke-miterlimit:10;" x1="360.895" y1="318.065" x2="439.185" y2="331.232"/>
				<polygon style="fill:#46AA99;" points="437.22,218.853 473.505,253.651 451.613,270.399 423.358,227.757 				"/>
				<polyline style="fill:none;stroke:#000000;stroke-width:1.5;stroke-linejoin:round;stroke-miterlimit:10;" points="
					473.505,253.651 451.613,270.399 423.358,227.757 				"/>
				
					<line style="fill:none;stroke:#000000;stroke-width:1.5;stroke-linejoin:round;stroke-miterlimit:10;" x1="497.003" y1="268.909" x2="501.135" y2="269.079"/>
				
					<line style="fill:none;stroke:#000000;stroke-width:1.5;stroke-linejoin:round;stroke-miterlimit:10;" x1="500.79" y1="311.759" x2="504.922" y2="311.928"/>
				
					<line style="fill:none;stroke:#000000;stroke-width:1.5;stroke-linejoin:round;stroke-miterlimit:10;" x1="504.578" y1="354.608" x2="508.71" y2="354.777"/>
				
					<line style="fill:none;stroke:#000000;stroke-width:1.5;stroke-linejoin:round;stroke-miterlimit:10;" x1="508.365" y1="397.457" x2="512.497" y2="397.626"/>
				<g>
					<path style="fill:#DB652A;" d="M653.445,449.985c0.471-1.696,0.947-3.447,0.729-5.193c-0.218-1.747-1.309-3.507-3.01-3.96
						c1.127-1.754,1.504-3.971,1.021-5.999c-0.75-3.15-3.022-4.813-6.005-5.546v4.763c0,0-7.056,5.145-10.308,8.164
						c-1.386,1.286-3.73,3.686-3.713,7.625c0.008,1.89,1.466,3.298,4.305,2.079c-1.263,2.12-2.573,3.281-2.789,5.739
						c-0.087,0.992-0.075,2.034,0.364,2.928c0.438,0.894,1.405,1.594,2.389,1.441c-0.925,1.92-1.675,3.812-1.103,5.424
						c0.572,1.613,2.78,2.461,4.276,1.632c-1.01,2.348-0.883,4.68,1.188,5.199c1.51,0.379,4.497-1.554,5.854-2.316
						c2.946-1.655,4.955-3.495,6.441-5.821c1.227-1.92,2.613-5.821,0.601-7.877C655.054,456.165,655.413,451.539,653.445,449.985z"
						/>
					<path style="fill:none;stroke:#000000;stroke-width:1.5;stroke-linejoin:round;stroke-miterlimit:10;" d="M636.464,451.918
						c0,0,11.079-4.704,14.7-11.086"/>
					<path style="fill:none;stroke:#000000;stroke-width:1.5;stroke-linejoin:round;stroke-miterlimit:10;" d="M636.427,462.026
						c0,0,13.571-4.383,17.017-12.041"/>
					<path style="fill:none;stroke:#000000;stroke-width:1.5;stroke-linejoin:round;stroke-miterlimit:10;" d="M639.601,469.082
						c0,0,10.42-4.037,14.084-10.816"/>
				</g>
				<polygon style="fill:#362B33;" points="536.273,306.693 517.277,305.912 516.524,298.577 535.52,299.358 				"/>
			</g>
		</g>
		<g style="clip-path:url(#SVGID_00000132806016847495093670000000562168797723767994_);">
			<g>
				<path style="fill:#362B33;" d="M289.99,332.525c9.393,4.207,18.127,8.418,25.302,15.796
					c7.064,7.264,12.639,19.183,16.538,28.535c11.497,27.571,21.043,52.233,21.043,52.233l26.55-13.131l20.051,27.999
					c0,0-26.245,46.031-46.799,52.184c-20.554,6.153-46.137,8.129-59.257-16.909c-12.893-24.605-18.299-84.324-18.299-84.324"/>
				<path style="fill:none;stroke:#000000;stroke-width:1.5;stroke-linejoin:round;stroke-miterlimit:10;" d="M316.733,389.503
					c-4.144,12.525-5.822,25.861-4.911,39.023"/>
				<path style="fill:#FFB894;" d="M396.737,402.413c-0.045-0.845-0.179-1.718-0.647-2.424c-0.468-0.705-1.345-1.197-2.165-0.989
					c-0.748,0.19-1.248,0.873-1.682,1.511c-3.105,4.567-5.999,9.133-9.461,13.386c-3.139,3.856-5.965,7.966-8.433,12.282
					l4.649,18.437c6.044-2.813,10.939-7.811,13.102-14.165c1.221-3.585,1.102-7.101,1.299-10.812
					C393.71,413.774,397.052,408.278,396.737,402.413z"/>
				<path style="fill:#362B33;" d="M293.553,336.359c-5.617-4.417-31.539-11.732-31.539-11.732s1.825,15.042-14.274,15.816
					c-18.212,0.875-32.109-21.129-32.109-21.129l-28.59,8.238l0.983,158.049l130.364-7.425
					C318.387,478.176,299.17,340.777,293.553,336.359z"/>
				<path style="fill:none;stroke:#000000;stroke-width:1.5;stroke-linejoin:round;stroke-miterlimit:10;" d="M222.604,336.68
					c4.626,3.846,9.833,7.116,15.605,8.811c5.772,1.695,13.996,2.467,19.505,0.049c5.508-2.418,8.14-8.21,9.134-14.143"/>
				<g>
					<path style="fill:#EE6A05;" d="M313.602,431.225c-0.337-15.998-2.66-32.263-4.986-48.073
						c-1.173-7.97-2.517-15.914-4.035-23.825c-0.612-3.187-2.269-21.446-4.859-22.717c-8.882-4.358-16.262-7.061-25.95-9.066
						c-1.734,18.726-4.967,36.248-12.565,53.451c-22.009-16.849-40.489-34.526-55.827-58.944
						c-15.481,2.684-29.371,6.255-42.204,15.32c-7.849,66.405-16.791,136.377-24.281,202.824
						c50.444,21.793,138.596,24.473,179.132,1.486C317.904,536.688,314.268,462.905,313.602,431.225z"/>
					<path style="fill:none;stroke:#FDED8D;stroke-width:7;stroke-miterlimit:10;" d="M155.499,404.952
						c11.255,1.048,21.967,5.305,33.127,7.099c12.861,2.067,26.009,2.269,38.937,0.699c12.551-1.524,24.746-5.39,37.41-6.082
						c9.654-0.527,18.895,3.25,28.299,2.985c6.342-0.179,12.68-0.495,19.022-0.663"/>
					<path style="fill:none;stroke:#FDED8D;stroke-width:7;stroke-miterlimit:10;" d="M152.98,420.431
						c17.434,6.697,35.888,11.48,54.595,12.446c9.193,0.475,18.476-0.008,27.496-1.91c8.646-1.823,17.053-4.665,25.779-6.118
						c8.93-1.487,18.013-2.041,27.057-1.652c8.522,0.367,16.996,1.765,25.543,1.539"/>
					<path style="fill:none;stroke:#000000;stroke-width:1.5;stroke-linejoin:round;stroke-miterlimit:10;" d="M198.817,324.22
						c14.759,27.033,38.063,51.717,64.079,67.628c9.832-15.022,14.926-38.309,16.782-58.789"/>
					<path style="fill:none;stroke:#000000;stroke-width:1.5;stroke-linejoin:round;stroke-miterlimit:10;" d="M261.206,380.995
						c0,0,10.572,52.804,6.964,174.976"/>
					<path style="fill:none;stroke:#000000;stroke-width:1.5;stroke-linejoin:round;stroke-miterlimit:10;" d="M185.078,329.71
						c20.954,12.392,16.475,72.715,3.008,102.42"/>
				</g>
				<g>
					<path style="fill:#BDBDDB;" d="M271.208,389.377c0,0,4.667-11.439,21.586-6.45c20.214,5.96,17.726,19.399,16.025,22.239
						c-1.701,2.84-59.48,103.682-59.48,103.682h-19.327L271.208,389.377z"/>
					<path style="fill:#C6C6E0;" d="M280.207,394.362c0,0,2.842-5.621,10.904-3.469c8.062,2.152,8.438,9.69,8.438,9.69
						l-30.875,52.971l-9.962-1.603L280.207,394.362z"/>
					<path style="fill:#DDDDF2;" d="M308.819,405.165c-5.27,7.004-16.561,4-21.261,1.171c-8.098-4.874-7.351-11.974-7.351-11.974
						l-50.195,110.251l21.73-0.29L308.819,405.165z"/>
					<path style="fill:#BDBDDB;" d="M427.44,398.462c0,0,2.933-5.672,0.101-12.485c-3.998-9.618-20.491-5.239-20.491-5.239
						l-48.326,112.674l5.368,24.016L427.44,398.462z"/>
					<path style="fill:#FFFFFF;" d="M409.768,414.335c-10.311,3.436-21.189,0.772-31.311-2.065
						c-10.465-2.933-21.822-2.53-32.464-0.324c-15.516,3.217-30.04,10.24-46.308,8.466c-8.7-0.948-16.082-3.71-22.615-9.532
						c-5.933-5.288-8.971-14.408-5.862-21.504l-55.711,140.312c7.789,13.512,8.051,17.457,23.609,18.55
						c15.558,1.093,30.975-2.912,46.038-6.956c15.063-4.044,30.416-8.197,45.993-7.406c6.323,0.321,20.519,2.671,32.953-16.451
						l63.349-118.965C422.191,407.973,416.385,412.13,409.768,414.335z"/>
					<path style="fill:none;stroke:#BDBDDB;stroke-width:1.5;stroke-miterlimit:10;" d="M427.14,396.841
						c-5.249,9.511-10.755,15.289-17.371,17.494c-10.311,3.436-21.189,0.772-31.311-2.065c-10.465-2.933-21.822-2.53-32.464-0.324
						c-15.516,3.217-30.04,10.24-46.308,8.466c-8.7-0.948-16.082-3.71-22.615-9.532c-5.933-5.288-7.733-13.494-4.624-20.589"/>
					<path style="fill:#F3F3FF;" d="M366.115,513.625l50.014-93.924c-6.65,4.988-15.004,4.351-16.92,4.351
						c-8.037,0-15.738-1.97-22.938-3.987c-4.235-1.187-8.896-1.789-13.854-1.789c-9.701,0-18.959,2.442-28.208,5.104
						c-11.293,3.251-23.574,6.366-35.402,5.08c-10.87-1.186-23.23-5.38-28.837-10.625c-2.642-2.471-4.767-5.883-6.402-9.215
						l-45.444,114.455c3.301,5.738,7.927,12.628,12.234,15.011c1.057,0.585,2.889,1.627,9.316,2.079
						c14.73,1.035,29.283-2.916,43.373-6.7c0,0,0.277-0.074,0.277-0.074c8.948-2.386,17.905-4.802,27.06-6.267
						C327.762,524.343,354.42,531.351,366.115,513.625z"/>
					<path style="fill:none;stroke:#BDBDDB;stroke-miterlimit:10;" d="M326.861,490.122c11.116-12.922,25.756-22.783,41.909-28.225"
						/>
					<path style="fill:none;stroke:#BDBDDB;stroke-miterlimit:10;" d="M338.564,493.421c7.673-5.349,16.037-9.707,24.818-12.929"/>
				</g>
				<g>
					<path style="fill:#FFB894;" d="M215.237,452.092c11.513-4.63,17.223-12.352,28.024-18.46c3.765-2.129,6.984-5.959,10.198-8.859
						c0.227-0.205,0.469-0.417,0.768-0.478c0.431-0.087,0.874,0.177,1.116,0.544c0.242,0.367,0.319,0.817,0.359,1.254
						c0.321,3.521-1.375,6.877-3.023,10.006c-0.023,0.044,4.032-0.473,4.378-0.522c1.688-0.237,3.382-0.46,5.085-0.565
						c5.371-0.333,11.09,0.907,15.954,2.273c1.012,0.284,2.391,0.767,3.152,1.493c0.509,0.485,0.669,1.702-0.198,2.611
						c-0.867,0.909-2.051,1.437-3.695,1.266c1.832,0.005,5.692,0.996,6.384,2.154c0.806,1.348,0.098,3.439-0.852,4.285
						c-0.95,0.846-1.828,1.095-3.237,1.414c2.58-0.066,3.241,1.913,2.491,3.564c-0.75,1.651-3.077,3.372-4.654,4.267
						c2.77-0.37,3.201,0.533,3.092,1.814c-0.119,1.394-1.344,4.424-9.31,7.761c-2.836,1.188-9.19,5.565-11.638,7.427
						c-6.772,5.151-13.333,10.985-21.841,15.697c-4.05,2.243-8.776,2.837-13.199,4.206c-5.064,1.567-9.798,4.194-13.807,7.661"/>
					<path style="fill:none;stroke:#000000;stroke-width:1.5;stroke-linejoin:round;stroke-miterlimit:10;" d="M252.679,436.099
						c-3.347,0.978-11.219,3.136-14.377,4.614"/>
					<path style="fill:none;stroke:#000000;stroke-width:1.5;stroke-linejoin:round;stroke-miterlimit:10;" d="M249.566,443.502
						c5.339-1.649,11.43-2.553,16.23-2.668c4.799-0.116,13.927,1.778,13.927,1.778"/>
					<path style="fill:none;stroke:#000000;stroke-width:1.5;stroke-linejoin:round;stroke-miterlimit:10;" d="M253.882,453.602
						c0,0,9.12-3.337,13.266-3.844c5.178-0.633,14.044,0.33,14.044,0.33"/>
					<path style="fill:none;stroke:#000000;stroke-width:1.5;stroke-linejoin:round;stroke-miterlimit:10;" d="M255.787,465.904
						c0.406-0.222,8.52-4.747,11.542-5.825c4.929-1.757,11.763-2.21,11.763-2.21"/>
				</g>
				<path style="fill:#362B33;" d="M177.107,329.608c-28.627,9.302-38.135,32.801-47.32,58.942
					c-11.06,31.479-17.715,64.026-22.938,96.873c-2.671,16.8-2.543,36.362,13.695,46.703c7.042,4.484,15.802,5.398,24.137,4.926
					c24.474-1.384,63.817-25.535,85.331-37.285l-8.896-51.368l-11.931,4.393l-30.643,7.358l10.491-51.334
					c0,0,6.096-24.552,4.019-46.486C190.034,330.487,177.107,329.608,177.107,329.608z"/>
				<path style="fill:none;stroke:#000000;stroke-width:1.5;stroke-linejoin:round;stroke-miterlimit:10;" d="M178.541,460.151
					c0,0-29.491,6.406-39.064,15.737"/>
				
					<line style="fill:none;stroke:#000000;stroke-width:1.5;stroke-linejoin:round;stroke-miterlimit:10;" x1="209.184" y1="452.793" x2="217.989" y2="506.474"/>
				<path style="fill:none;stroke:#000000;stroke-width:1.5;stroke-linejoin:round;stroke-miterlimit:10;" d="M174.315,381.148
					c4.96,4.491,8.954,10.042,11.635,16.173"/>
				<path style="fill:none;stroke:#000000;stroke-width:1.5;stroke-linejoin:round;stroke-miterlimit:10;" d="M162.23,391.228
					c5.631,2.143,10.959,5.08,15.777,8.695"/>
			</g>
			<g>
				<path style="fill:#722F40;" d="M272.21,239.721c6.646,11.121,7.905,23.834,11.313,35.842
					c3.325,11.715,11.085,25.718,18.408,34.646c-4.127-0.901-8.98-2.624-12.268-4.974c2.228,7.401,5.179,10.785,11.61,16.316
					c-7.564,0.959-12.605-0.069-17.71-4.906c2.203,5.618,5.983,10.758,10.919,14.846c0.023,0.019-8.221,3.629-19.107,0.456
					c-6.594-1.922-12.664-5.275-17.136-9.841c-6.007-6.132-9.708-13.699-12.993-21.241"/>
				<path style="fill:none;stroke:#491A28;stroke-width:1.5;stroke-linejoin:round;stroke-miterlimit:10;" d="M277.74,285.82
					c0.32,10.504,1.424,21.785,5.837,31.322"/>
				<path style="fill:none;stroke:#491A28;stroke-width:1.5;stroke-linejoin:round;stroke-miterlimit:10;" d="M267.683,292.665
					c1.438,7.626,2.965,15.347,6.403,22.304c3.438,6.957,9.064,13.176,16.423,15.64"/>
				<path style="fill:#FFB894;" d="M263.141,300.617l0,25.511c0,0,2.48,16.232-15.651,16c-18.131-0.232-34.685-22.914-34.685-22.914
					l10.868-33.367L263.141,300.617z"/>
				<path style="fill:#FFB894;" d="M274.818,284.298c0.408,6.218,0.577,12.814-2.443,18.264c-2.469,4.456-7.024,7.697-12.044,8.569
					c-2.243,0.389-4.541,0.328-6.807,0.107c-13.953-1.358-27.593-9.499-33.473-22.225c-2.413-5.223-3.476-10.971-4.044-16.697
					c-0.56-5.65-0.649-11.434,0.817-16.919c2.914-10.899,12.338-19.782,23.391-22.046c9.118-1.868,19.563,0.857,26.546,7.092
					c3.969,3.544,5.016,8.793,5.522,13.83C273.286,264.257,274.162,274.285,274.818,284.298z"/>
				<path style="fill:none;stroke:#000000;stroke-width:1.5;stroke-linejoin:round;stroke-miterlimit:10;" d="M259.485,263.672
					c-0.061,4.268,1.582,8.667,3.935,12.24c0.912,1.385,2.108,2.929,1.619,4.514c-0.953,3.089-5.233,2.314-7.519,1.703"/>
				<path style="fill:none;stroke:#000000;stroke-width:1.5;stroke-linejoin:round;stroke-miterlimit:10;" d="M234.803,260.859
					c1.717-1.922,4.177-3.281,6.754-3.262c2.814,0.021,5.345,1.613,7.703,3.151"/>
				<path style="fill:none;stroke:#000000;stroke-width:1.5;stroke-linejoin:round;stroke-miterlimit:10;" d="M263.399,260.298
					c0.899-1.678,2.496-3.035,4.369-3.373c1.873-0.339,3.974,0.481,4.905,2.142"/>
				<path d="M248.868,271.759c0.018,1.766-0.863,3.207-1.967,3.218c-1.104,0.011-2.013-1.412-2.031-3.179
					c-0.017-1.766,0.863-3.207,1.967-3.218S248.85,269.992,248.868,271.759z"/>
				<path d="M272.092,270.603c0.017,1.766-0.863,3.207-1.967,3.218c-1.104,0.011-2.013-1.412-2.031-3.178
					c-0.017-1.766,0.863-3.207,1.967-3.218C271.166,267.413,272.075,268.836,272.092,270.603z"/>
				<path style="fill:none;stroke:#000000;stroke-width:1.5;stroke-linejoin:round;stroke-miterlimit:10;" d="M253.886,287.216
					c1.17,2.262,3.518,4.704,6.799,4.003c1.604-0.343,2.944-1.464,3.372-2.819"/>
				<path style="fill:#722F40;" d="M262.876,225.905c-6.329-4.688-15.719-5.699-22.655-2.184c-1.208-0.54-2.514-0.913-3.817-1.206
					c-16.149-3.632-30.375,3.263-38.911,16.295c-3.678,5.615-4.907,11.73-6.625,18.064c-1.851,6.825-3.085,13.16-4.411,20.108
					c-3.128,16.386-6.057,23.882-16.826,35.008c5.553,2,9.295,1.484,14.633-1.84c-2.195,6.636-5.885,12.772-10.717,17.822
					c7.76,0.358,16.255,0.496,22.384-4.276c-0.839,4.305-5.312,10.967-7.591,14.714c5.798-0.338,11.156-1.872,15.035-5.155
					c0.19,3.283,0.447,5.155-0.067,7.924c8.475-3.296,12.744-12.48,14.268-16.283c3.181-7.937,4.583-21.548,4.188-29.886
					c-0.478-10.116-1.85-20.353-0.826-30.47c0.882-8.708,4.712-17.343,13.647-21.908c5.898-3.013,12.984-3.37,19.575-2.246
					c7.245,1.235,14.374,4.351,18.967,9.797C273.783,241.127,270.419,231.492,262.876,225.905z"/>
				<path style="fill:none;stroke:#491A28;stroke-width:1.5;stroke-linejoin:round;stroke-miterlimit:10;" d="M172.181,311.414
					c17.409-4.564,21.554-32.062,23.492-45.117"/>
				<path style="fill:none;stroke:#491A28;stroke-width:1.5;stroke-linejoin:round;stroke-miterlimit:10;" d="M176.253,326.72
					c21.815-10.041,27.431-44.75,28.136-60.424"/>
				<path style="fill:none;stroke:#491A28;stroke-width:1.5;stroke-linejoin:round;stroke-miterlimit:10;" d="M188.34,338.408
					c23.005-15.493,27.189-55.125,25.655-71.015"/>
				<path style="opacity:0.45;fill:#FFFFFF;" d="M211.49,273.78l15.283-12.585l50.751-3.694c0,0,0.353,17.876-1.181,19.153
					c-1.534,1.277-4.892,2.101-8.236,0.71c-3.345-1.391-6.692-12.045-6.692-12.045l-5.948,0.897c0,0,0.196,12.39-3.046,13.36
					s-11.233,1.44-15.309-0.199c-3.525-1.418-8.201-10.418-8.201-10.418l-12.378,6.614L211.49,273.78z"/>
				<g>
					<path style="fill:#FFB894;" d="M229.367,279.031c-1.96-5.332-6.638-8.507-11.171-8.606
						c-16.107-0.35-12.712,24.616-0.173,27.913c3.682,0.968,8.744-0.771,10.421-4.729"/>
					<path style="fill:none;stroke:#000000;stroke-width:1.5;stroke-linejoin:round;stroke-miterlimit:10;" d="M221.764,298.601
						c2.868-0.344,5.421-2.02,6.68-4.992"/>
					<path style="fill:none;stroke:#000000;stroke-width:1.5;stroke-linejoin:round;stroke-miterlimit:10;" d="M229.367,279.031
						c-1.96-5.332-6.638-8.507-11.171-8.606"/>
					<path style="fill:none;stroke:#000000;stroke-width:1.5;stroke-linejoin:round;stroke-miterlimit:10;" d="M224.307,290.575
						c-0.759-5.542-3.511-12.223-9.883-14.618"/>
					<path style="fill:none;stroke:#000000;stroke-width:1.5;stroke-linejoin:round;stroke-miterlimit:10;" d="M218.968,278.876
						c0,0-5.77,1.121-4.731,9.3"/>
				</g>
				<g>
					<path style="fill:#FFD527;" d="M277.398,244.732c-3.067-1.808-10.42-2.345-11.557-2.468
						c-9.395-1.019-18.862,0.063-27.818,2.419c-7.664,2.016-15.017,5-21.993,8.638c-6.933,3.615-14.131,8.446-22.284,8.859
						c-2.421,0.122-5.057-0.173-6.982-1.772c-0.535-0.444-1.014-1.01-1.165-1.682c-0.261-1.161,0.483-2.271,1.172-3.153
						c4.285-5.494,1.786-15.535,4.636-22.775c4.903-12.455,12.839-18.255,22.103-21.891c16.802-6.594,36.583-1.773,47.644,6.038
						C276.756,227.96,277.394,244.723,277.398,244.732z"/>
					<path style="fill:none;stroke:#000000;stroke-width:1.5;stroke-linejoin:round;stroke-miterlimit:10;" d="M195.48,227.809
						c5.975,1.454,11.181,5.786,13.696,11.398c0.462,1.03,0.842,2.126,0.825,3.254c-0.017,1.128-0.492,2.299-1.436,2.917
						c-1.057,0.692-2.43,0.57-3.685,0.421c-4.697-0.555-9.394-1.11-14.091-1.664"/>
					<path style="fill:none;stroke:#000000;stroke-width:1.5;stroke-linejoin:round;stroke-miterlimit:10;" d="M266.662,223.711
						c0.029,1.811,0.252,3.618,0.665,5.381c0.284,1.214,0.694,2.468,1.612,3.313c1.008,0.929,2.445,1.201,3.807,1.355"/>
					<path style="fill:#FFD527;" d="M206.842,247.114c4.602,0.854,8.361,3.767,12.069,6.406c3.709,2.639,7.918,5.201,12.616,5.142
						c3.107-0.039,6.043-1.23,8.979-2.18c11.634-3.761,24.32-3.776,36.452-2.935c1.632,0.113,3.952,0.233,5.359-0.699
						c1.963-1.301,0.831-3.362-0.411-4.712c-4.18-4.542-11.591-10.712-11.591-10.712"/>
					<path style="fill:none;stroke:#000000;stroke-width:1.5;stroke-linejoin:round;stroke-miterlimit:10;" d="M217.043,252.612
						c8.928-5.209,18.388-9.887,28.65-12.173c10.263-2.286,21.472-2.01,30.874,2.349"/>
					<path style="fill:none;stroke:#000000;stroke-width:1.5;stroke-linejoin:round;stroke-miterlimit:10;" d="M210.982,211.827
						c6.723-0.184,13.294,2.566,18.214,6.765c4.919,4.199,8.298,9.751,10.549,15.575"/>
					<path style="fill:none;stroke:#000000;stroke-width:1.5;stroke-linejoin:round;stroke-miterlimit:10;" d="M244.952,210.071
						c4.064,2.179,7.089,5.732,9.215,9.595c2.125,3.863,3.427,8.059,4.716,12.226"/>
				</g>
				<path style="fill:none;stroke:#000000;stroke-width:1.5;stroke-linejoin:round;stroke-miterlimit:10;" d="M236.815,306.606
					c6.706,3.722,16.687,6.87,26.326,4.639"/>
				<path style="fill:none;stroke:#491A28;stroke-width:1.5;stroke-linejoin:round;stroke-miterlimit:10;" d="M281.314,277.06
					c1.504,9.607,3.626,19.676,8.349,28.176"/>
			</g>
		</g>
	</g>
</g>
</svg>
