<svg xmlns="http://www.w3.org/2000/svg" version="1.1" viewBox="0 197.333 500 59" style="max-height: 500px" width="500" height="59">
<path transform="translate(0,0)" fill="none" d="M0 0 C165 0 330 0 500 0 C500 165 500 330 500 500 C335 500 170 500 0 500 C0 335 0 170 0 0 Z"/>
<path transform="translate(49,206)" fill="#2B2B2B" d="M0 0 C0.99 0 1.98 0 3 0 C3 1.98 3 3.96 3 6 C3.66 6.33 4.32 6.66 5 7 C5 11.62 5 16.24 5 21 C6.051875 20.71125 7.10375 20.4225 8.1875 20.125 C12 20 12 20 14.9375 22.5 C17.3941082 25.91998397 17.41699136 28.83008642 17 33 C15.35 33 13.7 33 12 33 C11.34 31.02 10.68 29.04 10 27 C9.34 27 8.68 27 8 27 C7.34 29.31 6.68 31.62 6 34 C3.525 34.495 3.525 34.495 1 35 C0.01 32.69 -0.98 30.38 -2 28 C-2.18175781 28.62648437 -2.36351562 29.25296875 -2.55078125 29.8984375 C-2.92783203 31.12433594 -2.92783203 31.12433594 -3.3125 32.375 C-3.55613281 33.18710938 -3.79976562 33.99921875 -4.05078125 34.8359375 C-5 37 -5 37 -8 39 C-15.23420886 33.41932459 -17.78655974 23.74468363 -19 15 C-19.32613281 16.10859375 -19.65226562 17.2171875 -19.98828125 18.359375 C-20.429259 19.82304583 -20.87068908 21.28658044 -21.3125 22.75 C-21.63250977 23.84441406 -21.63250977 23.84441406 -21.95898438 24.9609375 C-23.14004184 28.83903665 -24.23707548 31.92108118 -27 35 C-29.3125 34.9375 -29.3125 34.9375 -32 34 C-34.96439024 28.78267317 -36.33981522 22.81877744 -38.03515625 17.0859375 C-38.93902696 14.02698343 -38.93902696 14.02698343 -40.140625 11.2734375 C-41.20797415 8.44981385 -40.87102236 6.85061863 -40 4 C-39 3 -39 3 -35.9375 2.9375 C-34.4834375 2.9684375 -34.4834375 2.9684375 -33 3 C-29.55903827 8.63066465 -28.88943501 14.53328431 -28 21 C-27.73445313 20.09636719 -27.46890625 19.19273437 -27.1953125 18.26171875 C-26.84210937 17.08222656 -26.48890625 15.90273437 -26.125 14.6875 C-25.77695312 13.51574219 -25.42890625 12.34398437 -25.0703125 11.13671875 C-24 8 -24 8 -22 5 C-19.5 4.6875 -19.5 4.6875 -17 5 C-14.89734696 7.10265304 -14.51868443 8.03772745 -13.7109375 10.80859375 C-13.49179687 11.55560547 -13.27265625 12.30261719 -13.046875 13.07226562 C-12.82515625 13.85279297 -12.6034375 14.63332031 -12.375 15.4375 C-12.03082031 16.60249023 -12.03082031 16.60249023 -11.6796875 17.79101562 C-10.74841687 21.00888823 -10 23.62639027 -10 27 C-9.34 27 -8.68 27 -8 27 C-7.97421875 26.42894531 -7.9484375 25.85789063 -7.921875 25.26953125 C-7.34100577 16.96574154 -5.9981255 6.23925617 0 0 Z"/>
<path transform="translate(283.5625,207)" fill="#2D2D2D" d="M0 0 C3.4375 1 3.4375 1 5.4375 2.6875 C6.77471014 5.77979844 6.24055964 7.78776145 5.4375 11 C6.035625 11.226875 6.63375 11.45375 7.25 11.6875 C10.17377001 13.44176201 11.07597463 14.86849164 12.4375 18 C12.97488757 23.64256945 12.57989904 27.11182371 9.4375 32 C5.41144068 34.68403955 2.1654338 34.67419995 -2.5625 34 C-5.125 32.4375 -5.125 32.4375 -6.5625 30 C-6.75 26.3125 -6.75 26.3125 -6.5625 23 C-6.8925 22.67 -7.2225 22.34 -7.5625 22 C-7.74311605 19.04796394 -7.84067579 16.14167037 -7.875 13.1875 C-7.90400391 12.36701172 -7.93300781 11.54652344 -7.96289062 10.70117188 C-8.02653466 4.66478009 -8.02653466 4.66478009 -5.765625 1.42578125 C-3.5625 0 -3.5625 0 0 0 Z"/>
<path transform="translate(146.0625,207.125)" fill="#2B2B2B" d="M0 0 C1.9375 0.875 1.9375 0.875 3.9375 3.875 C4.14868164 5.78857422 4.14868164 5.78857422 4.09765625 7.9296875 C4.08669922 8.70957031 4.07574219 9.48945313 4.06445312 10.29296875 C4.04318359 11.10378906 4.02191406 11.91460937 4 12.75 C3.79910967 19.86869112 3.79910967 19.86869112 4.9375 26.875 C6.9175 26.215 8.8975 25.555 10.9375 24.875 C12.39482062 18.22509036 13.38886137 11.6607936 13.9375 4.875 C14.9275 4.875 15.9175 4.875 16.9375 4.875 C17.5975 4.215 18.2575 3.555 18.9375 2.875 C20.59736999 6.19473998 20.20624656 9.8538798 20.25 13.5 C20.27900391 14.28246094 20.30800781 15.06492188 20.33789062 15.87109375 C20.41027995 22.58659607 18.60082064 27.71847184 14.25 32.875 C10.51268707 34.49113532 6.93299096 34.52426728 2.9375 33.875 C-0.58254822 31.77795 -2.69526699 29.74882687 -4.0625 25.875 C-5.07157916 20.95573909 -5.27798727 16.18753121 -5.3125 11.1875 C-5.333125 10.42888672 -5.35375 9.67027344 -5.375 8.88867188 C-5.41383516 3.38864211 -5.41383516 3.38864211 -3.67578125 0.84765625 C-2.0625 -0.125 -2.0625 -0.125 0 0 Z"/>
<path transform="translate(427,208)" fill="#272727" d="M0 0 C2 2 2 2 2.125 4.625 C2.08375 5.40875 2.0425 6.1925 2 7 C1.01 7.495 1.01 7.495 0 8 C1.06541016 8.50660156 1.06541016 8.50660156 2.15234375 9.0234375 C3.07144531 9.46945313 3.99054688 9.91546875 4.9375 10.375 C5.85402344 10.81585938 6.77054687 11.25671875 7.71484375 11.7109375 C10 13 10 13 11 15 C11.6378991 18.96466402 11.85007704 22.52690233 9.80078125 26.078125 C7.1875013 29.21142792 4.82175691 31.45083659 1 33 C-3.26610962 33.33858013 -5.95712167 33.39940021 -9.9375 31.875 C-12.64221323 29.41616979 -12.76184853 27.57227202 -13 24 C-12.34 24 -11.68 24 -11 24 C-10.34 22.68 -9.68 21.36 -9 20 C-7.741875 20.103125 -6.48375 20.20625 -5.1875 20.3125 C-3.00858677 20.39581568 -3.00858677 20.39581568 -1 20 C1.08216876 17.6450037 1.08216876 17.6450037 2 15 C1.07767578 14.83564453 1.07767578 14.83564453 0.13671875 14.66796875 C-0.67152344 14.50941406 -1.47976563 14.35085937 -2.3125 14.1875 C-3.51326172 13.96126953 -3.51326172 13.96126953 -4.73828125 13.73046875 C-7.29838775 12.90362952 -8.39512308 12.14493074 -10 10 C-10.36528977 6.5906288 -10.6140629 4.11976176 -8.9375 1.0625 C-5.92115289 -0.59162584 -3.36333392 -0.30575763 0 0 Z"/>
<path transform="translate(322,220)" fill="#313131" d="M0 0 C1.67542976 0.28604898 3.34385343 0.61781233 5 1 C4.67 3.97 4.34 6.94 4 10 C4.66 10 5.32 10 6 10 C6.33 7.03 6.66 4.06 7 1 C8.11375 1.20625 9.2275 1.4125 10.375 1.625 C11.57125 1.74875 12.7675 1.8725 14 2 C14.66 1.34 15.32 0.68 16 0 C18.625 0.375 18.625 0.375 21 1 C21 1.99 21 2.98 21 4 C20.01 4 19.02 4 18 4 C18 4.66 18 5.32 18 6 C19.6396875 6.4021875 19.6396875 6.4021875 21.3125 6.8125 C26.57566766 8.5074184 26.57566766 8.5074184 28 11 C27.9253642 14.50788277 27.35833701 16.47627668 25.375 19.375 C22.16391273 21.57205971 19.80341249 21.29257019 16 21 C15.34 19.68 14.68 18.36 14 17 C16 14 16 14 19.125 13.3125 C20.07375 13.209375 21.0225 13.10625 22 13 C20.37633534 9.75267068 17.24612161 9.29844864 14 8 C13.83564453 9.77117187 13.83564453 9.77117187 13.66796875 11.578125 C13.50848006 13.13548518 13.34828682 14.69277331 13.1875 16.25 C13.11724609 17.02730469 13.04699219 17.80460937 12.97460938 18.60546875 C12.51868107 22.87295768 12.1354078 25.80446109 9 29 C3.59305933 28.56744475 0.24633878 27.41778487 -4 24 C-4 23.34 -4 22.68 -4 22 C-0.7 22.33 2.6 22.66 6 23 C6.495 18.545 6.495 18.545 7 14 C6.236875 14.061875 5.47375 14.12375 4.6875 14.1875 C2 14 2 14 0.34765625 12.80859375 C-1.45114175 10.3945547 -1.33686017 8.85430399 -1.25 5.875 C-1.23453125 4.98554688 -1.2190625 4.09609375 -1.203125 3.1796875 C-1 1 -1 1 0 0 Z"/>
<path transform="translate(380,212)" fill="#2E2E2E" d="M0 0 C1.8125 1.125 1.8125 1.125 3 3 C3.64039015 7.1167938 3.14740698 8.75125073 1 12.375 C0.34 13.24125 -0.32 14.1075 -1 15 C-0.34 16.32 0.32 17.64 1 19 C2.32 17.68 3.64 16.36 5 15 C5.99 15.33 6.98 15.66 8 16 C7.67 19.96 7.34 23.92 7 28 C1.91514887 28.84747519 -2.85057083 29.49833185 -8 29 C-11.0991854 26.74017731 -12.66599192 25.30263152 -13.625 21.5625 C-12.86151578 18.43221468 -11.18242207 16.99276492 -9.0390625 14.67578125 C-7.11517535 11.57297077 -8.38633103 8.45886145 -9 5 C-8.1875 2.5625 -8.1875 2.5625 -7 1 C-4.45132831 -0.27433584 -2.82594567 -0.27570202 0 0 Z"/>
<path transform="translate(186,212)" fill="#2E2E2E" d="M0 0 C1.65 0.33 3.3 0.66 5 1 C5 4.96 5 8.92 5 13 C6.98 12.67 8.96 12.34 11 12 C14.1559882 15.05736357 15.33088346 17.30548166 15.5 21.625 C15.35034353 24.62311797 15.26439061 25.6644273 13.375 28.0625 C10.42910444 29.22535351 8.15199173 29.12865272 5 29 C4.071875 29.185625 3.14375 29.37125 2.1875 29.5625 C1.465625 29.706875 0.74375 29.85125 0 30 C-1.83034055 28.16965945 -1.13042797 25.26788008 -1.1328125 22.8125 C-1.13410156 21.55695313 -1.13539063 20.30140625 -1.13671875 19.0078125 C-1.13462402 18.35071289 -1.1325293 17.69361328 -1.13037109 17.01660156 C-1.12502234 15.00838665 -1.13031691 13.00039541 -1.13671875 10.9921875 C-1.13542969 9.73664063 -1.13414062 8.48109375 -1.1328125 7.1875 C-1.13112061 5.44533203 -1.13112061 5.44533203 -1.12939453 3.66796875 C-1 1 -1 1 0 0 Z"/>
<path transform="translate(299,220)" fill="#2C2C2C" d="M0 0 C2.83250926 -0.43577066 4.33625899 -0.46522486 6.7109375 1.19921875 C8 3 8 3 7.85546875 5.48046875 C7.63503906 6.37378906 7.41460937 7.26710937 7.1875 8.1875 C6.97480469 9.08855469 6.76210938 9.98960937 6.54296875 10.91796875 C6.27419922 11.94857422 6.27419922 11.94857422 6 13 C7.32 13 8.64 13 10 13 C10.17015625 12.37351563 10.3403125 11.74703125 10.515625 11.1015625 C10.75796875 10.28429687 11.0003125 9.46703125 11.25 8.625 C11.48203125 7.81289062 11.7140625 7.00078125 11.953125 6.1640625 C13.2214892 3.54214546 14.32423308 3.00617682 17 2 C18.51421001 3.51421001 18.21309856 4.92472768 18.31640625 7.03515625 C18.35830078 7.84404297 18.40019531 8.65292969 18.44335938 9.48632812 C18.48267578 10.33646484 18.52199219 11.18660156 18.5625 12.0625 C18.60568359 12.91650391 18.64886719 13.77050781 18.69335938 14.65039062 C18.79976702 16.76672037 18.90041731 18.88333813 19 21 C18.401875 20.835 17.80375 20.67 17.1875 20.5 C14.02101844 19.77623279 11.80524284 20.04327937 8.625 20.75 C5 21 5 21 2.1875 19.3125 C-1.26672546 15.66089023 -2.28027794 12.95606902 -2.25 7.9375 C-2.25515625 7.08027344 -2.2603125 6.22304687 -2.265625 5.33984375 C-2 3 -2 3 0 0 Z"/>
<path transform="translate(249,219.8125)" fill="#2F2F2F" d="M0 0 C3 0.1875 3 0.1875 5 1.1875 C5 2.1775 5 3.1675 5 4.1875 C5.99 4.8475 6.98 5.5075 8 6.1875 C8.38394667 8.96012255 8.60342248 11.53073528 8.6875 14.3125 C8.73874023 15.44365234 8.73874023 15.44365234 8.79101562 16.59765625 C8.87354278 18.46041201 8.93844711 20.32393326 9 22.1875 C8.26910156 21.85492188 7.53820312 21.52234375 6.78515625 21.1796875 C3.98273793 20.18135054 2.356537 20.07897704 -0.5625 20.3125 C-3.70688922 20.36490649 -4.77368981 20.31997426 -7.5625 18.6875 C-9.57476617 15.18790666 -9.76166061 12.07047564 -9 8.1875 C-4.61151079 0.28821942 -4.61151079 0.28821942 0 0 Z"/>
<path transform="translate(212,219.8125)" fill="#2A2A2A" d="M0 0 C3 0.1875 3 0.1875 5 1.1875 C5 2.1775 5 3.1675 5 4.1875 C5.66 4.5175 6.32 4.8475 7 5.1875 C7 10.1375 7 15.0875 7 20.1875 C7.66 20.1875 8.32 20.1875 9 20.1875 C9 20.8475 9 21.5075 9 22.1875 C8.360625 21.8575 7.72125 21.5275 7.0625 21.1875 C4.10014378 20.22020001 2.47831048 20.16196483 -0.5625 20.3125 C-3.70688922 20.36490649 -4.77368981 20.31997426 -7.5625 18.6875 C-9.57476617 15.18790666 -9.76166061 12.07047564 -9 8.1875 C-4.61151079 0.28821942 -4.61151079 0.28821942 0 0 Z"/>
<path transform="translate(231.4375,220.0625)" fill="#2C2C2C" d="M0 0 C3.5625 0.9375 3.5625 0.9375 6 2.75 C8.40102613 7.64809331 8.04585978 12.57299888 7.5625 17.9375 C7.2325 18.5975 6.9025 19.2575 6.5625 19.9375 C2.6875 19.0625 2.6875 19.0625 1.5625 17.9375 C1.32822222 15.92155418 1.14913876 13.899026 1 11.875 C0.91621094 10.77027344 0.83242187 9.66554687 0.74609375 8.52734375 C0.68550781 7.67269531 0.62492188 6.81804687 0.5625 5.9375 C-0.4275 5.6075 -1.4175 5.2775 -2.4375 4.9375 C-2.4375 9.8875 -2.4375 14.8375 -2.4375 19.9375 C-6.4375 20.9375 -6.4375 20.9375 -9.4375 19.9375 C-9.7675 13.6675 -10.0975 7.3975 -10.4375 0.9375 C-9.1175 1.2675 -7.7975 1.5975 -6.4375 1.9375 C-3.4375 -0.0625 -3.4375 -0.0625 0 0 Z"/>
<path transform="translate(452,221)" fill="#2C2C2C" d="M0 0 C1.875 1.1875 1.875 1.1875 3 3 C3.3125 6.0625 3.3125 6.0625 3 9 C1 11 1 11 -2.125 11.125 C-3.07375 11.08375 -4.0225 11.0425 -5 11 C-5 10.01 -5 9.02 -5 8 C-4.34 8 -3.68 8 -3 8 C-3.33 7.34 -3.66 6.68 -4 6 C-5.29633621 7.06645115 -5.29633621 7.06645115 -5.0625 9.5625 C-5.041875 10.366875 -5.02125 11.17125 -5 12 C-1.11757759 13.07845067 0.5116354 12.92461495 4 11 C4.66 11.33 5.32 11.66 6 12 C4.74425659 15.87187551 3.65992073 18.06837517 0 20 C-3.92721068 20.58490372 -5.48108543 20.34594305 -8.8125 18.125 C-11.74617393 15.27514533 -12.18541445 13.66728434 -12.3125 9.6875 C-12.28413514 6.16458401 -12.06650675 5.10641081 -10.125 2 C-6.52886248 -1.38460002 -4.73516632 -1.15963257 0 0 Z"/>
<path transform="translate(116,221)" fill="#2C2C2C" d="M0 0 C1.875 1.1875 1.875 1.1875 3 3 C3.3125 6.0625 3.3125 6.0625 3 9 C1 11 1 11 -2.125 11.125 C-3.07375 11.08375 -4.0225 11.0425 -5 11 C-5 10.01 -5 9.02 -5 8 C-4.34 8 -3.68 8 -3 8 C-3.33 7.34 -3.66 6.68 -4 6 C-5.29633621 7.06645115 -5.29633621 7.06645115 -5.0625 9.5625 C-5.041875 10.366875 -5.02125 11.17125 -5 12 C-1.11757759 13.07845067 0.5116354 12.92461495 4 11 C4.66 11.33 5.32 11.66 6 12 C4.74425659 15.87187551 3.65992073 18.06837517 0 20 C-3.92721068 20.58490372 -5.48108543 20.34594305 -8.8125 18.125 C-11.74617393 15.27514533 -12.18541445 13.66728434 -12.3125 9.6875 C-12.28413514 6.16458401 -12.06650675 5.10641081 -10.125 2 C-6.52886248 -1.38460002 -4.73516632 -1.15963257 0 0 Z"/>
<path transform="translate(75.625,219.3125)" fill="#2D2D2D" d="M0 0 C3.18950391 0.92327745 4.45061963 1.97911281 6.375 4.6875 C6.84533941 7.9798759 6.94561648 9.80304445 5.125 12.625 C3.375 13.6875 3.375 13.6875 1.1875 13.375 C0.589375 13.148125 -0.00875 12.92125 -0.625 12.6875 C-0.625 11.3675 -0.625 10.0475 -0.625 8.6875 C-1.63611093 11.73663228 -1.63611093 11.73663228 -0.625 14.6875 C3.50473628 14.12010132 3.50473628 14.12010132 7.375 12.6875 C8.035 13.0175 8.695 13.3475 9.375 13.6875 C8.8110709 16.95828876 7.91819569 18.55121562 5.375 20.6875 C2.48638291 22.13180855 0.57852299 22.06438506 -2.625 21.6875 C-6.39698573 18.5022676 -8.38966602 16.40207615 -9.0625 11.5 C-8.42912438 5.9805839 -5.59989901 1.46664022 0 0 Z"/>
<path transform="translate(478,220)" fill="#2E2E2E" d="M0 0 C2.625 0.375 2.625 0.375 5 1 C5.33 1.99 5.66 2.98 6 4 C4.68 4 3.36 4 2 4 C2 4.66 2 5.32 2 6 C2.63808594 6.20496094 3.27617187 6.40992188 3.93359375 6.62109375 C4.75988281 6.89050781 5.58617187 7.15992188 6.4375 7.4375 C7.26121094 7.70433594 8.08492188 7.97117188 8.93359375 8.24609375 C11 9 11 9 12 10 C12.375 13.3125 12.375 13.3125 12 17 C9.9375 19.4375 9.9375 19.4375 7 21 C3.25 21.3125 3.25 21.3125 0 21 C-1 20 -1 20 -1.1875 17.5625 C-1 15 -1 15 1 13 C3.625 12.875 3.625 12.875 6 13 C4.60624928 10.21249856 2.83755139 10.10733713 0 9 C-2 7 -2 7 -2.25 4.5 C-2 2 -2 2 0 0 Z"/>
<path transform="translate(338,220)" fill="#2A2A2A" d="M0 0 C2.625 0.375 2.625 0.375 5 1 C5 1.99 5 2.98 5 4 C4.01 4 3.02 4 2 4 C2 4.66 2 5.32 2 6 C3.6396875 6.4021875 3.6396875 6.4021875 5.3125 6.8125 C10.57566766 8.5074184 10.57566766 8.5074184 12 11 C11.9253642 14.50788277 11.35833701 16.47627668 9.375 19.375 C6.16391273 21.57205971 3.80341249 21.29257019 0 21 C-0.66 19.68 -1.32 18.36 -2 17 C0 14 0 14 3.125 13.3125 C4.548125 13.1578125 4.548125 13.1578125 6 13 C4.37633534 9.75267068 1.24612161 9.29844864 -2 8 C-2.125 5.125 -2.125 5.125 -2 2 C-1.34 1.34 -0.68 0.68 0 0 Z"/>
<path transform="translate(179,220)" fill="#363636" d="M0 0 C2.3125 2 2.3125 2 4 4 C3.34 5.32 2.68 6.64 2 8 C0.35 7.67 -1.3 7.34 -3 7 C-3.33 11.29 -3.66 15.58 -4 20 C-5.65 20.33 -7.3 20.66 -9 21 C-10.51421001 19.48578999 -10.21309856 18.07527232 -10.31640625 15.96484375 C-10.35830078 15.15595703 -10.40019531 14.34707031 -10.44335938 13.51367188 C-10.48267578 12.66353516 -10.52199219 11.81339844 -10.5625 10.9375 C-10.60568359 10.08349609 -10.64886719 9.22949219 -10.69335938 8.34960938 C-10.79976702 6.23327963 -10.90041731 4.11666187 -11 2 C-3.55975751 -0.56206697 -3.55975751 -0.56206697 0 0 Z"/>
<path transform="translate(281,212)" fill="#F4F4F4" d="M0 0 C1.32 0 2.64 0 4 0 C4 1.98 4 3.96 4 6 C3.34 6 2.68 6 2 6 C2.65310085 8.42900598 2.65310085 8.42900598 4 11 C5.299375 11.6496875 5.299375 11.6496875 6.625 12.3125 C9 14 9 14 9.39453125 15.890625 C9.4375 18.0625 9.4375 18.0625 9 22 C7 24 7 24 4.5 24.25 C2 24 2 24 0 22 C0 21.01 0 20.02 0 19 C-0.66 19 -1.32 19 -2 19 C-1.8595017 16.2079699 -1.71284617 13.41650204 -1.5625 10.625 C-1.52318359 9.8309375 -1.48386719 9.036875 -1.44335938 8.21875 C-1.11328125 2.2265625 -1.11328125 2.2265625 0 0 Z"/>
<path transform="translate(93,220)" fill="#2D2D2D" d="M0 0 C6.6 0.6 6.6 0.6 9 3 C8.625 5.625 8.625 5.625 8 8 C5.69 7.67 3.38 7.34 1 7 C1 11.29 1 15.58 1 20 C-0.32 20.33 -1.64 20.66 -3 21 C-4.51421001 19.48578999 -4.21309856 18.07527232 -4.31640625 15.96484375 C-4.35830078 15.15595703 -4.40019531 14.34707031 -4.44335938 13.51367188 C-4.48267578 12.66353516 -4.52199219 11.81339844 -4.5625 10.9375 C-4.60568359 10.08349609 -4.64886719 9.22949219 -4.69335938 8.34960938 C-4.79976702 6.23327963 -4.90041731 4.11666187 -5 2 C-4.360625 1.855625 -3.72125 1.71125 -3.0625 1.5625 C-1.02454854 1.18992819 -1.02454854 1.18992819 0 0 Z"/>
<path transform="translate(469,212)" fill="#282828" d="M0 0 C1.65 0 3.3 0 5 0 C5 9.24 5 18.48 5 28 C3.68 28.33 2.36 28.66 1 29 C-1.73835721 26.26164279 -0.49754156 18.20754116 -0.625 14.5 C-0.6765625 13.22511719 -0.728125 11.95023438 -0.78125 10.63671875 C-0.82507813 9.42628906 -0.86890625 8.21585938 -0.9140625 6.96875 C-0.9548291 5.84919922 -0.9955957 4.72964844 -1.03759766 3.57617188 C-1 1 -1 1 0 0 Z"/>
<path transform="translate(461,212)" fill="#282828" d="M0 0 C1.65 0 3.3 0 5 0 C5 9.24 5 18.48 5 28 C3.68 28.33 2.36 28.66 1 29 C-1.73835721 26.26164279 -0.49754156 18.20754116 -0.625 14.5 C-0.6765625 13.22511719 -0.728125 11.95023438 -0.78125 10.63671875 C-0.82507813 9.42628906 -0.86890625 8.21585938 -0.9140625 6.96875 C-0.9548291 5.84919922 -0.9955957 4.72964844 -1.03759766 3.57617188 C-1 1 -1 1 0 0 Z"/>
<path transform="translate(335,226)" fill="#E6E6E6" d="M0 0 C0.90492188 0.70576172 0.90492188 0.70576172 1.828125 1.42578125 C4.13120076 3.09509696 6.33441426 4.03742737 9 5 C9 5.66 9 6.32 9 7 C8.071875 7.20625 7.14375 7.4125 6.1875 7.625 C2.73995905 8.74446192 2.73995905 8.74446192 1.125 12.125 C0.75375 13.07375 0.3825 14.0225 0 15 C-1.09651823 11.58860997 -0.94215473 8.79344419 -0.5625 5.25 C-0.46066406 4.26515625 -0.35882813 3.2803125 -0.25390625 2.265625 C-0.17011719 1.51796875 -0.08632813 0.7703125 0 0 Z"/>
<path transform="translate(221,224)" fill="#BCBCBC" d="M0 0 C0.33 0 0.66 0 1 0 C1 5.28 1 10.56 1 16 C1.99 16.33 2.98 16.66 4 17 C2.68 17.33 1.36 17.66 0 18 C0 17.34 0 16.68 0 16 C-0.66 16 -1.32 16 -2 16 C-2 11.38 -2 6.76 -2 2 C-1.34 2 -0.68 2 0 2 C0 1.34 0 0.68 0 0 Z"/>
<path transform="translate(281,212)" fill="#ECECEC" d="M0 0 C1.32 0 2.64 0 4 0 C4 1.98 4 3.96 4 6 C3.34 6 2.68 6 2 6 C1.67 6.99 1.34 7.98 1 9 C0.34870203 10.34090759 -0.31513275 11.67592331 -1 13 C-1.02696365 11.20841511 -1.04637917 9.41671527 -1.0625 7.625 C-1.07410156 6.62726563 -1.08570313 5.62953125 -1.09765625 4.6015625 C-1 2 -1 2 0 0 Z"/>
<path transform="translate(448,226)" fill="#D2D2D2" d="M0 0 C0.33 0.99 0.66 1.98 1 3 C0.34 3 -0.32 3 -1 3 C-1 3.99 -1 4.98 -1 6 C4.94 5.505 4.94 5.505 11 5 C11 5.66 11 6.32 11 7 C9.33524314 7.34274406 7.66804677 7.67364302 6 8 C4.948125 8.226875 3.89625 8.45375 2.8125 8.6875 C1.4203125 8.8421875 1.4203125 8.8421875 0 9 C-2 7 -2 7 -2.25 4.5 C-2 2 -2 2 0 0 Z"/>
<path transform="translate(112,226)" fill="#D2D2D2" d="M0 0 C0.33 0.99 0.66 1.98 1 3 C0.34 3 -0.32 3 -1 3 C-1 3.99 -1 4.98 -1 6 C4.94 5.505 4.94 5.505 11 5 C11 5.66 11 6.32 11 7 C9.33524314 7.34274406 7.66804677 7.67364302 6 8 C4.948125 8.226875 3.89625 8.45375 2.8125 8.6875 C1.4203125 8.8421875 1.4203125 8.8421875 0 9 C-2 7 -2 7 -2.25 4.5 C-2 2 -2 2 0 0 Z"/>
<path transform="translate(75,227)" fill="#D0D0D0" d="M0 0 C1 2 1 2 1 5 C4.3 4.67 7.6 4.34 11 4 C10.67 4.99 10.34 5.98 10 7 C9.01 6.67 8.02 6.34 7 6 C6.01 6.66 5.02 7.32 4 8 C1.3125 7.625 1.3125 7.625 -1 7 C-1.625 4.625 -1.625 4.625 -2 2 C-1.34 1.34 -0.68 0.68 0 0 Z"/>
<path transform="translate(374,229)" fill="#EDEDED" d="M0 0 C1.70884005 1.62339805 3.37446717 3.29319053 5 5 C5 5.66 5 6.32 5 7 C3.02 7 1.04 7 -1 7 C-1.625 4.625 -1.625 4.625 -2 2 C-1.34 1.34 -0.68 0.68 0 0 Z"/>
<path transform="translate(251,225)" fill="#DBDBDB" d="M0 0 C0.66 0.33 1.32 0.66 2 1 C1.01 3.31 0.02 5.62 -1 8 C-1.99 8 -2.98 8 -4 8 C-3.50168276 4.31245243 -2.89932357 2.39509338 0 0 Z"/>
<path transform="translate(214,225)" fill="#DBDBDB" d="M0 0 C0.66 0.33 1.32 0.66 2 1 C1.01 3.31 0.02 5.62 -1 8 C-1.99 8 -2.98 8 -4 8 C-3.50168276 4.31245243 -2.89932357 2.39509338 0 0 Z"/>
<path transform="translate(194,230)" fill="#F1F1F1" d="M0 0 C0.66 0.33 1.32 0.66 2 1 C2 2.65 2 4.3 2 6 C0.68 6.33 -0.64 6.66 -2 7 C-2.125 4.625 -2.125 4.625 -2 2 C-1.34 1.34 -0.68 0.68 0 0 Z"/>
<path transform="translate(376,216)" fill="#D3D3D3" d="M0 0 C0.99 0.33 1.98 0.66 3 1 C2.67 2.32 2.34 3.64 2 5 C1.01 5 0.02 5 -1 5 C-0.67 3.35 -0.34 1.7 0 0 Z"/>
</svg>