<svg version="1.0" preserveAspectRatio="xMidYMid meet" viewBox="48.226575000000004 68.7343483503756 258 209.99999496000004" zoomAndPan="magnify" xmlns:xlink="http://www.w3.org/1999/xlink" xmlns="http://www.w3.org/2000/svg" style="max-height: 500px" width="258" height="209.99999496000004"><defs><g/><clipPath id="c1ade14d69"><path clip-rule="nonzero" d="M 44.46875 46.371094 L 321 46.371094 L 321 325 L 44.46875 325 Z M 44.46875 46.371094"/></clipPath></defs><g clip-path="url(#c1ade14d69)"><path fill-rule="nonzero" fill-opacity="1" d="M 36.242188 40.308594 C 130.046875 40.308594 223.847656 40.308594 320.492188 40.308594 C 320.492188 134.113281 320.492188 227.914062 320.492188 324.558594 C 226.691406 324.558594 132.890625 324.558594 36.242188 324.558594 C 36.242188 230.757812 36.242188 136.953125 36.242188 40.308594 Z M 36.242188 40.308594" fill="none"/></g><path fill-rule="nonzero" fill-opacity="1" d="M 82.453125 74.664062 C 83.582031 74.65625 84.714844 74.648438 85.84375 74.636719 C 87.453125 74.617188 89.0625 74.613281 90.671875 74.609375 C 91.382812 74.597656 91.382812 74.597656 92.109375 74.589844 C 96.917969 74.605469 101.449219 75.546875 105.011719 78.941406 C 107.953125 82.285156 109.753906 86.46875 111.625 90.464844 C 112.167969 91.617188 112.714844 92.769531 113.257812 93.921875 C 113.539062 94.515625 113.816406 95.105469 114.101562 95.714844 C 114.976562 97.558594 115.855469 99.398438 116.742188 101.238281 C 117.027344 101.832031 117.3125 102.425781 117.605469 103.039062 C 118.15625 104.183594 118.710938 105.332031 119.261719 106.476562 C 119.511719 106.992188 119.757812 107.511719 120.015625 108.042969 C 120.234375 108.5 120.453125 108.957031 120.679688 109.425781 C 121.21875 110.613281 121.21875 110.613281 121.785156 112.316406 C 180.695312 112.316406 239.601562 112.316406 300.296875 112.316406 C 295.917969 126.121094 291.535156 139.914062 286.996094 153.660156 C 285.964844 156.789062 284.933594 159.914062 283.90625 163.039062 C 283.554688 164.101562 283.207031 165.164062 282.855469 166.222656 C 281.820312 169.367188 280.804688 172.515625 279.835938 175.683594 C 278.726562 179.316406 277.554688 182.925781 276.363281 186.535156 C 275.992188 187.660156 275.621094 188.785156 275.253906 189.914062 C 274.335938 192.703125 273.417969 195.488281 272.5 198.277344 C 271.71875 200.652344 270.9375 203.03125 270.15625 205.40625 C 269.792969 206.511719 269.425781 207.617188 269.0625 208.722656 C 268.84375 209.394531 268.621094 210.0625 268.394531 210.753906 C 268.199219 211.34375 268.007812 211.933594 267.808594 212.539062 C 267.410156 213.796875 267.074219 215.074219 266.753906 216.351562 C 214.601562 216.351562 162.445312 216.351562 108.710938 216.351562 C 109.066406 169.097656 109.066406 169.097656 109.257812 154.3125 C 109.265625 149.84375 109.265625 149.84375 109.261719 145.375 C 109.257812 143.421875 109.285156 141.46875 109.328125 139.515625 C 109.671875 123.679688 106.203125 112.425781 98.507812 98.621094 C 97.59375 96.960938 96.730469 95.277344 95.875 93.585938 C 95.605469 93.054688 95.335938 92.523438 95.058594 91.972656 C 94.5 90.714844 94.5 90.714844 94.5 89.578125 C 93.867188 89.59375 93.238281 89.613281 92.585938 89.628906 C 79.382812 89.984375 66.203125 90.210938 52.996094 90.144531 C 52.996094 85.269531 52.996094 80.390625 52.996094 75.363281 C 62.816406 74.976562 72.625 74.714844 82.453125 74.664062 Z M 82.453125 74.664062" fill="#ffffff"/><path fill-rule="nonzero" fill-opacity="1" d="M 228.628906 131.042969 C 229.46875 131.042969 229.46875 131.042969 230.324219 131.042969 C 244.929688 131.050781 259.539062 131.0625 274.144531 131.078125 C 273.96875 131.886719 273.792969 132.695312 273.617188 133.503906 C 273.519531 133.953125 273.421875 134.40625 273.320312 134.871094 C 272.882812 136.726562 272.28125 138.511719 271.65625 140.316406 C 270.777344 142.871094 269.941406 145.429688 269.15625 148.019531 C 267.957031 151.9375 266.6875 155.832031 265.402344 159.722656 C 265 160.941406 264.597656 162.164062 264.199219 163.382812 C 263.203125 166.414062 262.203125 169.441406 261.207031 172.46875 C 260.359375 175.039062 259.511719 177.609375 258.664062 180.183594 C 258.273438 181.371094 257.882812 182.558594 257.488281 183.746094 C 257.246094 184.492188 257 185.238281 256.753906 185.984375 C 256.4375 186.941406 256.4375 186.941406 256.117188 187.917969 C 255.085938 191.132812 254.101562 194.363281 253.109375 197.59375 C 211.648438 197.59375 170.1875 197.59375 127.472656 197.59375 C 127.472656 175.832031 127.472656 154.066406 127.472656 131.644531 C 161.195312 131.132812 194.902344 131.027344 228.628906 131.042969 Z M 228.628906 131.042969" fill="#ffffff"/><path fill-rule="nonzero" fill-opacity="1" d="M 241.550781 229.738281 C 247.027344 233.269531 250.710938 238.394531 252.113281 244.777344 C 253.238281 251.347656 252.132812 257.292969 248.632812 263.003906 C 248.035156 263.832031 248.035156 263.832031 247.425781 264.675781 C 247.039062 265.226562 246.652344 265.777344 246.253906 266.34375 C 242.375 270.867188 236.558594 273.449219 230.71875 273.929688 C 224.441406 274.097656 219.53125 272.933594 214.453125 269.222656 C 214.113281 268.984375 213.773438 268.746094 213.425781 268.5 C 209.144531 265.199219 205.679688 259.808594 204.789062 254.441406 C 204.125 246.519531 205.464844 240.617188 210.398438 234.226562 C 212.136719 232.234375 213.890625 230.777344 216.15625 229.429688 C 216.789062 229.015625 216.789062 229.015625 217.433594 228.59375 C 224.71875 224.503906 234.5625 225.695312 241.550781 229.738281 Z M 241.550781 229.738281" fill="#ffffff"/><path fill-rule="nonzero" fill-opacity="1" d="M 161.582031 230.566406 C 166.476562 234.066406 169.921875 238.871094 171.246094 244.777344 C 171.40625 246.367188 171.4375 247.941406 171.421875 249.539062 C 171.421875 249.964844 171.417969 250.394531 171.414062 250.832031 C 171.273438 257.230469 168.648438 262.621094 164.351562 267.375 C 159.613281 271.808594 152.96875 274.101562 146.523438 273.910156 C 138.679688 273.144531 133.082031 270.148438 128.039062 264.105469 C 123.839844 257.828125 123.363281 251.582031 124.058594 244.210938 C 125.335938 238.261719 129.257812 233.699219 134 230.046875 C 142.691406 224.425781 153.054688 224.722656 161.582031 230.566406 Z M 161.582031 230.566406" fill="#ffffff"/><path fill-rule="nonzero" fill-opacity="1" d="M 236.625 240.796875 C 239.023438 243.261719 240.667969 245.992188 240.886719 249.46875 C 240.753906 253.25 239.023438 256.558594 236.410156 259.238281 C 232.925781 261.3125 229.878906 262.550781 225.820312 261.832031 C 221.804688 260.300781 219.269531 257.992188 217.117188 254.300781 C 216.160156 250.46875 216.308594 246.964844 218.273438 243.5 C 219.984375 241.152344 222.550781 239.03125 225.324219 238.132812 C 229.46875 237.683594 233.152344 238.449219 236.625 240.796875 Z M 236.625 240.796875" fill="#ffffff"/><path fill-rule="nonzero" fill-opacity="1" d="M 152.625 238.902344 C 155.613281 240.433594 158.25 243.308594 159.308594 246.484375 C 159.707031 250.539062 159.527344 253.949219 157.035156 257.285156 C 154.246094 260.25 151.636719 261.824219 147.546875 262.117188 C 144.042969 262.042969 141.527344 260.589844 138.839844 258.421875 C 135.96875 255.261719 135.761719 251.898438 135.808594 247.792969 C 136.140625 244.507812 137.46875 242.71875 139.761719 240.460938 C 143.359375 237.675781 148.375 237.644531 152.625 238.902344 Z M 152.625 238.902344" fill="#ffffff"/><g fill-opacity="1" fill="#e0e0e0"><g transform="translate(146.078812, 216.731638)"><g><path d="M 95.203125 -104.296875 L 43.484375 -20.859375 L 91.78125 -20.859375 L 91.78125 0 L 2.015625 0 L 53.609375 -83.4375 L 9.359375 -83.4375 L 9.359375 -104.296875 Z M 95.203125 -104.296875"/></g></g></g><g fill-opacity="1" fill="#e0e0e0"><g transform="translate(231.419497, 216.731638)"><g/></g></g></svg>