<svg height="156.720782" viewBox="0 0 32.169999 7.9569997" width="638.07747" xmlns="http://www.w3.org/2000/svg"><path d="m0 0 4.466-8.881-9.388-8.88z" fill="#008c44" transform="matrix(.35277777 0 0 -.35277777 30.587739 .009974)"/><path d="m0 0 4.462-8.881-9.392-8.88z" fill="#f47920" transform="matrix(.35277777 0 0 -.35277777 29.48358 .009974)"/><path d="m0 0c-.343-.722-1.036-1.245-1.863-1.35h-.612-12l1.015 3.632h9.259 2.856.618c.464-.115.828-.482.934-.947.014-.105.023-.21.023-.319 0-.055-.003-.11-.008-.164-.001-.023-.001-.045-.003-.068zm-11.478 9.387h9.25 2.897.61c.35-.086.643-.314.813-.619.062-.214.097-.439.097-.671 0-.126-.012-.247-.031-.368l-.033-.116-.123-.444c-.328-.773-1.052-1.336-1.918-1.441h-.588-11.995zm13.288-13.678c.438.337.727.754.866 1.251l1.485 5.322c.136.484.076.89-.177 1.218s-.627.492-1.121.492c.494 0 .961.168 1.401.505.437.337.725.747.86 1.231l1.483 5.315c.145.517.096.943-.145 1.282-.241.338-.618.508-1.131.508h-19.37l-4.922-17.63h19.371c.494 0 .961.169 1.4.506" fill="#6d6e71" transform="matrix(.35277777 0 0 -.35277777 7.06808 4.555754)"/><path d="m0 0-1.947-7.081h-13.974l1.948 7.081h-3.474l-4.835-17.57h3.475l1.941 7.05h13.972l-1.939-7.05h3.475l4.834 17.57z" fill="#6d6e71" transform="matrix(.35277777 0 0 -.35277777 16.557589 .034104)"/><path d="m0 0h-3.498l4.864 17.566h3.497z" fill="#6d6e71" transform="matrix(.35277777 0 0 -.35277777 18.140289 6.252135)"/><path d="m0 0-14.513-12.3-5.062 8.413-2.34 3.887h-.063l-1.102-3.992-3.732-13.523h3.475l2.616 9.479 5.543-9.502 9.176 8.41-2.301-8.387h3.476l3.391 12.293 1.442 5.222z" fill="#6d6e71" transform="matrix(.35277777 0 0 -.35277777 28.43664 .049594)"/><g fill="#414042"><path d="m0 0h.171c.213 0 .371.028.473.083.101.055.168.147.199.277.034.143.016.243-.051.3-.068.058-.216.086-.442.086h-.171zm-.274-1.148h.154c.156 0 .274.005.355.017.08.012.147.032.2.063.063.034.117.081.161.138.044.058.074.121.091.192.019.083.018.155-.003.217-.022.061-.062.109-.122.143-.038.021-.083.035-.135.045-.053.009-.123.014-.214.014h-.135-.154zm-.524-.354.622 2.6h.695c.197 0 .341-.01.431-.031.09-.019.162-.053.218-.099.071-.059.119-.137.143-.233.024-.095.022-.202-.005-.317-.035-.139-.095-.255-.185-.348-.091-.092-.204-.157-.342-.194.155-.023.265-.093.329-.207.065-.114.077-.258.035-.432-.025-.105-.069-.206-.13-.299-.062-.096-.136-.176-.224-.243-.092-.072-.197-.123-.316-.153-.119-.029-.31-.044-.573-.044z" transform="matrix(.35277777 0 0 -.35277777 .287798 7.385575)"/><path d="m0 0 .622 2.6h.447l-.229-.959h1.353l.23.959h.448l-.622-2.6h-.448l.303 1.263h-1.355l-.302-1.263z" transform="matrix(.35277777 0 0 -.35277777 1.199688 7.915445)"/><path d="m0 0h.768l-.14.593c-.008.038-.014.081-.02.131-.005.048-.01.103-.013.164-.03-.057-.057-.111-.086-.159-.029-.049-.057-.095-.084-.136zm.993-1.021-.151.669h-1.091l-.48-.669h-.47l1.98 2.702.685-2.702z" transform="matrix(.35277777 0 0 -.35277777 2.917079 7.555085)"/><path d="m0 0h.081c.237 0 .4.025.491.077.09.053.151.146.183.277.034.144.016.245-.053.303-.069.059-.217.088-.442.088h-.081zm-.106-.329-.279-1.163h-.419l.622 2.599h.624c.183 0 .323-.011.418-.033.096-.022.173-.06.232-.112.07-.063.117-.145.139-.243.023-.1.02-.208-.008-.327-.05-.208-.143-.371-.278-.49-.134-.117-.308-.188-.522-.212l.665-1.182h-.506l-.638 1.163z" transform="matrix(.35277777 0 0 -.35277777 4.219679 7.389025)"/><path d="m0 0h.768l-.14.593c-.008.038-.015.081-.02.131-.005.048-.01.103-.013.164-.03-.057-.058-.111-.086-.159-.03-.049-.058-.095-.084-.136zm.993-1.021-.151.669h-1.091l-.48-.669h-.47l1.98 2.702.684-2.702z" transform="matrix(.35277777 0 0 -.35277777 5.398239 7.555085)"/><path d="m0 0-.537-2.241h-.447l.536 2.241h-.732l.086.358h1.907l-.085-.358z" transform="matrix(.35277777 0 0 -.35277777 6.845859 7.124785)"/><path d="m0 0 .622 2.6h.447l-.622-2.6z" transform="matrix(.35277777 0 0 -.35277777 8.267309 7.915445)"/><path d="m0 0 .646 2.702 1.369-1.589c.037-.045.074-.092.11-.143.037-.051.074-.109.113-.172l.431 1.802h.414l-.646-2.701-1.397 1.618c-.038.044-.072.089-.105.138-.034.049-.064.1-.091.153l-.433-1.808z" transform="matrix(.35277777 0 0 -.35277777 9.062437 7.915445)"/><path d="m0 0-.536-2.241h-.447l.536 2.241h-.732l.086.358h1.906l-.084-.358z" transform="matrix(.35277777 0 0 -.35277777 11.066818 7.124785)"/><path d="m0 0 .622 2.6h1.536l-.086-.359h-1.089l-.156-.652h1.089l-.089-.371h-1.089l-.201-.84h1.089l-.09-.378z" transform="matrix(.35277777 0 0 -.35277777 11.665549 7.915445)"/><path d="m0 0h.081c.237 0 .4.025.491.077.09.053.151.146.183.277.034.144.016.245-.053.303-.069.059-.217.088-.442.088h-.081zm-.106-.329-.279-1.163h-.419l.622 2.599h.624c.183 0 .323-.011.418-.033.096-.022.173-.06.232-.112.07-.063.117-.145.139-.243.023-.1.02-.208-.008-.327-.05-.208-.143-.371-.278-.49-.134-.117-.308-.188-.522-.212l.665-1.182h-.506l-.638 1.163z" transform="matrix(.35277777 0 0 -.35277777 13.082519 7.389025)"/><path d="m0 0 .622 2.6h1.536l-.086-.359h-1.089l-.154-.648h1.089l-.089-.371h-1.089l-.293-1.222z" transform="matrix(.35277777 0 0 -.35277777 13.969998 7.915445)"/><path d="m0 0h.767l-.14.593c-.008.038-.014.081-.02.131-.005.048-.01.103-.013.164-.029-.057-.057-.111-.086-.159-.029-.049-.057-.095-.084-.136zm.993-1.021-.152.669h-1.091l-.479-.669h-.471l1.98 2.702.685-2.702z" transform="matrix(.35277777 0 0 -.35277777 15.336309 7.555085)"/><path d="m0 0c-.103.102-.218.178-.347.229-.129.05-.27.077-.425.077-.301 0-.569-.092-.801-.275-.232-.181-.383-.418-.452-.708-.068-.28-.031-.511.109-.694s.35-.274.63-.274c.162 0 .324.028.484.083.16.054.322.136.484.247l-.115-.479c-.14-.081-.286-.143-.437-.183s-.31-.06-.475-.06c-.211 0-.397.033-.56.098s-.297.161-.403.288c-.104.124-.171.27-.204.439-.031.168-.024.349.021.539.046.191.125.369.237.537.112.167.252.315.419.442s.347.223.539.29c.192.065.392.098.598.098.161 0 .31-.022.446-.067.136-.044.262-.111.379-.201z" transform="matrix(.35277777 0 0 -.35277777 17.276589 7.221245)"/><path d="m0 0 .622 2.6h1.536l-.086-.359h-1.089l-.155-.652h1.089l-.089-.371h-1.089l-.201-.84h1.089l-.091-.378z" transform="matrix(.35277777 0 0 -.35277777 17.716538 7.915445)"/><path d="m0 0 .622 2.6h1.536l-.086-.359h-1.089l-.155-.648h1.089l-.089-.371h-1.089l-.292-1.222z" transform="matrix(.35277777 0 0 -.35277777 19.670248 7.915445)"/><path d="m0 0c.032.131.036.256.014.374-.023.118-.07.224-.143.316-.071.091-.162.162-.272.21-.111.049-.234.075-.37.075-.134 0-.269-.025-.403-.074-.134-.048-.26-.118-.377-.211-.117-.09-.215-.196-.294-.314-.078-.118-.133-.244-.165-.376-.031-.132-.036-.256-.013-.373.022-.117.069-.222.142-.314s.165-.164.275-.211c.11-.049.233-.074.37-.074.134 0 .267.025.4.074.133.047.258.119.377.211.117.092.216.197.294.315.079.117.135.241.165.372m.467 0c-.044-.185-.122-.359-.236-.524-.112-.164-.254-.311-.425-.44-.173-.13-.357-.228-.551-.297-.194-.068-.39-.103-.585-.103-.198 0-.379.035-.542.104-.163.07-.299.168-.406.296-.11.129-.181.275-.215.438-.033.164-.028.339.017.526.044.186.122.36.235.525.112.165.254.312.426.443.17.129.353.226.547.294.195.068.391.101.59.101s.378-.033.54-.101c.161-.068.296-.165.406-.294.109-.132.18-.281.214-.446s.029-.338-.015-.522" transform="matrix(.35277777 0 0 -.35277777 21.73386 7.458635)"/><path d="m0 0h.081c.236 0 .4.025.49.077.09.053.152.146.183.277.034.144.017.245-.053.303-.069.059-.217.088-.442.088h-.081zm-.107-.329-.279-1.163h-.419l.622 2.599h.624c.183 0 .323-.011.418-.033.096-.022.173-.06.233-.112.069-.063.116-.145.138-.243.023-.1.02-.208-.008-.327-.05-.208-.143-.371-.277-.49-.134-.117-.309-.188-.523-.212l.665-1.182h-.506l-.638 1.163z" transform="matrix(.35277777 0 0 -.35277777 22.664699 7.389025)"/><path d="m0 0c0 .02.005.075.016.167.007.075.014.138.018.188-.025-.059-.055-.119-.09-.177-.035-.06-.075-.12-.122-.182l-1.051-1.385-.382 1.413c-.017.059-.029.115-.037.169-.009.055-.016.109-.02.162-.014-.054-.032-.112-.055-.171-.022-.06-.049-.122-.081-.188l-.601-1.28h-.412l1.298 2.71.42-1.641c.006-.026.015-.069.027-.13.01-.06.024-.134.039-.223.045.074.108.169.192.284.023.03.039.054.051.071l1.186 1.639.017-2.71h-.415z" transform="matrix(.35277777 0 0 -.35277777 25.272649 7.462405)"/><path d="m0 0c.031.131.036.256.014.374-.023.118-.071.224-.144.316-.071.091-.162.162-.272.21-.111.049-.234.075-.369.075s-.27-.025-.404-.074c-.134-.048-.26-.118-.377-.211-.117-.09-.215-.196-.293-.314-.079-.118-.134-.244-.166-.376-.031-.132-.036-.256-.013-.373.022-.117.069-.222.143-.314.072-.092.164-.164.275-.211.109-.049.233-.074.37-.074.133 0 .266.025.399.074.133.047.258.119.377.211.117.092.216.197.295.315.079.117.134.241.165.372m.466 0c-.044-.185-.122-.359-.236-.524-.112-.164-.253-.311-.425-.44-.172-.13-.356-.228-.551-.297-.194-.068-.389-.103-.585-.103-.198 0-.379.035-.542.104-.163.07-.299.168-.405.296-.111.129-.182.275-.215.438-.034.164-.028.339.016.526.044.186.123.36.235.525s.254.312.426.443c.17.129.354.226.548.294s.391.101.59.101.378-.033.539-.101c.161-.068.297-.165.407-.294.108-.132.179-.281.213-.446.035-.165.029-.338-.015-.522" transform="matrix(.35277777 0 0 -.35277777 26.895278 7.458635)"/><path d="m0 0 .646 2.702 1.37-1.589c.036-.045.073-.092.11-.143.036-.051.074-.109.112-.172l.432 1.802h.413l-.645-2.701-1.398 1.618c-.038.044-.072.089-.105.138-.034.049-.063.1-.091.153l-.433-1.808z" transform="matrix(.35277777 0 0 -.35277777 27.54193 7.915445)"/><path d="m0 0 .622 2.6h1.536l-.086-.359h-1.089l-.156-.652h1.089l-.089-.371h-1.089l-.201-.84h1.089l-.09-.378z" transform="matrix(.35277777 0 0 -.35277777 29.043668 7.915445)"/><path d="m0 0 .285 1.19-.59 1.41h.47l.366-.882c.008-.024.019-.053.031-.089.011-.037.023-.077.035-.119.026.041.054.08.083.117.028.036.056.069.085.102l.801.871h.448l-1.285-1.41-.286-1.19z" transform="matrix(.35277777 0 0 -.35277777 30.385878 7.915445)"/></g></svg>