<svg id="Layer_1" data-name="Layer 1" xmlns="http://www.w3.org/2000/svg" viewBox="0 0 122.88 92.92"><defs><style>.cls-1{fill:#2172b9;}</style></defs><title>mobikwik</title><path class="cls-1" d="M118.89,37a4.61,4.61,0,1,0-4.61,4.62A4.6,4.6,0,0,0,118.89,37ZM97.28,10.18l-7,70.42c1.57.19,4,0,4.43-2.48.67-3.78,6.45-62.74,6.45-62.74s1.06-2.78-3.93-5.2Zm16.17,36.57s-4,1.17-9.2,2.06L101,80.12s-.44,6.67-5.34,6.67H89.72l-.07.68s-.74,4.59-4.74,5.19-81.43,0-81.43,0S.21,92.06.07,89s0-66.15,0-66.15A6.62,6.62,0,0,1,5.7,18.2c1.78-.23,15.2-2.44,31-5.07l5.28-10A6,6,0,0,1,52.3,2.84,5.77,5.77,0,0,0,48.54,1h-.15l-.31,0H48a5.87,5.87,0,0,0-5.2,3.12L3.9,78a5.87,5.87,0,0,0,10.38,5.47l28-53.18V74.21A5.81,5.81,0,0,0,48.08,80c3.61,0,6-4.51,6.2-4.92l15.4-29.71v25.7a5.79,5.79,0,0,0,11.58,0V21.56A5.78,5.78,0,0,0,70.1,19.42l-.09.14L54.9,48.73l-3.71,7.8,2.68-9.69V10.26C73.8,6.93,92.32,3.81,92.32,3.81s4.9-1.19,5.2,4L97.3,10c1.68-.36,9.6-1.73,10.14,5l-1.11,16s1.36,1,7.27-1.32c0,0,8.31-3.3,9.2,4.94,0,0,1.61,8.44-9.35,12.18Zm3.4-9.72a2.57,2.57,0,1,1-2.57-2.57A2.57,2.57,0,0,1,116.85,37Z"/></svg>